<?xml version="1.0" standalone="no"?>
<!DOCTYPE svg PUBLIC "-//W3C//DTD SVG 20010904//EN"
 "http://www.w3.org/TR/2001/REC-SVG-20010904/DTD/svg10.dtd">
<svg version="1.0" xmlns="http://www.w3.org/2000/svg"
 width="78.000000pt" height="78.000000pt" viewBox="0 0 78.000000 78.000000"
 preserveAspectRatio="xMidYMid meet">
<metadata>
Created by potrace 1.13, written by Peter Selinger 2001-2015
</metadata>
<g transform="translate(0.000000,78.000000) scale(0.100000,-0.100000)"
fill="#000000" stroke="none">
<path d="M70 715 c0 -14 6 -28 13 -31 8 -3 25 -19 38 -37 23 -31 24 -39 29
-247 l5 -215 25 0 25 0 5 192 c5 173 7 194 26 219 11 15 28 32 37 38 36 23 42
-5 47 -232 l5 -217 25 0 25 0 5 190 c4 165 8 194 24 218 10 15 28 33 39 39 41
22 47 -8 47 -239 l0 -213 -49 -25 c-60 -30 -69 -42 -47 -63 15 -15 20 -14 72
11 l56 28 39 -36 c44 -39 51 -41 69 -20 14 17 7 31 -32 63 l-28 24 34 39 c66
73 87 134 106 308 12 113 -7 160 -70 176 -18 4 -36 -1 -64 -20 l-38 -26 -19
25 c-34 43 -99 40 -138 -8 -12 -14 -15 -13 -32 8 -35 44 -83 42 -136 -7 -13
-11 -23 -16 -23 -11 0 6 -16 29 -36 52 -43 50 -84 58 -84 17z m581 -107 c18
-33 5 -182 -21 -248 -26 -65 -58 -120 -71 -120 -5 0 -9 66 -9 151 0 136 2 155
21 185 19 31 44 53 61 54 4 0 13 -10 19 -22z"/>
</g>
</svg>
