<?xml version="1.0" standalone="no"?>
<!DOCTYPE svg PUBLIC "-//W3C//DTD SVG 20010904//EN"
 "http://www.w3.org/TR/2001/REC-SVG-20010904/DTD/svg10.dtd">
<svg version="1.0" xmlns="http://www.w3.org/2000/svg"
 width="305.000000pt" height="315.000000pt" viewBox="0 0 305.000000 315.000000"
 preserveAspectRatio="xMidYMid meet">
<metadata>
Created by potrace 1.13, written by Peter Selinger 2001-2015
</metadata>
<g transform="translate(0.000000,315.000000) scale(0.100000,-0.100000)"
fill="#000000" stroke="none">
<path d="M1030 3126 c-219 -28 -337 -60 -382 -103 -48 -46 -41 -64 94 -240 80
-104 115 -137 161 -148 45 -12 167 15 299 67 215 83 427 112 551 75 105 -32
143 -122 135 -315 -5 -101 -6 -106 -57 -206 -133 -263 -269 -411 -360 -391
-51 11 -114 61 -188 148 -80 94 -132 127 -204 127 -118 0 -233 -74 -250 -160
-9 -50 -4 -158 13 -235 45 -209 224 -334 478 -335 l85 0 52 -45 c39 -35 70
-79 134 -192 45 -82 138 -236 207 -343 69 -107 169 -269 223 -360 121 -206
165 -257 239 -276 62 -16 155 -6 197 21 46 30 49 57 18 135 -33 82 -108 211
-167 287 -22 29 -127 147 -232 261 -269 292 -336 379 -400 524 l-25 57 52 44
c29 24 117 97 197 161 80 65 164 141 188 170 52 63 96 150 117 234 23 88 23
279 2 362 -61 233 -297 528 -500 623 -28 14 -86 33 -127 42 -103 22 -411 29
-550 11z"/>
</g>
</svg>
