<?xml version="1.0" standalone="no"?>
<!DOCTYPE svg PUBLIC "-//W3C//DTD SVG 20010904//EN"
 "http://www.w3.org/TR/2001/REC-SVG-20010904/DTD/svg10.dtd">
<svg version="1.0" xmlns="http://www.w3.org/2000/svg"
 width="305.000000pt" height="315.000000pt" viewBox="0 0 305.000000 315.000000"
 preserveAspectRatio="xMidYMid meet">
<metadata>
Created by potrace 1.13, written by Peter Selinger 2001-2015
</metadata>
<g transform="translate(0.000000,315.000000) scale(0.100000,-0.100000)"
fill="#000000" stroke="none">
<path d="M960 3131 c-57 -9 -101 -32 -157 -84 -60 -55 -118 -142 -150 -225
-23 -57 -27 -83 -27 -172 0 -88 5 -118 28 -185 67 -198 235 -417 414 -542 41
-28 116 -88 168 -134 l94 -82 -52 -35 c-267 -179 -334 -500 -166 -786 48 -82
160 -202 244 -262 123 -88 273 -140 374 -131 124 11 276 84 370 177 92 91 126
191 117 340 -11 190 -129 382 -324 527 -40 30 -73 58 -73 62 0 17 36 49 220
201 240 197 294 256 359 388 39 77 55 157 55 277 1 115 -13 181 -59 281 -46
101 -107 187 -196 276 -86 86 -132 118 -170 118 -42 0 -61 -22 -66 -77 -7 -70
15 -112 78 -149 56 -32 107 -103 135 -187 22 -65 15 -183 -15 -260 -53 -134
-194 -299 -391 -456 -103 -82 -273 -201 -287 -201 -15 0 -129 74 -209 136
-263 204 -369 449 -273 635 34 67 66 103 162 180 90 74 91 75 87 153 -3 58
-16 86 -68 139 -78 81 -115 94 -222 78z m776 -1687 c194 -129 198 -355 10
-560 -81 -89 -124 -108 -211 -99 -162 19 -212 84 -202 264 4 88 9 107 38 162
62 115 252 291 297 274 8 -3 38 -21 68 -41z"/>
</g>
</svg>
