<?xml version="1.0" standalone="no"?>
<!DOCTYPE svg PUBLIC "-//W3C//DTD SVG 20010904//EN"
 "http://www.w3.org/TR/2001/REC-SVG-20010904/DTD/svg10.dtd">
<svg version="1.0" xmlns="http://www.w3.org/2000/svg"
 width="305.000000pt" height="315.000000pt" viewBox="0 0 305.000000 315.000000"
 preserveAspectRatio="xMidYMid meet">
<metadata>
Created by potrace 1.13, written by Peter Selinger 2001-2015
</metadata>
<g transform="translate(0.000000,315.000000) scale(0.100000,-0.100000)"
fill="#000000" stroke="none">
<path d="M661 3117 c-20 -25 -24 -73 -8 -98 19 -29 63 -166 77 -238 10 -53 -4
-189 -32 -309 -16 -68 2 -214 37 -308 105 -278 477 -534 817 -561 83 -6 207 9
265 33 44 19 70 10 87 -29 8 -18 87 -200 176 -406 141 -327 165 -391 191 -505
40 -178 65 -250 100 -287 27 -29 33 -31 80 -27 57 6 95 30 124 79 17 29 20 52
20 159 0 163 -16 210 -143 417 -140 228 -145 236 -268 482 -62 123 -110 230
-107 238 3 7 20 20 38 27 42 18 109 101 149 186 29 60 31 73 31 170 0 101 -2
108 -37 183 -46 95 -120 172 -208 217 -51 26 -71 31 -102 26 -102 -17 -192
-88 -227 -180 -17 -46 -21 -79 -21 -171 0 -188 -39 -259 -163 -297 -98 -29
-248 -23 -328 14 -97 45 -129 107 -129 255 0 114 18 204 76 386 65 203 59 254
-40 345 -57 51 -287 183 -351 201 -54 15 -90 14 -104 -2z"/>
</g>
</svg>
