<?xml version="1.0" standalone="no"?>
<!DOCTYPE svg PUBLIC "-//W3C//DTD SVG 20010904//EN"
 "http://www.w3.org/TR/2001/REC-SVG-20010904/DTD/svg10.dtd">
<svg version="1.0" xmlns="http://www.w3.org/2000/svg"
 width="305.000000pt" height="315.000000pt" viewBox="0 0 305.000000 315.000000"
 preserveAspectRatio="xMidYMid meet">
<metadata>
Created by potrace 1.13, written by Peter Selinger 2001-2015
</metadata>
<g transform="translate(0.000000,315.000000) scale(0.100000,-0.100000)"
fill="#000000" stroke="none">
<path d="M1075 3135 c-239 -44 -409 -193 -431 -377 -12 -104 51 -248 191 -434
30 -41 55 -77 55 -82 0 -4 -16 -24 -36 -43 -19 -18 -55 -63 -80 -99 -139 -204
-120 -413 60 -636 83 -103 227 -240 299 -282 62 -38 170 -61 280 -62 l68 0 49
-102 c26 -57 89 -213 140 -348 51 -135 105 -273 121 -307 35 -74 113 -149 166
-159 47 -9 110 11 146 47 27 28 29 34 24 82 -6 44 -35 99 -212 392 -131 217
-208 354 -212 378 -7 45 7 64 81 106 103 58 148 127 148 226 -1 109 -71 237
-165 301 -37 26 -51 29 -117 29 -171 -1 -250 -66 -250 -208 0 -62 -11 -82 -63
-109 -34 -18 -58 -23 -122 -22 -191 0 -262 71 -253 249 7 138 107 272 256 343
l77 37 155 1 c189 1 176 0 200 24 29 29 25 74 -14 138 -18 32 -44 77 -57 101
-13 24 -36 53 -51 64 -26 20 -30 20 -170 4 -79 -9 -184 -28 -233 -42 l-90 -27
-31 36 c-63 72 -70 191 -18 287 35 63 84 103 176 141 68 29 78 30 168 25 74
-4 118 -13 200 -41 202 -71 249 -73 268 -17 16 47 -63 274 -112 323 -28 29
-111 46 -294 63 -201 18 -223 18 -317 0z"/>
</g>
</svg>
