<?xml version="1.0" standalone="no"?>
<!DOCTYPE svg PUBLIC "-//W3C//DTD SVG 20010904//EN"
 "http://www.w3.org/TR/2001/REC-SVG-20010904/DTD/svg10.dtd">
<svg version="1.0" xmlns="http://www.w3.org/2000/svg"
 width="305.000000pt" height="315.000000pt" viewBox="0 0 305.000000 315.000000"
 preserveAspectRatio="xMidYMid meet">
<metadata>
Created by potrace 1.13, written by Peter Selinger 2001-2015
</metadata>
<g transform="translate(0.000000,315.000000) scale(0.100000,-0.100000)"
fill="#000000" stroke="none">
<path d="M687 2899 c-23 -13 -43 -54 -50 -104 -8 -48 45 -303 108 -520 169
-581 405 -940 720 -1094 144 -71 210 -86 385 -85 129 0 154 3 225 27 114 38
197 90 279 178 122 131 199 294 232 497 12 75 15 142 11 292 -4 177 -7 202
-31 274 -72 214 -281 416 -516 498 -122 43 -331 31 -455 -26 -154 -70 -234
-225 -222 -429 4 -71 10 -99 35 -150 57 -114 186 -217 367 -292 107 -44 213
-65 334 -65 55 0 112 -5 127 -10 24 -9 26 -14 21 -47 -19 -115 -127 -247 -251
-308 -108 -54 -208 -71 -325 -56 -266 33 -472 206 -627 526 -99 204 -180 475
-209 696 -16 123 -32 161 -78 189 -36 22 -54 24 -80 9z m1462 -282 c32 -15 53
-36 82 -80 70 -107 93 -227 75 -382 -14 -122 -10 -115 -75 -115 -63 0 -191 29
-241 55 -43 22 -108 83 -135 125 -27 43 -51 119 -59 185 -7 63 23 132 83 190
34 33 50 40 94 45 72 8 125 1 176 -23z"/>
</g>
</svg>
