<?xml version="1.0" standalone="no"?>
<!DOCTYPE svg PUBLIC "-//W3C//DTD SVG 20010904//EN"
 "http://www.w3.org/TR/2001/REC-SVG-20010904/DTD/svg10.dtd">
<svg version="1.0" xmlns="http://www.w3.org/2000/svg"
 width="305.000000pt" height="315.000000pt" viewBox="0 0 305.000000 315.000000"
 preserveAspectRatio="xMidYMid meet">
<metadata>
Created by potrace 1.13, written by Peter Selinger 2001-2015
</metadata>
<g transform="translate(0.000000,315.000000) scale(0.100000,-0.100000)"
fill="#000000" stroke="none">
<path d="M1935 2976 c-31 -15 -173 -131 -371 -302 -177 -154 -438 -373 -580
-489 -278 -225 -323 -267 -349 -322 -16 -33 -16 -40 5 -132 43 -190 141 -346
294 -467 108 -86 309 -186 441 -220 89 -23 114 -25 230 -21 191 7 323 48 468
144 115 77 217 225 202 294 -4 18 -27 51 -50 75 -52 51 -140 83 -256 91 -111
8 -149 -11 -230 -118 -88 -117 -137 -167 -181 -190 -41 -21 -188 -59 -227 -59
-40 0 -184 75 -230 120 -59 58 -81 109 -81 195 0 83 34 167 102 247 23 28 177
161 342 296 689 564 796 656 822 703 12 24 11 30 -8 54 -29 37 -211 125 -257
125 -20 0 -58 -11 -86 -24z"/>
</g>
</svg>
