<?xml version="1.0" standalone="no"?>
<!DOCTYPE svg PUBLIC "-//W3C//DTD SVG 20010904//EN"
 "http://www.w3.org/TR/2001/REC-SVG-20010904/DTD/svg10.dtd">
<svg version="1.0" xmlns="http://www.w3.org/2000/svg"
 width="305.000000pt" height="315.000000pt" viewBox="0 0 305.000000 315.000000"
 preserveAspectRatio="xMidYMid meet">
<metadata>
Created by potrace 1.13, written by Peter Selinger 2001-2015
</metadata>
<g transform="translate(0.000000,315.000000) scale(0.100000,-0.100000)"
fill="#000000" stroke="none">
<path d="M1025 3101 c-188 -54 -323 -189 -372 -372 -22 -84 -21 -243 1 -329
21 -84 73 -191 123 -258 52 -69 169 -170 618 -536 411 -334 518 -433 558 -516
58 -119 46 -205 -39 -286 -51 -50 -54 -55 -54 -103 0 -49 2 -52 75 -126 78
-79 155 -125 210 -125 81 0 147 46 181 125 10 24 19 78 22 135 5 108 -11 187
-57 285 -64 136 -122 192 -703 678 -170 142 -308 259 -308 262 0 11 137 44
205 49 232 15 354 111 426 334 28 86 30 106 25 177 -3 44 -15 108 -27 143 -61
178 -266 383 -444 442 -120 40 -339 50 -440 21z m428 -212 c65 -18 105 -64
128 -144 51 -186 -1 -386 -137 -521 -75 -75 -150 -113 -250 -127 l-76 -11 -38
41 c-49 52 -71 121 -77 240 -10 170 47 334 149 429 100 94 193 123 301 93z"/>
</g>
</svg>
