<?xml version="1.0" standalone="no"?>
<!DOCTYPE svg PUBLIC "-//W3C//DTD SVG 20010904//EN"
 "http://www.w3.org/TR/2001/REC-SVG-20010904/DTD/svg10.dtd">
<svg version="1.0" xmlns="http://www.w3.org/2000/svg"
 width="305.000000pt" height="315.000000pt" viewBox="0 0 305.000000 315.000000"
 preserveAspectRatio="xMidYMid meet">
<metadata>
Created by potrace 1.13, written by Peter Selinger 2001-2015
</metadata>
<g transform="translate(0.000000,315.000000) scale(0.100000,-0.100000)"
fill="#000000" stroke="none">
<path d="M641 3130 c-140 -30 -262 -130 -330 -272 -46 -98 -59 -147 -67 -259
-4 -61 -2 -103 10 -152 36 -153 86 -215 311 -384 99 -75 184 -139 189 -144 12
-10 -53 -78 -266 -276 -104 -96 -191 -185 -194 -197 -12 -51 68 -175 287 -443
80 -98 169 -210 197 -248 57 -78 122 -198 122 -223 0 -12 -23 -25 -73 -44 -95
-36 -122 -64 -121 -126 1 -65 22 -93 123 -158 47 -31 102 -69 122 -85 96 -75
228 -111 332 -89 109 22 137 76 106 200 -36 139 -131 277 -356 515 -289 307
-321 345 -339 397 -20 60 -15 137 11 191 12 25 77 91 189 191 202 180 367 351
425 436 72 109 118 295 107 436 -23 310 -241 626 -491 715 -68 24 -222 34
-294 19z m400 -325 c26 -17 48 -46 73 -96 31 -61 36 -82 36 -138 0 -37 -7 -94
-15 -126 -31 -120 -150 -334 -219 -392 -58 -48 -129 -14 -212 104 -91 130 -99
153 -99 283 0 136 9 161 94 252 130 141 244 178 342 113z"/>
<path d="M1895 2581 c-105 -26 -182 -68 -261 -143 -110 -104 -159 -214 -170
-378 -11 -157 33 -330 118 -463 233 -361 684 -515 1025 -351 58 27 96 56 158
118 101 100 149 188 171 319 14 80 14 98 -1 190 -55 348 -378 659 -745 717
-95 15 -215 11 -295 -9z m535 -297 c113 -62 163 -124 176 -221 9 -69 -14 -150
-81 -283 -61 -122 -108 -180 -201 -246 -96 -68 -146 -87 -239 -88 -70 -1 -86
2 -127 27 -90 53 -137 153 -138 294 0 51 5 116 11 145 16 76 62 168 113 224
50 57 179 136 275 171 82 29 122 25 211 -23z"/>
</g>
</svg>
