<?xml version="1.0" standalone="no"?>
<!DOCTYPE svg PUBLIC "-//W3C//DTD SVG 20010904//EN"
 "http://www.w3.org/TR/2001/REC-SVG-20010904/DTD/svg10.dtd">
<svg version="1.0" xmlns="http://www.w3.org/2000/svg"
 width="305.000000pt" height="315.000000pt" viewBox="0 0 305.000000 315.000000"
 preserveAspectRatio="xMidYMid meet">
<metadata>
Created by potrace 1.13, written by Peter Selinger 2001-2015
</metadata>
<g transform="translate(0.000000,315.000000) scale(0.100000,-0.100000)"
fill="#000000" stroke="none">
<path d="M591 3130 c-140 -30 -262 -130 -330 -272 -46 -98 -59 -147 -67 -259
-4 -61 -2 -103 10 -152 36 -153 86 -215 311 -384 99 -75 184 -139 189 -144 12
-10 -53 -78 -266 -276 -104 -96 -191 -185 -194 -197 -12 -51 68 -175 287 -443
80 -98 169 -210 197 -248 57 -78 122 -198 122 -223 0 -12 -23 -25 -73 -44 -95
-36 -122 -64 -121 -126 1 -65 22 -93 123 -158 47 -31 102 -69 122 -85 96 -75
228 -111 332 -89 109 22 137 76 106 200 -36 139 -131 277 -356 515 -289 307
-321 345 -339 397 -20 60 -15 137 11 191 12 25 77 91 189 191 202 180 367 351
425 436 72 109 118 295 107 436 -23 310 -241 626 -491 715 -68 24 -222 34
-294 19z m400 -325 c26 -17 48 -46 73 -96 31 -61 36 -82 36 -138 0 -37 -7 -94
-15 -126 -31 -120 -150 -334 -219 -392 -58 -48 -129 -14 -212 104 -91 130 -99
153 -99 283 0 136 9 161 94 252 130 141 244 178 342 113z"/>
<path d="M1580 3121 c-170 -18 -238 -62 -210 -136 17 -44 140 -246 169 -278
65 -71 146 -75 372 -18 261 66 453 66 582 0 73 -38 105 -178 74 -326 -19 -89
-43 -137 -127 -255 -136 -192 -266 -298 -345 -284 -47 9 -116 75 -183 176 -86
127 -152 162 -271 142 -81 -14 -148 -54 -175 -107 -17 -33 -20 -58 -20 -170
-1 -109 3 -139 21 -187 31 -84 79 -144 153 -192 87 -58 169 -87 263 -93 l78
-6 52 -57 c43 -47 62 -82 111 -201 33 -79 90 -207 128 -283 88 -176 237 -492
284 -602 60 -140 138 -192 270 -181 68 5 111 28 120 62 8 32 -57 221 -112 325
-25 47 -131 202 -235 345 -213 290 -257 360 -310 490 -62 152 -80 121 166 280
249 159 324 229 381 349 68 146 86 349 45 501 -47 172 -171 375 -307 505 -112
106 -217 151 -439 185 -116 18 -425 27 -535 16z"/>
</g>
</svg>
