<?xml version="1.0" encoding="UTF-8" standalone="no"?>
<svg
   xmlns:dc="http://purl.org/dc/elements/1.1/"
   xmlns:cc="http://creativecommons.org/ns#"
   xmlns:rdf="http://www.w3.org/1999/02/22-rdf-syntax-ns#"
   xmlns:svg="http://www.w3.org/2000/svg"
   xmlns="http://www.w3.org/2000/svg"
   xmlns:sodipodi="http://sodipodi.sourceforge.net/DTD/sodipodi-0.dtd"
   xmlns:inkscape="http://www.inkscape.org/namespaces/inkscape"
   version="1.0"
   width="87.000000pt"
   height="76.000000pt"
   viewBox="0 0 87.000000 76.000000"
   preserveAspectRatio="xMidYMid meet"
   id="svg8070"
   inkscape:version="0.91 r13725"
   sodipodi:docname="01.svg">
  <defs
     id="defs8080" />
  <sodipodi:namedview
     pagecolor="#ffffff"
     bordercolor="#666666"
     borderopacity="1"
     objecttolerance="10"
     gridtolerance="10"
     guidetolerance="10"
     inkscape:pageopacity="0"
     inkscape:pageshadow="2"
     inkscape:window-width="1879"
     inkscape:window-height="1056"
     id="namedview8078"
     showgrid="false"
     inkscape:zoom="9.1411184"
     inkscape:cx="54.375"
     inkscape:cy="47.5"
     inkscape:window-x="41"
     inkscape:window-y="24"
     inkscape:window-maximized="1"
     inkscape:current-layer="svg8070" />
  <metadata
     id="metadata8072">
Created by potrace 1.13, written by Peter Selinger 2001-2015
<rdf:RDF>
  <cc:Work
     rdf:about="">
    <dc:format>image/svg+xml</dc:format>
    <dc:type
       rdf:resource="http://purl.org/dc/dcmitype/StillImage" />
  </cc:Work>
</rdf:RDF>
</metadata>
  <path
     style="fill:#000000;stroke:none"
     inkscape:connector-curvature="0"
     id="path8076"
     d="m 56,8.1 c -3.5,0.6 -5.3,1.8 -8.2,5 L 44,17.2 41.4,14.1 C 37.7,9.7 33.9,8 27.7,8 15.7,8 7.9,19.9 12.1,31.9 12.7,33.6 13.4,35 13.7,35 14,35 16,34 18.1,32.8 21,31.2 21.9,30.2 21.4,29 21,28.2 20.5,25.6 20.2,23.3 19.6,17.6 23,14 29.1,14 c 3.4,0 4.7,0.6 7.3,3.4 1.9,1.9 3.6,5.1 4.2,7.7 1.1,4.8 0,30.8 -1.5,37.2 l -0.9,3.7 5.8,0 5.8,0 -1,-3.7 c -0.6,-2.1 -1.1,-12.4 -1.2,-23 l -0.1,-19.2 3.4,-3.4 c 7.9,-8.2 19.6,-3.6 17.6,6.9 -0.3,1.8 -1.2,3.8 -2.1,4.5 -1.3,1.1 -0.8,1.6 3.6,4.2 2.8,1.6 5.4,2.7 5.7,2.3 0.4,-0.3 0.8,-3.1 1.1,-6.1 0.5,-6.4 -1.6,-13 -5.2,-16.4 C 68.2,8.9 61.4,7.2 56,8.1 Z" />
</svg>
