<?xml version="1.0" standalone="no"?>
<!DOCTYPE svg PUBLIC "-//W3C//DTD SVG 20010904//EN"
 "http://www.w3.org/TR/2001/REC-SVG-20010904/DTD/svg10.dtd">
<svg version="1.0" xmlns="http://www.w3.org/2000/svg"
 width="87.000000pt" height="76.000000pt" viewBox="0 0 87.000000 76.000000"
 preserveAspectRatio="xMidYMid meet">
<metadata>
Created by potrace 1.13, written by Peter Selinger 2001-2015
</metadata>
<g transform="translate(0.000000,76.000000) scale(0.100000,-0.100000)"
fill="#000000" stroke="none">
<path d="M560 679 c-35 -6 -53 -18 -82 -50 l-38 -41 -26 31 c-37 44 -75 61
-137 61 -120 0 -198 -119 -156 -239 6 -17 13 -31 16 -31 3 0 23 10 44 22 29
16 38 26 33 38 -4 8 -9 34 -12 57 -6 57 28 93 89 93 34 0 47 -6 73 -34 19 -19
36 -51 42 -77 11 -48 0 -308 -15 -372 l-9 -37 58 0 58 0 -10 37 c-6 21 -11
124 -12 230 l-1 192 34 34 c79 82 196 36 176 -69 -3 -18 -12 -38 -21 -45 -13
-11 -8 -16 36 -42 28 -16 54 -27 57 -23 4 3 8 31 11 61 5 64 -16 130 -52 164
-34 32 -102 49 -156 40z"/>
</g>
</svg>
