<?xml version="1.0" standalone="no"?>
<!DOCTYPE svg PUBLIC "-//W3C//DTD SVG 20010904//EN"
 "http://www.w3.org/TR/2001/REC-SVG-20010904/DTD/svg10.dtd">
<svg version="1.0" xmlns="http://www.w3.org/2000/svg"
 width="87.000000pt" height="76.000000pt" viewBox="0 0 87.000000 76.000000"
 preserveAspectRatio="xMidYMid meet">
<metadata>
Created by potrace 1.13, written by Peter Selinger 2001-2015
</metadata>
<g transform="translate(0.000000,76.000000) scale(0.100000,-0.100000)"
fill="#000000" stroke="none">
<path d="M165 653 c13 -54 38 -94 83 -133 25 -22 49 -40 53 -40 5 0 -13 -21
-40 -47 -108 -105 -84 -241 53 -308 157 -77 356 18 356 170 0 63 -38 126 -98
165 l-23 15 44 32 c46 32 90 95 102 146 7 26 6 27 -33 27 -39 0 -40 -1 -46
-42 -14 -84 -115 -148 -212 -133 -77 11 -154 85 -154 146 0 28 -2 29 -46 29
-45 0 -46 0 -39 -27z m355 -218 c116 -61 113 -198 -6 -255 -169 -82 -340 112
-206 233 50 45 148 55 212 22z"/>
</g>
</svg>
