<?xml version="1.0" standalone="no"?>
<!DOCTYPE svg PUBLIC "-//W3C//DTD SVG 20010904//EN"
 "http://www.w3.org/TR/2001/REC-SVG-20010904/DTD/svg10.dtd">
<svg version="1.0" xmlns="http://www.w3.org/2000/svg"
 width="87.000000pt" height="76.000000pt" viewBox="0 0 87.000000 76.000000"
 preserveAspectRatio="xMidYMid meet">
<metadata>
Created by potrace 1.13, written by Peter Selinger 2001-2015
</metadata>
<g transform="translate(0.000000,76.000000) scale(0.100000,-0.100000)"
fill="#000000" stroke="none">
<path d="M140 673 c0 -26 46 -79 85 -97 47 -23 55 -47 61 -182 7 -141 -4 -187
-48 -205 -37 -15 -98 -74 -98 -94 0 -11 12 -15 40 -15 33 0 40 3 40 19 0 11
13 30 29 43 92 78 341 56 374 -33 10 -26 16 -29 54 -29 24 0 43 3 43 6 0 26
-48 77 -95 99 -29 15 -55 34 -57 43 -2 9 -1 84 2 166 5 141 6 149 28 165 54
37 94 76 108 102 l15 29 -44 0 c-40 0 -44 -2 -52 -32 -7 -24 -22 -40 -55 -58
-39 -21 -58 -25 -135 -25 -77 0 -98 4 -140 25 -34 18 -55 36 -64 58 -13 28
-19 32 -53 32 -29 0 -38 -4 -38 -17z m364 -180 c8 -53 7 -236 -2 -250 -4 -6
-37 -13 -77 -14 l-70 -3 -3 130 c-4 180 -7 174 77 174 l68 0 7 -37z"/>
</g>
</svg>
