<?xml version="1.0" standalone="no"?>
<!DOCTYPE svg PUBLIC "-//W3C//DTD SVG 20010904//EN"
 "http://www.w3.org/TR/2001/REC-SVG-20010904/DTD/svg10.dtd">
<svg version="1.0" xmlns="http://www.w3.org/2000/svg"
 width="87.000000pt" height="76.000000pt" viewBox="0 0 87.000000 76.000000"
 preserveAspectRatio="xMidYMid meet">
<metadata>
Created by potrace 1.13, written by Peter Selinger 2001-2015
</metadata>
<g transform="translate(0.000000,76.000000) scale(0.100000,-0.100000)"
fill="#000000" stroke="none">
<path d="M355 686 c-143 -36 -245 -148 -245 -266 0 -149 197 -193 263 -58 43
88 -28 188 -134 188 -31 0 -31 1 -15 19 33 36 116 64 191 65 83 1 154 -21 226
-70 28 -19 54 -34 58 -34 11 1 42 50 36 59 -9 15 -112 68 -163 85 -68 22 -159
27 -217 12z m-38 -218 c32 -30 31 -81 -2 -113 -72 -73 -178 28 -114 109 27 34
82 36 116 4z"/>
<path d="M561 482 c-93 -50 -91 -182 4 -235 11 -6 40 -14 65 -17 l45 -5 -49
-32 c-66 -44 -143 -59 -225 -44 -64 12 -141 45 -194 85 l-29 21 -24 -30 -23
-29 46 -29 c150 -94 294 -108 430 -41 132 64 201 230 132 318 -44 56 -116 71
-178 38z m110 -61 c33 -33 35 -50 14 -90 -15 -31 -33 -41 -70 -41 -37 0 -55
10 -71 41 -18 36 -10 73 23 99 36 28 70 25 104 -9z"/>
</g>
</svg>
