<?xml version="1.0" standalone="no"?>
<!DOCTYPE svg PUBLIC "-//W3C//DTD SVG 20010904//EN"
 "http://www.w3.org/TR/2001/REC-SVG-20010904/DTD/svg10.dtd">
<svg version="1.0" xmlns="http://www.w3.org/2000/svg"
 width="87.000000pt" height="76.000000pt" viewBox="0 0 87.000000 76.000000"
 preserveAspectRatio="xMidYMid meet">
<metadata>
Created by potrace 1.13, written by Peter Selinger 2001-2015
</metadata>
<g transform="translate(0.000000,76.000000) scale(0.100000,-0.100000)"
fill="#000000" stroke="none">
<path d="M330 665 c-76 -35 -121 -105 -100 -159 5 -15 22 -43 36 -62 l26 -34
-43 0 c-60 -1 -124 -31 -143 -69 -21 -40 -20 -63 5 -95 31 -40 75 -58 139 -58
99 0 160 47 160 124 0 24 -32 87 -76 148 -41 57 -44 96 -10 133 44 48 165 60
223 22 33 -22 55 -71 48 -106 -7 -33 -42 -97 -91 -170 -40 -60 -53 -133 -30
-177 28 -55 70 -75 163 -80 46 -3 83 -2 83 1 0 4 -7 21 -16 39 -15 32 -16 33
-73 30 -54 -3 -60 -1 -81 25 -34 43 -24 99 38 212 79 142 74 211 -18 266 -46
26 -190 32 -240 10z m-13 -329 c57 -67 -48 -137 -137 -91 -54 28 -46 89 15
116 36 16 98 2 122 -25z"/>
</g>
</svg>
