<?xml version="1.0" standalone="no"?>
<!DOCTYPE svg PUBLIC "-//W3C//DTD SVG 20010904//EN"
 "http://www.w3.org/TR/2001/REC-SVG-20010904/DTD/svg10.dtd">
<svg version="1.0" xmlns="http://www.w3.org/2000/svg"
 width="87.000000pt" height="76.000000pt" viewBox="0 0 87.000000 76.000000"
 preserveAspectRatio="xMidYMid meet">
<metadata>
Created by potrace 1.13, written by Peter Selinger 2001-2015
</metadata>
<g transform="translate(0.000000,76.000000) scale(0.100000,-0.100000)"
fill="#000000" stroke="none">
<path d="M10 645 c0 -54 1 -55 28 -55 61 0 85 -64 71 -188 -5 -48 -12 -99 -15
-115 -5 -26 -4 -27 40 -27 l47 0 -8 68 c-12 100 -8 203 8 237 30 62 97 67 135
10 19 -29 22 -165 6 -263 l-9 -52 49 0 49 0 -7 48 c-12 75 -9 204 5 245 14 42
35 57 80 57 45 0 61 -30 61 -120 0 -93 21 -192 56 -270 l26 -59 -28 -25 c-16
-14 -35 -26 -41 -26 -7 0 -13 -2 -13 -5 0 -8 40 -85 44 -85 1 0 18 21 36 46
l33 47 34 -42 c19 -22 39 -41 44 -41 4 0 16 14 25 31 l16 32 -41 37 -40 37 34
84 c42 104 61 229 46 301 -15 66 -26 85 -64 108 -43 27 -80 25 -115 -5 l-29
-24 -39 20 c-47 24 -104 20 -145 -10 -28 -21 -28 -21 -61 -2 -57 34 -124 32
-167 -5 l-31 -26 -21 26 c-12 15 -38 36 -60 46 l-39 20 0 -55z m706 -56 c16
-18 19 -37 18 -133 0 -95 -4 -120 -25 -170 -14 -33 -30 -61 -37 -64 -14 -4
-48 67 -68 143 -24 89 -14 186 22 226 23 25 66 24 90 -2z"/>
</g>
</svg>
