<?xml version="1.0" standalone="no"?>
<!DOCTYPE svg PUBLIC "-//W3C//DTD SVG 20010904//EN"
 "http://www.w3.org/TR/2001/REC-SVG-20010904/DTD/svg10.dtd">
<svg version="1.0" xmlns="http://www.w3.org/2000/svg"
 width="87.000000pt" height="76.000000pt" viewBox="0 0 87.000000 76.000000"
 preserveAspectRatio="xMidYMid meet">
<metadata>
Created by potrace 1.13, written by Peter Selinger 2001-2015
</metadata>
<g transform="translate(0.000000,76.000000) scale(0.100000,-0.100000)"
fill="#000000" stroke="none">
<path d="M332 659 c-104 -52 -154 -192 -103 -292 22 -43 22 -43 -79 -17 -102
27 -100 27 -100 -27 l0 -46 127 6 c69 4 128 9 130 11 3 2 -5 22 -16 45 -25 47
-27 120 -6 160 20 40 69 79 116 91 33 9 46 8 82 -8 70 -32 100 -72 105 -140 3
-46 0 -68 -18 -101 -12 -24 -20 -44 -18 -46 2 -1 58 -6 126 -10 l122 -7 0 46
c0 25 -2 46 -5 46 -2 0 -43 -9 -91 -20 -48 -11 -89 -18 -92 -15 -3 3 2 20 13
37 23 39 24 128 3 178 -18 42 -86 110 -110 110 -9 0 -20 5 -23 10 -11 19 -117
11 -163 -11z"/>
<path d="M53 184 c-2 -6 -3 -29 -1 -50 l3 -39 85 5 c128 8 526 6 598 -2 l62
-8 0 52 0 51 -107 -7 c-136 -10 -454 -8 -557 2 -58 6 -79 5 -83 -4z"/>
</g>
</svg>
