<?xml version="1.0" standalone="no"?>
<!DOCTYPE svg PUBLIC "-//W3C//DTD SVG 20010904//EN"
 "http://www.w3.org/TR/2001/REC-SVG-20010904/DTD/svg10.dtd">
<svg version="1.0" xmlns="http://www.w3.org/2000/svg"
 width="87.000000pt" height="76.000000pt" viewBox="0 0 87.000000 76.000000"
 preserveAspectRatio="xMidYMid meet">
<metadata>
Created by potrace 1.13, written by Peter Selinger 2001-2015
</metadata>
<g transform="translate(0.000000,76.000000) scale(0.100000,-0.100000)"
fill="#000000" stroke="none">
<path d="M18 665 c-6 -89 -7 -87 19 -80 61 15 94 -89 74 -230 -15 -100 -17
-95 34 -95 l46 0 -8 53 c-13 88 -8 208 11 244 29 57 77 68 122 30 26 -22 27
-28 28 -118 1 -52 -2 -120 -7 -151 l-7 -58 50 0 c50 0 50 0 43 27 -4 16 -7 73
-8 128 0 81 4 108 20 140 18 36 24 40 61 43 35 3 45 -1 63 -24 27 -34 27 -87
0 -184 -39 -140 -42 -184 -18 -232 28 -57 56 -78 103 -78 33 0 46 7 86 48 26
26 52 56 57 66 10 19 11 19 38 -2 16 -12 29 -21 31 -19 2 2 -8 30 -21 63 -14
32 -28 76 -31 97 l-7 38 -36 -34 c-20 -19 -53 -44 -75 -55 l-38 -21 36 -6 c20
-4 36 -11 36 -15 0 -4 -10 -22 -23 -41 -45 -67 -107 -40 -107 47 0 23 11 86
25 140 22 88 24 105 14 154 -15 70 -56 114 -118 125 -35 6 -51 3 -93 -19 l-50
-26 -33 20 c-55 34 -129 25 -181 -22 -21 -19 -21 -19 -38 7 -16 24 -71 65 -88
65 -5 0 -9 -11 -10 -25z"/>
</g>
</svg>
