<?xml version="1.0" standalone="no"?>
<!DOCTYPE svg PUBLIC "-//W3C//DTD SVG 20010904//EN"
 "http://www.w3.org/TR/2001/REC-SVG-20010904/DTD/svg10.dtd">
<svg version="1.0" xmlns="http://www.w3.org/2000/svg"
 width="87.000000pt" height="76.000000pt" viewBox="0 0 87.000000 76.000000"
 preserveAspectRatio="xMidYMid meet">
<metadata>
Created by potrace 1.13, written by Peter Selinger 2001-2015
</metadata>
<g transform="translate(0.000000,76.000000) scale(0.100000,-0.100000)"
fill="#000000" stroke="none">
<path d="M640 655 c-47 -13 -119 -32 -160 -43 l-75 -20 53 -23 c49 -20 53 -24
47 -48 -7 -28 -132 -161 -152 -161 -12 0 -57 60 -97 131 l-23 39 -38 -33 -39
-33 72 -71 c40 -39 72 -74 72 -79 0 -10 -111 -87 -153 -105 -15 -7 -27 -15
-27 -18 0 -3 16 -24 35 -46 33 -38 35 -39 47 -20 6 11 40 49 74 85 l63 65 30
-35 c17 -19 43 -60 58 -90 14 -30 28 -57 29 -59 4 -5 84 63 84 71 0 4 -9 9
-19 13 -20 6 -131 113 -131 125 0 9 138 123 167 138 35 19 42 15 54 -33 6 -25
15 -47 18 -50 4 -2 16 19 26 48 10 29 38 101 62 160 23 60 43 111 43 113 0 8
-36 1 -120 -21z"/>
</g>
</svg>
