<?xml version="1.0" standalone="no"?>
<!DOCTYPE svg PUBLIC "-//W3C//DTD SVG 20010904//EN"
 "http://www.w3.org/TR/2001/REC-SVG-20010904/DTD/svg10.dtd">
<svg version="1.0" xmlns="http://www.w3.org/2000/svg"
 width="87.000000pt" height="76.000000pt" viewBox="0 0 87.000000 76.000000"
 preserveAspectRatio="xMidYMid meet">
<metadata>
Created by potrace 1.13, written by Peter Selinger 2001-2015
</metadata>
<g transform="translate(0.000000,76.000000) scale(0.100000,-0.100000)"
fill="#000000" stroke="none">
<path d="M305 679 c-14 -12 -23 -25 -19 -30 13 -21 106 -59 148 -61 26 0 46
-3 46 -6 0 -2 -22 -29 -50 -59 -27 -30 -57 -66 -65 -81 -10 -16 -41 -39 -76
-55 -104 -49 -173 -129 -194 -224 l-7 -33 50 0 49 0 1 42 c2 52 44 121 89 150
l33 20 -6 -45 c-25 -178 205 -280 344 -153 35 31 52 70 52 116 0 51 -21 92
-62 123 -42 32 -67 39 -153 47 l-70 6 90 89 c50 50 104 100 120 112 l30 21
-21 22 -21 21 -36 -21 c-21 -13 -61 -24 -94 -27 -49 -4 -65 -1 -105 21 l-47
25 -26 -20z m226 -299 c143 -40 96 -247 -52 -227 -93 12 -142 102 -105 192 11
25 22 35 43 38 52 8 78 7 114 -3z"/>
</g>
</svg>
