<?xml version="1.0" standalone="no"?>
<!DOCTYPE svg PUBLIC "-//W3C//DTD SVG 20010904//EN"
 "http://www.w3.org/TR/2001/REC-SVG-20010904/DTD/svg10.dtd">
<svg version="1.0" xmlns="http://www.w3.org/2000/svg"
 width="87.000000pt" height="76.000000pt" viewBox="0 0 87.000000 76.000000"
 preserveAspectRatio="xMidYMid meet">
<metadata>
Created by potrace 1.13, written by Peter Selinger 2001-2015
</metadata>
<g transform="translate(0.000000,76.000000) scale(0.100000,-0.100000)"
fill="#000000" stroke="none">
<path d="M97 612 c-28 -30 -52 -111 -25 -84 21 21 46 13 98 -33 28 -25 56 -45
62 -45 6 0 33 20 59 45 26 25 55 45 63 45 9 0 38 -20 66 -45 28 -25 55 -45 61
-45 6 0 34 20 61 45 28 25 56 45 64 45 7 0 39 -21 70 -46 50 -41 59 -45 79
-34 22 12 92 117 83 125 -2 3 -15 -6 -28 -20 -33 -35 -51 -32 -111 20 -29 25
-59 45 -67 45 -8 0 -33 -20 -55 -45 -47 -52 -73 -56 -108 -19 -13 14 -38 34
-56 45 -38 24 -52 18 -100 -35 -17 -20 -39 -36 -49 -36 -9 0 -42 20 -72 45
-60 50 -72 53 -95 27z"/>
<path d="M98 303 c-22 -26 -38 -59 -38 -79 0 -14 3 -15 12 -6 22 22 49 13 100
-33 28 -25 54 -45 60 -45 5 0 31 20 57 45 26 25 57 45 67 45 11 0 42 -20 71
-45 28 -25 55 -45 60 -45 5 0 29 20 53 45 27 27 53 45 67 45 12 0 45 -20 73
-45 28 -25 55 -45 59 -45 14 0 72 71 87 106 18 44 18 54 -2 26 -36 -52 -59
-50 -133 13 -24 19 -51 35 -60 35 -9 0 -36 -20 -60 -45 -24 -25 -48 -45 -55
-45 -7 0 -36 20 -65 45 -29 25 -60 45 -70 45 -9 0 -37 -20 -61 -45 -24 -25
-50 -45 -56 -45 -7 0 -36 20 -65 45 -57 49 -78 54 -101 28z"/>
</g>
</svg>
