<?xml version="1.0" standalone="no"?>
<!DOCTYPE svg PUBLIC "-//W3C//DTD SVG 20010904//EN"
 "http://www.w3.org/TR/2001/REC-SVG-20010904/DTD/svg10.dtd">
<svg version="1.0" xmlns="http://www.w3.org/2000/svg"
 width="87.000000pt" height="76.000000pt" viewBox="0 0 87.000000 76.000000"
 preserveAspectRatio="xMidYMid meet">
<metadata>
Created by potrace 1.13, written by Peter Selinger 2001-2015
</metadata>
<g transform="translate(0.000000,76.000000) scale(0.100000,-0.100000)"
fill="#000000" stroke="none">
<path d="M172 655 c-18 -40 -15 -53 16 -60 60 -13 142 -108 142 -165 0 -18 -6
-20 -55 -20 l-55 0 0 -33 0 -34 55 5 c42 3 55 1 55 -9 0 -25 -47 -113 -71
-136 -28 -26 -89 -53 -119 -53 -16 0 -20 -6 -20 -35 0 -32 3 -35 28 -35 15 0
52 13 82 29 69 35 125 105 147 184 17 59 18 60 78 60 8 0 19 -1 24 -2 6 0 18
-28 27 -62 20 -70 84 -148 152 -187 l41 -23 16 31 c17 33 13 50 -11 50 -34 0
-102 60 -128 112 -39 77 -37 81 34 76 l60 -4 0 35 0 36 -60 -3 -59 -4 8 29
c24 83 84 146 156 164 42 11 45 13 45 45 0 29 -4 34 -22 34 -34 -1 -99 -33
-142 -70 -41 -36 -82 -109 -94 -167 -8 -37 -9 -38 -55 -41 -32 -2 -48 1 -51
10 -37 134 -76 191 -167 242 l-46 26 -11 -25z"/>
</g>
</svg>
