<?xml version="1.0" encoding="UTF-8" standalone="no"?>
<svg
   xmlns:dc="http://purl.org/dc/elements/1.1/"
   xmlns:cc="http://creativecommons.org/ns#"
   xmlns:rdf="http://www.w3.org/1999/02/22-rdf-syntax-ns#"
   xmlns:svg="http://www.w3.org/2000/svg"
   xmlns="http://www.w3.org/2000/svg"
   xmlns:sodipodi="http://sodipodi.sourceforge.net/DTD/sodipodi-0.dtd"
   xmlns:inkscape="http://www.inkscape.org/namespaces/inkscape"
   version="1.0"
   width="80pt"
   height="80pt"
   viewBox="0 0 80 80"
   preserveAspectRatio="xMidYMid meet"
   id="svg2"
   inkscape:version="0.91 r13725"
   sodipodi:docname="sun-sign.svg">
  <metadata
     id="metadata10">
    <rdf:RDF>
      <cc:Work
         rdf:about="">
        <dc:format>image/svg+xml</dc:format>
        <dc:type
           rdf:resource="http://purl.org/dc/dcmitype/StillImage" />
        <dc:title></dc:title>
      </cc:Work>
    </rdf:RDF>
  </metadata>
  <defs
     id="defs8" />
  <sodipodi:namedview
     pagecolor="#ffffff"
     bordercolor="#666666"
     borderopacity="1"
     objecttolerance="10"
     gridtolerance="10"
     guidetolerance="10"
     inkscape:pageopacity="0"
     inkscape:pageshadow="2"
     inkscape:window-width="1879"
     inkscape:window-height="1056"
     id="namedview6"
     showgrid="false"
     inkscape:zoom="6.1405595"
     inkscape:cx="15.810128"
     inkscape:cy="29.594888"
     inkscape:window-x="41"
     inkscape:window-y="24"
     inkscape:window-maximized="1"
     inkscape:current-layer="svg2" />
  <path
     d="m 40.154343,0.95414115 c -21.651212,0 -39.27374266,17.62252985 -39.27374266,39.27374385 0,21.651212 17.62253066,39.271868 39.27374266,39.271868 21.651214,0 39.273744,-17.620656 39.273744,-39.271868 0,-21.651214 -17.62253,-39.27374385 -39.273744,-39.27374385 z m 0,6.63211605 c 18.066466,0 32.641626,14.5751598 32.641626,32.6416278 0,18.066466 -14.57516,32.639756 -32.641626,32.639756 -18.066468,0 -32.6416277,-14.57329 -32.6416277,-32.639756 0,-18.066468 14.5751597,-32.6416278 32.6416277,-32.6416278 z m -0.08056,25.2470058 a 7.3540298,7.3540298 0 0 0 -7.353406,7.355278 7.3540298,7.3540298 0 0 0 7.353406,7.353406 7.3540298,7.3540298 0 0 0 7.35528,-7.353406 7.3540298,7.3540298 0 0 0 -7.35528,-7.355278 z"
     id="path4"
     inkscape:connector-curvature="0" />
</svg>
