<?xml version="1.0" standalone="no"?>
<!DOCTYPE svg PUBLIC "-//W3C//DTD SVG 20010904//EN"
 "http://www.w3.org/TR/2001/REC-SVG-20010904/DTD/svg10.dtd">
<svg version="1.0" xmlns="http://www.w3.org/2000/svg"
 width="320.000000pt" height="500.000000pt" viewBox="0 0 320.000000 500.000000"
 preserveAspectRatio="xMidYMid meet">
<metadata>
Created by potrace 1.13, written by Peter Selinger 2001-2015
</metadata>
<g transform="translate(0.000000,500.000000) scale(0.100000,-0.100000)"
fill="#000000" stroke="none">
<path d="M80 3565 l0 -155 825 0 825 0 0 -255 0 -255 -151 -76 c-108 -53 -167
-90 -204 -125 -29 -27 -55 -49 -58 -49 -4 0 -33 20 -64 45 -325 251 -726 273
-949 50 -110 -109 -149 -224 -141 -410 8 -197 76 -346 226 -496 74 -74 124
-109 370 -263 339 -212 455 -275 528 -283 68 -7 103 13 103 59 0 55 -71 111
-270 212 -344 174 -453 254 -528 387 -73 128 -82 294 -23 414 56 113 172 207
292 234 91 21 224 5 308 -39 59 -30 64 -58 26 -135 -46 -93 -31 -137 82 -247
77 -75 114 -98 153 -98 13 0 54 50 132 162 139 199 220 283 320 332 40 20 94
39 119 42 98 13 220 -49 266 -135 56 -107 7 -327 -104 -467 -22 -27 -106 -103
-187 -167 -173 -139 -185 -154 -167 -205 17 -47 37 -69 134 -148 88 -71 112
-77 184 -44 114 51 271 196 342 314 63 105 83 178 89 311 3 99 0 136 -17 208
-26 109 -73 213 -142 313 -73 105 -145 167 -261 222 l-97 47 -1 273 0 272 355
0 355 0 0 155 0 155 -1335 0 -1335 0 0 -155z"/>
</g>
</svg>
