<?xml version="1.0" standalone="no"?>
<!DOCTYPE svg PUBLIC "-//W3C//DTD SVG 20010904//EN"
 "http://www.w3.org/TR/2001/REC-SVG-20010904/DTD/svg10.dtd">
<svg version="1.0" xmlns="http://www.w3.org/2000/svg"
 width="320.000000pt" height="500.000000pt" viewBox="0 0 320.000000 500.000000"
 preserveAspectRatio="xMidYMid meet">
<metadata>
Created by potrace 1.13, written by Peter Selinger 2001-2015
</metadata>
<g transform="translate(0.000000,500.000000) scale(0.100000,-0.100000)"
fill="#000000" stroke="none">
<path d="M80 3565 l0 -155 280 0 280 0 0 -257 0 -258 -29 -60 c-27 -59 -79
-115 -105 -115 -7 0 -73 23 -146 51 -141 54 -166 56 -214 18 -43 -34 -59 -96
-53 -202 13 -219 112 -394 485 -853 218 -267 439 -500 546 -574 57 -39 126
-57 163 -44 26 9 28 14 26 56 -3 103 -81 198 -287 352 -163 123 -250 206 -312
300 -35 53 -39 66 -39 120 1 58 5 70 102 246 56 102 109 205 119 229 l17 43
55 -6 c62 -7 85 -22 191 -119 99 -90 156 -106 441 -123 97 -5 132 -3 223 16
60 12 110 20 112 18 4 -3 12 -758 9 -758 -1 0 -24 4 -53 10 -145 27 -341 -82
-409 -227 -24 -52 -26 -69 -26 -163 1 -129 10 -156 105 -301 84 -129 127 -169
240 -227 149 -76 275 -88 423 -41 77 24 106 47 106 83 0 37 -130 224 -171 246
-21 12 -79 -6 -199 -60 -106 -48 -159 -54 -212 -23 -57 33 -78 76 -78 160 0
40 6 88 13 106 19 43 81 98 153 133 52 25 69 29 144 28 102 -1 181 -28 227
-76 16 -18 184 -246 372 -505 189 -260 359 -486 378 -502 19 -16 49 -32 65
-35 60 -12 118 42 104 97 -8 32 -321 425 -610 767 l-204 240 -6 888 c-3 488
-9 985 -12 1105 l-6 217 166 0 166 0 0 155 0 155 -1270 0 -1270 0 0 -155z
m1859 -482 c-1 -181 -4 -353 -7 -383 l-7 -55 -65 -26 c-130 -54 -208 -64 -515
-64 -267 0 -282 1 -327 22 l-48 22 0 405 0 406 485 0 485 0 -1 -327z"/>
</g>
</svg>
