<?xml version="1.0" standalone="no"?>
<!DOCTYPE svg PUBLIC "-//W3C//DTD SVG 20010904//EN"
 "http://www.w3.org/TR/2001/REC-SVG-20010904/DTD/svg10.dtd">
<svg version="1.0" xmlns="http://www.w3.org/2000/svg"
 width="320.000000pt" height="500.000000pt" viewBox="0 0 320.000000 500.000000"
 preserveAspectRatio="xMidYMid meet">
<metadata>
Created by potrace 1.13, written by Peter Selinger 2001-2015
</metadata>
<g transform="translate(0.000000,500.000000) scale(0.100000,-0.100000)"
fill="#000000" stroke="none">
<path d="M2038 4547 c-20 -17 -75 -85 -122 -150 -119 -165 -119 -163 17 -322
116 -135 159 -175 188 -175 27 0 95 65 200 191 124 149 124 148 -18 299 -109
114 -195 190 -216 190 -7 0 -29 -15 -49 -33z"/>
<path d="M70 3565 l0 -155 935 0 935 0 0 -303 c0 -167 -3 -306 -6 -310 -12
-12 -92 26 -195 94 -59 38 -127 77 -151 85 -61 23 -1442 43 -1486 22 -42 -21
-33 -58 35 -145 32 -40 75 -104 96 -141 51 -91 96 -132 144 -132 21 0 90 19
153 41 97 35 131 42 217 46 l102 6 -9 -34 c-24 -82 -7 -235 36 -328 35 -77
278 -319 381 -380 124 -73 199 -94 338 -95 123 0 128 1 283 58 32 12 48 14 63
6 19 -11 20 -18 13 -205 -10 -282 -16 -270 216 -474 94 -82 134 -110 146 -98
21 21 22 174 9 1172 -8 600 -15 1096 -15 1103 0 9 37 12 150 12 l150 0 0 155
0 155 -1270 0 -1270 0 0 -155z m1745 -840 c77 -8 142 -15 144 -15 2 0 1 -68
-2 -150 l-6 -151 -31 -37 c-54 -63 -142 -131 -215 -167 -108 -53 -182 -69
-320 -70 -104 0 -127 3 -172 23 -46 21 -52 28 -62 67 -25 98 1 211 72 317 50
74 105 118 184 148 145 54 191 58 408 35z"/>
</g>
</svg>
