<?xml version="1.0" standalone="no"?>
<!DOCTYPE svg PUBLIC "-//W3C//DTD SVG 20010904//EN"
 "http://www.w3.org/TR/2001/REC-SVG-20010904/DTD/svg10.dtd">
<svg version="1.0" xmlns="http://www.w3.org/2000/svg"
 width="320.000000pt" height="500.000000pt" viewBox="0 0 320.000000 500.000000"
 preserveAspectRatio="xMidYMid meet">
<metadata>
Created by potrace 1.13, written by Peter Selinger 2001-2015
</metadata>
<g transform="translate(0.000000,500.000000) scale(0.100000,-0.100000)"
fill="#000000" stroke="none">
<path d="M1858 4537 c-20 -17 -75 -85 -122 -150 -119 -165 -119 -163 17 -322
116 -135 159 -175 188 -175 27 0 95 65 200 191 124 149 124 148 -18 299 -109
114 -195 190 -216 190 -7 0 -29 -15 -49 -33z"/>
<path d="M70 3555 l0 -155 210 0 210 0 0 -429 0 -429 -27 -10 c-16 -6 -71 -12
-123 -14 -78 -3 -103 -8 -132 -26 -46 -28 -68 -76 -68 -144 0 -83 35 -140 179
-296 213 -231 261 -277 315 -297 47 -18 52 -18 115 -2 115 31 138 74 126 245
l-6 102 30 30 29 30 396 0 395 0 3 -359 3 -359 40 -58 c41 -60 120 -131 239
-215 109 -77 101 -116 98 524 -1 298 -5 804 -8 1125 l-7 582 167 0 166 0 0
155 0 155 -1175 0 -1175 0 0 -155z m1650 -605 l0 -450 -435 0 -435 0 0 450 0
450 435 0 435 0 0 -450z"/>
</g>
</svg>
