<?xml version="1.0" standalone="no"?>
<!DOCTYPE svg PUBLIC "-//W3C//DTD SVG 20010904//EN"
 "http://www.w3.org/TR/2001/REC-SVG-20010904/DTD/svg10.dtd">
<svg version="1.0" xmlns="http://www.w3.org/2000/svg"
 width="320.000000pt" height="500.000000pt" viewBox="0 0 320.000000 500.000000"
 preserveAspectRatio="xMidYMid meet">
<metadata>
Created by potrace 1.13, written by Peter Selinger 2001-2015
</metadata>
<g transform="translate(0.000000,500.000000) scale(0.100000,-0.100000)"
fill="#000000" stroke="none">
<path d="M70 3565 l0 -155 595 0 595 0 0 -319 c0 -306 -1 -320 -19 -326 -35
-11 -73 7 -160 77 -103 84 -180 125 -270 143 -56 12 -87 12 -201 1 -146 -15
-209 -34 -283 -85 -111 -76 -163 -227 -138 -404 13 -91 38 -145 116 -247 125
-164 266 -287 387 -337 52 -22 79 -27 153 -27 89 -1 92 0 218 56 70 32 139 61
152 64 l25 6 0 -283 c0 -278 1 -285 24 -335 13 -28 29 -55 35 -58 24 -15 8
-23 -57 -29 -37 -3 -93 -15 -124 -27 -69 -26 -173 -101 -193 -140 -13 -26 -13
-30 14 -66 23 -32 99 -104 194 -183 23 -19 45 -8 167 79 52 37 113 75 135 85
54 22 144 22 191 -2 56 -27 76 -72 71 -159 -8 -136 -81 -243 -216 -313 -216
-112 -447 -89 -691 71 -141 92 -260 233 -384 455 -61 109 -84 133 -129 133
-80 0 -87 -48 -24 -162 143 -262 456 -580 726 -737 154 -90 289 -128 426 -118
221 16 396 116 468 268 66 141 57 331 -25 493 -28 55 -141 182 -194 217 -22
14 -22 18 -29 565 l-8 550 39 32 c99 81 254 139 401 149 176 12 253 -64 253
-248 0 -97 -14 -166 -52 -249 -24 -54 -50 -85 -168 -201 -77 -75 -140 -141
-140 -147 0 -26 25 -60 75 -100 29 -24 93 -80 142 -126 94 -88 143 -120 172
-111 53 17 139 149 180 280 41 128 55 234 48 383 -10 224 -53 353 -166 494
-145 182 -330 307 -468 316 -67 5 -207 -29 -283 -68 l-40 -20 0 355 0 355 555
0 555 0 0 155 0 155 -1325 0 -1325 0 0 -155z m1010 -870 c95 -14 174 -25 176
-25 2 0 4 -51 4 -114 l0 -113 -92 -69 c-164 -121 -289 -168 -477 -180 -113 -8
-159 6 -191 58 -18 29 -21 45 -17 123 3 72 8 100 29 140 32 61 98 125 167 160
103 52 162 55 401 20z"/>
</g>
</svg>
