<?xml version="1.0" standalone="no"?>
<!DOCTYPE svg PUBLIC "-//W3C//DTD SVG 20010904//EN"
 "http://www.w3.org/TR/2001/REC-SVG-20010904/DTD/svg10.dtd">
<svg version="1.0" xmlns="http://www.w3.org/2000/svg"
 width="320.000000pt" height="500.000000pt" viewBox="0 0 320.000000 500.000000"
 preserveAspectRatio="xMidYMid meet">
<metadata>
Created by potrace 1.13, written by Peter Selinger 2001-2015
</metadata>
<g transform="translate(0.000000,500.000000) scale(0.100000,-0.100000)"
fill="#000000" stroke="none">
<path d="M80 3555 l0 -155 680 0 680 0 0 -335 0 -335 -47 18 c-27 10 -107 53
-179 95 -224 131 -335 164 -507 154 -259 -15 -469 -122 -544 -276 -26 -53 -28
-64 -28 -186 1 -119 3 -137 32 -217 58 -165 171 -312 331 -433 149 -112 273
-165 385 -165 104 0 246 38 376 101 l125 60 24 -25 25 -24 -14 -164 c-7 -89
-12 -177 -12 -194 2 -45 36 -107 82 -145 l39 -34 -117 0 c-96 -1 -126 -5 -173
-24 -70 -27 -173 -103 -193 -141 -13 -26 -13 -30 14 -66 23 -32 99 -104 194
-183 23 -19 45 -8 167 79 52 37 113 75 135 85 54 22 144 22 191 -1 56 -28 76
-73 71 -160 -8 -136 -81 -243 -216 -313 -216 -112 -447 -89 -691 71 -141 92
-260 233 -384 455 -61 109 -84 133 -129 133 -80 0 -87 -48 -24 -162 143 -262
456 -580 726 -737 154 -90 289 -128 426 -118 167 12 289 61 386 157 93 92 138
226 124 370 -14 150 -64 258 -169 368 l-73 77 -6 1108 -5 1107 164 0 164 0 0
155 0 155 -1015 0 -1015 0 0 -155z m1095 -866 c108 -13 200 -35 238 -57 l28
-17 -6 -135 -7 -135 -44 -41 c-44 -40 -186 -125 -231 -139 -20 -5 -33 11 -126
152 -119 183 -204 322 -209 342 -8 35 183 51 357 30z m-377 -224 c125 -200
208 -354 196 -365 -24 -22 -157 -52 -254 -57 -140 -7 -208 11 -266 71 -121
127 -57 347 139 475 34 23 66 41 72 41 5 0 57 -74 113 -165z"/>
</g>
</svg>
