<?xml version="1.0" standalone="no"?>
<!DOCTYPE svg PUBLIC "-//W3C//DTD SVG 20010904//EN"
 "http://www.w3.org/TR/2001/REC-SVG-20010904/DTD/svg10.dtd">
<svg version="1.0" xmlns="http://www.w3.org/2000/svg"
 width="320.000000pt" height="500.000000pt" viewBox="0 0 320.000000 500.000000"
 preserveAspectRatio="xMidYMid meet">
<metadata>
Created by potrace 1.13, written by Peter Selinger 2001-2015
</metadata>
<g transform="translate(0.000000,500.000000) scale(0.100000,-0.100000)"
fill="#000000" stroke="none">
<path d="M70 3555 l0 -155 680 0 680 0 0 -335 0 -335 -47 18 c-27 10 -107 53
-179 95 -224 131 -335 164 -507 154 -259 -15 -469 -122 -544 -276 -26 -53 -28
-64 -28 -186 1 -119 3 -137 32 -217 58 -165 171 -312 331 -433 149 -112 273
-165 385 -165 104 0 246 38 376 101 l124 59 25 -22 c23 -23 24 -25 17 -133 -4
-60 -11 -141 -15 -178 -9 -77 -1 -118 35 -171 14 -20 25 -38 25 -40 0 -2 -25
-7 -55 -11 -186 -23 -352 -112 -406 -216 -39 -77 -42 -120 -14 -232 35 -137
87 -227 186 -322 128 -122 282 -191 449 -202 153 -9 310 46 407 142 84 84 82
99 -32 227 -65 74 -95 77 -193 18 -119 -72 -305 -116 -458 -108 -69 3 -79 6
-100 31 -20 23 -24 39 -24 90 0 34 5 79 11 100 31 112 211 207 394 207 70 0
107 15 135 52 l23 31 -5 1129 -6 1128 164 0 164 0 0 155 0 155 -1015 0 -1015
0 0 -155z m1095 -866 c108 -13 200 -35 238 -57 l28 -17 -6 -135 -7 -135 -44
-41 c-44 -40 -186 -125 -231 -139 -20 -5 -33 11 -126 152 -119 183 -204 322
-209 342 -8 35 183 51 357 30z m-377 -224 c125 -200 208 -354 196 -365 -24
-22 -157 -52 -254 -57 -140 -7 -208 11 -266 71 -121 127 -57 347 139 475 34
23 66 41 72 41 5 0 57 -74 113 -165z"/>
</g>
</svg>
