<?xml version="1.0" standalone="no"?>
<!DOCTYPE svg PUBLIC "-//W3C//DTD SVG 20010904//EN"
 "http://www.w3.org/TR/2001/REC-SVG-20010904/DTD/svg10.dtd">
<svg version="1.0" xmlns="http://www.w3.org/2000/svg"
 width="320.000000pt" height="500.000000pt" viewBox="0 0 320.000000 500.000000"
 preserveAspectRatio="xMidYMid meet">
<metadata>
Created by potrace 1.13, written by Peter Selinger 2001-2015
</metadata>
<g transform="translate(0.000000,500.000000) scale(0.100000,-0.100000)"
fill="#000000" stroke="none">
<path d="M70 3555 l0 -155 249 0 c229 0 250 -1 255 -17 11 -34 36 -279 36
-348 0 -98 -17 -241 -36 -297 -8 -26 -28 -61 -44 -78 -36 -38 -74 -39 -144 -4
-28 15 -69 36 -91 47 -48 24 -134 34 -163 18 -102 -54 -59 -297 93 -531 68
-105 214 -248 289 -284 203 -97 387 20 462 294 24 86 23 295 0 450 -10 63 -47
252 -82 419 -35 168 -64 311 -64 318 0 11 91 13 490 13 l490 0 0 -924 c0 -897
1 -926 20 -987 11 -35 35 -92 53 -125 l33 -61 -70 -6 c-39 -3 -97 -15 -128
-27 -69 -26 -173 -101 -193 -140 -13 -26 -13 -30 14 -66 23 -32 99 -104 194
-183 23 -19 45 -8 167 79 52 37 113 75 135 85 54 22 144 22 191 -1 56 -28 76
-73 71 -160 -8 -136 -81 -243 -216 -313 -216 -112 -447 -89 -691 71 -141 92
-260 233 -384 455 -61 109 -84 133 -129 133 -80 0 -87 -48 -24 -162 143 -262
456 -580 726 -737 154 -90 289 -128 426 -118 167 12 289 61 386 157 118 117
156 298 103 489 -36 128 -133 259 -250 336 l-54 36 0 1085 0 1084 130 0 130 0
0 155 0 155 -1190 0 -1190 0 0 -155z"/>
</g>
</svg>
