<?xml version="1.0" standalone="no"?>
<!DOCTYPE svg PUBLIC "-//W3C//DTD SVG 20010904//EN"
 "http://www.w3.org/TR/2001/REC-SVG-20010904/DTD/svg10.dtd">
<svg version="1.0" xmlns="http://www.w3.org/2000/svg"
 width="320.000000pt" height="500.000000pt" viewBox="0 0 320.000000 500.000000"
 preserveAspectRatio="xMidYMid meet">
<metadata>
Created by potrace 1.13, written by Peter Selinger 2001-2015
</metadata>
<g transform="translate(0.000000,500.000000) scale(0.100000,-0.100000)"
fill="#000000" stroke="none">
<path d="M70 3555 l0 -155 320 0 321 0 -3 -137 -3 -137 -180 -36 c-99 -21
-208 -45 -242 -53 -65 -17 -155 -58 -186 -85 -24 -22 -21 -61 10 -107 44 -66
191 -222 221 -234 25 -11 51 -3 268 80 308 118 314 119 474 126 l135 6 33 -28
c101 -84 105 -239 12 -431 -61 -126 -219 -285 -269 -269 -11 3 -62 36 -113 72
-117 83 -166 105 -249 111 -95 7 -168 -17 -230 -75 -66 -62 -83 -109 -77 -221
5 -114 35 -179 118 -255 106 -98 244 -127 447 -93 79 13 106 14 126 5 14 -6
84 -87 157 -179 228 -292 306 -357 435 -367 52 -4 64 -2 89 18 37 29 56 76 56
137 0 42 -4 52 -37 84 -21 19 -103 78 -183 130 -162 105 -289 204 -321 249
-12 17 -20 31 -18 33 2 1 34 24 72 50 191 134 314 276 361 419 45 134 41 260
-13 388 -80 190 -301 413 -484 489 l-57 24 0 143 0 143 520 0 519 0 4 -947 c2
-768 6 -957 17 -993 9 -31 31 -62 71 -101 l57 -56 -82 -6 c-47 -3 -105 -14
-138 -27 -69 -26 -173 -101 -193 -140 -13 -26 -13 -30 14 -66 23 -32 99 -104
194 -183 23 -19 45 -8 167 79 52 37 113 75 135 85 54 22 144 22 191 -1 56 -28
76 -73 71 -160 -8 -136 -81 -243 -216 -313 -216 -112 -447 -89 -691 71 -141
92 -260 233 -384 455 -61 109 -84 133 -129 133 -80 0 -87 -48 -24 -162 143
-262 456 -580 726 -737 154 -90 289 -128 426 -118 167 12 289 61 386 157 118
117 156 298 103 489 -36 126 -135 262 -244 332 l-47 30 -6 442 c-4 243 -7 733
-7 1090 l0 647 170 0 170 0 0 155 0 155 -1385 0 -1385 0 0 -155z"/>
</g>
</svg>
