<?xml version="1.0" standalone="no"?>
<!DOCTYPE svg PUBLIC "-//W3C//DTD SVG 20010904//EN"
 "http://www.w3.org/TR/2001/REC-SVG-20010904/DTD/svg10.dtd">
<svg version="1.0" xmlns="http://www.w3.org/2000/svg"
 width="320.000000pt" height="500.000000pt" viewBox="0 0 320.000000 500.000000"
 preserveAspectRatio="xMidYMid meet">
<metadata>
Created by potrace 1.13, written by Peter Selinger 2001-2015
</metadata>
<g transform="translate(0.000000,500.000000) scale(0.100000,-0.100000)"
fill="#000000" stroke="none">
<path d="M70 3555 l0 -155 319 0 c294 0 319 -1 326 -17 16 -42 35 -216 35
-322 0 -133 -17 -227 -54 -299 -23 -45 -30 -51 -65 -57 -47 -8 -141 10 -193
36 -20 10 -69 28 -110 39 -153 41 -237 -23 -238 -182 0 -177 46 -261 358 -648
154 -192 347 -372 799 -748 186 -154 242 -192 288 -192 91 0 96 167 8 251 -21
20 -121 94 -222 164 -296 206 -451 349 -467 430 -9 51 12 124 63 212 105 183
148 290 180 451 21 105 21 345 1 670 l-13 212 377 0 378 0 2 -992 c3 -976 3
-994 23 -1027 18 -31 298 -271 316 -271 4 0 10 12 13 26 7 25 1 1135 -9 1882
l-6 382 166 0 165 0 0 155 0 155 -1220 0 -1220 0 0 -155z"/>
</g>
</svg>
