<?xml version="1.0" standalone="no"?>
<!DOCTYPE svg PUBLIC "-//W3C//DTD SVG 20010904//EN"
 "http://www.w3.org/TR/2001/REC-SVG-20010904/DTD/svg10.dtd">
<svg version="1.0" xmlns="http://www.w3.org/2000/svg"
 width="78.000000pt" height="78.000000pt" viewBox="0 0 78.000000 78.000000"
 preserveAspectRatio="xMidYMid meet">
<metadata>
Created by potrace 1.13, written by Peter Selinger 2001-2015
</metadata>
<g transform="translate(0.000000,78.000000) scale(0.100000,-0.100000)"
fill="#000000" stroke="none">
<path d="M73 640 c-13 -6 -23 -18 -23 -30 0 -22 5 -24 67 -21 23 2 50 -2 61
-8 25 -13 116 -131 102 -131 -6 0 -24 -21 -40 -47 -52 -81 -38 -178 33 -240
59 -52 155 -57 222 -12 88 61 104 184 34 271 l-29 37 46 61 c49 64 67 73 135
68 39 -3 44 -1 47 19 4 27 -29 43 -86 43 -50 0 -94 -29 -138 -90 -43 -60 -59
-70 -114 -70 -55 0 -69 9 -110 69 -54 78 -135 110 -207 81z m377 -228 c76 -42
89 -135 25 -199 -29 -29 -40 -33 -83 -33 -40 0 -57 6 -81 26 -55 46 -59 127
-9 182 42 45 92 53 148 24z"/>
</g>
</svg>
