<?xml version="1.0" standalone="no"?>
<!DOCTYPE svg PUBLIC "-//W3C//DTD SVG 20010904//EN"
 "http://www.w3.org/TR/2001/REC-SVG-20010904/DTD/svg10.dtd">
<svg version="1.0" xmlns="http://www.w3.org/2000/svg"
 width="78.000000pt" height="78.000000pt" viewBox="0 0 78.000000 78.000000"
 preserveAspectRatio="xMidYMid meet">
<metadata>
Created by potrace 1.13, written by Peter Selinger 2001-2015
</metadata>
<g transform="translate(0.000000,78.000000) scale(0.100000,-0.100000)"
fill="#000000" stroke="none">
<path d="M149 654 c-19 -23 -2 -44 59 -74 l52 -25 0 -170 0 -170 -58 -31 c-45
-24 -57 -36 -57 -55 0 -31 28 -36 61 -10 46 36 118 53 208 50 70 -3 92 -9 149
-38 48 -24 71 -31 78 -24 22 22 3 48 -58 78 l-62 30 0 168 -1 168 38 16 c56
23 92 52 92 74 0 29 -26 34 -59 10 -102 -73 -290 -73 -391 -1 -34 24 -34 24
-51 4z m311 -269 l0 -155 -70 0 -70 0 0 155 0 155 70 0 70 0 0 -155z"/>
</g>
</svg>
