<?xml version="1.0" standalone="no"?>
<!DOCTYPE svg PUBLIC "-//W3C//DTD SVG 20010904//EN"
 "http://www.w3.org/TR/2001/REC-SVG-20010904/DTD/svg10.dtd">
<svg version="1.0" xmlns="http://www.w3.org/2000/svg"
 width="78.000000pt" height="78.000000pt" viewBox="0 0 78.000000 78.000000"
 preserveAspectRatio="xMidYMid meet">
<metadata>
Created by potrace 1.13, written by Peter Selinger 2001-2015
</metadata>
<g transform="translate(0.000000,78.000000) scale(0.100000,-0.100000)"
fill="#000000" stroke="none">
<path d="M272 645 c-34 -8 -86 -26 -115 -42 -113 -61 -126 -191 -24 -253 112
-69 249 43 202 166 -9 23 -23 48 -31 55 -14 12 -14 14 3 20 29 12 187 10 245
-2 29 -6 71 -20 92 -30 55 -26 76 -25 76 5 0 70 -272 119 -448 81z m-14 -115
c30 -28 36 -62 18 -98 -17 -32 -34 -42 -75 -42 -61 0 -96 62 -67 118 9 17 21
32 28 35 30 12 75 6 96 -13z"/>
<path d="M524 446 c-84 -37 -106 -154 -42 -223 l20 -21 -23 -7 c-36 -12 -199
-9 -249 4 -25 6 -67 21 -93 33 -45 21 -48 21 -65 4 -16 -16 -16 -18 6 -36 49
-41 132 -63 252 -68 133 -5 199 6 288 48 74 35 102 74 102 140 0 104 -99 168
-196 126z m109 -66 c68 -54 21 -153 -68 -141 -26 3 -65 46 -65 72 0 26 26 76
42 82 28 12 67 6 91 -13z"/>
</g>
</svg>
