<?xml version="1.0" standalone="no"?>
<!DOCTYPE svg PUBLIC "-//W3C//DTD SVG 20010904//EN"
 "http://www.w3.org/TR/2001/REC-SVG-20010904/DTD/svg10.dtd">
<svg version="1.0" xmlns="http://www.w3.org/2000/svg"
 width="78.000000pt" height="78.000000pt" viewBox="0 0 78.000000 78.000000"
 preserveAspectRatio="xMidYMid meet">
<metadata>
Created by potrace 1.13, written by Peter Selinger 2001-2015
</metadata>
<g transform="translate(0.000000,78.000000) scale(0.100000,-0.100000)"
fill="#000000" stroke="none">
<path d="M355 720 c-68 -34 -101 -120 -85 -222 l7 -48 -48 0 c-40 0 -55 -6
-83 -31 -86 -75 -57 -207 53 -240 37 -11 48 -10 89 7 39 16 51 28 71 67 24 48
24 49 7 105 -38 125 -47 177 -41 221 15 96 112 135 177 71 29 -30 30 -32 26
-113 -3 -67 -11 -99 -41 -172 -60 -143 -62 -229 -6 -285 43 -43 104 -43 154 1
22 19 35 40 35 55 0 33 -25 31 -67 -6 -41 -37 -47 -37 -80 -4 -23 23 -25 31
-21 82 3 34 17 86 36 128 79 179 69 328 -27 382 -48 27 -104 28 -156 2z m-57
-356 c30 -34 28 -70 -7 -105 -39 -38 -74 -38 -113 1 -25 26 -29 36 -24 62 15
77 92 100 144 42z"/>
</g>
</svg>
