<?xml version="1.0" standalone="no"?>
<!DOCTYPE svg PUBLIC "-//W3C//DTD SVG 20010904//EN"
 "http://www.w3.org/TR/2001/REC-SVG-20010904/DTD/svg10.dtd">
<svg version="1.0" xmlns="http://www.w3.org/2000/svg"
 width="78.000000pt" height="78.000000pt" viewBox="0 0 78.000000 78.000000"
 preserveAspectRatio="xMidYMid meet">
<metadata>
Created by potrace 1.13, written by Peter Selinger 2001-2015
</metadata>
<g transform="translate(0.000000,78.000000) scale(0.100000,-0.100000)"
fill="#000000" stroke="none">
<path d="M70 715 c0 -14 6 -28 13 -31 8 -3 25 -19 38 -37 23 -31 24 -39 29
-247 l5 -215 25 0 25 0 5 192 c5 173 7 194 26 219 11 15 28 32 37 38 36 23 42
-5 47 -232 l5 -217 25 0 25 0 5 190 c4 165 8 194 24 218 10 15 28 33 39 39 41
22 47 -8 47 -239 l0 -213 -49 -25 c-60 -30 -69 -42 -47 -63 15 -15 20 -14 72
11 l56 28 39 -36 c44 -39 51 -41 69 -20 14 17 7 31 -32 63 l-28 24 36 40 c20
22 48 66 62 96 21 47 25 70 24 142 -1 150 -27 182 -92 115 -18 -19 -38 -35
-42 -35 -4 0 -8 19 -8 43 0 88 -60 152 -120 127 -16 -7 -36 -20 -46 -31 -16
-18 -17 -18 -35 5 -35 44 -83 42 -136 -7 -13 -11 -23 -16 -23 -11 0 6 -16 29
-36 52 -43 50 -84 58 -84 17z"/>
</g>
</svg>
