<?xml version="1.0" standalone="no"?>
<!DOCTYPE svg PUBLIC "-//W3C//DTD SVG 20010904//EN"
 "http://www.w3.org/TR/2001/REC-SVG-20010904/DTD/svg10.dtd">
<svg version="1.0" xmlns="http://www.w3.org/2000/svg"
 width="78.000000pt" height="78.000000pt" viewBox="0 0 78.000000 78.000000"
 preserveAspectRatio="xMidYMid meet">
<metadata>
Created by potrace 1.13, written by Peter Selinger 2001-2015
</metadata>
<g transform="translate(0.000000,78.000000) scale(0.100000,-0.100000)"
fill="#000000" stroke="none">
<path d="M325 596 c-37 -16 -83 -68 -91 -102 -3 -13 -4 -42 -2 -64 l4 -40 -92
0 c-69 0 -95 -4 -104 -15 -10 -12 -10 -18 0 -30 19 -22 252 -22 271 1 10 13
10 20 -4 44 -27 45 -22 96 12 131 85 85 211 -32 141 -131 -16 -22 -17 -30 -7
-44 11 -14 30 -16 142 -14 l130 3 0 25 c0 25 -1 25 -95 28 l-95 3 3 52 c4 57
-19 102 -69 140 -34 25 -105 31 -144 13z"/>
<path d="M37 237 c-14 -36 3 -37 349 -35 331 3 339 3 339 23 0 20 -8 20 -341
23 -280 2 -343 0 -347 -11z"/>
</g>
</svg>
