<?xml version="1.0" standalone="no"?>
<!DOCTYPE svg PUBLIC "-//W3C//DTD SVG 20010904//EN"
 "http://www.w3.org/TR/2001/REC-SVG-20010904/DTD/svg10.dtd">
<svg version="1.0" xmlns="http://www.w3.org/2000/svg"
 width="78.000000pt" height="78.000000pt" viewBox="0 0 78.000000 78.000000"
 preserveAspectRatio="xMidYMid meet">
<metadata>
Created by potrace 1.13, written by Peter Selinger 2001-2015
</metadata>
<g transform="translate(0.000000,78.000000) scale(0.100000,-0.100000)"
fill="#000000" stroke="none">
<path d="M67 703 c-14 -14 -6 -40 19 -64 46 -43 49 -55 54 -269 l5 -205 25 0
25 0 5 192 5 193 32 32 c31 31 34 32 50 15 16 -16 18 -43 21 -225 4 -206 7
-227 39 -215 10 4 13 43 13 180 0 191 8 228 58 261 23 15 25 15 38 -3 8 -10
14 -39 14 -64 0 -25 1 -123 3 -218 2 -156 4 -174 23 -200 53 -70 116 -66 154
11 11 23 20 52 20 64 0 17 6 22 25 22 39 0 40 25 5 80 -18 27 -34 50 -36 50
-2 0 -26 -14 -54 -31 -63 -39 -70 -77 -12 -70 16 2 16 -59 0 -94 -14 -31 -32
-32 -52 -3 -13 19 -16 58 -16 226 0 210 -6 250 -44 281 -25 21 -72 17 -107 -8
-30 -23 -31 -23 -52 -3 -43 38 -84 35 -126 -7 -20 -20 -20 -20 -34 2 -37 56
-83 88 -100 70z"/>
</g>
</svg>
