<?xml version="1.0" standalone="no"?>
<!DOCTYPE svg PUBLIC "-//W3C//DTD SVG 20010904//EN"
 "http://www.w3.org/TR/2001/REC-SVG-20010904/DTD/svg10.dtd">
<svg version="1.0" xmlns="http://www.w3.org/2000/svg"
 width="78.000000pt" height="78.000000pt" viewBox="0 0 78.000000 78.000000"
 preserveAspectRatio="xMidYMid meet">
<metadata>
Created by potrace 1.13, written by Peter Selinger 2001-2015
</metadata>
<g transform="translate(0.000000,78.000000) scale(0.100000,-0.100000)"
fill="#000000" stroke="none">
<path d="M308 631 c-19 -16 -45 -52 -58 -80 -26 -57 -35 -62 -44 -26 -14 57
-111 134 -150 119 -28 -11 -18 -43 17 -57 49 -21 68 -50 101 -150 25 -74 35
-92 51 -92 16 0 23 14 40 75 33 116 71 180 107 180 10 0 18 -1 19 -2 0 -2 6
-70 14 -153 11 -132 11 -154 -3 -183 -21 -47 -50 -62 -129 -70 -53 -6 -68 -11
-71 -24 -11 -57 164 -40 223 22 l28 29 33 -26 c69 -52 163 -36 211 36 45 67
20 171 -50 207 -38 20 -129 15 -155 -9 -10 -9 -21 -17 -24 -17 -3 0 -7 43 -10
95 -5 114 -23 148 -81 153 -27 2 -42 -3 -69 -27z m329 -263 c12 -11 24 -31 27
-44 8 -29 -16 -79 -43 -94 -81 -43 -167 54 -115 128 32 46 88 50 131 10z"/>
</g>
</svg>
