<?xml version="1.0" standalone="no"?>
<!DOCTYPE svg PUBLIC "-//W3C//DTD SVG 20010904//EN"
 "http://www.w3.org/TR/2001/REC-SVG-20010904/DTD/svg10.dtd">
<svg version="1.0" xmlns="http://www.w3.org/2000/svg"
 width="78.000000pt" height="78.000000pt" viewBox="0 0 78.000000 78.000000"
 preserveAspectRatio="xMidYMid meet">
<metadata>
Created by potrace 1.13, written by Peter Selinger 2001-2015
</metadata>
<g transform="translate(0.000000,78.000000) scale(0.100000,-0.100000)"
fill="#000000" stroke="none">
<path d="M127 519 c-61 -41 -87 -66 -85 -77 6 -31 37 -24 113 28 l75 51 75
-51 c41 -27 81 -50 90 -50 9 0 49 23 90 50 l75 51 75 -51 c76 -52 107 -59 113
-28 2 11 -25 35 -87 77 -50 34 -96 61 -102 61 -7 0 -46 -23 -86 -51 l-74 -51
-78 51 c-42 28 -84 51 -92 50 -8 0 -54 -27 -102 -60z"/>
<path d="M128 309 c-87 -59 -100 -76 -74 -98 10 -9 32 1 96 43 l84 54 75 -51
c41 -27 80 -50 86 -50 6 0 45 23 86 50 l75 51 84 -54 c64 -42 86 -52 96 -43 8
6 14 18 14 25 0 14 -170 134 -190 134 -6 0 -44 -22 -85 -50 -41 -27 -77 -50
-80 -50 -3 0 -39 23 -80 50 -41 28 -80 50 -87 49 -7 0 -52 -27 -100 -60z"/>
</g>
</svg>
