<?xml version="1.0" standalone="no"?>
<!DOCTYPE svg PUBLIC "-//W3C//DTD SVG 20010904//EN"
 "http://www.w3.org/TR/2001/REC-SVG-20010904/DTD/svg10.dtd">
<svg version="1.0" xmlns="http://www.w3.org/2000/svg"
 width="78.000000pt" height="78.000000pt" viewBox="0 0 78.000000 78.000000"
 preserveAspectRatio="xMidYMid meet">
<metadata>
Created by potrace 1.13, written by Peter Selinger 2001-2015
</metadata>
<g transform="translate(0.000000,78.000000) scale(0.100000,-0.100000)"
fill="#000000" stroke="none">
<path d="M195 670 c-4 -7 4 -33 18 -58 27 -52 43 -98 50 -154 5 -36 4 -38 -22
-38 -16 0 -34 -7 -41 -15 -19 -23 -4 -45 31 -45 l32 0 -6 -50 c-3 -28 -20 -78
-37 -112 -29 -56 -30 -62 -15 -77 15 -15 19 -13 46 19 31 37 69 142 69 191 l0
29 65 0 65 0 0 -30 c0 -47 40 -155 70 -192 27 -32 29 -32 47 -15 16 15 16 20
3 40 -32 50 -51 101 -57 147 -5 47 -5 48 23 52 52 6 41 57 -12 58 -19 0 -20 3
-13 56 4 31 22 86 39 121 33 67 31 88 -6 81 -29 -5 -83 -122 -90 -195 l-7 -63
-62 0 -62 0 -6 61 c-7 78 -61 192 -94 197 -11 2 -24 -2 -28 -8z"/>
</g>
</svg>
