<?xml version="1.0" standalone="no"?>
<!DOCTYPE svg PUBLIC "-//W3C//DTD SVG 20010904//EN"
 "http://www.w3.org/TR/2001/REC-SVG-20010904/DTD/svg10.dtd">
<svg version="1.0" xmlns="http://www.w3.org/2000/svg"
 viewBox="0 0 60 60"
 preserveAspectRatio="xMidYMid meet">
<g id="jupiter-sign" class="planet jupiter">
    <g id="Capa_1">
        <path d="M44.0985607,30.5288337 L37.6409029,30.5288337 L37.6409029,5.39328725 C37.6409029,3.23386333 35.89421,1.4832978 33.7395633,1.4832978 C31.5849166,1.4832978 29.8382237,3.23386333 29.8382237,5.39328725 L29.8382237,30.5287338 L15.4196313,30.5287338 C18.8018294,25.6707046 20.1127465,20.8587481 19.3213698,16.1548279 C17.5642064,5.70850097 5.94355345,0.538556086 5.44964104,0.323683062 C3.47768107,-0.533410449 1.1907061,0.3701556 0.328129427,2.3432896 C-0.534846128,4.31682337 0.363529973,6.62026218 2.32950675,7.49164725 C2.41207479,7.52832557 10.6000714,11.2239417 11.6314738,17.4809442 C12.3076741,21.5862182 9.77090089,26.3236187 4.09035981,31.5613236 C2.90718383,32.652079 2.51299127,34.3580709 3.09724986,35.8594836 C3.68150844,37.3608964 5.12425518,38.3484128 6.732138,38.3484128 L29.8383234,38.3484128 L29.8383234,54.0900106 C29.8383234,56.2494345 31.5850163,58 33.739663,58 C35.8943097,58 37.6410026,56.2494345 37.6410026,54.0900106 L37.6410026,38.3484128 L44.0986604,38.3484128 C46.2533072,38.3484128 48,36.5978473 48,34.4384234 C48,32.2789995 46.2533072,30.5288337 44.0985607,30.5288337 Z" fill="#996600"></path>
    </g>
</g>
</svg>