<?xml version="1.0" standalone="no"?>
<!DOCTYPE svg PUBLIC "-//W3C//DTD SVG 20010904//EN"
 "http://www.w3.org/TR/2001/REC-SVG-20010904/DTD/svg10.dtd">
<svg version="1.0" xmlns="http://www.w3.org/2000/svg"
 viewBox="0 0 60 60"
 preserveAspectRatio="xMidYMid meet">
<g id="mars-sign" class="planet mars">
    <g id="Capa_1">
        <path d="M45.1893265,2.85573563 L39.1979509,8.84727473 C35.1431257,5.97400421 30.1978282,4.27802416 24.8610025,4.27802416 C11.1524858,4.27802416 0,15.4305859 0,29.1393186 C0,42.8474382 11.1524858,54 24.8610025,54 C38.5695192,54 49.722005,42.8474382 49.722005,29.1393186 C49.722005,23.8020887 48.0261591,18.8567575 45.1524177,14.8017821 L51.1437933,8.810243 L54,11.6664691 L54,0 L42.333733,0 L45.1893265,2.85573563 Z M41.3006526,29.1393186 C41.3006526,38.2041242 33.9256237,45.5789581 24.8610025,45.5789581 C15.7962587,45.5789581 8.42135237,38.2040016 8.42135237,29.1393186 C8.42135237,20.0743905 15.7962587,12.699066 24.8610025,12.699066 C27.8681554,12.699066 30.6875758,13.5145 33.1148548,14.9304122 C35.577326,16.3668022 37.6336771,18.4229221 39.0694443,20.8854101 C40.4852242,23.3133188 41.3006526,26.1319 41.3006526,29.1393186 Z" fill="#ff0000"></path>	
    </g>
</g>
</svg>