<?xml version="1.0" standalone="no"?>
<!DOCTYPE svg PUBLIC "-//W3C//DTD SVG 20010904//EN"
 "http://www.w3.org/TR/2001/REC-SVG-20010904/DTD/svg10.dtd">
<svg version="1.0" xmlns="http://www.w3.org/2000/svg"
 viewBox="0 0 60 60"
 preserveAspectRatio="xMidYMid meet">
<g id="mercury-sign" class="planet mercury">
    <g id="Capa_1">
        <path d="M36.689,3.70351995 C36.689,1.6582088 35.0365322,0 32.9976322,0 C30.9587322,0 29.3061568,1.6582088 29.3061568,3.70351995 C29.3061568,6.98553085 28.5171688,8.60404791 27.6580962,9.14657362 C25.048201,7.4827562 21.9571735,6.51419142 18.6424562,6.51419142 C15.3497745,6.51419142 12.2771282,7.46948967 9.6781971,9.11367693 C9.59704097,9.05996365 9.51459494,8.99837674 9.43526616,8.92449401 C8.56866916,8.11480405 8.07173566,6.21197332 8.07173566,3.7036278 C8.07173566,1.6582088 6.41926783,0 4.38036783,0 C2.34146783,0 0.689,1.6582088 0.689,3.70351995 C0.689,8.46145964 1.93891192,12.0422372 4.40412347,14.3459761 C4.40982052,14.3512611 4.41551757,14.3555754 4.42121462,14.3609683 C2.75251557,16.9850455 1.78100681,20.0962093 1.78100681,23.4332278 C1.78100681,31.4898964 7.42399149,38.2438561 14.9510883,39.9381974 L14.9510883,42.7686069 L8.85201693,42.7686069 C6.81354689,42.7686069 5.1606491,44.4267078 5.1606491,46.4722347 C5.1606491,48.5175458 6.81322442,50.1756467 8.85201693,50.1756467 L14.9520557,50.1756467 L14.9520557,56.2965879 C14.9520557,58.3418991 16.6046311,60 18.6435311,60 C20.6824311,60 22.3348989,58.3418991 22.3348989,56.2965879 L22.3348989,50.1756467 L28.4349377,50.1756467 C30.4734078,50.1756467 32.1263055,48.5175458 32.1263055,46.4722347 C32.1263055,44.4267078 30.4738377,42.7686069 28.4349377,42.7686069 L22.3344689,42.7686069 L22.3344689,39.9381974 C29.8615658,38.2442876 35.5045504,31.4898964 35.5045504,23.4332278 C35.5045504,20.1186438 34.5458332,17.0263551 32.897665,14.4132795 C32.9231405,14.3899821 32.948616,14.3697048 32.973984,14.3459761 C35.4390881,12.0422372 36.689,8.46199893 36.689,3.70351995 Z M18.6428861,32.94393 C13.4165387,32.94393 9.16417243,28.6770678 9.16417243,23.4327964 C9.16417243,18.1882014 13.4165387,13.9213392 18.6428861,13.9213392 C23.869341,13.9213392 28.1217073,18.1882014 28.1217073,23.4327964 C28.1220298,28.6769599 23.869771,32.94393 18.6428861,32.94393 Z" fill="#66ff00" ></path>
    </g>
</g>
</svg>