<?xml version="1.0" standalone="no"?>
<!DOCTYPE svg PUBLIC "-//W3C//DTD SVG 20010904//EN"
 "http://www.w3.org/TR/2001/REC-SVG-20010904/DTD/svg10.dtd">
<svg version="1.0" xmlns="http://www.w3.org/2000/svg"
 viewBox="0 0 60 60"
 preserveAspectRatio="xMidYMid meet">
<g id="moon-sign" class="planet moon">
    <g id="Capa_1">
        <path d="M46.8636797,9.83424132 C46.8636797,4.41166362 42.4002056,0 36.9138203,0 C31.4274351,0 26.9637576,4.41166362 26.9637576,9.83424132 C26.9637576,12.8167093 28.3771147,15.6953108 30.7459351,17.5433912 C33.1777273,19.4407404 35.639632,21.1420201 37.2350887,23.8503931 C38.6614675,26.2711974 39.4074654,29.0537751 39.4074654,31.8537477 C39.4074654,40.6208684 32.1912359,47.7537751 23.3204437,47.7537751 C14.4501602,47.7537751 7.233829,40.6212706 7.233829,31.8537477 C7.233829,30.1520658 7.50657143,28.4515905 8.04778355,26.8356764 C9.26805411,23.1928062 11.6991342,20.5258592 14.8303312,18.3721115 C17.7585736,16.3578245 19.8995152,13.4755027 19.8995152,9.83424132 C19.8994134,4.41166362 15.4358377,0 9.94955411,0 C4.46357576,0 0,4.41166362 0,9.83424132 C0,13.3040676 1.82923593,16.3578245 4.58321212,18.1086746 C1.64123593,22.0149817 7.22846506e-16,26.7958592 7.22846506e-16,31.8537477 C7.22846506e-16,44.5628702 10.461671,54.9028702 23.3204437,54.9028702 C36.1791147,54.9028702 46.6413961,44.5628702 46.6413961,31.8537477 C46.6413961,26.8365814 45.0284416,22.0917002 42.1312273,18.2034918 C44.9685216,16.4690311 46.8636797,13.3667093 46.8636797,9.83424132 Z M9.94955411,7.14959781 C11.447145,7.14959781 12.6657879,8.35406764 12.6657879,9.83424132 C12.6657879,10.9484186 11.9747251,11.9059415 10.9947446,12.3116545 L10.9819264,12.2915448 C10.952119,12.3100457 10.9230238,12.3296527 10.8931147,12.3481536 C10.5988052,12.4564442 10.2817078,12.5187843 9.94965584,12.5187843 C8.45206494,12.5187843 7.23393074,11.3143144 7.23393074,9.83424132 C7.23393074,8.35416819 8.4519632,7.14959781 9.94955411,7.14959781 Z M36.9138203,12.5187843 C35.4162294,12.5187843 34.1976883,11.3143144 34.1976883,9.83424132 C34.1976883,8.35416819 35.4163312,7.14959781 36.9138203,7.14959781 C38.4113095,7.14959781 39.6299524,8.35406764 39.6299524,9.83424132 C39.6299524,11.314415 38.4114113,12.5187843 36.9138203,12.5187843 Z" fill="#cc9999"></path>
    </g>
</g>
</svg>