<?xml version="1.0" standalone="no"?>
<!DOCTYPE svg PUBLIC "-//W3C//DTD SVG 20010904//EN"
 "http://www.w3.org/TR/2001/REC-SVG-20010904/DTD/svg10.dtd">
<svg version="1.0" xmlns="http://www.w3.org/2000/svg"
 viewBox="0 0 60 60"
 preserveAspectRatio="xMidYMid meet">
<g id="neptune-sign" class="planet neptune">
    <g id="Capa_1">
        <path d="M36.7806309,6.71282615 L39.4777899,6.71282615 L39.4777899,14.262775 C39.4777899,18.4241137 34.9310534,22.0484629 28.9126756,23.1731244 L28.9126756,10.0690361 L31.6098345,10.0690361 L25.0001,3.35620994 L18.3902655,10.0690361 L21.0874244,10.0690361 L21.0874244,23.1731244 C15.0692466,22.0484629 10.5224102,18.4241137 10.5224102,14.262775 L10.5224102,6.71282615 L13.2195691,6.71282615 L6.61023458,0 L0,6.71282615 L2.69715893,6.71282615 L2.69715893,14.262775 C2.69715893,22.8851794 10.510709,29.8337446 21.0870244,31.2240061 L21.0870244,34.2308225 L13.2200691,34.2308225 C11.0590617,34.2308225 9.3072935,36.0098859 9.3072935,38.2044637 C9.3072935,40.3990415 11.0590617,42.178105 13.2200691,42.178105 L21.0875244,42.178105 L21.0875244,50.0263588 C21.0875244,52.2209365 22.8391926,54 25.0002,54 C27.1612075,54 28.9127756,52.2209365 28.9127756,50.0263588 L28.9127756,42.178105 L36.780731,42.178105 C38.9416384,42.178105 40.6934066,40.3990415 40.6934066,38.2044637 C40.6934066,36.0098859 38.9416384,34.2308225 36.780731,34.2308225 L28.9127756,34.2308225 L28.9127756,31.2240061 C39.489191,29.8337446 47.3028411,22.8850778 47.3028411,14.262775 L47.3028411,6.71282615 L50,6.71282615 L43.3900654,0 L36.7806309,6.71282615 Z" fill="#990066"></path>
    </g>
</g>
</svg>