<?xml version="1.0" standalone="no"?>
<!DOCTYPE svg PUBLIC "-//W3C//DTD SVG 20010904//EN"
 "http://www.w3.org/TR/2001/REC-SVG-20010904/DTD/svg10.dtd">
<svg version="1.0" xmlns="http://www.w3.org/2000/svg"
 viewBox="0 0 60 60"
 preserveAspectRatio="xMidYMid meet">
<g id="saturn-sign" class="planet saturn">
    <g id="Capa_1">
        <path d="M34.2071379,25.0199605 C29.8088534,23.8837866 25.4841298,25.1576724 21.6760739,28.5173154 L21.6760739,20.6247401 L31.3279162,20.6247401 C33.5417092,20.6247401 35.3361642,18.8485811 35.3361642,16.6573597 C35.3361642,14.4662396 33.5417092,12.6899792 31.3279162,12.6899792 L21.6765862,12.6899792 L21.6765862,3.96738047 C21.6765862,1.77626042 19.8820287,0 17.6683382,0 C15.4545452,0 13.6599878,1.77626042 13.6599878,3.96738047 L13.6599878,12.6903848 L4.00824797,12.6903848 C1.79455746,12.6903848 0,14.4665439 0,16.6577653 C0,18.8488854 1.79455746,20.6251458 4.00824797,20.6251458 L13.6599878,20.6251458 L13.6599878,41.4450961 C13.6599878,43.3310798 15.0009882,44.9557355 16.8677746,45.3326685 C18.7341513,45.709196 20.6114903,44.7331452 21.3567296,42.9979549 C22.1705095,41.1038586 23.9095378,37.5476871 26.411632,35.0122873 C29.0947597,32.2944547 30.9904378,32.3899809 32.1825747,32.6973482 C34.0026428,33.1679822 35.7056078,34.7756013 36.5218466,36.7946321 C36.9056335,37.7429986 37.3984299,39.5750334 36.3897854,41.1886356 C35.2348387,43.0367942 33.0001454,44.8014941 30.0958228,46.1590414 C28.8777654,46.7282438 28.0300736,47.8649247 27.839512,49.1846468 C27.7546814,49.7731168 27.1878119,55.0520053 33.3554506,59.2911589 C34.0527421,59.7699055 34.8494125,60 35.638194,60 C36.9072728,60 38.1554512,59.40504 38.9346023,58.2949279 C40.1974314,56.4951409 39.7464356,54.023121 37.9281092,52.7731675 C37.352941,52.3780824 36.9331933,51.9973972 36.6272702,51.6527118 C38.998635,50.1747934 41.4865908,48.1177345 43.2078948,45.3633951 C45.2971055,42.0202816 45.57301,37.8219954 43.9653259,33.8458938 C42.208266,29.5033042 38.4695705,26.1209458 34.2071379,25.0199605 Z" fill="#0000ff"></path>
    </g>
</g>
</svg>