<?xml version="1.0" standalone="no"?>
<!DOCTYPE svg PUBLIC "-//W3C//DTD SVG 20010904//EN"
 "http://www.w3.org/TR/2001/REC-SVG-20010904/DTD/svg10.dtd">
<svg version="1.0" xmlns="http://www.w3.org/2000/svg"
 viewBox="0 0 60 60"
 preserveAspectRatio="xMidYMid meet">
<g id="uranus-sign" class="planet uranus">
    <g id="Capa_1">
        <path d="M50.1823541,9.62321818 C52.3144719,9.62321818 54.0429013,7.89980356 54.0429013,5.77387187 C54.0429013,3.64784179 52.3144719,1.92452557 50.1823541,1.92452557 C41.9805045,1.92452557 35.120171,8.59798523 33.5515986,17.4359458 L31.0502308,17.4359458 L31.0502308,3.8493463 C31.0502308,1.72331622 29.3218014,0 27.1896836,0 C25.0574672,0 23.3291364,1.72331622 23.3291364,3.8493463 L23.3291364,17.4363394 L20.5338093,17.4363394 C18.9653356,8.59877236 12.1049035,1.92482074 3.90354722,1.92482074 C1.77142944,1.92482074 0.043,3.64823535 0.043,5.77416704 C0.043,7.90019713 1.77142944,9.62351335 3.90354722,9.62351335 C9.00249302,9.62351335 13.1509802,14.8550547 13.1509802,21.2855873 C13.1509802,27.7161199 9.00249302,32.9471693 3.90354722,32.9471693 C1.77142944,32.9471693 0.043,34.6705839 0.043,36.796614 C0.043,38.9225457 1.77142944,40.6459603 3.90354722,40.6459603 C12.1053969,40.6459603 18.9653356,33.9725006 20.533908,25.13454 L23.3292351,25.13454 L23.3292351,33.3859926 C18.5129007,34.9990126 15.0323593,39.5391613 15.0323593,44.8778503 C15.0323593,51.5622314 20.4860496,57 27.1897823,57 C33.893515,57 39.3471066,51.562133 39.3471066,44.8778503 C39.3471066,39.5391613 35.8666639,34.9990126 31.0503295,33.3859926 L31.0503295,25.13454 L33.5516973,25.13454 C35.1202697,33.972107 41.9809978,40.6459603 50.1824528,40.6459603 C52.3145706,40.6459603 54.043,38.9225457 54.043,36.796614 C54.043,34.6705839 52.3145706,32.9471693 50.1824528,32.9471693 C45.0834083,32.9471693 40.934625,27.7157263 40.934625,21.2850953 C40.9345264,14.8546611 45.0833096,9.62321818 50.1823541,9.62321818 Z M27.1896836,49.3014058 C24.7434764,49.3014058 22.7529604,47.3170586 22.7529604,44.8775551 C22.7529604,42.9683786 23.9752746,41.3420757 25.67864,40.7242794 C26.150909,40.5528825 26.6586031,40.45459 27.1895849,40.45459 C27.7205668,40.45459 28.2282609,40.5528825 28.7005299,40.7242794 C30.4038953,41.3424693 31.6261109,42.9683786 31.6261109,44.8775551 C31.6259135,47.3170586 29.6358909,49.3014058 27.1896836,49.3014058 Z" fill="#229966"></path>
    </g>
</g>
</svg>