<?xml version="1.0" standalone="no"?>
<!DOCTYPE svg PUBLIC "-//W3C//DTD SVG 20010904//EN"
 "http://www.w3.org/TR/2001/REC-SVG-20010904/DTD/svg10.dtd">
<svg version="1.0" xmlns="http://www.w3.org/2000/svg"
 viewBox="0 0 60 60"
 preserveAspectRatio="xMidYMid meet">
<g id="venus-sign" class="planet venus">
    <g id="Capa_1">
        <path d="M36,17.025303 C36,7.63710563 27.9253261,0 17.9997778,0 C8.07422953,0 0,7.63752598 0,17.025303 C0,25.1748208 6.08647561,32.0020084 14.1847035,33.6620934 L14.1847035,36.8083417 L7.45404942,36.8083417 C5.34708137,36.8083417 3.63864182,38.4238691 3.63864182,40.4168749 C3.63864182,42.4096705 5.34663696,44.0254081 7.45404942,44.0254081 L14.1842591,44.0254081 L14.1842591,50.3914668 C14.1842591,52.3844726 15.8923653,54 17.9996667,54 C20.106968,54 21.8151854,52.3844726 21.8151854,50.3914668 L21.8151854,44.0254081 L28.545284,44.0254081 C30.652252,44.0254081 32.3608027,42.4096705 32.3608027,40.4168749 C32.3608027,38.4238691 30.6526964,36.8083417 28.545284,36.8083417 L21.8151854,36.8083417 L21.8151854,33.6619883 C29.9134133,32.0019033 36,25.1752411 36,17.025303 Z M7.63048188,17.025303 C7.63048188,11.6173373 12.2822771,7.2169613 17.9997778,7.2169613 C23.7172785,7.2169613 28.3695181,11.6173373 28.3695181,17.025303 C28.3695181,22.4332687 23.7177229,26.8336447 17.9997778,26.8336447 C12.2817216,26.8336447 7.63048188,22.4336891 7.63048188,17.025303 Z" fill="#004499"></path>
    </g>
</g>
</svg>