<?xml version="1.0" standalone="no"?>
<!DOCTYPE svg PUBLIC "-//W3C//DTD SVG 20010904//EN"
 "http://www.w3.org/TR/2001/REC-SVG-20010904/DTD/svg10.dtd">
<svg version="1.0" xmlns="http://www.w3.org/2000/svg"
 viewBox="0 0 60 60"
 preserveAspectRatio="xMidYMid meet">
<g id="vesta-sign" class="planet vesta">
    <g id="Capa_1">
        <path d="M42.5456215,21.5433447 L28.9014352,21.5433447 C29.3574386,19.7303602 29.9808342,17.5128687 30.7644799,15.3179224 C33.2140013,8.45640064 35.4143455,6.91194679 35.9917686,6.91194679 C36.5466581,6.91194679 36.7511705,7.01179027 36.7482532,7.00967665 C37.2137126,7.59776683 36.9555823,10.5149679 36.0042425,12.9553962 C35.3023817,14.7302349 36.1712325,16.7382765 37.9450481,17.4409049 C39.7194674,18.1443384 41.726063,17.2737274 42.4278232,15.4989894 C42.946498,14.1878392 45.386161,7.42817382 42.4639373,3.12705354 C41.494792,1.70005669 39.5850706,0 35.9912656,0 C31.20308,0 27.3560739,4.27485098 24.2303438,13.0696324 C24.1392035,13.3254814 24.0509805,13.5809277 23.9642664,13.836374 C23.8772506,13.5813303 23.7890276,13.325884 23.6982896,13.0696324 C20.5725595,4.27485098 16.7255534,0 11.9374684,0 C8.3440658,0 6.43434447,1.70086188 5.46489734,3.12705354 C2.54307602,7.42817382 4.98263838,14.1878392 5.50141382,15.4989894 C6.20327463,17.2738281 8.21027264,18.1415202 9.98459126,17.4409049 C11.7585075,16.7382765 12.6273583,14.7302349 11.9254975,12.9553962 C11.0582562,10.762161 10.6691495,7.6493996 11.1608645,7.02688757 C11.1625747,7.02567979 11.3578322,6.9115442 11.9378708,6.9115442 C12.5152939,6.9115442 14.7160405,8.45599804 17.1651595,15.3175199 C17.9487046,17.5124661 18.5721003,19.7299576 19.0281036,21.5429421 L3.45457965,21.5429421 C1.54687025,21.5429421 0,23.0902141 0,24.9989155 L0,45.5440266 C0,47.452728 1.54656846,49 3.45457965,49 L42.5455209,49 C44.4531297,49 46,47.452728 46,45.5440266 L46,24.9994187 C45.9996982,23.0902141 44.4532303,21.5433447 42.5456215,21.5433447 Z M39.0909413,42.0884558 L6.90885751,42.0884558 L6.90885751,28.4553921 L23.3146151,28.4553921 C23.3208521,28.4553921 23.3265861,28.4561973 23.3327225,28.4561973 C23.3385571,28.4561973 23.3446934,28.4553921 23.3504274,28.4553921 L24.5961122,28.4553921 L39.0910419,28.4553921 L39.0910419,42.0884558 L39.0909413,42.0884558 Z" id="Shape"></path>
    </g>
</g>
</svg>