<?xml version="1.0" standalone="no"?>
<!DOCTYPE svg PUBLIC "-//W3C//DTD SVG 20010904//EN"
 "http://www.w3.org/TR/2001/REC-SVG-20010904/DTD/svg10.dtd">
<svg version="1.0" xmlns="http://www.w3.org/2000/svg"
 width="80.000000pt" height="97.000000pt" viewBox="0 0 80.000000 97.000000"
 preserveAspectRatio="xMidYMid meet">
<metadata>
Created by potrace 1.13, written by Peter Selinger 2001-2015
</metadata>
<g transform="translate(0.000000,97.000000) scale(0.100000,-0.100000)"
fill="#000000" stroke="none">
<path d="M322 732 c-95 -34 -159 -101 -187 -195 -20 -69 -19 -116 6 -183 77
-204 344 -255 483 -92 57 67 71 103 71 193 0 67 -5 88 -27 131 -67 128 -218
191 -346 146z m43 -64 c2 -7 6 -51 10 -97 l7 -84 -91 5 c-50 2 -94 7 -97 11
-12 11 26 83 60 115 29 28 82 61 99 62 4 0 9 -6 12 -12z m211 -63 c40 -42 62
-90 49 -104 -4 -3 -47 -8 -96 -9 l-89 -4 6 84 c3 45 7 89 10 96 6 22 75 -14
120 -63z m-202 -272 c-3 -49 -10 -92 -14 -96 -10 -12 -68 18 -108 57 -30 27
-62 83 -62 107 0 9 42 15 128 17 l63 2 -7 -87z m254 72 c11 -11 -22 -75 -56
-107 -43 -42 -101 -73 -112 -61 -10 10 -20 170 -12 178 7 7 172 -2 180 -10z"/>
</g>
</svg>
