<?xml version="1.0" standalone="no"?>
<!DOCTYPE svg PUBLIC "-//W3C//DTD SVG 20010904//EN"
 "http://www.w3.org/TR/2001/REC-SVG-20010904/DTD/svg10.dtd">
<svg version="1.0" xmlns="http://www.w3.org/2000/svg"
 width="80.000000pt" height="97.000000pt" viewBox="0 0 80.000000 97.000000"
 preserveAspectRatio="xMidYMid meet">
<metadata>
Created by potrace 1.13, written by Peter Selinger 2001-2015
</metadata>
<g transform="translate(0.000000,97.000000) scale(0.100000,-0.100000)"
fill="#000000" stroke="none">
<path d="M307 746 c-130 -48 -217 -182 -204 -315 10 -114 72 -205 174 -256 48
-24 71 -29 133 -29 123 -1 219 57 278 169 23 43 27 62 27 135 0 73 -4 93 -28
142 -30 62 -74 106 -140 140 -53 27 -183 35 -240 14z m197 -60 c88 -37 156
-138 156 -234 0 -140 -107 -246 -250 -246 -74 0 -126 22 -178 75 -50 51 -67
95 -66 174 0 104 45 177 139 224 48 24 150 28 199 7z"/>
</g>
</svg>
