<?xml version="1.0" standalone="no"?>
<!DOCTYPE svg PUBLIC "-//W3C//DTD SVG 20010904//EN"
 "http://www.w3.org/TR/2001/REC-SVG-20010904/DTD/svg10.dtd">
<svg version="1.0" xmlns="http://www.w3.org/2000/svg"
 width="80.000000pt" height="97.000000pt" viewBox="0 0 80.000000 97.000000"
 preserveAspectRatio="xMidYMid meet">
<metadata>
Created by potrace 1.13, written by Peter Selinger 2001-2015
</metadata>
<g transform="translate(0.000000,97.000000) scale(0.100000,-0.100000)"
fill="#000000" stroke="none">
<path d="M640 724 c-58 -25 -121 -52 -140 -61 l-35 -15 49 -15 49 -15 -55 -55
-55 -55 -41 21 c-50 26 -145 28 -200 5 -145 -60 -189 -252 -85 -373 110 -129
324 -100 394 54 26 56 25 154 -2 207 l-21 41 53 53 c29 29 56 51 60 48 4 -2
10 -22 14 -44 4 -22 10 -40 13 -40 6 0 92 200 118 273 9 24 3 22 -116 -29z
m-263 -235 c93 -35 140 -154 97 -244 -39 -83 -149 -117 -234 -73 -105 54 -129
178 -53 269 46 54 123 74 190 48z"/>
</g>
</svg>
