<?xml version="1.0" standalone="no"?>
<!DOCTYPE svg PUBLIC "-//W3C//DTD SVG 20010904//EN"
 "http://www.w3.org/TR/2001/REC-SVG-20010904/DTD/svg10.dtd">
<svg version="1.0" xmlns="http://www.w3.org/2000/svg"
 width="80.000000pt" height="97.000000pt" viewBox="0 0 80.000000 97.000000"
 preserveAspectRatio="xMidYMid meet">
<metadata>
Created by potrace 1.13, written by Peter Selinger 2001-2015
</metadata>
<g transform="translate(0.000000,97.000000) scale(0.100000,-0.100000)"
fill="#000000" stroke="none">
<path d="M200 925 c0 -53 29 -114 70 -148 l33 -28 -36 -37 c-45 -46 -57 -78
-57 -148 0 -90 54 -166 140 -196 24 -8 30 -16 30 -40 l0 -30 -70 7 -70 7 0
-46 c0 -44 1 -45 28 -41 15 2 47 7 71 10 l43 6 -4 -91 -4 -90 41 0 41 0 -8 77
c-11 99 -8 106 39 98 21 -3 53 -8 71 -11 l32 -5 0 47 0 46 -69 -7 c-39 -4 -71
-3 -74 2 -14 22 8 50 56 73 69 33 109 91 115 164 5 68 -9 112 -55 165 -36 42
-36 42 -14 57 33 24 70 96 77 150 l5 49 -19 -40 c-91 -191 -306 -193 -391 -5
l-21 45 0 -40z m291 -228 c92 -61 87 -184 -10 -241 -69 -40 -138 -20 -188 54
-41 59 -21 149 43 190 41 28 112 26 155 -3z"/>
</g>
</svg>
