<?xml version="1.0" standalone="no"?>
<!DOCTYPE svg PUBLIC "-//W3C//DTD SVG 20010904//EN"
 "http://www.w3.org/TR/2001/REC-SVG-20010904/DTD/svg10.dtd">
<svg version="1.0" xmlns="http://www.w3.org/2000/svg"
 width="80.000000pt" height="97.000000pt" viewBox="0 0 80.000000 97.000000"
 preserveAspectRatio="xMidYMid meet">
<metadata>
Created by potrace 1.13, written by Peter Selinger 2001-2015
</metadata>
<g transform="translate(0.000000,97.000000) scale(0.100000,-0.100000)"
fill="#000000" stroke="none">
<path d="M360 739 c-144 -28 -192 -190 -99 -341 l29 -48 -45 0 c-26 0 -57 -7
-71 -16 -73 -49 -70 -170 6 -209 73 -38 158 -3 181 74 10 34 7 45 -32 136 -40
91 -44 107 -44 183 0 82 1 84 32 112 41 37 90 46 145 29 35 -12 47 -22 66 -59
12 -24 22 -59 22 -77 0 -36 -41 -167 -71 -225 -49 -96 5 -188 111 -188 32 0
48 7 77 34 34 30 37 38 37 86 0 48 -3 56 -37 86 -35 32 -54 39 -104 34 -29 -2
-28 2 0 48 34 53 47 98 47 157 0 132 -108 211 -250 184z"/>
</g>
</svg>
