<?xml version="1.0" standalone="no"?>
<!DOCTYPE svg PUBLIC "-//W3C//DTD SVG 20010904//EN"
 "http://www.w3.org/TR/2001/REC-SVG-20010904/DTD/svg10.dtd">
<svg version="1.0" xmlns="http://www.w3.org/2000/svg"
 width="80.000000pt" height="97.000000pt" viewBox="0 0 80.000000 97.000000"
 preserveAspectRatio="xMidYMid meet">
<metadata>
Created by potrace 1.13, written by Peter Selinger 2001-2015
</metadata>
<g transform="translate(0.000000,97.000000) scale(0.100000,-0.100000)"
fill="#000000" stroke="none">
<path d="M154 696 c-50 -50 -50 -122 0 -172 29 -29 41 -34 81 -34 26 0 45 -3
43 -7 -2 -5 -16 -32 -31 -61 -51 -97 -46 -199 14 -267 66 -75 223 -79 292 -7
36 37 57 93 57 149 0 44 -6 61 -68 186 -2 4 17 7 41 7 114 0 164 141 76 214
-24 20 -41 26 -81 26 -45 0 -54 -4 -84 -36 -40 -42 -45 -93 -15 -152 61 -123
81 -247 48 -308 -30 -57 -117 -76 -192 -42 -34 15 -59 74 -58 132 2 49 44 182
70 221 7 11 13 41 13 68 0 42 -5 54 -34 83 -30 30 -40 34 -86 34 -46 0 -56 -4
-86 -34z"/>
</g>
</svg>
