<?xml version="1.0" standalone="no"?>
<!DOCTYPE svg PUBLIC "-//W3C//DTD SVG 20010904//EN"
 "http://www.w3.org/TR/2001/REC-SVG-20010904/DTD/svg10.dtd">
<svg version="1.0" xmlns="http://www.w3.org/2000/svg"
 width="80.000000pt" height="97.000000pt" viewBox="0 0 80.000000 97.000000"
 preserveAspectRatio="xMidYMid meet">
<metadata>
Created by potrace 1.13, written by Peter Selinger 2001-2015
</metadata>
<g transform="translate(0.000000,97.000000) scale(0.100000,-0.100000)"
fill="#000000" stroke="none">
<path d="M387 665 c6 -108 5 -115 -13 -115 -29 0 -42 12 -50 45 -18 77 -62
133 -126 160 -49 20 -48 20 -48 -20 0 -30 4 -36 28 -41 62 -15 102 -77 102
-159 0 -69 -18 -106 -67 -136 -21 -12 -39 -23 -41 -24 -8 -6 23 -55 35 -55 23
0 90 76 108 123 11 29 25 47 38 51 31 8 35 -1 29 -76 -4 -62 -6 -67 -33 -79
-68 -27 -100 -133 -60 -197 65 -102 205 -94 253 15 18 40 19 51 8 87 -15 50
-24 62 -72 92 l-38 24 0 71 c0 61 2 70 16 65 9 -3 22 -6 30 -6 8 0 14 -7 14
-15 0 -31 40 -93 82 -129 l43 -37 15 32 c12 27 13 33 2 37 -30 10 -81 65 -93
99 -26 81 12 179 82 209 34 16 39 22 39 50 l0 33 -35 -12 c-65 -23 -134 -111
-135 -173 0 -19 -22 -33 -53 -34 -5 0 -7 52 -5 115 l3 115 -32 0 -31 0 5 -115z
m88 -380 c36 -35 34 -88 -4 -126 -16 -16 -39 -29 -50 -29 -52 0 -101 48 -101
100 0 12 13 35 29 51 38 38 91 40 126 4z"/>
</g>
</svg>
