<?xml version="1.0" standalone="no"?>
<!DOCTYPE svg PUBLIC "-//W3C//DTD SVG 20010904//EN"
 "http://www.w3.org/TR/2001/REC-SVG-20010904/DTD/svg10.dtd">
<svg version="1.0" xmlns="http://www.w3.org/2000/svg"
 width="80.000000pt" height="97.000000pt" viewBox="0 0 80.000000 97.000000"
 preserveAspectRatio="xMidYMid meet">
<metadata>
Created by potrace 1.13, written by Peter Selinger 2001-2015
</metadata>
<g transform="translate(0.000000,97.000000) scale(0.100000,-0.100000)"
fill="#000000" stroke="none">
<path d="M357 795 c-70 -24 -117 -88 -117 -158 0 -146 170 -228 276 -134 45
39 64 76 64 126 0 122 -112 205 -223 166z m109 -85 c90 -56 52 -191 -55 -193
-79 -2 -130 75 -96 146 16 35 63 66 99 67 10 0 34 -9 52 -20z"/>
<path d="M100 660 c0 -60 41 -142 99 -201 50 -50 90 -72 169 -95 7 -2 12 -20
12 -45 l0 -42 -85 5 -85 4 0 -43 0 -43 87 7 86 6 -6 -76 -7 -77 41 0 41 0 -7
77 -8 76 92 -7 91 -7 0 44 0 44 -90 -5 c-90 -5 -90 -5 -90 19 0 41 12 69 29
69 34 0 118 49 158 92 53 59 83 117 90 179 l6 49 -35 0 c-35 0 -36 -1 -42 -51
-18 -131 -115 -223 -236 -223 -121 0 -218 94 -236 228 -6 44 -8 46 -40 46 -31
0 -34 -3 -34 -30z"/>
</g>
</svg>
