<?xml version="1.0" standalone="no"?>
<!DOCTYPE svg PUBLIC "-//W3C//DTD SVG 20010904//EN"
 "http://www.w3.org/TR/2001/REC-SVG-20010904/DTD/svg10.dtd">
<svg version="1.0" xmlns="http://www.w3.org/2000/svg"
 width="80.000000pt" height="97.000000pt" viewBox="0 0 80.000000 97.000000"
 preserveAspectRatio="xMidYMid meet">
<metadata>
Created by potrace 1.13, written by Peter Selinger 2001-2015
</metadata>
<g transform="translate(0.000000,97.000000) scale(0.100000,-0.100000)"
fill="#000000" stroke="none">
<path d="M375 781 c-127 -32 -201 -150 -175 -277 10 -49 20 -65 65 -110 36
-37 63 -55 89 -59 32 -6 36 -11 36 -38 l0 -30 -70 7 -70 6 0 -44 0 -43 72 5
71 5 -6 -72 -6 -72 42 3 41 3 -2 50 c-2 28 -6 59 -9 69 -5 18 -1 19 71 13 l76
-5 0 44 0 44 -68 -6 -69 -7 -6 33 c-4 18 -7 48 -7 66 0 33 -1 34 -42 34 -152
0 -206 211 -76 290 59 36 145 23 192 -28 l18 -21 39 26 40 26 -22 23 c-47 50
-157 81 -224 65z"/>
</g>
</svg>
