<?xml version="1.0" standalone="no"?>
<!DOCTYPE svg PUBLIC "-//W3C//DTD SVG 20010904//EN"
 "http://www.w3.org/TR/2001/REC-SVG-20010904/DTD/svg10.dtd">
<svg version="1.0" xmlns="http://www.w3.org/2000/svg"
 width="80.000000pt" height="97.000000pt" viewBox="0 0 80.000000 97.000000"
 preserveAspectRatio="xMidYMid meet">
<metadata>
Created by potrace 1.13, written by Peter Selinger 2001-2015
</metadata>
<g transform="translate(0.000000,97.000000) scale(0.100000,-0.100000)"
fill="#000000" stroke="none">
<path d="M392 725 c-41 -34 -45 -68 -16 -141 28 -72 30 -91 7 -116 -22 -25
-10 -33 27 -18 65 27 76 81 35 169 -26 56 -26 81 3 114 14 15 13 17 -6 17 -11
0 -34 -11 -50 -25z"/>
<path d="M168 596 c-21 -12 -38 -24 -38 -27 0 -3 42 -69 93 -146 50 -77 112
-174 137 -216 25 -42 48 -77 52 -77 4 0 30 39 59 87 29 49 89 142 134 208 44
66 83 125 88 132 7 11 -48 53 -69 53 -5 0 -40 -58 -78 -129 -38 -71 -83 -153
-101 -181 l-32 -52 -30 49 c-17 26 -64 109 -103 183 -40 74 -73 135 -74 136
-1 0 -18 -9 -38 -20z"/>
</g>
</svg>
