<?xml version="1.0" standalone="no"?>
<!DOCTYPE svg PUBLIC "-//W3C//DTD SVG 20010904//EN"
 "http://www.w3.org/TR/2001/REC-SVG-20010904/DTD/svg10.dtd">
<svg version="1.0" xmlns="http://www.w3.org/2000/svg"
 width="80.000000pt" height="97.000000pt" viewBox="0 0 80.000000 97.000000"
 preserveAspectRatio="xMidYMid meet">
<metadata>
Created by potrace 1.13, written by Peter Selinger 2001-2015
</metadata>
<g transform="translate(0.000000,97.000000) scale(0.100000,-0.100000)"
fill="#000000" stroke="none">
<path d="M376 688 c8 -104 16 -101 -85 -30 -68 48 -65 48 -96 -9 -14 -26 -14
-26 66 -64 43 -22 79 -41 79 -45 0 -6 -135 -70 -149 -70 -15 0 -14 -2 12 -48
l23 -41 69 49 c39 27 74 49 78 50 4 0 6 -44 5 -97 l-3 -98 -55 3 c-30 1 -65 5
-77 7 -21 5 -23 2 -23 -44 l0 -49 38 9 c20 5 54 9 75 9 l37 0 0 -75 0 -75 46
0 46 0 -7 77 -7 76 81 -7 81 -6 0 45 c0 42 -2 45 -22 41 -13 -3 -49 -8 -80
-11 l-58 -6 -1 78 c0 43 -2 88 -5 101 -2 12 0 22 4 22 5 0 41 -22 80 -49 l71
-49 21 32 c11 19 20 37 20 42 0 5 -34 24 -75 43 -41 18 -75 38 -75 43 0 5 35
26 79 46 l79 37 -25 38 c-15 24 -28 35 -36 30 -7 -4 -41 -27 -76 -52 l-64 -44
5 91 4 92 -43 0 -44 0 7 -92z"/>
</g>
</svg>
