<?xml version="1.0" standalone="no"?>
<!DOCTYPE svg PUBLIC "-//W3C//DTD SVG 20010904//EN"
 "http://www.w3.org/TR/2001/REC-SVG-20010904/DTD/svg10.dtd">
<svg version="1.0" xmlns="http://www.w3.org/2000/svg"
 width="80.000000pt" height="97.000000pt" viewBox="0 0 80.000000 97.000000"
 preserveAspectRatio="xMidYMid meet">
<g transform="translate(0.000000,97.000000) scale(0.100000,-0.100000)"
fill="#996600" stroke="none">
<path d="M204 799 c-52 -15 -58 -31 -25 -63 24 -23 32 -26 49 -17 33 17 86 13
109 -9 79 -73 38 -254 -91 -396 l-56 -62 137 -7 136 -7 -7 -84 -7 -84 41 0 42
0 -7 87 -8 86 72 -6 71 -6 0 45 0 45 -72 -7 -71 -7 6 77 5 76 -38 0 -38 0 5
-75 6 -75 -71 0 -72 0 40 62 c46 70 80 170 80 233 0 143 -107 231 -236 194z"/>
</g>
</svg>
