<?xml version="1.0" standalone="no"?>
<!DOCTYPE svg PUBLIC "-//W3C//DTD SVG 20010904//EN"
 "http://www.w3.org/TR/2001/REC-SVG-20010904/DTD/svg10.dtd">
<svg version="1.0" xmlns="http://www.w3.org/2000/svg"
 width="80.000000pt" height="97.000000pt" viewBox="0 0 80.000000 97.000000" preserveAspectRatio="xMidYMid meet">
<g transform="translate(0.000000,97.000000) scale(0.100000,-0.100000)"
fill="#990066" stroke="none">
<path d="M400 870 c0 -5 -20 -58 -45 -116 -25 -57 -45 -107 -45 -110 0 -3 10
2 22 10 41 29 45 22 52 -116 3 -72 4 -133 1 -136 -11 -12 -97 32 -119 61 -25
35 -46 88 -46 120 0 18 1 18 25 3 14 -9 25 -14 25 -11 0 8 -73 190 -79 197 -3
4 -25 -40 -47 -97 l-42 -104 29 15 c24 12 29 12 29 1 0 -7 7 -37 16 -66 19
-64 69 -122 126 -145 69 -29 73 -32 76 -60 3 -24 0 -26 -30 -25 -18 0 -59 4
-90 8 l-58 7 0 -49 c0 -41 3 -48 18 -43 9 2 50 8 90 11 82 8 77 16 63 -97 l-7
-58 42 0 42 0 -5 81 -6 81 74 -7 c41 -4 80 -8 87 -10 8 -3 12 10 12 43 l0 48
-57 -7 c-108 -14 -113 -13 -113 21 0 26 5 31 38 40 88 23 156 104 169 200 6
45 9 47 43 23 18 -13 22 -13 18 -2 -3 8 -23 56 -43 108 l-38 93 -24 -58 c-14
-33 -33 -80 -44 -107 l-19 -47 24 15 c30 20 35 11 24 -40 -9 -45 -59 -112 -92
-124 -71 -27 -66 -34 -66 87 0 60 3 123 6 140 l6 30 33 -20 34 -19 -45 105
c-24 58 -44 110 -44 115 0 5 -4 13 -10 16 -5 3 -10 1 -10 -5z"/>
</g>
</svg>
