<?xml version="1.0" standalone="no"?>
<!DOCTYPE svg PUBLIC "-//W3C//DTD SVG 20010904//EN"
 "http://www.w3.org/TR/2001/REC-SVG-20010904/DTD/svg10.dtd">
<svg version="1.0" xmlns="http://www.w3.org/2000/svg"
 width="80.000000pt" height="97.000000pt" viewBox="0 0 80.000000 97.000000"
 preserveAspectRatio="xMidYMid meet">
<metadata>
Created by potrace 1.13, written by Peter Selinger 2001-2015
</metadata>
<g transform="translate(0.000000,97.000000) scale(0.100000,-0.100000)"
fill="#000000" stroke="none">
<path d="M393 786 c-4 -8 -55 -65 -113 -127 -58 -61 -106 -116 -108 -120 -2
-4 44 -54 102 -110 73 -69 106 -109 106 -124 0 -17 -5 -22 -22 -19 -13 2 -51
5 -85 8 l-63 4 0 -44 0 -44 87 7 86 6 -6 -81 -5 -82 40 0 41 0 -6 81 -7 82 90
-7 90 -7 0 47 0 46 -37 -6 c-79 -12 -136 -11 -141 3 -2 7 45 63 106 125 l111
111 -120 130 c-65 71 -123 131 -128 133 -5 2 -13 -4 -18 -12z m106 -179 c39
-38 71 -72 71 -76 0 -3 -36 -42 -79 -85 l-79 -79 -81 84 -81 84 77 73 c43 40
83 71 90 70 6 -2 43 -34 82 -71z"/>
</g>
</svg>
