<?xml version="1.0" standalone="no"?>
<!DOCTYPE svg PUBLIC "-//W3C//DTD SVG 20010904//EN"
 "http://www.w3.org/TR/2001/REC-SVG-20010904/DTD/svg10.dtd">
<svg version="1.0" xmlns="http://www.w3.org/2000/svg"
 width="80.000000pt" height="97.000000pt" viewBox="0 0 80.000000 97.000000" preserveAspectRatio="xMidYMid meet">
<g transform="translate(0.000000,97.000000) scale(0.100000,-0.100000)"
fill="#0000ff" stroke="none">
<path d="M319 773 c0 -5 0 -34 1 -67 l2 -59 -76 5 -76 5 0 -33 0 -34 78 3 77
2 3 -93 3 -94 36 28 c64 48 163 43 199 -11 57 -87 -26 -203 -201 -280 -30 -14
-55 -27 -55 -30 0 -3 7 -19 15 -36 l16 -29 52 26 c99 50 196 134 229 198 21
41 26 105 10 146 -26 67 -106 107 -194 97 l-48 -6 0 44 0 45 110 -7 110 -6 0
37 0 36 -110 -6 -110 -7 7 67 6 66 -42 0 c-22 0 -41 -3 -42 -7z"/>
</g>
</svg>
