<?xml version="1.0" standalone="no"?>
<!DOCTYPE svg PUBLIC "-//W3C//DTD SVG 20010904//EN"
 "http://www.w3.org/TR/2001/REC-SVG-20010904/DTD/svg10.dtd">
<svg version="1.0" xmlns="http://www.w3.org/2000/svg"
 width="480.000000pt" height="480.000000pt" viewBox="0 0 480.000000 480.000000"
 preserveAspectRatio="xMidYMid meet">
<metadata>
Created by potrace 1.13, written by Peter Selinger 2001-2015
</metadata>
<g transform="translate(0.000000,480.000000) scale(0.100000,-0.100000)"
fill="#000000" stroke="none">
<path d="M0 2400 l0 -2400 2400 0 2400 0 0 2400 0 2400 -2400 0 -2400 0 0
-2400z m1667 2153 c49 -146 74 -209 86 -211 12 -3 1 41 -54 205 -38 114 -69
209 -69 210 0 2 346 3 770 3 424 0 770 -1 770 -3 0 -1 -31 -96 -69 -210 -55
-164 -66 -208 -54 -205 12 2 37 65 86 211 l69 207 771 0 772 0 -208 -208
c-114 -114 -207 -214 -207 -222 0 -8 97 82 215 200 l215 215 0 -772 0 -771
-215 -72 c-145 -48 -215 -76 -215 -86 0 -8 1 -14 3 -14 1 0 97 32 212 70 115
39 211 70 212 70 2 0 3 -346 3 -770 0 -424 -1 -770 -3 -770 -1 0 -97 32 -212
70 -115 39 -211 70 -212 70 -2 0 -3 -6 -3 -14 0 -10 70 -38 215 -86 l215 -72
0 -771 0 -772 -213 213 c-117 117 -216 209 -220 205 -4 -4 88 -103 205 -220
l213 -213 -772 0 -771 0 -72 215 c-48 145 -76 215 -86 215 -8 0 -14 -1 -14 -3
0 -1 31 -97 70 -212 38 -115 70 -211 70 -212 0 -2 -346 -3 -770 -3 -424 0
-770 1 -770 3 0 1 31 97 70 212 38 115 70 211 70 212 0 2 -6 3 -14 3 -10 0
-38 -70 -86 -215 l-72 -215 -771 0 -772 0 215 215 c118 118 208 215 200 215
-8 0 -108 -93 -222 -207 l-208 -208 0 772 0 771 208 69 c145 49 208 74 210 86
3 12 -41 1 -205 -54 -114 -38 -209 -69 -210 -69 -2 0 -3 346 -3 770 0 424 1
770 3 770 1 0 96 -31 210 -69 164 -55 208 -66 205 -54 -2 12 -65 37 -210 86
l-208 69 0 771 0 772 208 -208 c114 -114 211 -204 215 -200 4 4 -86 101 -200
215 l-208 208 772 0 771 0 69 -207z"/>
</g>
</svg>
