<?xml version="1.0" standalone="no"?>
<!DOCTYPE svg PUBLIC "-//W3C//DTD SVG 20010904//EN"
 "http://www.w3.org/TR/2001/REC-SVG-20010904/DTD/svg10.dtd">
<svg version="1.0" xmlns="http://www.w3.org/2000/svg"
 width="480.000000pt" height="480.000000pt" viewBox="0 0 480.000000 480.000000"
 preserveAspectRatio="xMidYMid meet">
<metadata>
Created by potrace 1.13, written by Peter Selinger 2001-2015
</metadata>
<g transform="translate(0.000000,480.000000) scale(0.100000,-0.100000)"
fill="#000000" stroke="none">
<path d="M0 2400 l0 -2400 2400 0 2400 0 0 2400 0 2400 -2400 0 -2400 0 0
-2400z m1802 1778 l-582 -583 -582 583 -583 582 1165 0 1165 0 -583 -582z
m2360 0 l-582 -583 -582 583 -583 582 1165 0 1165 0 -583 -582z m-3540 -1180
l-582 -583 0 1165 0 1165 582 -583 583 -582 -583 -582z m2363 1162 l580 -580
-583 -583 -582 -582 -582 582 -583 583 580 580 c319 319 582 580 585 580 3 0
266 -261 585 -580z m1775 -582 l0 -1163 -582 582 -583 583 580 580 c319 319
581 580 582 580 2 0 3 -523 3 -1162z m-2955 -598 l580 -580 -583 -583 -582
-582 -582 582 -583 583 580 580 c319 319 582 580 585 580 3 0 266 -261 585
-580z m2360 0 l580 -580 -583 -583 -582 -582 -582 582 -583 583 580 580 c319
319 582 580 585 580 3 0 266 -261 585 -580z m-3543 -2342 l-582 -583 0 1165 0
1165 582 -583 583 -582 -583 -582z m2363 1162 l580 -580 -583 -583 -582 -582
-582 582 -583 583 580 580 c319 319 582 580 585 580 3 0 266 -261 585 -580z
m1775 -582 l0 -1163 -582 582 -583 583 580 580 c319 319 581 580 582 580 2 0
3 -523 3 -1162z m-2955 -598 l580 -580 -1165 0 -1165 0 580 580 c319 319 582
580 585 580 3 0 266 -261 585 -580z m2360 0 l580 -580 -1165 0 -1165 0 580
580 c319 319 582 580 585 580 3 0 266 -261 585 -580z"/>
</g>
</svg>
