<?xml version="1.0" standalone="no"?>
<!DOCTYPE svg PUBLIC "-//W3C//DTD SVG 20010904//EN"
 "http://www.w3.org/TR/2001/REC-SVG-20010904/DTD/svg10.dtd">
<svg version="1.0" xmlns="http://www.w3.org/2000/svg"
 width="480.000000pt" height="480.000000pt" viewBox="0 0 480.000000 480.000000"
 preserveAspectRatio="xMidYMid meet">
<metadata>
Created by potrace 1.13, written by Peter Selinger 2001-2015
</metadata>
<g transform="translate(0.000000,480.000000) scale(0.100000,-0.100000)"
fill="#000000" stroke="none">
<path d="M2165 4774 c-348 -36 -730 -167 -1032 -355 -298 -186 -598 -490 -775
-784 -309 -515 -415 -1113 -302 -1700 62 -321 221 -684 411 -942 243 -330 526
-567 892 -747 216 -106 515 -194 759 -222 251 -30 607 -9 827 46 571 145 1045
462 1382 925 241 332 398 742 444 1165 17 154 6 476 -20 620 -75 406 -224 753
-451 1050 -251 329 -576 587 -950 752 -155 69 -403 143 -583 174 -89 15 -506
28 -602 18z m267 -246 c0 -34 1 -70 0 -78 0 -8 -2 -120 -2 -247 -1 -128 -5
-233 -8 -233 -150 -6 -325 -34 -465 -75 -46 -13 -136 -50 -200 -81 -65 -32
-119 -55 -120 -53 -6 7 -237 404 -285 490 l-32 57 78 40 c134 70 334 146 469
178 109 26 349 59 461 62 l102 4 2 -64z m238 41 c247 -26 484 -99 736 -226 52
-27 94 -52 94 -57 0 -7 -30 -64 -153 -286 -84 -153 -141 -250 -146 -250 -3 0
-19 8 -36 18 -16 10 -76 40 -132 65 -150 69 -312 108 -548 132 -20 2 -20 8
-16 306 2 167 5 307 7 310 4 7 36 5 194 -12z m-1215 -569 c81 -140 149 -258
151 -262 2 -3 -16 -18 -41 -32 -96 -57 -240 -186 -339 -306 -47 -57 -148 -198
-162 -228 -2 -3 -25 9 -204 111 -207 117 -360 208 -360 214 0 3 25 44 56 91
163 251 379 470 628 635 90 60 101 65 111 49 7 -9 79 -132 160 -272z m2166
215 c35 -24 72 -50 83 -57 10 -7 68 -56 129 -108 159 -136 311 -313 431 -502
l36 -57 -47 -27 c-27 -15 -74 -45 -105 -66 -31 -21 -59 -38 -62 -38 -3 0 -54
-31 -113 -68 -60 -38 -130 -82 -157 -97 -47 -28 -50 -28 -60 -10 -103 178
-278 370 -446 489 -30 22 -59 43 -63 47 -5 4 52 118 127 253 160 289 158 286
172 286 6 0 39 -20 75 -45z m-1203 -385 c4 0 4 -116 1 -257 -4 -142 -7 -317
-8 -389 l-1 -130 -76 -12 c-64 -10 -157 -38 -224 -66 -17 -7 -19 -3 -210 329
-57 99 -123 213 -147 252 -24 40 -43 77 -43 83 0 15 168 95 259 124 123 39
386 81 429 70 8 -2 17 -4 20 -4z m227 -15 c55 -8 144 -29 198 -46 93 -28 297
-123 297 -137 0 -4 -49 -95 -108 -203 -59 -107 -141 -257 -182 -332 -41 -75
-79 -137 -84 -137 -5 0 -32 11 -60 24 -54 26 -142 50 -216 61 l-45 6 2 167 c2
92 5 267 9 390 l6 222 42 0 c22 0 86 -7 141 -15z m-870 -367 c55 -94 102 -177
104 -182 2 -6 12 -22 21 -36 9 -14 29 -45 42 -70 14 -25 47 -83 74 -129 l48
-84 -25 -16 c-41 -27 -116 -100 -159 -156 l-42 -54 -37 24 c-21 13 -89 52
-152 87 -266 150 -464 267 -467 276 -8 26 146 229 244 322 96 91 222 190 243
190 4 0 52 -77 106 -172z m1471 116 c134 -96 279 -252 376 -404 l38 -59 -28
-19 c-15 -11 -40 -27 -57 -36 -16 -9 -42 -24 -57 -34 -16 -9 -97 -59 -180
-111 -84 -51 -182 -112 -218 -135 -114 -75 -102 -75 -154 -2 -25 35 -73 88
-106 118 l-60 53 187 338 c103 185 189 337 191 337 2 0 32 -21 68 -46z m-2494
-260 c150 -86 277 -160 282 -165 6 -5 -9 -48 -37 -106 -76 -162 -121 -343
-136 -551 -5 -62 -11 -115 -13 -118 -3 -2 -150 -7 -327 -11 l-321 -6 0 84 c0
85 23 300 40 374 5 22 16 73 25 113 24 109 87 285 151 421 31 67 58 121 60
121 2 0 126 -70 276 -156z m3603 79 c92 -188 148 -348 185 -533 11 -58 25
-127 31 -155 6 -27 13 -119 16 -202 l6 -153 -139 0 c-76 0 -216 3 -310 7
l-172 6 -1 76 c-3 196 -59 434 -148 624 -31 66 -35 80 -23 88 143 89 278 172
372 229 65 39 120 75 123 80 12 20 22 8 60 -67z m-3029 -409 c93 -53 189 -108
214 -122 25 -14 93 -53 153 -88 59 -35 112 -64 118 -64 13 0 11 -4 -25 -107
-15 -40 -30 -105 -34 -145 l-7 -73 -155 -6 c-85 -4 -257 -7 -382 -8 l-228 -1
0 64 c0 92 37 296 75 412 27 82 92 234 100 234 1 0 78 -43 171 -96z m2379 36
c79 -155 145 -432 145 -604 l0 -59 -372 7 c-205 4 -374 8 -375 10 -2 2 -10 43
-17 92 -8 49 -23 114 -35 144 -11 30 -21 58 -21 62 0 4 25 22 55 40 30 18 150
92 265 163 116 72 218 135 228 140 9 6 33 21 52 33 19 12 38 22 42 22 4 0 19
-22 33 -50z m-1131 -36 c206 -53 395 -242 440 -439 25 -109 28 -175 11 -270
-18 -104 -54 -186 -118 -270 -279 -369 -858 -300 -1054 125 -37 81 -47 133
-47 255 -1 100 3 131 22 186 25 73 79 167 128 223 82 94 230 180 344 199 64
11 216 6 274 -9z m-830 -656 c2 -7 13 -52 24 -100 11 -48 32 -110 47 -139 14
-28 24 -53 23 -54 -3 -3 -141 -85 -193 -115 -49 -29 -192 -111 -332 -193 -72
-42 -135 -77 -140 -77 -9 1 -72 127 -102 205 -38 102 -90 348 -91 432 l0 42
48 4 c26 2 197 4 380 5 259 2 333 -1 336 -10z m-884 -54 c0 -161 62 -404 152
-593 27 -56 48 -104 46 -105 -2 -1 -48 -29 -103 -60 -55 -32 -117 -69 -137
-82 -21 -13 -39 -24 -42 -24 -2 0 -57 -31 -122 -70 -65 -38 -123 -70 -130 -70
-20 0 -160 295 -208 440 -50 151 -91 338 -106 480 -13 129 -13 128 13 133 12
2 160 5 330 6 l307 1 0 -56z m2986 44 c11 -12 -13 -193 -40 -299 -27 -103 -94
-284 -120 -324 l-17 -25 -47 26 c-26 15 -87 50 -137 79 -49 29 -175 101 -280
160 -104 60 -192 110 -194 111 -2 2 10 36 27 76 33 81 47 131 50 186 l2 23
374 -3 c206 -2 378 -6 382 -10z m741 -14 c5 -14 -9 -167 -23 -239 -42 -226
-81 -361 -151 -525 -41 -96 -110 -230 -118 -230 -2 0 -50 28 -107 61 -57 34
-137 80 -178 104 -101 57 -224 127 -227 130 -2 1 15 37 36 81 77 157 151 445
151 585 l0 49 305 0 c268 0 306 -2 312 -16z m-1270 -475 c175 -100 322 -185
327 -189 20 -19 -141 -229 -269 -351 -83 -78 -219 -179 -229 -168 -2 2 -41 72
-86 154 -46 83 -130 235 -188 339 l-106 189 24 16 c44 29 124 104 159 148 18
24 37 43 41 43 5 0 152 -82 327 -181z m-1414 124 c38 -46 116 -117 148 -134
20 -10 20 -11 -4 -52 -13 -23 -39 -69 -57 -102 -18 -33 -49 -89 -70 -125 -20
-36 -81 -145 -134 -242 -54 -98 -100 -178 -103 -178 -12 0 -120 72 -153 101
-19 17 -50 43 -69 58 -41 31 -176 190 -232 272 l-39 58 22 15 c30 18 517 304
588 344 30 18 58 31 61 29 4 -1 22 -21 42 -44z m297 -208 c41 -14 105 -29 143
-32 l67 -6 0 -38 c0 -90 20 -697 24 -726 l5 -33 -62 0 c-139 1 -333 41 -485
101 -80 32 -172 77 -172 84 0 6 278 512 377 688 3 4 10 4 16 -1 7 -5 46 -22
87 -37z m593 -62 c29 -54 63 -114 74 -133 11 -19 62 -111 113 -204 51 -94 101
-184 111 -200 11 -17 19 -37 19 -44 0 -16 -135 -80 -256 -120 -104 -35 -208
-57 -310 -67 l-71 -7 -6 114 c-4 62 -10 242 -13 401 l-7 287 34 0 c49 0 154
27 197 50 20 10 42 19 49 20 6 0 36 -44 66 -97z m1026 -141 c25 -16 137 -80
248 -143 111 -63 202 -120 203 -127 0 -22 -117 -188 -209 -295 -86 -100 -205
-215 -306 -295 -75 -59 -244 -172 -258 -172 -12 0 -277 465 -277 487 0 7 12
20 28 30 162 102 359 302 476 486 20 31 39 57 43 57 3 0 27 -13 52 -28z
m-2708 -39 c89 -146 234 -301 391 -418 54 -40 104 -75 111 -78 7 -2 -41 -98
-127 -253 -76 -137 -142 -253 -146 -257 -18 -19 -224 116 -380 248 -66 56
-205 200 -266 275 -69 85 -144 194 -144 209 0 5 53 40 118 76 64 37 135 79
157 92 116 71 241 142 252 143 6 0 22 -17 34 -37z m583 -543 c46 -28 241 -105
330 -130 89 -25 265 -50 354 -50 l62 0 0 -52 c0 -29 3 -158 7 -285 l6 -233
-104 0 c-160 0 -382 35 -576 90 -88 26 -333 124 -386 156 -17 10 -7 33 123
267 79 142 145 257 148 257 2 0 19 -9 36 -20z m1627 -228 l136 -247 -59 -33
c-77 -43 -286 -126 -396 -158 -135 -39 -367 -78 -467 -79 l-40 0 -7 125 c-3
69 -8 195 -10 281 l-4 156 126 16 c178 22 397 90 525 163 22 13 45 23 50 23 6
0 71 -111 146 -247z"/>
</g>
</svg>
