<?xml version="1.0" standalone="no"?>
<!DOCTYPE svg PUBLIC "-//W3C//DTD SVG 20010904//EN"
 "http://www.w3.org/TR/2001/REC-SVG-20010904/DTD/svg10.dtd">
<svg version="1.0" xmlns="http://www.w3.org/2000/svg"
 width="480.000000pt" height="480.000000pt" viewBox="0 0 480.000000 480.000000"
 preserveAspectRatio="xMidYMid meet">
<metadata>
Created by potrace 1.13, written by Peter Selinger 2001-2015
</metadata>
<g transform="translate(0.000000,480.000000) scale(0.100000,-0.100000)"
fill="#000000" stroke="none">
<path d="M0 2400 l0 -2400 2400 0 2400 0 0 2400 0 2400 -2400 0 -2400 0 0
-2400z m1180 1790 l0 -570 -570 0 -570 0 0 570 0 570 570 0 570 0 0 -570z
m1200 0 l0 -570 -585 0 -585 0 0 570 0 570 585 0 585 0 0 -570z m1200 0 l0
-570 -585 0 -585 0 0 570 0 570 585 0 585 0 0 -570z m1180 0 l0 -570 -575 0
-575 0 0 570 0 570 575 0 575 0 0 -570z m-3580 -1185 l0 -585 -570 0 -570 0 0
585 0 585 570 0 570 0 0 -585z m2400 -600 l0 -1185 -1185 0 -1185 0 0 1185 0
1185 1185 0 1185 0 0 -1185z m1180 600 l0 -585 -575 0 -575 0 0 585 0 585 575
0 575 0 0 -585z m-3580 -1200 l0 -585 -570 0 -570 0 0 585 0 585 570 0 570 0
0 -585z m3580 0 l0 -585 -575 0 -575 0 0 585 0 585 575 0 575 0 0 -585z
m-3580 -1190 l0 -575 -570 0 -570 0 0 575 0 575 570 0 570 0 0 -575z m1200 0
l0 -575 -585 0 -585 0 0 575 0 575 585 0 585 0 0 -575z m1200 0 l0 -575 -585
0 -585 0 0 575 0 575 585 0 585 0 0 -575z m1180 0 l0 -575 -575 0 -575 0 0
575 0 575 575 0 575 0 0 -575z"/>
</g>
</svg>
