<?xml version="1.0" standalone="no"?>
<!DOCTYPE svg PUBLIC "-//W3C//DTD SVG 20010904//EN"
 "http://www.w3.org/TR/2001/REC-SVG-20010904/DTD/svg10.dtd">
<svg version="1.0" xmlns="http://www.w3.org/2000/svg"
 width="1300.000000pt" height="1300.000000pt" viewBox="0 0 1300.000000 1300.000000"
 preserveAspectRatio="xMidYMid meet">
<metadata>
Created by potrace 1.13, written by Peter Selinger 2001-2015
</metadata>
<g transform="translate(0.000000,1300.000000) scale(0.100000,-0.100000)"
fill="#000000" stroke="none">

<path d="M6185 12369 c-450 -16 -692 -50 -1150 -160 -249 -60 -449 -123 -715
-225 -19 -7 -41 -13 -49 -14 -16 0 -182 -74 -281 -124 -36 -18 -83 -39 -105
-46 -40 -13 -202 -98 -286 -151 -25 -16 -61 -34 -80 -41 -19 -6 -59 -28 -89
-49 -76 -51 -186 -121 -240 -151 -25 -14 -81 -54 -125 -88 -44 -34 -96 -70
-115 -80 -19 -10 -46 -29 -60 -42 -14 -13 -90 -76 -170 -140 -80 -64 -161
-132 -180 -150 -19 -19 -77 -71 -127 -117 -51 -45 -93 -89 -93 -97 0 -8 -6
-14 -14 -14 -30 0 -463 -485 -558 -625 -15 -22 -51 -70 -80 -105 -29 -36 -68
-90 -88 -121 -19 -31 -64 -101 -101 -155 -36 -55 -89 -142 -119 -194 -29 -52
-59 -102 -66 -111 -23 -26 -239 -469 -267 -544 -14 -39 -39 -101 -57 -140 -39
-87 -117 -294 -129 -343 -5 -21 -31 -111 -59 -202 -69 -228 -88 -300 -111
-415 -19 -96 -28 -149 -71 -439 -49 -323 -68 -738 -51 -1061 17 -314 31 -432
107 -895 18 -111 67 -306 119 -475 20 -66 46 -153 57 -194 53 -203 356 -895
462 -1057 12 -17 39 -64 61 -103 22 -39 72 -120 110 -178 39 -59 86 -133 105
-166 20 -32 45 -68 56 -80 11 -12 59 -74 106 -137 46 -64 111 -147 144 -185
32 -39 77 -92 99 -120 49 -62 134 -153 245 -262 47 -46 89 -87 93 -92 60 -68
296 -283 368 -337 14 -10 72 -55 127 -99 122 -97 244 -187 321 -237 201 -132
321 -206 398 -245 48 -25 95 -51 104 -59 8 -7 130 -68 270 -134 140 -66 261
-124 269 -129 9 -5 31 -12 49 -16 18 -4 65 -21 105 -37 71 -30 148 -58 281
-105 39 -13 129 -39 200 -58 72 -19 180 -48 242 -64 148 -39 397 -90 497 -102
681 -80 1094 -81 1751 -3 263 32 793 161 1055 259 69 25 181 66 250 91 69 25
177 70 240 101 63 30 133 63 155 73 115 52 177 83 239 120 39 23 107 61 153
86 46 24 109 61 140 82 31 20 81 54 112 74 31 21 61 38 66 38 6 0 25 13 42 28
18 15 74 56 124 92 138 98 232 170 249 189 8 9 42 37 75 61 33 24 85 68 115
98 30 30 71 66 90 81 52 38 438 430 465 471 12 19 40 53 61 74 95 96 466 600
499 678 7 18 26 51 42 73 46 64 97 151 168 290 37 72 89 173 116 225 27 52 49
100 49 107 0 6 17 49 39 95 61 132 118 269 131 318 7 25 45 144 86 265 76 226
122 415 189 785 111 616 115 1267 10 1903 -23 135 -45 246 -107 527 -11 52
-53 194 -93 315 -39 121 -80 245 -89 275 -10 30 -26 73 -36 95 -53 117 -105
237 -125 290 -29 75 -120 260 -148 299 -11 16 -30 52 -42 80 -22 54 -61 123
-125 221 -22 33 -53 85 -69 116 -16 30 -45 75 -63 100 -19 24 -55 76 -81 114
-52 78 -83 121 -172 234 -33 42 -67 87 -76 101 -9 14 -51 62 -93 108 -42 45
-76 86 -76 90 0 13 -457 468 -561 559 -184 160 -560 442 -649 488 -19 10 -55
32 -80 50 -60 43 -178 113 -270 160 -41 21 -86 46 -100 55 -14 10 -54 32 -90
50 -61 31 -105 51 -389 179 -59 27 -123 52 -141 56 -18 4 -63 20 -100 35 -120
49 -403 143 -485 160 -44 10 -143 33 -220 53 -336 85 -641 128 -1005 142 -321
12 -370 12 -585 4z m225 -632 l0 -594 -167 -6 c-162 -7 -378 -27 -493 -47 -30
-5 -68 -11 -85 -13 -16 -3 -46 -8 -65 -11 -19 -3 -48 -8 -65 -11 -160 -26
-338 -73 -523 -137 -64 -22 -141 -46 -170 -54 -59 -16 -224 -85 -344 -145 -43
-22 -81 -39 -86 -39 -10 0 -229 -115 -258 -136 -21 -14 -23 -12 -70 67 -27 45
-69 120 -94 166 -25 46 -78 136 -117 202 -40 65 -73 122 -73 126 0 4 -33 62
-73 129 -114 187 -189 328 -180 336 21 20 456 233 598 294 88 37 176 75 195
83 19 9 62 23 95 33 33 10 118 39 188 64 148 52 322 102 422 121 39 7 147 30
240 49 202 43 453 81 625 96 69 5 141 12 160 14 19 1 104 4 188 4 l152 2 0
-593z m600 569 c248 -27 336 -42 770 -132 231 -47 712 -205 930 -304 74 -34
158 -70 185 -80 28 -9 106 -48 175 -85 69 -38 155 -83 193 -101 37 -19 67 -38
67 -44 0 -6 -19 -41 -42 -78 -23 -37 -59 -101 -81 -142 -21 -41 -49 -91 -62
-110 -37 -57 -108 -177 -145 -249 -19 -37 -53 -96 -76 -131 -22 -36 -69 -117
-104 -180 -34 -63 -67 -120 -72 -127 -7 -8 -27 -1 -76 28 -65 39 -151 82 -262
132 -30 14 -85 39 -122 56 -37 17 -90 40 -119 51 -29 12 -72 30 -95 41 -24 10
-51 19 -61 19 -10 0 -43 9 -73 21 -203 76 -423 133 -670 174 -328 54 -527 75
-712 75 l-98 0 0 597 0 596 208 -6 c114 -4 268 -13 342 -21z m-3484 -833 c60
-93 91 -148 99 -174 4 -13 20 -42 35 -64 38 -54 106 -171 155 -264 23 -42 59
-105 81 -141 77 -122 186 -324 178 -327 -38 -14 -397 -257 -449 -304 -22 -20
-67 -55 -99 -77 -33 -23 -93 -72 -133 -109 -152 -140 -288 -269 -312 -297 -14
-16 -65 -70 -112 -120 -47 -50 -96 -107 -109 -126 -13 -19 -45 -58 -71 -86
-26 -28 -68 -82 -93 -120 -26 -38 -80 -116 -121 -174 -41 -58 -75 -108 -75
-112 0 -11 -82 -138 -89 -138 -3 0 -22 10 -43 23 -126 77 -180 108 -233 137
-91 49 -146 81 -191 111 -23 16 -74 46 -115 67 -106 57 -219 122 -254 148 -16
12 -65 38 -108 59 -69 32 -77 39 -71 58 14 50 251 411 315 482 14 17 39 50 54
75 15 25 48 69 74 99 25 29 71 84 101 122 91 113 251 287 376 409 65 63 141
138 169 165 27 28 67 63 87 78 21 15 71 58 112 95 41 37 101 86 133 110 32 23
88 66 124 95 37 28 80 60 95 69 16 10 76 51 134 93 58 41 123 84 145 95 22 11
67 38 100 59 33 22 63 41 67 41 4 0 24 -26 44 -57z m5996 -24 c73 -44 168
-106 210 -137 43 -32 92 -65 110 -74 18 -10 65 -44 103 -76 39 -32 86 -69 105
-83 19 -13 113 -92 210 -175 193 -167 454 -428 599 -599 51 -60 110 -130 132
-155 21 -25 58 -73 83 -108 24 -34 61 -83 82 -108 21 -25 57 -74 79 -108 22
-35 71 -110 110 -167 38 -57 84 -132 102 -166 l32 -62 -27 -19 c-15 -10 -56
-34 -92 -52 -36 -18 -87 -47 -115 -65 -73 -47 -154 -95 -161 -95 -9 0 -196
-110 -214 -126 -9 -7 -56 -34 -105 -59 -98 -51 -259 -145 -278 -164 -20 -20
-32 -11 -76 62 -25 39 -54 84 -67 99 -12 15 -31 46 -43 70 -11 24 -41 68 -66
98 -25 30 -62 80 -83 110 -68 101 -228 286 -396 459 -184 188 -554 501 -667
562 -26 15 -67 42 -91 61 -24 19 -80 57 -124 84 l-82 50 39 78 c21 43 45 86
52 95 14 16 102 167 146 251 13 25 44 76 68 114 24 38 64 105 87 150 24 44 64
115 89 156 25 41 60 99 77 128 17 28 33 52 35 52 3 0 64 -36 137 -81z m-3112
-499 c0 -118 -2 -140 -15 -140 -8 0 -16 8 -16 18 -1 9 -2 22 -4 27 -1 6 -3 38
-3 73 -3 99 -22 74 -22 -28 0 -88 0 -90 -24 -90 -29 0 -36 21 -36 108 0 48 -3
62 -15 62 -13 0 -14 -13 -9 -85 l7 -85 -27 0 -26 0 0 85 c0 71 -3 85 -16 85
-14 0 -15 -13 -12 -87 3 -84 2 -88 -19 -91 -19 -3 -22 3 -27 40 -3 24 -7 63
-9 87 -1 28 -7 46 -16 49 -12 4 -13 -11 -7 -87 l7 -91 -24 0 c-27 0 -37 28
-37 100 0 43 -8 70 -21 70 -5 0 -6 -40 -2 -90 6 -86 5 -90 -15 -90 -21 0 -21
1 -37 123 -4 32 -11 47 -21 47 -10 0 -14 -6 -10 -17 2 -10 8 -51 11 -90 7 -73
7 -73 -18 -73 -27 0 -29 6 -43 118 -4 35 -11 52 -21 52 -11 0 -12 -10 -6 -52
13 -94 11 -123 -12 -123 -18 0 -21 10 -29 83 -6 59 -12 82 -22 82 -17 0 -17
-13 0 -107 l13 -73 -27 0 c-26 0 -28 3 -41 82 -8 45 -20 83 -27 86 -13 4 -18
-49 -5 -61 3 -4 8 -32 10 -62 4 -50 3 -55 -16 -55 -12 0 -21 3 -21 8 0 4 -6
36 -14 72 -8 36 -17 97 -21 136 l-7 71 59 6 c32 3 130 12 218 21 217 21 234
22 363 24 l112 2 0 -140z m525 115 c77 -8 170 -18 208 -21 79 -8 76 4 43 -169
-18 -97 -26 -121 -40 -123 -17 -4 -18 1 -12 42 3 25 9 66 12 91 9 63 -12 58
-25 -5 -6 -28 -11 -59 -11 -70 0 -31 -11 -50 -30 -50 -29 0 -31 12 -18 94 11
73 6 106 -12 76 -5 -8 -12 -42 -15 -76 -9 -75 -16 -88 -45 -79 -16 5 -20 12
-16 28 12 53 18 147 9 147 -11 0 -23 -55 -23 -110 0 -44 -12 -63 -36 -58 -21
4 -21 10 -9 116 5 51 4 62 -8 62 -12 0 -17 -20 -22 -86 -7 -84 -8 -85 -34 -82
-16 2 -26 9 -25 18 0 8 4 48 7 88 6 57 4 72 -7 72 -13 0 -26 -66 -26 -137 0
-29 -3 -33 -26 -33 -19 0 -24 4 -20 18 3 9 6 48 7 86 3 94 -17 101 -26 9 -3
-37 -7 -77 -8 -88 -1 -14 -9 -20 -27 -20 -24 0 -24 0 -21 88 1 51 -1 87 -7 87
-14 0 -22 -37 -22 -107 0 -60 -1 -63 -25 -63 -25 0 -25 1 -25 85 0 50 -4 85
-10 85 -6 0 -10 -35 -10 -85 0 -84 0 -85 -25 -85 -25 0 -25 1 -25 90 0 73 -3
90 -15 90 -12 0 -15 -17 -15 -90 0 -83 -1 -90 -20 -90 -19 0 -20 7 -20 142 l0
141 168 -7 c92 -3 230 -13 307 -21z m-1309 -82 c3 -21 12 -69 20 -108 18 -90
18 -131 -1 -138 -19 -8 -20 -5 -34 74 -7 36 -16 72 -21 79 -19 31 -22 -3 -7
-77 16 -80 12 -97 -19 -91 -12 2 -21 17 -26 43 -18 83 -29 115 -42 115 -11 0
-10 -16 6 -81 10 -45 17 -83 16 -84 -2 -2 -12 -5 -22 -7 -16 -3 -22 8 -36 74
-9 43 -20 81 -23 85 -18 17 -19 -14 -3 -88 10 -45 16 -82 14 -84 -2 -1 -13 -5
-24 -9 -20 -6 -23 0 -44 84 -12 49 -25 90 -29 90 -18 0 -18 -15 1 -87 21 -82
19 -103 -10 -103 -20 0 -32 31 -47 128 -6 39 -14 50 -27 37 -3 -3 4 -42 14
-87 16 -66 17 -82 6 -89 -24 -15 -32 -4 -56 74 -14 48 -28 77 -37 77 -13 0
-10 -16 32 -152 3 -10 1 -18 -5 -18 -6 0 -17 -3 -25 -6 -11 -4 -21 14 -42 75
-15 45 -31 81 -36 81 -14 0 -11 -25 12 -92 21 -63 20 -88 -4 -88 -9 0 -23 27
-37 68 -30 90 -37 102 -45 81 -3 -9 5 -49 19 -89 14 -40 25 -74 23 -75 -1 -2
-11 -5 -23 -9 -18 -6 -24 2 -49 66 -29 77 -41 96 -51 85 -4 -3 6 -40 21 -81
27 -73 27 -96 0 -96 -14 0 -28 33 -69 160 -14 41 -27 82 -31 91 -7 19 23 34
104 53 31 8 110 30 176 51 139 42 387 103 427 104 24 1 28 -4 34 -36z m1709
27 c22 -5 51 -11 65 -13 42 -8 259 -66 360 -98 52 -16 120 -36 150 -44 88 -24
87 -21 50 -116 -17 -46 -39 -105 -48 -131 -15 -44 -33 -60 -46 -40 -3 5 6 44
20 87 13 43 22 80 19 83 -8 8 -12 2 -44 -78 -24 -59 -34 -74 -48 -72 -10 2
-20 6 -23 9 -2 2 8 38 23 80 18 51 24 80 17 87 -13 13 -12 14 -44 -76 -21 -59
-33 -78 -46 -78 -30 0 -31 14 -5 91 14 40 25 76 25 81 0 10 -30 11 -31 1 0 -5
-8 -39 -18 -78 -16 -63 -20 -70 -41 -67 -13 1 -25 4 -26 5 -2 1 5 27 15 57 30
92 33 110 18 110 -8 0 -22 -32 -36 -80 -22 -73 -26 -80 -45 -74 -11 4 -22 8
-24 9 -2 2 6 38 17 81 19 74 19 100 1 89 -4 -3 -11 -17 -15 -32 -21 -90 -38
-133 -50 -133 -21 0 -25 14 -15 51 4 19 12 58 15 88 9 66 -7 62 -24 -6 -31
-124 -29 -121 -56 -115 -27 5 -27 -1 1 113 17 70 17 69 0 69 -9 0 -20 -26 -31
-77 -19 -89 -23 -94 -51 -87 -21 5 -21 7 -7 72 7 37 16 75 19 85 3 11 0 17 -9
17 -17 0 -22 -19 -32 -102 -7 -52 -10 -58 -31 -58 -27 0 -30 17 -14 85 18 80
19 95 6 95 -7 0 -20 -34 -31 -85 -14 -65 -22 -84 -33 -80 -7 3 -17 5 -21 5 -4
0 4 63 18 140 28 156 23 149 106 130z m-2453 -305 c42 -107 53 -170 29 -170
-8 0 -25 30 -40 70 -16 41 -33 71 -43 73 -13 3 -10 -12 15 -78 26 -69 29 -83
17 -91 -28 -17 -35 -9 -64 66 -16 42 -33 78 -38 81 -22 14 -19 -11 9 -83 30
-76 30 -78 11 -86 -26 -9 -34 -3 -42 30 -14 59 -39 113 -52 113 -20 0 -18 -8
18 -89 26 -61 29 -74 17 -82 -8 -5 -18 -7 -23 -6 -8 3 -66 107 -79 141 -2 5
-8 6 -15 2 -8 -5 -2 -27 23 -76 41 -81 42 -86 15 -100 -19 -10 -24 -4 -56 65
-20 41 -41 75 -46 75 -11 0 -4 -26 28 -99 29 -64 28 -58 5 -70 -17 -9 -23 -2
-55 65 -20 42 -41 74 -47 72 -15 -5 -14 -9 27 -89 28 -57 33 -74 22 -80 -26
-17 -38 -8 -69 54 -37 73 -48 89 -60 81 -5 -3 9 -41 31 -84 39 -78 40 -80 19
-90 -26 -15 -40 2 -70 83 -23 60 -33 74 -44 57 -5 -9 20 -72 55 -141 5 -10 2
-19 -9 -26 -15 -9 -23 -4 -49 37 -17 27 -37 60 -43 73 -7 15 -17 23 -25 20
-16 -6 -2 -38 49 -112 24 -35 27 -45 16 -52 -8 -5 -16 -9 -19 -8 -15 0 -148
235 -139 244 12 11 300 161 338 175 25 10 109 45 186 79 77 33 144 59 149 58
4 -2 26 -48 48 -102z m3258 64 c52 -22 118 -51 145 -64 28 -12 61 -26 75 -30
34 -10 190 -90 268 -137 34 -21 67 -38 72 -38 15 0 14 -3 -34 -93 -84 -158
-99 -177 -113 -142 -3 9 1 23 9 33 28 33 69 112 63 122 -10 16 -24 2 -51 -53
-37 -73 -52 -89 -75 -76 -18 9 -17 14 21 88 28 57 36 81 27 84 -8 3 -28 -24
-53 -74 -21 -43 -41 -78 -44 -78 -3 -1 -11 3 -19 8 -12 8 -8 23 19 90 18 45
30 85 26 88 -8 9 -10 7 -45 -70 -32 -69 -53 -89 -74 -68 -8 8 -2 30 26 86 23
46 33 77 26 81 -13 8 -11 11 -53 -73 -20 -40 -39 -73 -42 -73 -3 0 -14 5 -25
10 -18 10 -17 14 21 90 27 53 36 80 27 83 -14 4 -62 -78 -72 -123 -6 -27 -9
-29 -28 -19 -12 7 -23 13 -25 14 -1 1 11 31 28 66 29 62 38 99 23 99 -5 -1
-23 -34 -42 -75 -34 -74 -43 -83 -70 -66 -12 8 -10 19 12 65 33 70 43 106 28
106 -6 0 -22 -26 -36 -57 -40 -92 -47 -101 -73 -84 -12 7 -4 37 43 154 5 11 2
17 -8 17 -14 0 -29 -28 -42 -80 -19 -74 -33 -90 -63 -71 -12 7 -4 37 43 154 5
12 2 17 -8 17 -10 0 -26 -26 -44 -75 -15 -41 -32 -75 -38 -75 -36 0 -34 18 17
148 28 73 54 132 57 132 3 0 49 -18 101 -41z m-1355 -24 c156 -14 371 -42 384
-49 3 -2 56 -11 118 -20 178 -26 627 -164 818 -251 276 -126 476 -230 530
-275 11 -9 34 -22 50 -29 35 -15 94 -53 150 -97 22 -18 68 -50 101 -71 34 -21
122 -87 195 -148 121 -99 178 -151 319 -287 90 -86 244 -259 322 -360 43 -57
97 -124 119 -150 21 -26 39 -50 39 -55 0 -9 69 -114 80 -123 16 -12 74 -106
145 -235 43 -77 93 -167 111 -200 19 -33 34 -67 34 -75 0 -8 7 -28 15 -44 64
-122 153 -347 190 -476 13 -47 42 -149 64 -227 63 -226 94 -392 115 -628 18
-194 27 -452 22 -575 -8 -177 -33 -482 -47 -570 -44 -285 -173 -725 -281 -965
-33 -71 -66 -147 -73 -168 -19 -49 -121 -243 -150 -282 -12 -16 -26 -41 -30
-54 -13 -43 -184 -300 -287 -432 -35 -44 -80 -103 -101 -130 -80 -104 -407
-440 -490 -503 -20 -16 -54 -44 -75 -63 -35 -33 -124 -101 -314 -240 -46 -33
-111 -75 -143 -93 -33 -18 -67 -38 -75 -45 -64 -53 -515 -278 -655 -325 -318
-108 -388 -131 -450 -149 -38 -11 -90 -23 -115 -26 -25 -4 -110 -20 -190 -36
-508 -104 -1096 -102 -1620 6 -63 13 -135 26 -160 30 -82 12 -489 140 -525
165 -5 4 -32 13 -60 19 -27 7 -126 50 -220 95 -93 46 -195 95 -225 110 -30 14
-98 53 -150 85 -52 33 -129 80 -171 105 -42 26 -82 53 -89 61 -6 8 -56 43
-110 79 -54 37 -100 70 -102 74 -1 5 -39 37 -83 71 -181 143 -582 554 -650
666 -11 18 -43 61 -70 95 -28 34 -67 88 -87 119 -20 31 -46 70 -56 86 -56 84
-130 208 -163 270 -129 249 -178 349 -184 376 -4 17 -18 57 -32 88 -61 136
-125 317 -147 416 -8 33 -28 114 -44 180 -50 196 -60 246 -93 485 -21 146 -23
205 -24 510 0 456 23 639 139 1101 53 210 78 285 157 475 21 50 41 104 45 120
8 34 104 229 142 288 14 23 33 59 41 81 9 22 50 93 91 159 41 65 92 146 113
180 22 33 63 90 92 126 29 36 64 83 78 105 14 22 44 60 67 85 23 25 58 65 78
90 20 25 81 92 135 150 55 58 102 108 106 112 49 55 385 334 483 401 26 18 94
65 152 105 58 39 107 72 110 72 3 0 62 34 133 77 70 42 151 85 178 96 28 10
55 22 60 27 6 4 69 35 141 68 211 97 711 258 864 277 30 4 105 15 165 26 157
27 148 26 280 38 66 6 136 13 155 15 102 9 475 4 615 -9z m-2625 -368 c22 -43
52 -96 65 -117 21 -34 22 -40 9 -51 -18 -15 -23 -9 -54 56 -23 49 -44 75 -59
75 -16 0 -14 -7 13 -43 13 -18 31 -50 40 -71 15 -37 15 -41 0 -55 -9 -9 -18
-12 -20 -6 -16 38 -87 135 -100 135 -8 0 -13 -3 -11 -7 3 -5 23 -38 46 -76 22
-37 41 -69 41 -72 0 -2 -9 -9 -20 -15 -18 -10 -25 -3 -69 65 -27 41 -52 71
-56 66 -7 -13 26 -78 59 -119 l26 -30 -23 -15 c-22 -14 -24 -13 -66 54 -24 38
-47 69 -52 69 -21 0 -15 -20 21 -67 48 -63 55 -86 34 -103 -13 -12 -17 -11
-24 1 -19 30 -93 119 -100 119 -21 0 -13 -18 31 -73 54 -68 57 -77 31 -94 -17
-10 -25 -3 -68 58 -43 60 -64 81 -64 64 0 -11 39 -81 64 -114 19 -26 23 -38
15 -48 -19 -22 -37 -15 -55 20 -29 57 -76 109 -87 98 -7 -7 1 -24 26 -54 48
-59 64 -94 49 -109 -14 -14 -36 4 -89 74 -23 30 -41 44 -47 38 -11 -11 7 -39
58 -93 40 -43 42 -49 21 -67 -19 -15 -27 -9 -86 65 -26 33 -47 51 -53 45 -5
-5 12 -35 44 -75 43 -54 50 -68 40 -80 -18 -21 -22 -19 -50 23 -13 20 -53 67
-87 105 -35 37 -63 71 -63 75 0 8 147 123 254 199 33 24 62 47 65 52 3 4 21
16 40 25 18 10 58 34 88 54 130 87 168 109 175 103 4 -3 25 -41 48 -84z m4695
33 c39 -26 124 -82 190 -125 66 -44 138 -95 160 -116 22 -20 54 -43 70 -52 17
-9 48 -31 70 -50 38 -33 39 -35 23 -58 -8 -13 -39 -48 -67 -77 -28 -29 -62
-68 -77 -87 -20 -27 -28 -32 -39 -22 -16 15 1 51 52 108 23 25 33 43 27 49 -6
6 -28 -14 -59 -55 -28 -35 -52 -64 -55 -64 -3 0 -14 6 -24 14 -19 15 -19 16
15 53 45 47 71 90 64 102 -4 6 -23 -11 -44 -37 -60 -75 -79 -90 -96 -72 -12
12 -7 23 37 82 32 43 47 72 41 78 -6 6 -29 -17 -62 -61 -30 -38 -57 -70 -61
-70 -4 0 -13 6 -19 14 -9 11 -2 28 34 81 25 37 45 72 45 77 0 21 -27 -1 -57
-48 -62 -94 -56 -89 -75 -67 -17 18 -16 22 29 86 26 37 43 70 39 74 -7 8 -40
-27 -83 -90 -27 -39 -39 -42 -57 -15 -8 13 0 29 37 76 26 33 47 65 47 71 0 19
-18 12 -39 -16 -74 -100 -85 -112 -98 -101 -18 15 -18 16 28 92 26 43 37 72
31 78 -10 10 -26 -10 -66 -89 -28 -57 -33 -60 -59 -40 -15 11 -13 19 28 86 24
41 42 78 39 83 -9 14 -19 2 -64 -72 -23 -38 -44 -70 -46 -70 -2 0 -13 5 -24
12 -19 12 -19 13 7 58 14 25 34 56 45 69 21 28 23 41 5 41 -7 0 -29 -25 -48
-56 -58 -94 -56 -92 -65 -70 -5 12 0 31 12 53 88 152 120 201 129 195 5 -3 42
-27 80 -52z m-5328 -487 c84 -90 113 -137 95 -155 -11 -11 -39 15 -113 105
-12 15 -21 19 -28 12 -7 -7 9 -32 49 -76 56 -63 58 -67 42 -82 -17 -15 -22
-13 -77 43 -33 33 -63 60 -67 60 -18 0 -5 -22 47 -78 51 -55 53 -60 37 -76
-16 -16 -20 -13 -74 45 -37 40 -60 59 -69 54 -9 -6 -6 -14 12 -29 14 -12 40
-40 59 -64 29 -38 31 -45 18 -58 -13 -13 -22 -8 -76 48 -42 44 -64 60 -71 53
-8 -8 8 -29 49 -70 62 -62 71 -79 44 -89 -21 -8 -41 4 -94 58 -24 25 -48 46
-52 46 -22 0 -2 -30 52 -81 57 -53 59 -57 42 -72 -17 -16 -22 -13 -80 43 -79
78 -95 58 -16 -21 55 -56 57 -60 41 -76 -16 -16 -20 -14 -75 40 -53 52 -82 70
-82 49 0 -5 27 -34 60 -65 33 -32 60 -61 60 -66 0 -5 -7 -14 -15 -21 -12 -10
-25 -3 -75 44 -34 31 -65 56 -70 56 -16 0 -21 -19 -6 -27 8 -4 37 -30 66 -57
46 -43 50 -50 37 -63 -13 -14 -19 -12 -54 13 -21 15 -50 39 -65 53 -15 13 -31
22 -34 18 -8 -8 27 -55 47 -62 8 -3 28 -19 44 -35 26 -27 27 -32 14 -45 -13
-13 -20 -10 -64 29 -28 24 -75 64 -105 88 -30 24 -55 49 -55 56 0 25 405 437
466 474 16 10 34 27 41 38 7 11 15 20 18 20 3 0 37 -34 77 -77z m5951 23 c107
-87 437 -419 462 -466 11 -20 -10 -40 -143 -146 -48 -37 -61 -43 -73 -33 -18
15 -3 33 69 86 33 24 45 39 38 46 -10 10 -15 7 -109 -69 -31 -26 -33 -26 -46
-9 -12 17 -10 22 23 49 48 40 84 84 77 95 -4 5 -34 -17 -69 -50 -34 -32 -65
-59 -68 -59 -4 0 -12 7 -19 16 -11 13 -4 24 48 77 34 35 62 66 62 70 0 20 -31
1 -80 -48 -57 -58 -74 -66 -84 -39 -9 24 16 58 69 94 41 28 53 48 33 53 -3 1
-35 -23 -70 -55 -59 -52 -65 -55 -76 -38 -10 16 -4 27 43 77 30 31 55 60 55
64 0 25 -23 11 -69 -42 -53 -60 -68 -68 -88 -48 -9 9 3 28 47 78 36 39 56 69
51 74 -6 6 -32 -15 -66 -52 -60 -64 -74 -71 -95 -45 -11 13 -4 24 49 78 39 39
59 66 52 70 -6 4 -37 -18 -71 -52 -55 -55 -60 -58 -75 -42 -14 15 -10 22 41
79 38 41 53 66 47 72 -7 7 -19 -1 -37 -23 -46 -57 -79 -88 -93 -88 -26 0 -24
28 3 56 49 53 76 93 69 104 -3 6 -31 -18 -63 -55 -30 -36 -59 -65 -63 -65 -3
0 -12 6 -18 14 -10 12 0 28 51 86 35 40 74 87 87 106 13 19 26 34 28 34 2 0
34 -24 71 -54z m-6567 -532 c8 -9 31 -28 53 -42 52 -33 136 -111 136 -128 0
-30 -23 -22 -87 31 -44 37 -70 52 -77 45 -7 -7 -4 -14 7 -22 114 -87 134 -112
103 -124 -15 -6 -47 11 -108 59 -21 15 -42 25 -48 22 -15 -9 5 -32 49 -56 20
-10 47 -28 60 -39 20 -17 22 -22 10 -38 -7 -9 -14 -19 -16 -21 -1 -2 -32 20
-69 49 -86 68 -103 51 -19 -19 36 -29 65 -57 65 -61 0 -4 -7 -13 -15 -20 -17
-14 -13 -16 -98 54 -32 27 -51 36 -58 29 -7 -7 2 -19 28 -38 21 -16 51 -41 67
-57 25 -23 27 -30 16 -43 -12 -14 -15 -14 -30 0 -9 8 -19 15 -23 15 -4 0 -27
14 -52 32 -33 23 -48 29 -56 21 -8 -8 9 -22 60 -52 70 -41 79 -53 62 -80 -7
-11 -23 -5 -82 32 -40 26 -76 47 -81 47 -24 0 0 -25 62 -66 39 -26 70 -50 70
-54 0 -3 -6 -14 -13 -23 -11 -16 -18 -14 -84 32 -40 27 -75 45 -79 40 -6 -11
20 -35 89 -80 38 -25 45 -34 36 -45 -16 -20 -22 -18 -94 25 -59 36 -75 40 -75
20 0 -4 29 -24 65 -43 35 -20 66 -40 69 -44 2 -4 -2 -16 -9 -26 -13 -18 -18
-16 -84 28 -78 51 -81 52 -81 32 0 -8 17 -24 38 -37 78 -47 104 -70 92 -84 -9
-10 -35 1 -129 58 l-118 71 40 76 c21 41 56 98 77 125 21 28 64 88 95 135 32
47 83 116 114 153 31 37 65 81 76 97 23 34 28 36 46 14z m7200 -146 c13 -22
36 -54 50 -72 37 -43 144 -198 151 -217 3 -9 27 -49 53 -90 26 -40 44 -75 39
-76 -5 -2 -40 -24 -79 -49 -89 -58 -161 -95 -169 -87 -15 16 -1 31 69 72 41
24 75 47 75 52 0 20 -21 14 -89 -27 -47 -29 -77 -42 -83 -36 -20 20 -2 48 47
72 85 44 91 48 80 59 -7 7 -32 -3 -79 -30 -65 -37 -96 -44 -96 -19 0 6 29 32
65 58 36 26 65 52 65 59 0 21 -11 16 -83 -38 -65 -49 -69 -50 -82 -33 -20 26
-19 31 8 45 45 24 118 87 107 94 -6 4 -19 1 -29 -7 -103 -75 -112 -80 -126
-68 -8 7 -15 17 -15 22 0 12 41 47 55 48 6 0 28 12 49 26 25 18 35 29 28 36
-7 7 -24 0 -54 -19 -23 -17 -57 -37 -74 -46 -28 -14 -31 -14 -41 3 -10 15 -3
24 57 66 38 27 69 55 70 62 0 21 -15 14 -85 -38 -63 -48 -68 -50 -81 -33 -12
16 -10 21 19 48 18 17 48 42 67 56 38 29 36 48 -2 28 -12 -7 -43 -29 -67 -51
-34 -29 -47 -36 -57 -27 -29 24 -22 33 70 99 20 14 36 31 36 38 0 17 -16 15
-37 -6 -10 -10 -39 -33 -65 -50 -46 -30 -48 -30 -58 -12 -9 17 -1 26 55 71 36
29 65 56 65 60 0 22 -22 12 -80 -37 -36 -29 -71 -54 -77 -54 -12 0 -14 4 -17
29 -1 4 33 36 74 69 41 34 89 73 105 87 l30 26 56 -61 c31 -34 67 -79 80 -102z
m-8672 76 c36 -20 92 -54 124 -76 31 -21 88 -53 125 -71 37 -19 114 -63 172
-98 121 -75 126 -78 200 -114 30 -15 62 -33 70 -40 18 -16 175 -107 224 -130
l34 -16 -32 -62 c-17 -34 -35 -72 -41 -83 -5 -12 -47 -96 -92 -187 -46 -91
-83 -170 -83 -176 0 -10 -47 -133 -75 -196 -65 -147 -191 -626 -229 -870 -29
-184 -48 -374 -55 -540 l-6 -170 -592 -3 -593 -2 0 27 c0 87 22 429 35 553 32
306 42 379 76 540 33 156 91 388 109 436 6 15 18 59 25 96 20 91 107 339 164
463 10 22 22 56 26 75 6 29 55 137 150 335 13 28 36 75 50 105 42 89 131 240
141 240 4 0 37 -16 73 -36z m10198 -194 c63 -124 140 -286 170 -360 102 -248
163 -405 163 -418 0 -7 20 -75 44 -150 83 -257 135 -460 156 -610 5 -39 14
-91 19 -115 37 -168 78 -545 87 -802 l7 -185 -595 0 -595 0 -7 143 c-11 216
-40 530 -61 652 -18 103 -65 293 -121 485 -64 223 -78 263 -127 380 -24 58
-56 134 -71 170 -31 72 -126 269 -182 373 -20 37 -33 74 -30 82 3 9 26 24 51
35 25 11 80 41 122 68 43 27 141 84 218 127 77 43 154 88 170 100 17 12 55 34
85 49 82 42 86 44 200 114 138 85 152 93 169 90 8 -2 65 -104 128 -228z
m-9122 -430 c22 -15 68 -43 102 -62 41 -23 59 -38 54 -46 -6 -9 -27 -3 -85 23
-89 40 -86 40 -86 20 0 -8 5 -15 11 -15 7 0 40 -14 75 -32 57 -29 62 -34 52
-52 -6 -12 -12 -23 -14 -25 -2 -2 -35 15 -75 38 -42 24 -76 38 -81 33 -10 -10
44 -50 105 -78 41 -20 43 -22 23 -49 -13 -18 -17 -17 -86 23 -40 23 -75 40
-78 38 -12 -13 11 -34 72 -64 68 -34 72 -38 57 -61 -8 -12 -20 -9 -74 17 -63
31 -97 40 -97 25 0 -5 24 -18 53 -31 28 -12 62 -30 75 -40 20 -15 21 -20 9
-36 -13 -17 -17 -16 -86 19 -52 26 -77 33 -84 26 -6 -6 -9 -12 -6 -13 2 -2 39
-20 81 -40 65 -32 76 -40 71 -58 -6 -24 -17 -22 -106 16 -52 23 -85 25 -72 4
3 -5 36 -18 73 -30 81 -27 87 -32 73 -58 -11 -21 -11 -21 -73 5 -35 13 -67 29
-73 34 -13 13 -25 11 -25 -5 0 -13 74 -54 128 -71 18 -5 21 -11 16 -28 -3 -12
-8 -24 -10 -26 -2 -3 -38 10 -80 29 -51 22 -78 30 -85 23 -10 -10 23 -30 113
-67 27 -11 36 -19 32 -30 -8 -21 -26 -20 -106 7 -50 17 -69 20 -72 11 -3 -7 7
-15 22 -18 41 -10 132 -47 132 -55 0 -3 -4 -12 -9 -20 -8 -12 -22 -9 -88 16
-43 17 -96 36 -118 43 -22 7 -44 16 -48 20 -19 17 48 189 147 380 24 47 47 96
51 110 4 14 30 64 57 112 55 98 47 96 133 38z m7966 -22 c20 -40 70 -141 112
-224 42 -83 77 -156 77 -162 0 -6 20 -60 44 -119 40 -96 43 -109 28 -115 -41
-17 -238 -88 -243 -88 -4 0 -9 9 -12 19 -4 16 5 24 42 39 25 11 61 23 79 27
17 3 32 11 32 16 0 14 -21 11 -98 -14 -63 -21 -71 -21 -80 -7 -11 18 7 30 101
69 26 11 47 25 47 32 0 15 -41 4 -104 -27 -53 -27 -76 -26 -76 4 0 14 20 28
73 52 85 39 83 38 71 50 -6 6 -35 -2 -83 -25 -40 -19 -76 -33 -81 -30 -4 2
-10 14 -13 24 -4 17 6 24 62 46 87 33 101 42 79 50 -9 4 -35 -4 -59 -16 -61
-31 -95 -39 -108 -26 -20 20 -12 27 64 64 41 19 75 42 75 49 0 18 4 19 -79
-21 -82 -40 -87 -41 -95 -19 -11 27 -8 30 69 65 41 19 74 37 75 42 0 14 -31 7
-97 -23 -51 -23 -68 -27 -75 -18 -13 22 -3 32 68 66 81 39 78 38 69 52 -4 7
-33 -3 -83 -30 -56 -29 -78 -36 -84 -27 -16 24 -2 42 64 76 37 20 68 42 68 49
0 18 -6 16 -85 -27 -54 -30 -75 -37 -84 -28 -25 25 -13 37 82 84 26 13 47 28
47 34 0 15 -12 11 -85 -25 -38 -19 -73 -32 -77 -30 -17 11 -6 25 40 49 26 14
79 46 117 70 39 24 73 45 76 45 3 0 21 -33 40 -72z m-8236 -707 c59 -22 109
-42 112 -44 3 -3 2 -14 -1 -25 -6 -19 -9 -19 -84 9 -88 33 -92 34 -92 15 0 -8
30 -22 78 -36 73 -21 78 -25 74 -46 -2 -13 -5 -24 -6 -24 -2 0 -36 11 -76 25
-82 28 -104 31 -98 13 2 -6 39 -23 80 -37 42 -14 79 -29 83 -32 3 -3 2 -15 -2
-26 -8 -21 -8 -21 -91 5 -45 14 -85 23 -88 19 -13 -13 9 -25 86 -47 83 -24 86
-26 71 -49 -9 -13 -41 -10 -153 15 -17 4 -28 2 -28 -4 0 -6 15 -13 33 -17 17
-4 55 -13 83 -21 46 -13 51 -17 46 -39 -5 -30 -1 -30 -87 -5 -79 23 -95 24
-95 10 0 -5 34 -20 76 -32 76 -23 91 -35 81 -63 -5 -12 -16 -11 -76 5 -79 22
-101 24 -101 11 0 -10 83 -37 130 -43 17 -2 26 -10 28 -25 4 -28 -10 -29 -88
-8 -67 18 -93 19 -88 3 2 -6 41 -20 86 -31 77 -17 82 -20 76 -40 -3 -12 -8
-23 -9 -25 -2 -2 -39 4 -84 14 -45 10 -84 14 -88 10 -12 -11 16 -24 82 -36 75
-14 90 -23 81 -45 -5 -14 -14 -16 -44 -12 -111 17 -132 18 -132 10 0 -4 35
-15 78 -23 67 -13 77 -18 80 -37 4 -27 12 -27 -119 -3 -156 28 -161 29 -154
50 6 20 40 186 55 268 9 52 85 300 122 399 17 46 22 52 38 43 10 -6 67 -28
125 -49z m8563 -38 c35 -101 38 -112 92 -329 47 -191 72 -306 67 -311 -5 -4
-255 -53 -275 -53 -8 0 -12 9 -10 22 3 20 13 25 85 38 45 8 85 19 90 24 7 8
-40 4 -139 -10 -30 -5 -39 -2 -44 11 -9 23 8 32 89 46 64 12 87 23 73 36 -5 5
-85 -7 -153 -24 -19 -4 -23 -1 -23 21 0 26 13 32 114 53 22 5 41 14 44 21 5
16 -13 15 -93 -3 -36 -9 -70 -13 -75 -10 -19 12 -9 35 18 41 100 23 126 31
130 42 5 17 -23 15 -100 -7 -67 -19 -67 -19 -74 1 -8 26 -1 31 71 52 33 10 66
19 73 22 18 5 15 24 -5 24 -10 0 -47 -9 -82 -20 -65 -21 -80 -18 -81 17 0 11
63 35 128 48 17 4 32 11 32 16 0 12 -16 11 -80 -6 -74 -20 -100 -19 -100 3 0
13 19 24 73 41 80 27 98 38 76 46 -8 3 -47 -6 -87 -19 l-73 -25 -8 22 c-5 12
-7 24 -5 28 1 3 37 16 78 29 45 14 76 29 76 37 0 17 -2 17 -88 -13 -61 -22
-76 -24 -83 -13 -17 27 -8 37 41 48 60 13 113 38 105 51 -3 4 -41 -4 -86 -18
-69 -23 -81 -25 -89 -12 -15 23 -14 24 58 49 37 13 85 32 107 41 100 43 97 44
133 -57z m-8846 -697 c18 -3 44 -8 58 -10 110 -17 150 -29 150 -46 0 -27 -6
-28 -83 -14 -93 17 -97 17 -97 0 0 -14 48 -26 110 -26 46 0 64 -12 56 -37 -6
-18 -12 -19 -49 -13 -112 20 -127 21 -127 6 0 -10 24 -17 86 -26 68 -10 84
-15 80 -27 -3 -8 -6 -19 -6 -25 0 -10 -110 -4 -152 8 -12 3 -18 0 -18 -9 0
-15 10 -18 123 -33 38 -5 47 -10 47 -27 0 -19 -5 -20 -90 -15 -49 3 -90 2 -90
-2 0 -11 27 -20 63 -20 18 0 49 -3 70 -6 31 -6 37 -11 37 -31 l0 -25 -91 7
c-75 6 -91 5 -87 -6 3 -8 13 -15 24 -16 10 -1 49 -5 87 -8 64 -6 67 -8 67 -32
l0 -26 -90 7 c-77 6 -90 5 -90 -9 0 -12 15 -15 85 -15 85 0 85 0 85 -26 l0
-26 -87 3 c-58 3 -87 0 -90 -7 -2 -8 27 -14 87 -18 87 -7 90 -8 90 -32 0 -24
-1 -24 -90 -24 -49 0 -90 -4 -90 -9 0 -9 80 -21 143 -21 30 0 37 -4 37 -20 0
-19 -7 -20 -91 -20 -68 0 -90 -3 -87 -12 3 -9 33 -14 92 -16 76 -2 87 -5 84
-20 -3 -15 -21 -17 -146 -20 l-142 -3 0 113 c0 62 5 167 10 233 12 132 48 393
56 407 4 5 12 7 19 4 8 -3 29 -7 47 -10z m9027 -50 c29 -169 42 -298 48 -488
l6 -208 -142 0 c-133 0 -141 1 -141 20 0 17 8 19 82 22 54 2 83 7 86 16 3 9
-18 12 -82 12 -79 0 -86 2 -86 20 0 16 7 20 33 20 57 0 137 13 137 21 0 5 -40
9 -90 9 -89 0 -90 0 -90 24 0 24 3 25 90 32 60 4 89 10 87 18 -3 7 -33 10 -90
7 l-87 -3 0 26 c0 26 0 26 85 26 70 0 85 3 85 16 0 13 -12 14 -84 8 -81 -6
-84 -6 -91 15 -4 13 -5 25 -2 27 2 2 41 7 86 11 60 4 81 10 81 20 0 11 -15 13
-85 7 l-85 -7 0 25 c0 24 4 26 58 32 84 10 113 17 107 26 -3 4 -43 5 -90 2
-74 -4 -85 -3 -85 12 0 9 -1 19 -2 22 -2 3 17 7 42 9 79 5 131 16 127 28 -4
12 -67 11 -115 -2 -41 -11 -62 -3 -62 23 0 24 4 25 134 42 35 5 43 11 30 23
-5 5 -30 5 -59 1 -87 -15 -115 -13 -115 10 0 20 5 22 113 35 33 4 47 11 47 21
0 12 -7 14 -27 10 -16 -3 -46 -8 -68 -12 -22 -3 -48 -8 -57 -11 -14 -3 -18 2
-18 20 0 23 6 25 128 49 70 14 132 26 138 27 7 0 17 -27 23 -63z m-9215 -768
c3 -13 7 -96 10 -185 7 -187 43 -487 79 -658 69 -322 126 -518 223 -767 30
-76 54 -143 54 -149 0 -9 53 -118 163 -334 79 -155 86 -175 65 -175 -6 0 -34
-15 -62 -34 -83 -55 -167 -104 -226 -133 -30 -14 -80 -42 -110 -61 -73 -47
-198 -119 -292 -170 -42 -23 -96 -55 -120 -71 -24 -16 -78 -47 -121 -70 l-77
-41 -43 76 c-23 41 -57 100 -74 131 -18 30 -33 60 -33 66 0 5 -38 87 -84 181
-46 95 -91 194 -99 221 -8 28 -38 106 -65 175 -57 143 -117 318 -127 370 -4
19 -26 105 -50 190 -51 180 -112 460 -126 575 -29 241 -56 545 -64 733 l-6
152 590 0 591 0 4 -22z m346 2 c0 -19 -7 -20 -90 -20 -53 0 -90 -4 -90 -10 0
-6 37 -10 90 -10 89 0 90 0 90 -25 0 -24 -2 -25 -74 -25 -77 0 -106 -6 -106
-21 0 -5 41 -9 90 -9 89 0 90 0 90 -25 0 -23 -4 -25 -44 -25 -68 0 -137 -12
-133 -23 2 -6 38 -9 89 -8 69 2 87 -1 91 -13 8 -21 3 -23 -90 -31 -57 -5 -83
-11 -83 -20 0 -9 21 -11 90 -7 l90 5 0 -25 c0 -25 -3 -26 -87 -34 -55 -6 -88
-14 -91 -22 -3 -10 15 -11 87 -6 l91 7 0 -27 c0 -24 -3 -26 -47 -26 -64 0
-123 -11 -123 -22 0 -5 38 -6 90 -2 l90 7 0 -26 c0 -24 -3 -26 -74 -32 -40 -4
-79 -11 -87 -15 -28 -18 3 -23 81 -14 74 9 80 8 80 -8 0 -10 1 -21 3 -25 1 -5
-33 -13 -77 -20 -43 -6 -81 -14 -84 -17 -13 -14 10 -16 84 -8 55 6 81 6 86 -2
18 -26 0 -34 -114 -51 -33 -4 -48 -11 -48 -21 0 -11 8 -14 33 -9 17 3 54 9 82
14 56 10 65 8 65 -18 0 -15 -21 -21 -130 -41 -71 -13 -133 -24 -137 -24 -20
-2 -62 344 -70 577 l-6 177 146 0 c140 0 147 -1 147 -20z m8920 -119 c0 -141
-18 -352 -45 -518 -8 -51 -15 -95 -15 -98 0 -2 -6 -3 -12 0 -7 2 -29 6 -48 9
-44 6 -201 36 -217 41 -6 2 -9 13 -6 25 4 17 11 20 32 15 14 -3 48 -7 74 -10
27 -3 53 -7 58 -11 5 -3 9 2 9 10 0 15 -8 17 -110 34 -37 6 -46 12 -48 31 -3
21 -1 23 35 17 106 -15 143 -17 143 -8 0 12 -27 19 -111 28 -66 6 -67 7 -59
33 4 14 11 25 16 24 60 -10 164 -13 164 -5 0 12 -25 19 -107 28 -59 6 -63 8
-63 32 l0 25 90 -7 c52 -4 90 -3 90 2 0 11 -59 22 -122 22 -45 0 -48 2 -48 26
l0 27 85 -7 c70 -5 85 -4 85 8 0 11 -22 16 -86 21 -79 7 -85 9 -82 29 3 20 8
21 91 19 64 -1 87 2 87 12 0 12 -69 25 -137 25 -27 0 -33 4 -33 21 0 19 5 20
87 18 51 -1 88 2 90 8 4 11 -65 23 -133 23 -40 0 -44 2 -44 25 0 25 1 25 91
25 68 0 90 3 87 13 -5 14 -6 14 -98 16 -68 1 -70 2 -70 26 0 25 1 25 85 25 50
0 85 4 85 10 0 6 -35 10 -85 10 -78 0 -85 2 -85 20 0 19 7 20 140 20 l140 0 0
-139z m1240 52 c-1 -200 -32 -540 -71 -778 -11 -66 -29 -174 -39 -240 -23
-144 -123 -534 -165 -638 -8 -20 -20 -59 -25 -85 -12 -51 -61 -180 -139 -367
-28 -66 -51 -124 -51 -129 0 -7 -112 -235 -170 -345 -5 -9 -23 -45 -41 -81
-17 -36 -40 -77 -50 -92 l-19 -26 -53 27 c-70 36 -198 111 -217 126 -8 7 -53
33 -100 57 -87 45 -223 125 -273 160 -15 10 -48 28 -72 38 -25 11 -75 39 -112
63 -38 24 -96 59 -131 78 -52 28 -62 38 -57 55 2 12 38 84 79 160 42 76 96
191 122 254 25 63 49 120 53 125 15 19 93 230 112 300 10 38 34 122 53 185 31
103 54 195 101 400 24 105 57 435 71 703 l7 137 593 0 594 0 0 -87z m-10100
-683 c0 -18 -9 -21 -112 -36 -31 -4 -48 -11 -48 -20 0 -18 6 -17 92 2 59 14
72 14 79 3 18 -29 7 -38 -68 -55 -43 -9 -82 -20 -87 -25 -21 -19 8 -22 77 -6
92 22 94 22 99 -7 4 -22 0 -25 -74 -41 -43 -10 -81 -22 -84 -27 -8 -12 44 -9
109 6 54 13 58 12 68 -5 11 -22 15 -20 -81 -45 -36 -9 -69 -21 -74 -25 -22
-20 8 -20 81 0 78 21 98 18 91 -14 -2 -12 -26 -24 -77 -39 -41 -11 -76 -27
-79 -33 -5 -18 12 -16 88 7 83 25 90 25 90 -4 0 -21 -7 -25 -65 -36 -64 -12
-106 -32 -93 -45 4 -4 38 2 77 14 86 26 97 26 104 0 6 -22 -2 -26 -97 -54 -53
-15 -74 -30 -63 -42 3 -2 43 7 88 21 63 19 85 22 91 13 18 -27 0 -41 -82 -66
-104 -33 -92 -48 15 -21 43 11 80 20 82 20 3 0 3 -10 1 -22 -2 -17 -18 -26
-75 -46 -48 -15 -73 -29 -73 -39 0 -8 6 -13 13 -11 6 3 37 13 67 23 30 10 61
22 68 28 10 8 16 7 23 -4 14 -22 11 -36 -8 -42 -10 -3 -67 -24 -127 -47 -59
-23 -112 -38 -116 -33 -17 17 -132 382 -144 453 -3 19 -14 79 -26 133 -31 152
-38 140 88 161 59 10 113 22 121 26 21 11 41 1 41 -20z m8642 0 c57 -11 113
-20 126 -20 21 0 22 -3 17 -37 -16 -97 -111 -471 -148 -581 -48 -143 -27 -136
-197 -70 -96 38 -114 48 -112 64 2 10 5 20 7 22 1 1 39 -10 83 -26 45 -16 84
-27 87 -24 13 13 0 22 -75 48 -83 28 -85 30 -72 52 8 12 52 5 155 -24 9 -3 17
-1 17 4 0 5 -36 21 -80 36 -73 26 -80 31 -74 50 4 11 8 23 10 25 2 2 38 -8 80
-23 53 -19 80 -24 87 -17 11 11 1 16 -95 47 -49 15 -58 21 -58 41 0 29 14 29
102 1 37 -12 70 -19 74 -16 14 14 -10 27 -81 44 -58 14 -75 22 -75 35 0 29 16
31 88 9 81 -23 92 -24 92 -7 0 7 -32 21 -77 33 -76 19 -93 33 -75 61 5 8 27 6
85 -10 42 -11 80 -18 83 -14 13 13 -8 24 -80 42 -77 19 -81 22 -70 49 4 11 12
13 27 7 36 -14 147 -24 147 -14 0 5 -30 15 -67 23 -91 17 -93 18 -93 46 0 29
6 29 99 8 40 -9 74 -14 77 -11 13 13 -9 25 -68 36 -91 17 -98 20 -98 41 0 29
12 31 100 14 80 -15 103 -13 84 6 -8 8 -122 29 -161 30 -7 0 -13 9 -13 20 0
25 12 25 142 0z m-8434 -731 c2 -11 -17 -22 -73 -39 -42 -13 -78 -28 -81 -32
-13 -20 28 -17 81 6 67 30 90 32 99 10 8 -21 15 -16 -78 -59 -50 -23 -75 -40
-69 -46 6 -6 34 2 76 21 79 35 93 37 100 9 5 -17 -5 -25 -69 -54 -93 -42 -97
-64 -6 -29 101 38 99 38 105 14 4 -14 0 -23 -11 -27 -74 -26 -144 -65 -135
-74 7 -7 35 1 88 26 43 19 79 34 80 33 2 -2 6 -13 10 -26 6 -20 -1 -26 -72
-59 -91 -41 -90 -41 -77 -52 5 -6 39 5 86 27 l77 37 10 -22 c9 -19 6 -25 -22
-42 -18 -11 -51 -25 -74 -33 -24 -7 -43 -19 -43 -25 0 -19 11 -16 83 17 36 17
70 30 75 30 9 0 26 -30 20 -35 -2 -1 -35 -20 -74 -41 -42 -23 -69 -44 -66 -52
3 -9 27 0 79 29 72 40 77 41 89 24 7 -10 11 -21 9 -26 -3 -4 -35 -24 -73 -44
-79 -44 -76 -41 -68 -54 4 -6 37 6 82 31 72 39 76 40 89 22 12 -17 11 -21 -8
-36 -12 -10 -26 -18 -31 -18 -23 0 -96 -43 -96 -56 0 -18 -3 -19 74 21 70 36
91 42 101 25 3 -5 -17 -22 -45 -37 -28 -16 -79 -46 -113 -69 -34 -22 -67 -43
-74 -47 -12 -8 -86 118 -129 218 -12 28 -53 116 -92 196 -57 118 -102 238
-102 272 0 6 40 21 125 46 39 11 77 25 85 31 21 14 54 8 58 -11z m8189 -3 c37
-14 94 -32 126 -42 31 -9 57 -18 57 -19 0 -3 -51 -130 -65 -160 -7 -16 -17
-43 -21 -60 -10 -45 -224 -465 -236 -465 -6 0 -45 21 -87 46 -42 26 -95 58
-119 71 -23 14 -39 29 -36 35 10 16 61 1 109 -32 48 -33 65 -37 65 -17 0 8
-31 29 -70 48 -70 34 -77 42 -61 68 10 16 18 13 96 -34 41 -25 75 -32 75 -16
0 5 -8 12 -17 15 -36 14 -123 71 -123 81 1 34 18 34 90 -4 69 -37 90 -42 90
-22 0 4 -34 25 -75 47 -49 25 -74 44 -72 54 4 20 30 17 97 -10 66 -26 74 -28
78 -16 2 5 -31 23 -72 40 -76 31 -84 38 -66 66 7 12 20 9 82 -18 80 -35 88
-37 88 -22 0 6 -34 27 -75 47 -41 19 -75 38 -75 42 0 4 6 15 13 24 11 15 19
13 86 -19 47 -21 78 -31 84 -25 10 10 -100 71 -127 71 -21 0 -27 15 -13 34 11
15 18 14 87 -13 103 -41 111 -26 11 21 -74 35 -81 40 -71 58 14 26 15 26 93
-10 37 -16 71 -30 77 -30 15 0 12 30 -2 30 -7 1 -44 15 -81 33 -64 30 -67 33
-54 51 14 19 16 19 86 -7 79 -30 91 -32 91 -17 0 11 -52 35 -101 45 -42 9 -59
22 -52 41 7 18 10 18 90 -10z m-7868 -692 c-6 -8 -35 -28 -65 -45 -29 -16 -57
-35 -60 -41 -12 -20 49 1 94 32 50 35 58 36 71 11 9 -16 1 -24 -56 -58 -37
-22 -69 -45 -71 -51 -6 -20 25 -13 55 12 49 41 92 59 109 45 8 -6 14 -15 14
-18 0 -4 -31 -29 -70 -55 -38 -27 -70 -52 -70 -56 0 -15 18 -21 26 -9 3 6 34
28 67 50 46 28 64 35 74 27 7 -6 13 -16 13 -22 0 -11 -91 -78 -122 -89 -18 -6
-25 -27 -9 -27 9 0 88 41 126 66 23 15 28 15 36 3 14 -23 12 -26 -62 -74 -51
-33 -69 -49 -61 -57 7 -7 30 3 78 36 64 45 94 52 94 23 0 -12 -76 -80 -120
-107 -10 -6 -12 -12 -4 -20 10 -10 30 2 116 71 23 19 30 20 43 9 8 -7 15 -16
15 -21 0 -6 -56 -52 -129 -105 -1 -2 0 -7 3 -13 4 -6 35 10 78 41 68 50 71 51
85 32 13 -17 12 -21 -7 -34 -90 -64 -121 -93 -112 -102 8 -8 26 1 59 29 57 48
90 66 103 58 21 -13 8 -36 -48 -82 -31 -26 -58 -52 -60 -58 -8 -23 18 -11 76
36 50 40 66 48 77 39 11 -10 8 -18 -23 -51 -20 -22 -49 -47 -64 -54 -14 -8
-48 -33 -73 -55 l-47 -41 -29 46 c-16 25 -32 45 -37 45 -11 0 -98 118 -205
279 -27 42 -58 85 -68 96 -14 16 -89 152 -89 163 0 1 6 2 13 2 6 1 59 29 117
64 76 46 109 61 118 53 9 -7 9 -13 1 -23z m7536 -9 c39 -25 91 -55 118 -67 26
-12 47 -25 47 -28 0 -4 -25 -46 -55 -95 -30 -48 -55 -89 -55 -92 0 -8 -88
-131 -131 -183 -20 -25 -43 -57 -51 -73 -7 -15 -42 -61 -78 -102 l-64 -76 -40
39 c-23 21 -54 46 -69 56 -16 10 -46 33 -68 53 -32 29 -37 38 -28 54 9 18 15
15 83 -41 52 -42 76 -56 79 -46 3 8 -19 34 -59 66 -65 53 -77 73 -47 84 17 7
74 -28 113 -69 26 -27 40 -32 39 -12 0 11 -35 42 -107 95 -23 17 -23 18 -4 35
19 18 21 17 53 -10 42 -35 85 -63 99 -63 22 0 8 18 -38 48 -70 45 -85 64 -69
86 13 17 18 15 82 -32 63 -46 85 -55 85 -33 0 4 -32 30 -70 56 -71 49 -77 60
-48 78 12 8 32 -1 83 -37 44 -31 71 -44 77 -38 11 11 -56 65 -110 88 -29 13
-31 16 -20 34 7 11 16 20 19 20 4 0 37 -18 73 -40 91 -55 104 -40 17 18 -39
26 -71 50 -71 53 0 3 6 14 14 24 13 18 14 18 47 -5 19 -13 36 -27 39 -30 3 -4
19 -15 37 -25 36 -21 59 -11 28 12 -11 8 -43 32 -72 53 -46 34 -51 40 -39 56
13 17 18 15 81 -25 39 -24 74 -40 83 -36 12 4 6 12 -22 31 -20 14 -53 32 -72
40 -22 9 -34 21 -34 34 0 32 18 33 68 3 65 -39 100 -54 107 -44 2 5 -28 28
-68 52 -39 23 -74 44 -76 45 -6 5 8 34 16 34 4 0 40 -21 78 -45z m-7755 -240
c63 -108 101 -165 151 -225 20 -25 44 -58 52 -75 8 -16 43 -61 77 -100 33 -38
74 -88 89 -111 54 -78 364 -394 499 -509 39 -33 73 -67 76 -75 3 -8 25 -26 48
-39 45 -25 128 -89 140 -106 4 -6 31 -27 60 -46 29 -20 71 -48 93 -62 186
-126 235 -157 268 -173 20 -10 37 -21 37 -25 0 -4 -20 -42 -45 -83 -25 -42
-45 -79 -45 -82 0 -7 -58 -106 -105 -179 -18 -27 -45 -75 -60 -105 -36 -70
-135 -240 -151 -260 -7 -8 -31 -51 -54 -95 -44 -85 -112 -201 -129 -218 -6 -6
-43 13 -108 55 -54 35 -105 67 -114 70 -20 8 -186 123 -219 152 -14 13 -45 34
-70 48 -25 15 -74 52 -110 83 -36 31 -88 72 -117 91 -29 19 -56 40 -60 47 -4
7 -44 43 -88 80 -116 99 -448 423 -499 487 -24 30 -66 78 -93 105 -27 28 -60
66 -73 85 -13 19 -49 65 -81 101 -32 37 -77 95 -100 130 -23 35 -56 80 -73 99
-16 19 -63 87 -104 150 -41 63 -98 151 -128 195 -77 116 -77 118 27 174 131
70 217 120 291 168 37 23 73 43 80 43 7 0 38 16 68 36 74 49 194 119 299 175
47 25 110 62 140 82 63 42 49 51 131 -88z m8071 58 c52 -31 128 -74 169 -96
41 -22 98 -54 125 -72 28 -18 91 -55 140 -83 162 -89 187 -104 254 -147 36
-23 77 -46 91 -50 19 -6 94 -50 139 -81 7 -5 -102 -186 -163 -272 -35 -48 -72
-105 -84 -127 -11 -22 -31 -51 -43 -65 -13 -14 -49 -59 -79 -100 -144 -196
-308 -385 -516 -596 -177 -178 -348 -335 -474 -434 -36 -28 -99 -78 -140 -111
-41 -33 -109 -83 -151 -112 -42 -28 -98 -69 -125 -89 -27 -20 -60 -43 -74 -50
-14 -6 -54 -31 -90 -54 -36 -22 -86 -53 -111 -68 l-47 -27 -36 63 c-20 35 -51
86 -68 113 -17 28 -64 110 -105 183 -40 72 -87 151 -102 175 -16 23 -39 62
-51 87 -25 51 -20 43 -99 175 -78 130 -85 142 -110 192 l-20 42 87 51 c48 29
110 69 137 90 28 21 78 56 111 77 34 21 104 72 155 113 52 42 104 83 116 91
36 25 201 177 324 299 183 182 330 352 454 525 32 44 73 98 91 119 19 22 34
45 34 51 0 7 22 43 48 81 27 38 61 90 76 117 15 26 31 47 36 47 4 0 50 -25
101 -57z m-7401 -414 c0 -5 -18 -20 -39 -33 -40 -25 -88 -83 -78 -93 4 -3 32
18 64 46 57 51 85 62 99 39 5 -7 -18 -35 -60 -74 -46 -40 -64 -64 -57 -69 12
-7 27 4 104 74 35 34 38 34 55 18 16 -17 14 -21 -46 -79 -38 -36 -59 -65 -54
-70 5 -5 33 13 68 46 32 31 61 56 65 56 4 0 12 -7 20 -16 11 -14 5 -23 -44
-69 -50 -48 -69 -75 -51 -75 3 0 33 25 67 55 54 49 63 54 76 41 13 -14 8 -22
-42 -75 -52 -55 -68 -81 -50 -81 4 0 35 28 69 61 57 57 64 60 82 47 20 -13 18
-16 -40 -81 -79 -88 -70 -112 10 -28 52 54 64 62 77 51 8 -7 15 -16 15 -20 0
-4 -25 -33 -55 -64 -31 -31 -53 -61 -49 -67 4 -7 31 14 68 50 57 56 63 60 81
47 19 -14 18 -16 -29 -64 -56 -57 -70 -78 -57 -86 5 -3 32 21 61 54 29 33 55
60 59 60 4 0 15 -6 24 -12 15 -12 11 -20 -43 -82 -53 -61 -65 -86 -41 -86 4 0
33 32 65 71 50 60 60 69 69 54 13 -25 2 -44 -88 -144 l-80 -90 -53 47 c-144
127 -486 477 -480 492 2 5 50 47 107 94 80 65 108 83 118 74 7 -6 13 -14 13
-19z m6660 -39 c46 -31 102 -79 118 -101 11 -16 3 -28 -70 -107 -46 -48 -97
-103 -114 -122 -45 -50 -232 -227 -293 -279 -42 -35 -55 -41 -62 -30 -5 8 -19
29 -30 47 -11 17 -24 32 -28 32 -4 0 -31 30 -61 66 -38 46 -50 68 -42 76 17
17 37 4 91 -61 27 -34 53 -56 56 -51 7 11 -48 92 -84 124 l-21 19 20 14 c25
18 35 11 86 -58 31 -42 64 -64 64 -43 0 8 -66 89 -92 113 -17 17 -17 18 0 34
16 15 21 12 77 -44 38 -38 63 -55 69 -49 6 6 -12 31 -52 71 -59 59 -61 63 -45
81 16 18 19 16 85 -49 51 -50 68 -63 68 -48 0 11 -26 45 -57 77 -55 56 -57 59
-39 75 17 17 20 15 76 -44 51 -56 80 -76 80 -57 0 4 -25 36 -56 71 -52 58 -55
66 -41 80 14 14 21 10 74 -41 53 -51 83 -68 83 -48 0 4 -27 32 -61 63 -57 51
-61 57 -49 78 l12 23 46 -45 c47 -44 90 -73 98 -64 3 2 -24 32 -58 65 -59 57
-62 62 -46 78 16 16 19 15 55 -14 21 -16 49 -42 62 -56 14 -14 28 -26 33 -26
20 0 4 25 -54 81 -50 48 -60 62 -48 69 26 17 37 11 91 -40 29 -27 56 -50 60
-50 26 0 11 24 -45 71 -55 45 -63 56 -54 72 9 18 11 18 36 -5 15 -14 43 -35
62 -48z m-6130 -475 c13 -15 2 -34 -46 -80 -19 -18 -46 -67 -40 -72 5 -6 97
90 104 108 6 14 28 10 43 -7 11 -14 11 -18 -1 -28 -36 -27 -92 -108 -86 -123
5 -12 20 2 62 56 30 39 59 71 63 71 5 0 14 -6 20 -14 9 -10 2 -27 -30 -75 -22
-33 -45 -63 -50 -66 -14 -9 -11 -25 5 -25 15 0 76 76 76 95 0 7 8 19 18 29 18
15 20 15 35 -1 14 -17 12 -23 -28 -83 -25 -36 -45 -68 -45 -72 0 -20 19 -2 65
56 41 54 52 63 67 55 26 -14 23 -24 -27 -88 -42 -54 -55 -81 -37 -81 4 0 30
29 57 65 27 36 52 65 56 65 3 0 12 -7 19 -15 10 -12 5 -26 -33 -81 -42 -61
-50 -84 -28 -84 4 0 25 29 46 65 21 36 41 67 44 69 3 2 16 0 29 -5 l23 -9 -24
-32 c-23 -31 -67 -111 -67 -123 0 -19 24 3 54 53 20 31 40 63 45 71 9 15 51 7
51 -10 0 -6 -20 -42 -45 -79 -26 -41 -40 -72 -34 -76 12 -7 25 8 71 84 35 56
40 59 57 38 13 -16 -4 -63 -43 -115 -23 -31 -26 -51 -7 -51 4 0 25 32 46 70
40 73 42 75 63 62 10 -7 7 -17 -12 -44 -13 -20 -43 -75 -66 -122 -23 -47 -47
-86 -54 -86 -21 0 -455 294 -481 326 -5 7 -24 21 -41 31 -17 10 -45 30 -63 46
l-33 27 25 34 c14 18 44 53 67 77 22 24 51 59 63 76 25 37 30 39 47 18z m5667
-168 c26 -35 23 -44 -23 -77 -20 -14 -63 -46 -97 -73 -114 -87 -160 -121 -188
-136 -15 -9 -82 -53 -149 -98 -67 -46 -126 -83 -131 -83 -4 0 -27 33 -50 73
-22 39 -49 84 -60 98 -10 15 -21 38 -24 52 -13 50 14 35 59 -33 43 -64 66 -85
66 -60 0 5 -20 40 -45 77 -42 62 -44 69 -28 80 9 7 20 13 24 13 4 0 24 -26 43
-59 38 -63 61 -87 69 -74 3 5 -14 40 -38 78 -38 60 -42 72 -30 84 20 20 39 8
60 -36 33 -72 57 -105 68 -94 7 7 0 25 -21 58 -43 68 -54 99 -38 112 15 12 34
-6 86 -82 21 -32 36 -45 42 -39 10 10 -58 122 -83 137 -9 6 16 34 32 35 4 0
29 -29 57 -65 28 -36 53 -62 56 -56 5 8 -15 42 -66 111 -21 30 -21 30 -2 44
23 17 38 8 64 -43 25 -51 57 -78 72 -63 8 8 8 12 1 12 -14 0 -83 100 -83 121
0 8 5 20 12 27 8 8 23 -5 62 -57 28 -37 55 -69 61 -70 23 -6 12 20 -36 84 -50
65 -51 69 -33 82 17 13 22 11 49 -19 17 -18 42 -49 56 -68 15 -19 30 -32 34
-28 10 9 -18 57 -59 102 -29 31 -34 42 -25 53 18 21 32 13 80 -46 43 -54 69
-73 69 -52 0 6 -15 28 -33 48 -52 60 -68 88 -54 102 8 8 29 -9 81 -66 39 -42
81 -90 93 -106z m-5034 -263 c3 -3 -4 -23 -17 -43 -13 -20 -33 -55 -45 -78
-17 -35 -19 -43 -6 -43 8 0 33 33 56 75 35 65 43 74 59 65 18 -9 18 -13 4 -48
-8 -20 -25 -56 -37 -79 -12 -23 -18 -45 -14 -49 8 -8 37 14 37 30 0 24 50 116
63 116 36 0 36 -23 -1 -94 -20 -39 -38 -74 -40 -78 -2 -5 3 -8 11 -8 9 0 32
32 53 74 35 67 40 73 59 64 11 -6 22 -12 24 -14 2 -2 -15 -36 -37 -77 -37 -67
-42 -87 -22 -87 3 0 23 33 44 74 31 59 42 73 57 69 25 -7 24 -10 -11 -85 -16
-34 -30 -69 -30 -76 0 -23 23 -7 31 20 3 14 19 46 34 71 23 40 29 45 46 37 10
-6 19 -12 19 -14 0 -2 -15 -37 -34 -79 -32 -69 -35 -87 -16 -87 4 0 22 34 40
75 24 55 38 75 52 75 31 0 30 -23 -2 -94 -33 -76 -36 -86 -17 -86 12 0 40 59
55 120 8 36 26 47 50 31 11 -7 8 -23 -17 -82 -35 -83 -36 -89 -18 -89 7 0 25
34 41 75 28 74 37 83 65 66 14 -9 1 -52 -47 -163 -2 -5 3 -8 11 -8 10 0 28 30
48 79 22 54 36 78 46 74 16 -6 16 -37 -1 -83 -7 -19 -26 -69 -41 -110 -15 -41
-31 -78 -35 -83 -6 -7 -199 70 -285 115 -22 11 -62 28 -90 38 -47 16 -247 122
-289 153 -19 13 -19 16 18 82 77 140 109 179 129 159z m4270 -12 c9 -10 28
-43 41 -75 14 -31 38 -76 52 -99 25 -39 26 -43 9 -53 -10 -5 -32 -20 -50 -31
-45 -30 -193 -104 -295 -149 -104 -45 -314 -135 -316 -135 -1 0 -14 35 -30 78
-15 42 -30 82 -34 87 -13 19 -38 103 -32 109 20 20 39 0 67 -69 16 -41 35 -75
42 -75 16 0 17 14 3 38 -5 9 -19 41 -30 71 -17 43 -18 56 -8 62 32 21 40 10
70 -91 8 -27 20 -46 30 -48 15 -3 15 3 -6 55 -35 88 -39 110 -19 117 22 9 27
2 61 -79 29 -66 52 -94 52 -62 0 8 -14 45 -30 82 -31 69 -31 85 -1 85 13 0 30
-23 56 -77 21 -43 40 -72 42 -66 6 17 -14 79 -39 123 -19 32 -19 35 -2 47 22
16 34 17 34 1 0 -22 59 -138 70 -138 17 0 12 19 -25 91 -34 68 -35 69 -14 80
25 13 27 11 70 -71 41 -80 37 -76 50 -63 7 7 -1 30 -25 75 -42 75 -43 84 -16
98 18 10 23 4 56 -65 20 -41 41 -75 45 -75 11 0 12 23 1 36 -5 5 -19 35 -32
67 -19 49 -21 60 -9 68 8 5 16 9 19 9 3 0 22 -34 43 -75 23 -46 43 -75 53 -75
9 0 14 3 12 8 -2 4 -21 42 -43 84 -21 43 -37 79 -35 82 3 2 13 6 24 8 14 2 28
-14 59 -69 23 -40 47 -73 54 -73 18 0 18 3 -27 81 -37 65 -42 89 -21 89 4 0
15 -8 24 -18z m-4263 -369 c52 -24 152 -71 222 -104 206 -98 639 -243 828
-279 36 -6 106 -20 155 -30 221 -45 483 -77 713 -86 l162 -7 0 -588 c0 -410
-3 -590 -11 -594 -17 -11 -481 14 -659 36 -195 24 -429 67 -630 115 -80 19
-183 43 -230 54 -47 12 -148 43 -225 69 -331 115 -413 145 -470 171 -33 15
-107 49 -165 74 -122 54 -345 167 -409 208 -25 15 -51 28 -58 28 -7 0 -13 2
-13 5 0 3 27 56 61 118 57 104 97 172 168 288 16 25 32 57 36 70 4 13 20 42
35 64 51 75 119 190 150 253 16 35 45 86 63 115 19 29 44 69 56 89 l22 38 52
-31 c29 -17 95 -51 147 -76z m4439 64 c13 -23 41 -76 63 -117 23 -41 53 -94
68 -116 15 -23 44 -72 65 -110 74 -135 159 -279 170 -289 6 -5 31 -48 54 -95
23 -47 64 -121 91 -165 27 -44 49 -85 50 -92 0 -6 -10 -15 -22 -18 -13 -4 -48
-22 -78 -40 -153 -90 -644 -319 -714 -332 -17 -3 -43 -12 -57 -19 -39 -20
-479 -164 -500 -164 -10 0 -92 -18 -181 -39 -414 -100 -659 -133 -1170 -157
l-148 -7 0 597 0 596 78 0 c104 0 401 25 537 45 111 16 276 47 460 86 249 53
742 232 920 333 22 13 51 26 65 29 14 4 68 31 120 61 52 31 97 55 100 56 3 0
16 -19 29 -43z m-3759 -2 c0 -9 -11 -42 -25 -75 -14 -33 -25 -67 -25 -76 0
-35 23 -4 52 69 27 68 33 77 52 71 12 -4 22 -7 23 -8 2 -1 -10 -37 -25 -79
-21 -58 -24 -79 -15 -88 9 -9 18 8 38 74 23 73 29 84 46 80 24 -7 24 -16 -1
-88 -22 -64 -25 -95 -10 -95 5 0 19 30 30 68 27 87 32 96 59 87 16 -5 20 -12
15 -27 -35 -110 -42 -148 -29 -148 13 0 55 115 55 149 0 6 11 11 25 11 30 0
30 -3 6 -102 -13 -57 -15 -78 -6 -78 7 0 19 35 30 85 17 83 25 94 55 75 13 -8
12 -19 -6 -89 -16 -63 -17 -81 -7 -85 12 -5 16 5 44 117 11 46 21 55 47 38 11
-7 10 -23 -6 -90 -15 -62 -16 -81 -7 -81 16 0 32 45 41 111 6 48 16 57 42 40
11 -7 10 -23 -6 -90 -15 -64 -16 -81 -6 -81 13 0 26 37 40 113 7 39 23 54 48
44 12 -5 12 -15 0 -69 -16 -75 -17 -108 -5 -108 5 0 18 37 29 83 12 55 24 82
33 82 22 0 22 -39 -1 -165 l-22 -118 -41 5 c-73 8 -359 82 -519 133 -84 28
-159 50 -165 50 -16 0 -17 -2 6 62 11 29 26 76 35 105 28 91 34 103 56 103 11
0 20 -7 20 -15z m2898 -17 c5 -18 26 -75 46 -127 40 -104 41 -111 23 -111 -7
0 -82 -23 -167 -50 -85 -28 -222 -67 -305 -88 -82 -20 -151 -39 -152 -42 -2
-3 -24 -4 -50 -4 l-48 1 -24 127 c-23 127 -23 156 2 156 9 0 20 -28 32 -85 12
-57 22 -85 31 -85 8 0 14 1 14 3 0 1 -7 34 -15 72 -20 97 -20 105 10 105 17 0
25 -6 25 -17 0 -9 5 -45 11 -80 8 -45 15 -63 26 -63 11 0 14 7 10 23 -33 129
-35 146 -20 151 32 13 39 3 56 -74 12 -55 23 -80 33 -80 8 0 14 1 14 3 -1 1
-9 38 -20 82 -10 44 -18 80 -17 81 1 1 12 5 24 8 23 7 20 15 54 -116 5 -21 14
-38 19 -38 13 0 12 12 -5 94 -12 55 -12 72 -2 78 22 14 25 9 48 -77 14 -54 27
-85 36 -85 16 0 17 -3 -7 82 -25 90 -25 94 0 101 24 6 31 -5 55 -95 11 -42 23
-68 31 -68 18 0 18 2 -10 92 -23 75 -23 78 -5 83 27 9 36 0 44 -42 12 -70 28
-113 42 -113 18 0 17 5 -12 89 -26 78 -26 86 4 94 15 4 23 -8 46 -74 18 -51
33 -79 42 -79 10 0 13 6 8 18 -3 9 -16 46 -27 80 -18 54 -19 65 -7 73 27 17
35 8 63 -71 15 -44 32 -78 36 -75 8 5 -8 74 -29 128 -6 16 -9 33 -5 38 11 19
31 8 42 -23z m-2172 -205 c-3 -27 -9 -68 -12 -92 -6 -35 -4 -43 7 -39 8 3 19
36 28 86 13 77 15 82 39 82 27 0 26 7 7 -147 -3 -23 -1 -33 9 -33 10 0 16 23
22 83 8 76 11 82 33 85 24 4 24 3 17 -60 -4 -34 -10 -75 -13 -90 -4 -21 -2
-28 10 -28 12 0 17 17 23 68 4 37 9 70 10 75 1 4 2 12 3 17 0 6 13 10 27 10
l26 0 -7 -67 c-3 -38 -8 -78 -11 -90 -3 -15 0 -23 10 -23 9 0 16 16 20 48 16
121 17 122 38 122 20 0 21 -4 15 -85 -3 -46 -2 -87 2 -90 11 -6 21 30 21 76 0
20 3 50 6 66 5 25 10 29 30 25 24 -4 24 -5 17 -88 -5 -74 -4 -84 11 -84 13 0
16 11 16 63 0 87 7 107 37 107 l25 0 -7 -90 c-6 -79 -5 -90 9 -90 13 0 16 13
16 83 0 46 3 86 6 89 3 3 14 3 26 0 19 -5 20 -10 14 -88 -6 -72 -5 -84 8 -84
13 0 16 12 16 54 0 88 9 116 36 116 23 0 24 -2 24 -85 0 -50 4 -85 10 -85 6 0
10 21 10 48 0 72 11 122 26 122 11 0 14 -28 14 -141 l0 -142 -161 7 c-156 7
-304 21 -496 47 -73 10 -93 16 -93 28 1 30 19 156 30 209 10 42 16 52 32 52
19 0 20 -4 14 -47z m1436 7 c13 -62 40 -232 36 -235 -16 -14 -548 -65 -680
-65 l-68 0 0 140 c0 133 1 140 20 140 18 0 20 -7 20 -85 0 -69 3 -85 15 -85
12 0 15 16 15 85 0 84 0 85 25 85 25 0 25 -1 25 -85 0 -50 4 -85 10 -85 6 0
10 35 10 85 0 84 0 85 25 85 24 0 25 -3 25 -62 0 -71 8 -108 22 -108 6 0 8 36
7 88 l-3 87 27 3 c26 3 27 2 27 -45 0 -71 11 -123 25 -123 9 0 12 12 9 38 -12
118 -11 130 8 135 23 7 25 2 33 -95 5 -58 10 -78 21 -78 15 0 15 15 -1 143 -5
35 -4 37 24 37 l29 0 7 -85 c5 -66 10 -85 22 -85 15 0 14 43 -4 148 -5 29 -3
32 20 32 28 0 37 -16 37 -63 0 -52 12 -107 23 -107 9 0 4 83 -10 153 -5 24 -2
27 20 27 28 0 32 -8 42 -85 9 -68 14 -85 27 -85 10 0 5 81 -9 153 -5 27 -4 28
23 25 26 -3 29 -7 36 -53 13 -94 19 -116 29 -109 6 3 8 22 5 43 -19 120 -19
133 0 129 11 -2 21 -16 26 -38z"/>
<path d="M6160 8070 c-157 -22 -458 -144 -613 -248 -41 -29 -78 -56 -82 -62
-3 -5 -39 -34 -79 -64 -40 -31 -86 -74 -101 -96 -16 -23 -41 -52 -57 -65 -34
-28 -128 -152 -128 -167 0 -7 -9 -21 -19 -32 -32 -34 -138 -246 -156 -311
-122 -441 -123 -620 -6 -1057 23 -84 83 -211 140 -298 20 -30 45 -73 56 -94
11 -21 52 -73 92 -116 40 -42 82 -89 94 -104 12 -15 53 -52 92 -84 39 -31 79
-64 89 -74 53 -53 330 -195 470 -242 42 -13 144 -35 225 -47 122 -18 176 -20
308 -16 264 9 448 52 637 148 34 18 86 43 113 57 95 46 289 204 388 316 77 86
182 233 226 316 64 123 129 306 163 460 18 79 21 129 22 295 0 172 -3 215 -23
305 -29 133 -117 376 -167 463 -198 339 -465 578 -799 713 -33 14 -68 29 -77
34 -9 5 -68 23 -130 41 -110 30 -119 31 -363 34 -137 2 -279 0 -315 -5z m556
-59 c138 -28 375 -110 447 -153 65 -40 180 -116 237 -158 60 -43 236 -224 274
-280 122 -183 200 -326 221 -410 8 -30 26 -98 40 -150 13 -52 30 -133 36 -180
15 -112 6 -403 -16 -490 -61 -250 -108 -368 -199 -510 -23 -36 -54 -84 -69
-107 -38 -61 -215 -250 -257 -275 -19 -12 -59 -41 -88 -64 -155 -126 -450
-248 -687 -285 -117 -19 -360 -16 -475 6 -95 17 -323 87 -345 105 -6 5 -41 21
-77 34 -58 22 -233 131 -283 177 -11 10 -53 46 -92 79 -40 33 -78 71 -84 83
-7 12 -29 39 -49 59 -84 85 -210 303 -280 483 -75 197 -99 564 -52 822 51 282
212 574 437 798 129 128 323 257 481 318 183 71 266 93 469 121 72 10 314 -3
411 -23z"/>
<circle id="dial" cx="650" cy="650" r="650" stroke="black" stroke-width="1"></circle>
</g>
</svg>
