<svg id="astro-disc" width="1500" height="1500" viewBox="0 0 1500 1500">
  <g id="western-chart" class="chart western-chart">
    <g class="main-disc" x="90" y="90">
  <g class="degrees">
    <line class="degree-line degree-line-ten" x1="750" y1="120" x2="750" y2="1380" stroke="black" stroke-width="2" transform="rotate(-90,750,750)">
    </line>
    <g class="degree-label">
        <text class="degree-value" x="100" y="750">0º</text>
    </g>
    <g class="degree-label"><text class="degree-value" x="1400" y="750">180º</text></g>
    <line class="degree-line" x1="750" y1="140" x2="750" y2="1360" stroke="#999999" stroke-width="1" transform="rotate(-89,750,750)">
    </line>
    <line class="degree-line" x1="750" y1="140" x2="750" y2="1360" stroke="#999999" stroke-width="1" transform="rotate(-88,750,750)">
    </line>
    <line class="degree-line" x1="750" y1="140" x2="750" y2="1360" stroke="#999999" stroke-width="1" transform="rotate(-87,750,750)">
    </line>
    <line class="degree-line" x1="750" y1="140" x2="750" y2="1360" stroke="#999999" stroke-width="1" transform="rotate(-86,750,750)">
    </line>
    <line class="degree-line degree-line-five" x1="750" y1="130" x2="750" y2="1370" stroke="#333333" stroke-width="1" transform="rotate(-85,750,750)">
    </line>
    <line class="degree-line" x1="750" y1="140" x2="750" y2="1360" stroke="#999999" stroke-width="1" transform="rotate(-84,750,750)">
    </line>
    <line class="degree-line" x1="750" y1="140" x2="750" y2="1360" stroke="#999999" stroke-width="1" transform="rotate(-83,750,750)">
    </line>
    <line class="degree-line" x1="750" y1="140" x2="750" y2="1360" stroke="#999999" stroke-width="1" transform="rotate(-82,750,750)">
    </line>
    <line class="degree-line" x1="750" y1="140" x2="750" y2="1360" stroke="#999999" stroke-width="1" transform="rotate(-81,750,750)">
    </line>
    <line class="degree-line degree-line-ten" x1="750" y1="120" x2="750" y2="1380" stroke="black" stroke-width="2" transform="rotate(-80,750,750)">
    </line>
    <line class="degree-line" x1="750" y1="140" x2="750" y2="1360" stroke="#999999" stroke-width="1" transform="rotate(-79,750,750)">
    </line>
    <line class="degree-line" x1="750" y1="140" x2="750" y2="1360" stroke="#999999" stroke-width="1" transform="rotate(-78,750,750)">
    </line>
    <line class="degree-line" x1="750" y1="140" x2="750" y2="1360" stroke="#999999" stroke-width="1" transform="rotate(-77,750,750)">
    </line>
    <line class="degree-line" x1="750" y1="140" x2="750" y2="1360" stroke="#999999" stroke-width="1" transform="rotate(-76,750,750)">
    </line>
    <line class="degree-line degree-line-five" x1="750" y1="130" x2="750" y2="1370" stroke="#333333" stroke-width="1" transform="rotate(-75,750,750)">
    </line>
    <line class="degree-line" x1="750" y1="140" x2="750" y2="1360" stroke="#999999" stroke-width="1" transform="rotate(-74,750,750)">
    </line>
    <line class="degree-line" x1="750" y1="140" x2="750" y2="1360" stroke="#999999" stroke-width="1" transform="rotate(-73,750,750)">
    </line>
    <line class="degree-line" x1="750" y1="140" x2="750" y2="1360" stroke="#999999" stroke-width="1" transform="rotate(-72,750,750)">
    </line>
    <line class="degree-line" x1="750" y1="140" x2="750" y2="1360" stroke="#999999" stroke-width="1" transform="rotate(-71,750,750)">
    </line>
    <line class="degree-line degree-line-ten" x1="750" y1="120" x2="750" y2="1380" stroke="black" stroke-width="2" transform="rotate(-70,750,750)">
    </line>
    <line class="degree-line" x1="750" y1="140" x2="750" y2="1360" stroke="#999999" stroke-width="1" transform="rotate(-69,750,750)">
    </line>
    <line class="degree-line" x1="750" y1="140" x2="750" y2="1360" stroke="#999999" stroke-width="1" transform="rotate(-68,750,750)">
    </line>
    <line class="degree-line" x1="750" y1="140" x2="750" y2="1360" stroke="#999999" stroke-width="1" transform="rotate(-67,750,750)">
    </line>
    <line class="degree-line" x1="750" y1="140" x2="750" y2="1360" stroke="#999999" stroke-width="1" transform="rotate(-66,750,750)">
    </line>
    <line class="degree-line degree-line-five" x1="750" y1="130" x2="750" y2="1370" stroke="#333333" stroke-width="1" transform="rotate(-65,750,750)">
    </line>
    <line class="degree-line" x1="750" y1="140" x2="750" y2="1360" stroke="#999999" stroke-width="1" transform="rotate(-64,750,750)">
    </line>
    <line class="degree-line" x1="750" y1="140" x2="750" y2="1360" stroke="#999999" stroke-width="1" transform="rotate(-63,750,750)">
    </line>
    <line class="degree-line" x1="750" y1="140" x2="750" y2="1360" stroke="#999999" stroke-width="1" transform="rotate(-62,750,750)">
    </line>
    <line class="degree-line" x1="750" y1="140" x2="750" y2="1360" stroke="#999999" stroke-width="1" transform="rotate(-61,750,750)">
    </line>
    <line class="degree-line degree-line-ten" x1="750" y1="120" x2="750" y2="1380" stroke="black" stroke-width="2" transform="rotate(-60,750,750)">
    </line>
    <g class="degree-label"><text class="degree-value" x="187.0834875401149" y="424.99999999999994">330º</text></g>
    <g class="degree-label"><text class="degree-value" x="1312.9165124598853" y="1074.9999999999998">150º</text></g>
    <line class="degree-line" x1="750" y1="140" x2="750" y2="1360" stroke="#999999" stroke-width="1" transform="rotate(-59,750,750)">
    </line>
    <line class="degree-line" x1="750" y1="140" x2="750" y2="1360" stroke="#999999" stroke-width="1" transform="rotate(-58,750,750)">
    </line>
    <line class="degree-line" x1="750" y1="140" x2="750" y2="1360" stroke="#999999" stroke-width="1" transform="rotate(-57,750,750)">
    </line>
    <line class="degree-line" x1="750" y1="140" x2="750" y2="1360" stroke="#999999" stroke-width="1" transform="rotate(-56,750,750)">
    </line>
    <line class="degree-line degree-line-five" x1="750" y1="130" x2="750" y2="1370" stroke="#333333" stroke-width="1" transform="rotate(-55,750,750)">
    </line>
    <line class="degree-line" x1="750" y1="140" x2="750" y2="1360" stroke="#999999" stroke-width="1" transform="rotate(-54,750,750)">
    </line>
    <line class="degree-line" x1="750" y1="140" x2="750" y2="1360" stroke="#999999" stroke-width="1" transform="rotate(-53,750,750)">
    </line>
    <line class="degree-line" x1="750" y1="140" x2="750" y2="1360" stroke="#999999" stroke-width="1" transform="rotate(-52,750,750)">
    </line>
    <line class="degree-line" x1="750" y1="140" x2="750" y2="1360" stroke="#999999" stroke-width="1" transform="rotate(-51,750,750)">
    </line>
    <line class="degree-line degree-line-ten" x1="750" y1="120" x2="750" y2="1380" stroke="black" stroke-width="2" transform="rotate(-50,750,750)">
    </line>
    <line class="degree-line" x1="750" y1="140" x2="750" y2="1360" stroke="#999999" stroke-width="1" transform="rotate(-49,750,750)">
    </line>
    <line class="degree-line" x1="750" y1="140" x2="750" y2="1360" stroke="#999999" stroke-width="1" transform="rotate(-48,750,750)">
    </line>
    <line class="degree-line" x1="750" y1="140" x2="750" y2="1360" stroke="#999999" stroke-width="1" transform="rotate(-47,750,750)">
    </line>
    <line class="degree-line" x1="750" y1="140" x2="750" y2="1360" stroke="#999999" stroke-width="1" transform="rotate(-46,750,750)">
    </line>
    <line class="degree-line degree-line-five" x1="750" y1="130" x2="750" y2="1370" stroke="#333333" stroke-width="1" transform="rotate(-45,750,750)">
    </line>
    <line class="degree-line" x1="750" y1="140" x2="750" y2="1360" stroke="#999999" stroke-width="1" transform="rotate(-44,750,750)">
    </line>
    <line class="degree-line" x1="750" y1="140" x2="750" y2="1360" stroke="#999999" stroke-width="1" transform="rotate(-43,750,750)">
    </line>
    <line class="degree-line" x1="750" y1="140" x2="750" y2="1360" stroke="#999999" stroke-width="1" transform="rotate(-42,750,750)">
    </line>
    <line class="degree-line" x1="750" y1="140" x2="750" y2="1360" stroke="#999999" stroke-width="1" transform="rotate(-41,750,750)">
    </line>
    <line class="degree-line degree-line-ten" x1="750" y1="120" x2="750" y2="1380" stroke="black" stroke-width="2" transform="rotate(-40,750,750)">
    </line>
    <line class="degree-line" x1="750" y1="140" x2="750" y2="1360" stroke="#999999" stroke-width="1" transform="rotate(-39,750,750)">
    </line>
    <line class="degree-line" x1="750" y1="140" x2="750" y2="1360" stroke="#999999" stroke-width="1" transform="rotate(-38,750,750)">
    </line>
    <line class="degree-line" x1="750" y1="140" x2="750" y2="1360" stroke="#999999" stroke-width="1" transform="rotate(-37,750,750)">
    </line>
    <line class="degree-line" x1="750" y1="140" x2="750" y2="1360" stroke="#999999" stroke-width="1" transform="rotate(-36,750,750)">
    </line>
    <line class="degree-line degree-line-five" x1="750" y1="130" x2="750" y2="1370" stroke="#333333" stroke-width="1" transform="rotate(-35,750,750)">
    </line>
    <line class="degree-line" x1="750" y1="140" x2="750" y2="1360" stroke="#999999" stroke-width="1" transform="rotate(-34,750,750)">
    </line>
    <line class="degree-line" x1="750" y1="140" x2="750" y2="1360" stroke="#999999" stroke-width="1" transform="rotate(-33,750,750)">
    </line>
    <line class="degree-line" x1="750" y1="140" x2="750" y2="1360" stroke="#999999" stroke-width="1" transform="rotate(-32,750,750)">
    </line>
    <line class="degree-line" x1="750" y1="140" x2="750" y2="1360" stroke="#999999" stroke-width="1" transform="rotate(-31,750,750)">
    </line>
    <line class="degree-line degree-line-ten" x1="750" y1="120" x2="750" y2="1380" stroke="black" stroke-width="2" transform="rotate(-30,750,750)">
    </line>
    <g class="degree-label"><text class="degree-value" x="425.00000000000006" y="187.0834875401148">300º</text></g>
    <g class="degree-label"><text class="degree-value" x="1075" y="1312.9165124598853">120º</text></g>
    <line class="degree-line" x1="750" y1="140" x2="750" y2="1360" stroke="#999999" stroke-width="1" transform="rotate(-29,750,750)">
    </line>
    <line class="degree-line" x1="750" y1="140" x2="750" y2="1360" stroke="#999999" stroke-width="1" transform="rotate(-28,750,750)">
    </line>
    <line class="degree-line" x1="750" y1="140" x2="750" y2="1360" stroke="#999999" stroke-width="1" transform="rotate(-27,750,750)">
    </line>
    <line class="degree-line" x1="750" y1="140" x2="750" y2="1360" stroke="#999999" stroke-width="1" transform="rotate(-26,750,750)">
    </line>
    <line class="degree-line degree-line-five" x1="750" y1="130" x2="750" y2="1370" stroke="#333333" stroke-width="1" transform="rotate(-25,750,750)">
    </line>
    <line class="degree-line" x1="750" y1="140" x2="750" y2="1360" stroke="#999999" stroke-width="1" transform="rotate(-24,750,750)">
    </line>
    <line class="degree-line" x1="750" y1="140" x2="750" y2="1360" stroke="#999999" stroke-width="1" transform="rotate(-23,750,750)">
    </line>
    <line class="degree-line" x1="750" y1="140" x2="750" y2="1360" stroke="#999999" stroke-width="1" transform="rotate(-22,750,750)">
    </line>
    <line class="degree-line" x1="750" y1="140" x2="750" y2="1360" stroke="#999999" stroke-width="1" transform="rotate(-21,750,750)">
    </line>
    <line class="degree-line degree-line-ten" x1="750" y1="120" x2="750" y2="1380" stroke="black" stroke-width="2" transform="rotate(-20,750,750)">
    </line>
    <line class="degree-line" x1="750" y1="140" x2="750" y2="1360" stroke="#999999" stroke-width="1" transform="rotate(-19,750,750)">
    </line>
    <line class="degree-line" x1="750" y1="140" x2="750" y2="1360" stroke="#999999" stroke-width="1" transform="rotate(-18,750,750)">
    </line>
    <line class="degree-line" x1="750" y1="140" x2="750" y2="1360" stroke="#999999" stroke-width="1" transform="rotate(-17,750,750)">
    </line>
    <line class="degree-line" x1="750" y1="140" x2="750" y2="1360" stroke="#999999" stroke-width="1" transform="rotate(-16,750,750)">
    </line>
    <line class="degree-line degree-line-five" x1="750" y1="130" x2="750" y2="1370" stroke="#333333" stroke-width="1" transform="rotate(-15,750,750)">
    </line>
    <line class="degree-line" x1="750" y1="140" x2="750" y2="1360" stroke="#999999" stroke-width="1" transform="rotate(-14,750,750)">
    </line>
    <line class="degree-line" x1="750" y1="140" x2="750" y2="1360" stroke="#999999" stroke-width="1" transform="rotate(-13,750,750)">
    </line>
    <line class="degree-line" x1="750" y1="140" x2="750" y2="1360" stroke="#999999" stroke-width="1" transform="rotate(-12,750,750)">
    </line>
    <line class="degree-line" x1="750" y1="140" x2="750" y2="1360" stroke="#999999" stroke-width="1" transform="rotate(-11,750,750)">
    </line>
    <line class="degree-line degree-line-ten" x1="750" y1="120" x2="750" y2="1380" stroke="black" stroke-width="2" transform="rotate(-10,750,750)">
    </line>
    <line class="degree-line" x1="750" y1="140" x2="750" y2="1360" stroke="#999999" stroke-width="1" transform="rotate(-9,750,750)">
    </line>
    <line class="degree-line" x1="750" y1="140" x2="750" y2="1360" stroke="#999999" stroke-width="1" transform="rotate(-8,750,750)">
    </line>
    <line class="degree-line" x1="750" y1="140" x2="750" y2="1360" stroke="#999999" stroke-width="1" transform="rotate(-7,750,750)">
    </line>
    <line class="degree-line" x1="750" y1="140" x2="750" y2="1360" stroke="#999999" stroke-width="1" transform="rotate(-6,750,750)">
    </line>
    <line class="degree-line degree-line-five" x1="750" y1="130" x2="750" y2="1370" stroke="#333333" stroke-width="1" transform="rotate(-5,750,750)">
    </line>
    <line class="degree-line" x1="750" y1="140" x2="750" y2="1360" stroke="#999999" stroke-width="1" transform="rotate(-4,750,750)">
    </line>
    <line class="degree-line" x1="750" y1="140" x2="750" y2="1360" stroke="#999999" stroke-width="1" transform="rotate(-3,750,750)">
    </line>
    <line class="degree-line" x1="750" y1="140" x2="750" y2="1360" stroke="#999999" stroke-width="1" transform="rotate(-2,750,750)">
    </line>
    <line class="degree-line" x1="750" y1="140" x2="750" y2="1360" stroke="#999999" stroke-width="1" transform="rotate(-1,750,750)">
    </line>
    <line class="degree-line degree-line-ten" x1="750" y1="120" x2="750" y2="1380" stroke="black" stroke-width="2" transform="rotate(0,750,750)">
    </line>
    <g class="degree-label"><text class="degree-value" x="750" y="100">270º</text></g>
    <g class="degree-label"><text class="degree-value" x="750.0000000000001" y="1400">90º</text></g>
    <line class="degree-line" x1="750" y1="140" x2="750" y2="1360" stroke="#999999" stroke-width="1" transform="rotate(1,750,750)">
    </line>
    <line class="degree-line" x1="750" y1="140" x2="750" y2="1360" stroke="#999999" stroke-width="1" transform="rotate(2,750,750)">
    </line>
    <line class="degree-line" x1="750" y1="140" x2="750" y2="1360" stroke="#999999" stroke-width="1" transform="rotate(3,750,750)">
    </line>
    <line class="degree-line" x1="750" y1="140" x2="750" y2="1360" stroke="#999999" stroke-width="1" transform="rotate(4,750,750)">
    </line>
    <line class="degree-line degree-line-five" x1="750" y1="130" x2="750" y2="1370" stroke="#333333" stroke-width="1" transform="rotate(5,750,750)">
    </line>
    <line class="degree-line" x1="750" y1="140" x2="750" y2="1360" stroke="#999999" stroke-width="1" transform="rotate(6,750,750)">
    </line>
    <line class="degree-line" x1="750" y1="140" x2="750" y2="1360" stroke="#999999" stroke-width="1" transform="rotate(7,750,750)">
    </line>
    <line class="degree-line" x1="750" y1="140" x2="750" y2="1360" stroke="#999999" stroke-width="1" transform="rotate(8,750,750)">
    </line>
    <line class="degree-line" x1="750" y1="140" x2="750" y2="1360" stroke="#999999" stroke-width="1" transform="rotate(9,750,750)">
    </line>
    <line class="degree-line degree-line-ten" x1="750" y1="120" x2="750" y2="1380" stroke="black" stroke-width="2" transform="rotate(10,750,750)">
    </line>
    <line class="degree-line" x1="750" y1="140" x2="750" y2="1360" stroke="#999999" stroke-width="1" transform="rotate(11,750,750)">
    </line>
    <line class="degree-line" x1="750" y1="140" x2="750" y2="1360" stroke="#999999" stroke-width="1" transform="rotate(12,750,750)">
    </line>
    <line class="degree-line" x1="750" y1="140" x2="750" y2="1360" stroke="#999999" stroke-width="1" transform="rotate(13,750,750)">
    </line>
    <line class="degree-line" x1="750" y1="140" x2="750" y2="1360" stroke="#999999" stroke-width="1" transform="rotate(14,750,750)">
    </line>
    <line class="degree-line degree-line-five" x1="750" y1="130" x2="750" y2="1370" stroke="#333333" stroke-width="1" transform="rotate(15,750,750)">
    </line>
    <line class="degree-line" x1="750" y1="140" x2="750" y2="1360" stroke="#999999" stroke-width="1" transform="rotate(16,750,750)">
    </line>
    <line class="degree-line" x1="750" y1="140" x2="750" y2="1360" stroke="#999999" stroke-width="1" transform="rotate(17,750,750)">
    </line>
    <line class="degree-line" x1="750" y1="140" x2="750" y2="1360" stroke="#999999" stroke-width="1" transform="rotate(18,750,750)">
    </line>
    <line class="degree-line" x1="750" y1="140" x2="750" y2="1360" stroke="#999999" stroke-width="1" transform="rotate(19,750,750)">
    </line>
    <line class="degree-line degree-line-ten" x1="750" y1="120" x2="750" y2="1380" stroke="black" stroke-width="2" transform="rotate(20,750,750)">
    </line>
    <line class="degree-line" x1="750" y1="140" x2="750" y2="1360" stroke="#999999" stroke-width="1" transform="rotate(21,750,750)">
    </line>
    <line class="degree-line" x1="750" y1="140" x2="750" y2="1360" stroke="#999999" stroke-width="1" transform="rotate(22,750,750)">
    </line>
    <line class="degree-line" x1="750" y1="140" x2="750" y2="1360" stroke="#999999" stroke-width="1" transform="rotate(23,750,750)">
    </line>
    <line class="degree-line" x1="750" y1="140" x2="750" y2="1360" stroke="#999999" stroke-width="1" transform="rotate(24,750,750)">
    </line>
    <line class="degree-line degree-line-five" x1="750" y1="130" x2="750" y2="1370" stroke="#333333" stroke-width="1" transform="rotate(25,750,750)">
    </line>
    <line class="degree-line" x1="750" y1="140" x2="750" y2="1360" stroke="#999999" stroke-width="1" transform="rotate(26,750,750)">
    </line>
    <line class="degree-line" x1="750" y1="140" x2="750" y2="1360" stroke="#999999" stroke-width="1" transform="rotate(27,750,750)">
    </line>
    <line class="degree-line" x1="750" y1="140" x2="750" y2="1360" stroke="#999999" stroke-width="1" transform="rotate(28,750,750)">
    </line>
    <line class="degree-line" x1="750" y1="140" x2="750" y2="1360" stroke="#999999" stroke-width="1" transform="rotate(29,750,750)">
    </line>
    <line class="degree-line degree-line-ten" x1="750" y1="120" x2="750" y2="1380" stroke="black" stroke-width="2" transform="rotate(30,750,750)">
    </line>
    <g class="degree-label"><text class="degree-value" x="1075" y="187.0834875401148">240º</text></g>
    <g class="degree-label"><text class="degree-value" x="424.99999999999994" y="1312.916512459885">60º</text></g>
    <line class="degree-line" x1="750" y1="140" x2="750" y2="1360" stroke="#999999" stroke-width="1" transform="rotate(31,750,750)">
    </line>
    <line class="degree-line" x1="750" y1="140" x2="750" y2="1360" stroke="#999999" stroke-width="1" transform="rotate(32,750,750)">
    </line>
    <line class="degree-line" x1="750" y1="140" x2="750" y2="1360" stroke="#999999" stroke-width="1" transform="rotate(33,750,750)">
    </line>
    <line class="degree-line" x1="750" y1="140" x2="750" y2="1360" stroke="#999999" stroke-width="1" transform="rotate(34,750,750)">
    </line>
    <line class="degree-line degree-line-five" x1="750" y1="130" x2="750" y2="1370" stroke="#333333" stroke-width="1" transform="rotate(35,750,750)">
    </line>
    <line class="degree-line" x1="750" y1="140" x2="750" y2="1360" stroke="#999999" stroke-width="1" transform="rotate(36,750,750)">
    </line>
    <line class="degree-line" x1="750" y1="140" x2="750" y2="1360" stroke="#999999" stroke-width="1" transform="rotate(37,750,750)">
    </line>
    <line class="degree-line" x1="750" y1="140" x2="750" y2="1360" stroke="#999999" stroke-width="1" transform="rotate(38,750,750)">
    </line>
    <line class="degree-line" x1="750" y1="140" x2="750" y2="1360" stroke="#999999" stroke-width="1" transform="rotate(39,750,750)">
    </line>
    <line class="degree-line degree-line-ten" x1="750" y1="120" x2="750" y2="1380" stroke="black" stroke-width="2" transform="rotate(40,750,750)">
    </line>
    <line class="degree-line" x1="750" y1="140" x2="750" y2="1360" stroke="#999999" stroke-width="1" transform="rotate(41,750,750)">
    </line>
    <line class="degree-line" x1="750" y1="140" x2="750" y2="1360" stroke="#999999" stroke-width="1" transform="rotate(42,750,750)">
    </line>
    <line class="degree-line" x1="750" y1="140" x2="750" y2="1360" stroke="#999999" stroke-width="1" transform="rotate(43,750,750)">
    </line>
    <line class="degree-line" x1="750" y1="140" x2="750" y2="1360" stroke="#999999" stroke-width="1" transform="rotate(44,750,750)">
    </line>
    <line class="degree-line degree-line-five" x1="750" y1="130" x2="750" y2="1370" stroke="#333333" stroke-width="1" transform="rotate(45,750,750)">
    </line>
    <line class="degree-line" x1="750" y1="140" x2="750" y2="1360" stroke="#999999" stroke-width="1" transform="rotate(46,750,750)">
    </line>
    <line class="degree-line" x1="750" y1="140" x2="750" y2="1360" stroke="#999999" stroke-width="1" transform="rotate(47,750,750)">
    </line>
    <line class="degree-line" x1="750" y1="140" x2="750" y2="1360" stroke="#999999" stroke-width="1" transform="rotate(48,750,750)">
    </line>
    <line class="degree-line" x1="750" y1="140" x2="750" y2="1360" stroke="#999999" stroke-width="1" transform="rotate(49,750,750)">
    </line>
    <line class="degree-line degree-line-ten" x1="750" y1="120" x2="750" y2="1380" stroke="black" stroke-width="2" transform="rotate(50,750,750)">
    </line>
    <line class="degree-line" x1="750" y1="140" x2="750" y2="1360" stroke="#999999" stroke-width="1" transform="rotate(51,750,750)">
    </line>
    <line class="degree-line" x1="750" y1="140" x2="750" y2="1360" stroke="#999999" stroke-width="1" transform="rotate(52,750,750)">
    </line>
    <line class="degree-line" x1="750" y1="140" x2="750" y2="1360" stroke="#999999" stroke-width="1" transform="rotate(53,750,750)">
    </line>
    <line class="degree-line" x1="750" y1="140" x2="750" y2="1360" stroke="#999999" stroke-width="1" transform="rotate(54,750,750)">
    </line>
    <line class="degree-line degree-line-five" x1="750" y1="130" x2="750" y2="1370" stroke="#333333" stroke-width="1" transform="rotate(55,750,750)">
    </line>
    <line class="degree-line" x1="750" y1="140" x2="750" y2="1360" stroke="#999999" stroke-width="1" transform="rotate(56,750,750)">
    </line>
    <line class="degree-line" x1="750" y1="140" x2="750" y2="1360" stroke="#999999" stroke-width="1" transform="rotate(57,750,750)">
    </line>
    <line class="degree-line" x1="750" y1="140" x2="750" y2="1360" stroke="#999999" stroke-width="1" transform="rotate(58,750,750)">
    </line>
    <line class="degree-line" x1="750" y1="140" x2="750" y2="1360" stroke="#999999" stroke-width="1" transform="rotate(59,750,750)">
    </line>
    <line class="degree-line degree-line-ten" x1="750" y1="120" x2="750" y2="1380" stroke="black" stroke-width="2" transform="rotate(60,750,750)">
    </line>
    <g class="degree-label"><text class="degree-value" x="1312.916512459885" y="424.99999999999994">210º</text></g>
    <g class="degree-label"><text class="degree-value" x="187.08348754011502" y="1075.0000000000002">30º</text></g>
    <line class="degree-line" x1="750" y1="140" x2="750" y2="1360" stroke="#999999" stroke-width="1" transform="rotate(61,750,750)">
    </line>
    <line class="degree-line" x1="750" y1="140" x2="750" y2="1360" stroke="#999999" stroke-width="1" transform="rotate(62,750,750)">
    </line>
    <line class="degree-line" x1="750" y1="140" x2="750" y2="1360" stroke="#999999" stroke-width="1" transform="rotate(63,750,750)">
    </line>
    <line class="degree-line" x1="750" y1="140" x2="750" y2="1360" stroke="#999999" stroke-width="1" transform="rotate(64,750,750)">
    </line>
    <line class="degree-line degree-line-five" x1="750" y1="130" x2="750" y2="1370" stroke="#333333" stroke-width="1" transform="rotate(65,750,750)">
    </line>
    <line class="degree-line" x1="750" y1="140" x2="750" y2="1360" stroke="#999999" stroke-width="1" transform="rotate(66,750,750)">
    </line>
    <line class="degree-line" x1="750" y1="140" x2="750" y2="1360" stroke="#999999" stroke-width="1" transform="rotate(67,750,750)">
    </line>
    <line class="degree-line" x1="750" y1="140" x2="750" y2="1360" stroke="#999999" stroke-width="1" transform="rotate(68,750,750)">
    </line>
    <line class="degree-line" x1="750" y1="140" x2="750" y2="1360" stroke="#999999" stroke-width="1" transform="rotate(69,750,750)">
    </line>
    <line class="degree-line degree-line-ten" x1="750" y1="120" x2="750" y2="1380" stroke="black" stroke-width="2" transform="rotate(70,750,750)">
    </line>
    <line class="degree-line" x1="750" y1="140" x2="750" y2="1360" stroke="#999999" stroke-width="1" transform="rotate(71,750,750)">
    </line>
    <line class="degree-line" x1="750" y1="140" x2="750" y2="1360" stroke="#999999" stroke-width="1" transform="rotate(72,750,750)">
    </line>
    <line class="degree-line" x1="750" y1="140" x2="750" y2="1360" stroke="#999999" stroke-width="1" transform="rotate(73,750,750)">
    </line>
    <line class="degree-line" x1="750" y1="140" x2="750" y2="1360" stroke="#999999" stroke-width="1" transform="rotate(74,750,750)">
    </line>
    <line class="degree-line degree-line-five" x1="750" y1="130" x2="750" y2="1370" stroke="#333333" stroke-width="1" transform="rotate(75,750,750)">
    </line>
    <line class="degree-line" x1="750" y1="140" x2="750" y2="1360" stroke="#999999" stroke-width="1" transform="rotate(76,750,750)">
    </line>
    <line class="degree-line" x1="750" y1="140" x2="750" y2="1360" stroke="#999999" stroke-width="1" transform="rotate(77,750,750)">
    </line>
    <line class="degree-line" x1="750" y1="140" x2="750" y2="1360" stroke="#999999" stroke-width="1" transform="rotate(78,750,750)">
    </line>
    <line class="degree-line" x1="750" y1="140" x2="750" y2="1360" stroke="#999999" stroke-width="1" transform="rotate(79,750,750)">
    </line>
    <line class="degree-line degree-line-ten" x1="750" y1="120" x2="750" y2="1380" stroke="black" stroke-width="2" transform="rotate(80,750,750)">
    </line>
    <line class="degree-line" x1="750" y1="140" x2="750" y2="1360" stroke="#999999" stroke-width="1" transform="rotate(81,750,750)">
    </line>
    <line class="degree-line" x1="750" y1="140" x2="750" y2="1360" stroke="#999999" stroke-width="1" transform="rotate(82,750,750)">
    </line>
    <line class="degree-line" x1="750" y1="140" x2="750" y2="1360" stroke="#999999" stroke-width="1" transform="rotate(83,750,750)">
    </line>
    <line class="degree-line" x1="750" y1="140" x2="750" y2="1360" stroke="#999999" stroke-width="1" transform="rotate(84,750,750)">
    </line>
    <line class="degree-line degree-line-five" x1="750" y1="130" x2="750" y2="1370" stroke="#333333" stroke-width="1" transform="rotate(85,750,750)">
    </line>
    <line class="degree-line" x1="750" y1="140" x2="750" y2="1360" stroke="#999999" stroke-width="1" transform="rotate(86,750,750)">
    </line>
    <line class="degree-line" x1="750" y1="140" x2="750" y2="1360" stroke="#999999" stroke-width="1" transform="rotate(87,750,750)">
    </line>
    <line class="degree-line" x1="750" y1="140" x2="750" y2="1360" stroke="#999999" stroke-width="1" transform="rotate(88,750,750)">
    </line>
    <line class="degree-line" x1="750" y1="140" x2="750" y2="1360" stroke="#999999" stroke-width="1" transform="rotate(89,750,750)">
    </line>
  </g>
    <g class="main-segments">
      <path class="segment segment-1" d="M750,150 A600,600 0 0,1 1050,230.3847577293368 L750,750 Z" transform="rotate(270,750,750)">
      </path>
      <path class="segment segment-2" d="M750,150 A600,600 0 0,1 1050,230.3847577293368 L750,750 Z" transform="rotate(240,750,750)">
      </path>
      <path class="segment segment-3" d="M750,150 A600,600 0 0,1 1050,230.3847577293368 L750,750 Z" transform="rotate(210,750,750)">
      </path>
      <path class="segment segment-4" d="M750,150 A600,600 0 0,1 1050,230.3847577293368 L750,750 Z" transform="rotate(180,750,750)">
      </path>
      <path class="segment segment-5" d="M750,150 A600,600 0 0,1 1050,230.3847577293368 L750,750 Z" transform="rotate(150,750,750)">
      </path>
      <path class="segment segment-6" d="M750,150 A600,600 0 0,1 1050,230.3847577293368 L750,750 Z" transform="rotate(120,750,750)">
      </path>
      <path class="segment segment-7" d="M750,150 A600,600 0 0,1 1050,230.3847577293368 L750,750 Z" transform="rotate(90,750,750)">
      </path>
      <path class="segment segment-8" d="M750,150 A600,600 0 0,1 1050,230.3847577293368 L750,750 Z" transform="rotate(60,750,750)">
      </path>
      <path class="segment segment-9" d="M750,150 A600,600 0 0,1 1050,230.3847577293368 L750,750 Z" transform="rotate(30,750,750)">
      </path>
      <path class="segment segment-10" d="M750,150 A600,600 0 0,1 1050,230.3847577293368 L750,750 Z" fill="#cc0099" transform="rotate(0,750,750)">
      </path>
      <path class="segment segment-11" d="M750,150 A600,600 0 0,1 1050,230.3847577293368 L750,750 Z" transform="rotate(-30,750,750)">
      </path>
      <path class="segment segment-12" d="M750,150 A600,600 0 0,1 1050,230.3847577293368 L750,750 Z" transform="rotate(-60,750,750)">
      </path>
    </g>
    <g class="segment-symbols">
      <g transform="translate(199.0815372781218,884.9386652574116) scale(0.05,0.05)"
        fill="#000000" stroke="none" class="segment-symbol segment-symbol-0">
        <g class="glyph">
        <path d="M560 679 c-35 -6 -53 -18 -82 -50 l-38 -41 -26 31 c-37 44 -75 61
        -137 61 -120 0 -198 -119 -156 -239 6 -17 13 -31 16 -31 3 0 23 10 44 22 29
        16 38 26 33 38 -4 8 -9 34 -12 57 -6 57 28 93 89 93 34 0 47 -6 73 -34 19 -19
        36 -51 42 -77 11 -48 0 -308 -15 -372 l-9 -37 58 0 58 0 -10 37 c-6 21 -11
        124 -12 230 l-1 192 34 34 c79 82 196 36 176 -69 -3 -18 -12 -38 -21 -45 -13
        -11 -8 -16 36 -42 28 -16 54 -27 57 -23 4 3 8 31 11 61 5 64 -16 130 -52 164
        -34 32 -102 49 -156 40z"/>
        </g>
      </g>
      <g transform="translate(344.02020253553343,1135.9797974644666) scale(0.05,0.05)" fill="#000000" stroke="none" class="segment-symbol segment-symbol-1">
        <g class="glyph">
        <path d="M165 653 c13 -54 38 -94 83 -133 25 -22 49 -40 53 -40 5 0 -13 -21
-40 -47 -108 -105 -84 -241 53 -308 157 -77 356 18 356 170 0 63 -38 126 -98
165 l-23 15 44 32 c46 32 90 95 102 146 7 26 6 27 -33 27 -39 0 -40 -1 -46
-42 -14 -84 -115 -148 -212 -133 -77 11 -154 85 -154 146 0 28 -2 29 -46 29
-45 0 -46 0 -39 -27z m355 -218 c116 -61 113 -198 -6 -255 -169 -82 -340 112
-206 233 50 45 148 55 212 22z"/>
        </g>
      </g>
      <g transform="translate(585.0613347425885,1260.9184627218783) scale(0.05,0.05)" fill="#000000" stroke="none" class="segment-symbol segment-symbol-2">
        <g class="glyph">
        <path d="M140 673 c0 -26 46 -79 85 -97 47 -23 55 -47 61 -182 7 -141 -4 -187
-48 -205 -37 -15 -98 -74 -98 -94 0 -11 12 -15 40 -15 33 0 40 3 40 19 0 11
13 30 29 43 92 78 341 56 374 -33 10 -26 16 -29 54 -29 24 0 43 3 43 6 0 26
-48 77 -95 99 -29 15 -55 34 -57 43 -2 9 -1 84 2 166 5 141 6 149 28 165 54
37 94 76 108 102 l15 29 -44 0 c-40 0 -44 -2 -52 -32 -7 -24 -22 -40 -55 -58
-39 -21 -58 -25 -135 -25 -77 0 -98 4 -140 25 -34 18 -55 36 -64 58 -13 28
-19 32 -53 32 -29 0 -38 -4 -38 -17z m364 -180 c8 -53 7 -236 -2 -250 -4 -6
-37 -13 -77 -14 l-70 -3 -3 130 c-4 180 -7 174 77 174 l68 0 7 -37z"/>
        </g>
      </g>
      <g transform="translate(874.9386652574118,1260.9184627218783) scale(0.05,0.05)" fill="#000000" stroke="none" class="segment-symbol segment-symbol-3">
        <g class="glyph">
        <path d="M355 686 c-143 -36 -245 -148 -245 -266 0 -149 197 -193 263 -58 43
88 -28 188 -134 188 -31 0 -31 1 -15 19 33 36 116 64 191 65 83 1 154 -21 226
-70 28 -19 54 -34 58 -34 11 1 42 50 36 59 -9 15 -112 68 -163 85 -68 22 -159
27 -217 12z m-38 -218 c32 -30 31 -81 -2 -113 -72 -73 -178 28 -114 109 27 34
82 36 116 4z"/>
<path d="M561 482 c-93 -50 -91 -182 4 -235 11 -6 40 -14 65 -17 l45 -5 -49
-32 c-66 -44 -143 -59 -225 -44 -64 12 -141 45 -194 85 l-29 21 -24 -30 -23
-29 46 -29 c150 -94 294 -108 430 -41 132 64 201 230 132 318 -44 56 -116 71
-178 38z m110 -61 c33 -33 35 -50 14 -90 -15 -31 -33 -41 -70 -41 -37 0 -55
10 -71 41 -18 36 -10 73 23 99 36 28 70 25 104 -9z"/>
        </g>
      </g>
      <g transform="translate(1125.9797974644666,1115.9797974644666) scale(0.05,0.05)" fill="#000000" stroke="none" class="segment-symbol segment-symbol-4">
        <g class="glyph">
        <path d="M330 665 c-76 -35 -121 -105 -100 -159 5 -15 22 -43 36 -62 l26 -34
-43 0 c-60 -1 -124 -31 -143 -69 -21 -40 -20 -63 5 -95 31 -40 75 -58 139 -58
99 0 160 47 160 124 0 24 -32 87 -76 148 -41 57 -44 96 -10 133 44 48 165 60
223 22 33 -22 55 -71 48 -106 -7 -33 -42 -97 -91 -170 -40 -60 -53 -133 -30
-177 28 -55 70 -75 163 -80 46 -3 83 -2 83 1 0 4 -7 21 -16 39 -15 32 -16 33
-73 30 -54 -3 -60 -1 -81 25 -34 43 -24 99 38 212 79 142 74 211 -18 266 -46
26 -190 32 -240 10z m-13 -329 c57 -67 -48 -137 -137 -91 -54 28 -46 89 15
116 36 16 98 2 122 -25z"/>
        </g>
      </g>
      <g transform="translate(1260.9184627218783,874.9386652574117) scale(0.05,0.05)" fill="#000000" stroke="none" class="segment-symbol segment-symbol-5">
        <g class="glyph">
        <path d="M10 645 c0 -54 1 -55 28 -55 61 0 85 -64 71 -188 -5 -48 -12 -99 -15
-115 -5 -26 -4 -27 40 -27 l47 0 -8 68 c-12 100 -8 203 8 237 30 62 97 67 135
10 19 -29 22 -165 6 -263 l-9 -52 49 0 49 0 -7 48 c-12 75 -9 204 5 245 14 42
35 57 80 57 45 0 61 -30 61 -120 0 -93 21 -192 56 -270 l26 -59 -28 -25 c-16
-14 -35 -26 -41 -26 -7 0 -13 -2 -13 -5 0 -8 40 -85 44 -85 1 0 18 21 36 46
l33 47 34 -42 c19 -22 39 -41 44 -41 4 0 16 14 25 31 l16 32 -41 37 -40 37 34
84 c42 104 61 229 46 301 -15 66 -26 85 -64 108 -43 27 -80 25 -115 -5 l-29
-24 -39 20 c-47 24 -104 20 -145 -10 -28 -21 -28 -21 -61 -2 -57 34 -124 32
-167 -5 l-31 -26 -21 26 c-12 15 -38 36 -60 46 l-39 20 0 -55z m706 -56 c16
-18 19 -37 18 -133 0 -95 -4 -120 -25 -170 -14 -33 -30 -61 -37 -64 -14 -4
-48 67 -68 143 -24 89 -14 186 22 226 23 25 66 24 90 -2z"/>
        </g>
      </g>
      <g transform="translate(1260.9184627218783,585.0613347425883) scale(0.05,0.05)" fill="#000000" stroke="none" class="segment-symbol segment-symbol-6">
        <g class="glyph">
        <path d="M332 659 c-104 -52 -154 -192 -103 -292 22 -43 22 -43 -79 -17 -102
27 -100 27 -100 -27 l0 -46 127 6 c69 4 128 9 130 11 3 2 -5 22 -16 45 -25 47
-27 120 -6 160 20 40 69 79 116 91 33 9 46 8 82 -8 70 -32 100 -72 105 -140 3
-46 0 -68 -18 -101 -12 -24 -20 -44 -18 -46 2 -1 58 -6 126 -10 l122 -7 0 46
c0 25 -2 46 -5 46 -2 0 -43 -9 -91 -20 -48 -11 -89 -18 -92 -15 -3 3 2 20 13
37 23 39 24 128 3 178 -18 42 -86 110 -110 110 -9 0 -20 5 -23 10 -11 19 -117
11 -163 -11z"/>
        <path d="M53 184 c-2 -6 -3 -29 -1 -50 l3 -39 85 5 c128 8 526 6 598 -2 l62
-8 0 52 0 51 -107 -7 c-136 -10 -454 -8 -557 2 -58 6 -79 5 -83 -4z"/>
        </g>
      </g>
      <g transform="translate(1125.9797974644666,339.0202025355334) scale(0.05,0.05)" fill="#000000" stroke="none" class="segment-symbol segment-symbol-7">
        <g class="glyph">
        <path d="M18 665 c-6 -89 -7 -87 19 -80 61 15 94 -89 74 -230 -15 -100 -17
-95 34 -95 l46 0 -8 53 c-13 88 -8 208 11 244 29 57 77 68 122 30 26 -22 27
-28 28 -118 1 -52 -2 -120 -7 -151 l-7 -58 50 0 c50 0 50 0 43 27 -4 16 -7 73
-8 128 0 81 4 108 20 140 18 36 24 40 61 43 35 3 45 -1 63 -24 27 -34 27 -87
0 -184 -39 -140 -42 -184 -18 -232 28 -57 56 -78 103 -78 33 0 46 7 86 48 26
26 52 56 57 66 10 19 11 19 38 -2 16 -12 29 -21 31 -19 2 2 -8 30 -21 63 -14
32 -28 76 -31 97 l-7 38 -36 -34 c-20 -19 -53 -44 -75 -55 l-38 -21 36 -6 c20
-4 36 -11 36 -15 0 -4 -10 -22 -23 -41 -45 -67 -107 -40 -107 47 0 23 11 86
25 140 22 88 24 105 14 154 -15 70 -56 114 -118 125 -35 6 -51 3 -93 -19 l-50
-26 -33 20 c-55 34 -129 25 -181 -22 -21 -19 -21 -19 -38 7 -16 24 -71 65 -88
65 -5 0 -9 -11 -10 -25z"/>
        </g>
      </g>
      <g transform="translate(884.9386652574117,199.0815372781218) scale(0.05,0.05)" fill="#000000" stroke="none" class="segment-symbol segment-symbol-8">
        <g class="glyph">
        <path d="M640 655 c-47 -13 -119 -32 -160 -43 l-75 -20 53 -23 c49 -20 53 -24
47 -48 -7 -28 -132 -161 -152 -161 -12 0 -57 60 -97 131 l-23 39 -38 -33 -39
-33 72 -71 c40 -39 72 -74 72 -79 0 -10 -111 -87 -153 -105 -15 -7 -27 -15
-27 -18 0 -3 16 -24 35 -46 33 -38 35 -39 47 -20 6 11 40 49 74 85 l63 65 30
-35 c17 -19 43 -60 58 -90 14 -30 28 -57 29 -59 4 -5 84 63 84 71 0 4 -9 9
-19 13 -20 6 -131 113 -131 125 0 9 138 123 167 138 35 19 42 15 54 -33 6 -25
15 -47 18 -50 4 -2 16 19 26 48 10 29 38 101 62 160 23 60 43 111 43 113 0 8
-36 1 -120 -21z"/>
        </g>
      </g>
      <g transform="translate(595.0613347425883,199.0815372781218) scale(0.05,0.05)" fill="#000000" stroke="none" class="segment-symbol segment-symbol-9">
        <g class="glyph">
        <path d="M305 679 c-14 -12 -23 -25 -19 -30 13 -21 106 -59 148 -61 26 0 46
-3 46 -6 0 -2 -22 -29 -50 -59 -27 -30 -57 -66 -65 -81 -10 -16 -41 -39 -76
-55 -104 -49 -173 -129 -194 -224 l-7 -33 50 0 49 0 1 42 c2 52 44 121 89 150
l33 20 -6 -45 c-25 -178 205 -280 344 -153 35 31 52 70 52 116 0 51 -21 92
-62 123 -42 32 -67 39 -153 47 l-70 6 90 89 c50 50 104 100 120 112 l30 21
-21 22 -21 21 -36 -21 c-21 -13 -61 -24 -94 -27 -49 -4 -65 -1 -105 21 l-47
25 -26 -20z m226 -299 c143 -40 96 -247 -52 -227 -93 12 -142 102 -105 192 11
25 22 35 43 38 52 8 78 7 114 -3z"/>
        </g>
      </g>
      <g transform="translate(344.02020253553343,344.0202025355334) scale(0.05,0.05)" fill="#000000" stroke="none" class="segment-symbol segment-symbol-10">
        <g class="glyph">
        <path d="M97 612 c-28 -30 -52 -111 -25 -84 21 21 46 13 98 -33 28 -25 56 -45
62 -45 6 0 33 20 59 45 26 25 55 45 63 45 9 0 38 -20 66 -45 28 -25 55 -45 61
-45 6 0 34 20 61 45 28 25 56 45 64 45 7 0 39 -21 70 -46 50 -41 59 -45 79
-34 22 12 92 117 83 125 -2 3 -15 -6 -28 -20 -33 -35 -51 -32 -111 20 -29 25
-59 45 -67 45 -8 0 -33 -20 -55 -45 -47 -52 -73 -56 -108 -19 -13 14 -38 34
-56 45 -38 24 -52 18 -100 -35 -17 -20 -39 -36 -49 -36 -9 0 -42 20 -72 45
-60 50 -72 53 -95 27z"/>
        <path d="M98 303 c-22 -26 -38 -59 -38 -79 0 -14 3 -15 12 -6 22 22 49 13 100
-33 28 -25 54 -45 60 -45 5 0 31 20 57 45 26 25 57 45 67 45 11 0 42 -20 71
-45 28 -25 55 -45 60 -45 5 0 29 20 53 45 27 27 53 45 67 45 12 0 45 -20 73
-45 28 -25 55 -45 59 -45 14 0 72 71 87 106 18 44 18 54 -2 26 -36 -52 -59
-50 -133 13 -24 19 -51 35 -60 35 -9 0 -36 -20 -60 -45 -24 -25 -48 -45 -55
-45 -7 0 -36 20 -65 45 -29 25 -60 45 -70 45 -9 0 -37 -20 -61 -45 -24 -25
-50 -45 -56 -45 -7 0 -36 20 -65 45 -57 49 -78 54 -101 28z"/>
        </g>
      </g>
      <g transform="translate(199.0815372781218,595.0613347425883) scale(0.05,0.05)" fill="#000000" stroke="none" class="segment-symbol segment-symbol-11">
        <g class="glyph">
        <path d="M172 655 c-18 -40 -15 -53 16 -60 60 -13 142 -108 142 -165 0 -18 -6
-20 -55 -20 l-55 0 0 -33 0 -34 55 5 c42 3 55 1 55 -9 0 -25 -47 -113 -71
-136 -28 -26 -89 -53 -119 -53 -16 0 -20 -6 -20 -35 0 -32 3 -35 28 -35 15 0
52 13 82 29 69 35 125 105 147 184 17 59 18 60 78 60 8 0 19 -1 24 -2 6 0 18
-28 27 -62 20 -70 84 -148 152 -187 l41 -23 16 31 c17 33 13 50 -11 50 -34 0
-102 60 -128 112 -39 77 -37 81 34 76 l60 -4 0 35 0 36 -60 -3 -59 -4 8 29
c24 83 84 146 156 164 42 11 45 13 45 45 0 29 -4 34 -22 34 -34 -1 -99 -33
-142 -70 -41 -36 -82 -109 -94 -167 -8 -37 -9 -38 -55 -41 -32 -2 -48 1 -51
10 -37 134 -76 191 -167 242 l-46 26 -11 -25z"/>
        </g>
      </g>
    </g>
  </g>
  <g class="inner-disc">
    <circle class="inner-disc" cx="750" cy="750" r="500" fill="white">
    </circle>
  </g>
  <g class="house-lines-group">
    <polyline points="20,730 0,750 20,770" class="ascendant" fill="none" stroke="red" stroke-width="2">
    </polyline>
    <line class="house-line horizon" data-deg="270" x1="750" y1="0" x2="750" y2="750" stroke="red" stroke-width="2" transform="rotate(270,750,750)" data-next-deg="270"></line>
  </g>
  <circle cy="750" cx="750" r="240" fill="white" class="inner-hub" stroke="#999999" stroke-width="2"></circle>
</g>
    
    <g class="bodies-layer">
        <g class="body sun" id="sun-symbol">
             <text class="label">Sun</text>
             <circle class="body-bg"></circle>
            <g class="symbol">
            <path d="m 40.154343,0.95414115 c -21.651212,0 -39.27374266,17.62252985 -39.27374266,39.27374385 0,21.651212 17.62253066,39.271868 39.27374266,39.271868 21.651214,0 39.273744,-17.620656 39.273744,-39.271868 0,-21.651214 -17.62253,-39.27374385 -39.273744,-39.27374385 z m 0,6.63211605 c 18.066466,0 32.641626,14.5751598 32.641626,32.6416278 0,18.066466 -14.57516,32.639756 -32.641626,32.639756 -18.066468,0 -32.6416277,-14.57329 -32.6416277,-32.639756 0,-18.066468 14.5751597,-32.6416278 32.6416277,-32.6416278 z m -0.08056,25.2470058 a 7.3540298,7.3540298 0 0 0 -7.353406,7.355278 7.3540298,7.3540298 0 0 0 7.353406,7.353406 7.3540298,7.3540298 0 0 0 7.35528,-7.353406 7.3540298,7.3540298 0 0 0 -7.35528,-7.355278 z" />
            </g>
        </g>
        
        <g class="body moon" id="moon-symbol">
             <text class="label">Moon</text>
            <circle class="body-bg"></circle>
<g class="symbol">
            <path d="M323 734 c-23 -9 -61 -32 -85 -53 l-42 -38 79 4 c76 4 83 3 127 -26 59 -38 92 -97 92 -166 1 -131 -127 -230 -254 -197 -22 5 -40 7 -40 3 0 -12 71 -63 117 -83 195 -86 420 84 400 302 -10 110 -94 220 -194 254 -57 20 -144 19 -200 0z m182 -44 c119 -52 181 -195 140 -320 -20 -61 -78 -125 -140 -155 -50 -25 -176 -27 -217 -5 -27 15 -26 15 32 16 196 3 299 226 172 374 -45 54 -101 79 -171 80 -63 0 -61 8 6 26 56 14 122 9 178 -16z" transform="scale(0.1)" />
            </g>
        </g>

        <g class="body mercury" id="mercury-symbol">
             <text class="label">Mercury</text>
             <circle class="body-bg"></circle>
<g class="symbol">
            <path d="m 21.262565,4.5950355 c 0,5.2005838 3.106535,11.1861575 7.498534,14.5223815 l 3.535023,2.747476 -3.856388,3.630595 c -4.820487,4.513712 -6.105949,7.653685 -6.105949,14.52238 0,8.831177 5.784584,16.288616 14.997068,19.232341 2.570925,0.784994 3.213658,0.787975 3.213658,0.787975 v 6.080719 l -14.997069,-1.373737 0.07784,8.93402 15.133482,-1.967204 -0.856976,17.760478 h 4.391997 4.392001 l -0.553173,-17.584195 14.907505,1.98245 v -9.125549 l -14.540106,1.346163 c 0,0 0.07865,-2.624759 0.08352,-5.73716 13.151054,-4.664005 16.813268,-11.210751 17.456,-18.373816 0.535608,-6.672446 -0.964097,-10.989911 -5.891706,-16.190492 -3.856392,-4.121216 -3.856392,-4.121216 -1.499708,-5.59308 3.535024,-2.35498 7.498536,-9.419922 8.248388,-14.7186278 L 67.432113,0.67006795 65.396797,4.5950355 C 55.648703,23.336755 32.617488,23.533003 23.512124,5.085656 L 21.262565,0.67006795 Z M 52.435043,26.967351 c 9.855218,5.985575 10.253602,19.480756 -0.137217,25.073835 -7.391413,3.924968 -16.105985,2.17637 -21.462079,-5.08482 -4.392001,-5.789326 -1.860398,-16.260296 4.995407,-20.283389 4.391998,-2.747475 11.997654,-2.551227 16.603897,0.294374 z" />
            </g>
        </g>

        <g class="body venus" id="venus-symbol">
             <text class="label">Venus</text>
             <circle class="body-bg"></circle>
                <g class="symbol">
            <path d="M379 789 c-62 -9 -100 -31 -141 -79 -104 -121 -63 -303 84 -370 56 -26 68 -36 68 -59 0 -11 -16 -13 -90 -7 l-90 7 0 -47 0 -46 38 6 c20 3 60 7 87 8 l50 2 -3 -67 -2 -67 39 0 40 0 -6 66 -6 67 86 -5 87 -4 0 43 0 43 -85 -6 c-83 -7 -85 -6 -85 15 0 16 11 27 46 41 121 52 181 158 155 274 -29 129 -140 205 -272 185z m106 -88 c71 -33 105 -86 105 -164 -1 -154 -203 -226 -303 -108 -61 73 -56 168 12 235 58 57 118 69 186 37z" transform="scale(0.1,-0.1)  translate(-100,-900)" />
            </g>
        </g>
        <g class="body mars" id="mars-symbol">
             <text class="label">Mars</text>
             <circle class="body-bg"></circle>
<g class="symbol">
            <path d="M 465,648 563,618 453,508 c -42.35743,24.21481 -89.07319,43.31921 -138.71643,42.18331 -78.42709,4.36477 -159.24211,-30.84839 -202.74605,-97.5685 -65.096866,-93.76113 -52.391711,-234.02477 33.47919,-310.9269 91.41006,-87.499597 252.95883,-81.00325 337.06522,13.6733 69.6453,76.62253 75.41739,197.83371 26.90724,286.92122 -25.62924,25.52553 16.80734,42.47586 29.74567,61.44894 21.46228,21.97634 43.2766,44.23123 69.72805,60.25691 23.55914,-17.12063 8.92021,-75.25097 33.62392,-77.60857 C 685.2369,572.93888 721.39803,662.75061 756,753 753.94905,786.84539 698.68782,748.81977 688.69288,744.74639 613.47435,713.2328 532.28872,677.0084 465,648 Z M 377,489 C 484.25685,450.25966 528.02511,295.77323 450.76962,209.58659 389.19085,138.52213 269.82683,134.31948 201.21823,197.66549 137.42931,250.21155 124.24215,350.31221 170.1155,418.64037 211.91115,486.52496 302.22211,519.95267 377,489 Z" fill="#ff0000" transform="scale(0.1,-0.1) translate(-75,-900)"></path>
            </g>
        </g>
        <g class="body jupiter" id="jupiter-symbol">
            <text class="label">Jupiter</text>
            <circle class="body-bg"></circle>
<g class="symbol">
            <path d="M204 799 c-52 -15 -58 -31 -25 -63 24 -23 32 -26 49 -17 33 17 86 13
109 -9 79 -73 38 -254 -91 -396 l-56 -62 137 -7 136 -7 -7 -84 -7 -84 41 0 42
0 -7 87 -8 86 72 -6 71 -6 0 45 0 45 -72 -7 -71 -7 6 77 5 76 -38 0 -38 0 5
-75 6 -75 -71 0 -72 0 40 62 c46 70 80 170 80 233 0 143 -107 231 -236 194z" transform="scale(0.1,-0.1) translate(0,-900)" />
            </g>
        </g>
        <g class="body saturn" id="saturn-symbol">
            <text class="label">Saturn</text>
            <circle class="body-bg"></circle>
<g class="symbol">
            <path d="M319 773 c0 -5 0 -34 1 -67 l2 -59 -76 5 -76 5 0 -33 0 -34 78 3 77 2 3 -93 3 -94 36 28 c64 48 163 43 199 -11 57 -87 -26 -203 -201 -280 -30 -14 -55 -27 -55 -30 0 -3 7 -19 15 -36 l16 -29 52 26 c99 50 196 134 229 198 21
41 26 105 10 146 -26 67 -106 107 -194 97 l-48 -6 0 44 0 45 110 -7 110 -6 0
37 0 36 -110 -6 -110 -7 7 67 6 66 -42 0 c-22 0 -41 -3 -42 -7z" transform="scale(0.1,-0.1) translate(-75,-900)" />
         </g>
            
        </g>
        <g class="body uranus" id="uranus-symbol">
            <text class="label">Uranus</text>
            <circle class="body-bg"></circle>
<g class="symbol">
            <path d="M387 665 c6 -108 5 -115 -13 -115 -29 0 -42 12 -50 45 -18 77 -62 133 -126 160 -49 20 -48 20 -48 -20 0 -30 4 -36 28 -41 62 -15 102 -77 102 -159 0 -69 -18 -106 -67 -136 -21 -12 -39 -23 -41 -24 -8 -6 23 -55 35 -55 23 0 90 76 108 123 11 29 25 47 38 51 31 8 35 -1 29 -76 -4 -62 -6 -67 -33 -79 -68 -27 -100 -133 -60 -197 65 -102 205 -94 253 15 18 40 19 51 8 87 -15 50 -24 62 -72 92 l-38 24 0 71 c0 61 2 70 16 65 9 -3 22 -6 30 -6 8 0 14 -7 14 -15 0 -31 40 -93 82 -129 l43 -37 15 32 c12 27 13 33 2 37 -30 10 -81 65 -93 99 -26 81 12 179 82 209 34 16 39 22 39 50 l0 33 -35 -12 c-65 -23 -134 -111
-135 -173 0 -19 -22 -33 -53 -34 -5 0 -7 52 -5 115 l3 115 -32 0 -31 0 5 -115z
m88 -380 c36 -35 34 -88 -4 -126 -16 -16 -39 -29 -50 -29 -52 0 -101 48 -101
100 0 12 13 35 29 51 38 38 91 40 126 4z" transform="scale(0.1,-0.1) translate(-75,-900)" />
            </g>
        </g>
        <g class="body neptune" id="neptune-symbol">
            <text class="label">Neptune</text>
            <circle class="body-bg"></circle>
            <g class="symbol">
            <path d="M400 870 c0 -5 -20 -58 -45 -116 -25 -57 -45 -107 -45 -110 0 -3 10 2 22 10 41 29 45 22 52 -116 3 -72 4 -133 1 -136 -11 -12 -97 32 -119 61 -25
35 -46 88 -46 120 0 18 1 18 25 3 14 -9 25 -14 25 -11 0 8 -73 190 -79 197 -3
4 -25 -40 -47 -97 l-42 -104 29 15 c24 12 29 12 29 1 0 -7 7 -37 16 -66 19
-64 69 -122 126 -145 69 -29 73 -32 76 -60 3 -24 0 -26 -30 -25 -18 0 -59 4
-90 8 l-58 7 0 -49 c0 -41 3 -48 18 -43 9 2 50 8 90 11 82 8 77 16 63 -97 l-7
-58 42 0 42 0 -5 81 -6 81 74 -7 c41 -4 80 -8 87 -10 8 -3 12 10 12 43 l0 48
-57 -7 c-108 -14 -113 -13 -113 21 0 26 5 31 38 40 88 23 156 104 169 200 6
45 9 47 43 23 18 -13 22 -13 18 -2 -3 8 -23 56 -43 108 l-38 93 -24 -58 c-14
-33 -33 -80 -44 -107 l-19 -47 24 15 c30 20 35 11 24 -40 -9 -45 -59 -112 -92
-124 -71 -27 -66 -34 -66 87 0 60 3 123 6 140 l6 30 33 -20 34 -19 -45 105 c-24 58 -44 110 -44 115 0 5 -4 13 -10 16 -5 3 -10 1 -10 -5z" transform="scale(0.1,-0.1) translate(-75,-900)" />
            </g>
        </g>
        <g class="body pluto" id="pluto-symbol">
            <text class="label">Pluto</text>
            <circle class="body-bg"></circle>
<g class="symbol">
                <g class="wrapper" transform="scale(0.1,-0.1) translate(-150,-900)">
                    <path d="M 357,795 C 279.07797,770.39688 225.20556,684.9322 243.00121,604.00653 c 15.06645,-95.17978 121.2071,-163.97356 213.85877,-134.44629 52.11669,17.57383 97.18322,59.97979 116.12034,111.87637 27.60453,87.46768 -25.1578,192.7273 -115.07334,216.91666 C 425.01148,808.00931 389.23354,806.4722 357,795 Z m 109,-85 c 50.18042,-27.88813 65.79611,-98.98935 33.1543,-145.82031 -38.90974,-63.73078 -146.12641,-62.90416 -181.80735,3.77621 -29.87153,49.49139 -5.61176,116.317 43.10294,143.54038 26.82749,18.6364 62.62077,24.95337 91.23761,6.26934 4.88579,-2.36811 9.67746,-4.9362 14.3125,-7.76562 z" />
    <path d="M 100,660 C 104.04586,580.93103 149.32875,509.58895 203.6597,454.39365 247.7828,408.17021 306.95735,380.23406 368,364 c 16.97619,-17.52966 10.63944,-45.5632 12,-68.30272 3.0536,-15.29661 -1.51489,-22.5096 -17.44688,-17.67099 C 311.73183,281.24614 260.86992,283.6987 210,286 c 0,-28.66667 0,-57.33333 0,-86 57.63111,4.80671 115.29691,9.15165 173,13 -3.85116,-51.04095 -8.19789,-102.03981 -13,-153 27.33333,0 54.66667,0 82,0 -4.43929,51.055 -9.42636,102.05626 -15,153 61.00301,-4.62737 122.00307,-9.29319 183,-14 0,29.33333 0,58.66667 0,88 -54.65458,-2.31688 -109.27862,-7.86157 -163.98193,-7.10034 -31.17942,11.53655 -15.68503,71.05904 6.85498,88.81714 56.08877,7.26485 104.31346,42.34276 147.24804,76.98437 59.63435,55.83786 104.24667,131.72036 109.23911,214.5738 -1.87611,8.8928 10.19672,30.13069 -2.18588,29.72503 -20.26519,-1.85601 -43.41517,5.12461 -61.04932,-6.75 C 642.50419,650.88817 646.55872,613.27541 631.98618,580.65237 602.05203,488.73693 513.98741,416.39559 415.65409,416.06718 320.7456,411.78166 232.08339,475.97021 196.57761,562.36993 178.67512,598.60247 176.60519,639.39821 167.14453,677.89062 153.83779,698.00192 88.581277,698.23614 100,660 Z" />
                </g>
            </g>
        </g>
    <g class="body ketu" id="ketu-symbol">
      <text class="label">Ketu</text>
        <circle class="body-bg"></circle>
          <g class="symbol">
            <path d="m 40.269796,78.676099 c 2.213895,-0.02026 4.51907,-0.229583 6.894513,-0.640985 19.27078,-3.412629 25.694171,-23.158768 13.24797,-41.564017 l -3.879511,-5.849209 6.022161,0 c 3.479604,0 7.628335,-0.853473 9.501763,-1.949736 C 81.825708,22.69914 81.423847,7.9511611 71.252953,3.1970253 61.483937,-1.4344848 50.1094,2.8315982 47.031006,12.217236 c -1.338259,4.14347 -0.937693,5.484985 4.281379,16.576328 5.030563,11.440192 3.125737,15.139104 2.848373,21.331042 C 51.305909,62.730568 29.216857,64.684325 25.302609,51.235169 25.22667,39.493589 25.604175,34.523909 31.238514,24.283462 37.796515,12.582671 30.570026,1.3687014 16.385026,1.3687014 6.1700697,2.2485726 1.1518431,9.1920348 1.127709,15.995296 c 0.3908998,10.586864 9.80053,15.391426 18.870222,14.626592 3.880145,-0.24402 3.746855,0.242836 0,5.849209 -4.550613,6.459834 -6.290727,11.94541 -6.290727,19.136695 0,14.078307 11.065332,23.210137 26.562592,23.068307 z m -0.854708,-2.512161 c -8.630024,0 -8.630024,-12.189422 0,-12.189422 8.630025,0 8.630025,12.189422 0,12.189422 z" />
       </g> 
    </g>
    <g class="body rahu" id="rahu-symbol">
        <text class="label">Rahu</text>
       <circle class="body-bg"></circle>
        <g class="symbol">
            <path d="m 57.790539,49.392199 c -3.646934,0.243181 -3.521654,-0.243181 0,-5.830276 C 62.067641,37.124302 63.70256,31.657584 63.70256,24.491026 63.70256,8.4568578 50.118319,-1.1390826 32.256976,2.1408271 14.144445,5.54172 8.106516,25.219962 19.804651,43.561923 l 3.647562,5.830276 -5.660206,0 c -3.270466,0 -7.169844,0.850527 -8.9306712,1.94302 -9.18185889,5.952474 -8.80476349,20.649753 0.7548197,25.387536 9.1818595,4.615584 19.8733575,0.364164 22.7667285,-8.989202 1.257824,-4.129222 0.880099,-5.466111 -4.025286,-16.519317 C 23.629392,39.813383 25.420535,36.126228 25.681229,29.955581 28.364489,17.392965 49.12549,15.445863 52.804478,28.848773 52.875847,40.54998 52.521271,45.503602 47.225577,55.708837 41.061739,67.369388 47.854489,78.544792 61.186913,78.544792 70.78791,77.667953 75.503919,70.74836 75.526602,63.968495 75.159197,53.418036 66.315105,48.629996 57.790539,49.392199 Z M 39.540586,16.15336 c -8.111326,0 -8.111326,-12.1469127 0,-12.1469127 8.111325,0 8.111325,12.1469127 0,12.1469127 z" />
        </g>
    </g>

        <g class="coords sun" id="sun-coords"><text></text></g>
        <g class="coords moon" id="moon-coords"><text></text></g>
        <g class="coords mercury" id="mercury-coords"><text></text></g>
        <g class="coords venus" id="venus-coords"><text></text></g>
        <g class="coords mars" id="mars-coords"><text></text></g>
        <g class="coords jupiter" id="jupiter-coords"><text></text></g>
        <g class="coords saturn" id="saturn-coords"><text></text></g>
        <g class="coords uranus" id="uranus-coords"><text></text></g>
        <g class="coords neptune" id="neptune-coords"><text></text></g>
        <g class="coords pluto" id="pluto-coords"><text></text></g>
        <g class="coords rahu" id="rahu-coords"><text></text></g>
        <g class="coords ketu" id="ketu-coords"><text></text></g>
    </g>
    <text id="label-text">Label text</text>
  <g id="north-indian-chart" class="chart north-indian-chart european-element" stroke="none" fill="none" transform="translate(60,60)">
      <path d="M0,0 L1440,0 L1440,1440 L0,1440 Z" stroke="none" class="shape" />
      <polygonchart
       id="zone-01"
       class="triangle zone shape"
       points="0,0 720,0 360,360" stroke="none"/>
      <polygon
       id="zone-02"
       class="triangle zone shape"
       points="0,0 0,720 360,360" stroke="none"/>
      <polygon
       id="zone-03"
       class="rect zone shape"
       points="720,0 360,360 720,720 1080,360" stroke="none" fill="yellow" />
       <polygon
       id="zone-04"
       class="triangle zone shape"
       points="0,720 0,1440 360,1080" stroke="none"/>
       <polygon
       id="zone-05"
       class="triangle zone shape"
       points="0,1440 720,1440 360,1080" stroke="none"/>
       <polygon
       id="zone-06"
       class="rect zone shape"
       points="0,720 360,360 720,720 360,1080" stroke="none" fill="yellow" />
       <polygon
       id="zone-07"
       class="triangle zone shape"
       points="720,0 1440,0 1080,360" stroke="none"/>
       <polygon
       id="zone-08"
       class="rect zone shape"
       points="720,1440 360,1080 720,720 1080,1080" stroke="none" fill="yellow" />
      <polygon
       id="zone-09"
       class="triangle zone shape"
       points="1440,720 1440,0 1080,360" stroke="none"/>
       <polygon
       id="zone-10"
       class="rect zone shape"
       points="1440,720 1080,360 720,720 1080,1080" stroke="none" fill="yellow" />
       <polygon
       id="zone-11"
       class="triangle zone shape"
       points="1440,720 1440,1440 1080,1080" stroke="none"/>
       <polygon
       id="zone-12"
       class="triangle zone shape"
       points="720,1440 1440,1440 1080,1080" stroke="none"/>
    </g>
</svg>