<svg id="astro-disc" width="1500" height="1500" viewBox="0 0 1500 1500">
  <g id="western-chart" class="chart western-chart">
    <g class="main-disc" x="90" y="90">
  <g class="degrees">
    <line class="degree-line degree-line-ten" x1="750" y1="120" x2="750" y2="1380" stroke="black" stroke-width="2" transform="rotate(-90,750,750)">
    </line>
    <text class="degree-label" x="100" y="750">0º</text>
    <text class="degree-label" x="1400" y="750">180º</text>
    <line class="degree-line" x1="750" y1="140" x2="750" y2="1360" stroke="#999999" stroke-width="1" transform="rotate(-89,750,750)">
    </line>
    <line class="degree-line" x1="750" y1="140" x2="750" y2="1360" stroke="#999999" stroke-width="1" transform="rotate(-88,750,750)">
    </line>
    <line class="degree-line" x1="750" y1="140" x2="750" y2="1360" stroke="#999999" stroke-width="1" transform="rotate(-87,750,750)">
    </line>
    <line class="degree-line" x1="750" y1="140" x2="750" y2="1360" stroke="#999999" stroke-width="1" transform="rotate(-86,750,750)">
    </line>
    <line class="degree-line degree-line-five" x1="750" y1="130" x2="750" y2="1370" stroke="#333333" stroke-width="1" transform="rotate(-85,750,750)">
    </line>
    <line class="degree-line" x1="750" y1="140" x2="750" y2="1360" stroke="#999999" stroke-width="1" transform="rotate(-84,750,750)">
    </line>
    <line class="degree-line" x1="750" y1="140" x2="750" y2="1360" stroke="#999999" stroke-width="1" transform="rotate(-83,750,750)">
    </line>
    <line class="degree-line" x1="750" y1="140" x2="750" y2="1360" stroke="#999999" stroke-width="1" transform="rotate(-82,750,750)">
    </line>
    <line class="degree-line" x1="750" y1="140" x2="750" y2="1360" stroke="#999999" stroke-width="1" transform="rotate(-81,750,750)">
    </line>
    <line class="degree-line degree-line-ten" x1="750" y1="120" x2="750" y2="1380" stroke="black" stroke-width="2" transform="rotate(-80,750,750)">
    </line>
    <line class="degree-line" x1="750" y1="140" x2="750" y2="1360" stroke="#999999" stroke-width="1" transform="rotate(-79,750,750)">
    </line>
    <line class="degree-line" x1="750" y1="140" x2="750" y2="1360" stroke="#999999" stroke-width="1" transform="rotate(-78,750,750)">
    </line>
    <line class="degree-line" x1="750" y1="140" x2="750" y2="1360" stroke="#999999" stroke-width="1" transform="rotate(-77,750,750)">
    </line>
    <line class="degree-line" x1="750" y1="140" x2="750" y2="1360" stroke="#999999" stroke-width="1" transform="rotate(-76,750,750)">
    </line>
    <line class="degree-line degree-line-five" x1="750" y1="130" x2="750" y2="1370" stroke="#333333" stroke-width="1" transform="rotate(-75,750,750)">
    </line>
    <line class="degree-line" x1="750" y1="140" x2="750" y2="1360" stroke="#999999" stroke-width="1" transform="rotate(-74,750,750)">
    </line>
    <line class="degree-line" x1="750" y1="140" x2="750" y2="1360" stroke="#999999" stroke-width="1" transform="rotate(-73,750,750)">
    </line>
    <line class="degree-line" x1="750" y1="140" x2="750" y2="1360" stroke="#999999" stroke-width="1" transform="rotate(-72,750,750)">
    </line>
    <line class="degree-line" x1="750" y1="140" x2="750" y2="1360" stroke="#999999" stroke-width="1" transform="rotate(-71,750,750)">
    </line>
    <line class="degree-line degree-line-ten" x1="750" y1="120" x2="750" y2="1380" stroke="black" stroke-width="2" transform="rotate(-70,750,750)">
    </line>
    <line class="degree-line" x1="750" y1="140" x2="750" y2="1360" stroke="#999999" stroke-width="1" transform="rotate(-69,750,750)">
    </line>
    <line class="degree-line" x1="750" y1="140" x2="750" y2="1360" stroke="#999999" stroke-width="1" transform="rotate(-68,750,750)">
    </line>
    <line class="degree-line" x1="750" y1="140" x2="750" y2="1360" stroke="#999999" stroke-width="1" transform="rotate(-67,750,750)">
    </line>
    <line class="degree-line" x1="750" y1="140" x2="750" y2="1360" stroke="#999999" stroke-width="1" transform="rotate(-66,750,750)">
    </line>
    <line class="degree-line degree-line-five" x1="750" y1="130" x2="750" y2="1370" stroke="#333333" stroke-width="1" transform="rotate(-65,750,750)">
    </line>
    <line class="degree-line" x1="750" y1="140" x2="750" y2="1360" stroke="#999999" stroke-width="1" transform="rotate(-64,750,750)">
    </line>
    <line class="degree-line" x1="750" y1="140" x2="750" y2="1360" stroke="#999999" stroke-width="1" transform="rotate(-63,750,750)">
    </line>
    <line class="degree-line" x1="750" y1="140" x2="750" y2="1360" stroke="#999999" stroke-width="1" transform="rotate(-62,750,750)">
    </line>
    <line class="degree-line" x1="750" y1="140" x2="750" y2="1360" stroke="#999999" stroke-width="1" transform="rotate(-61,750,750)">
    </line>
    <line class="degree-line degree-line-ten" x1="750" y1="120" x2="750" y2="1380" stroke="black" stroke-width="2" transform="rotate(-60,750,750)">
    </line>
    <text class="degree-label" x="187.0834875401149" y="424.99999999999994">330º</text>
    <text class="degree-label" x="1312.9165124598853" y="1074.9999999999998">150º</text>
    <line class="degree-line" x1="750" y1="140" x2="750" y2="1360" stroke="#999999" stroke-width="1" transform="rotate(-59,750,750)">
    </line>
    <line class="degree-line" x1="750" y1="140" x2="750" y2="1360" stroke="#999999" stroke-width="1" transform="rotate(-58,750,750)">
    </line>
    <line class="degree-line" x1="750" y1="140" x2="750" y2="1360" stroke="#999999" stroke-width="1" transform="rotate(-57,750,750)">
    </line>
    <line class="degree-line" x1="750" y1="140" x2="750" y2="1360" stroke="#999999" stroke-width="1" transform="rotate(-56,750,750)">
    </line>
    <line class="degree-line degree-line-five" x1="750" y1="130" x2="750" y2="1370" stroke="#333333" stroke-width="1" transform="rotate(-55,750,750)">
    </line>
    <line class="degree-line" x1="750" y1="140" x2="750" y2="1360" stroke="#999999" stroke-width="1" transform="rotate(-54,750,750)">
    </line>
    <line class="degree-line" x1="750" y1="140" x2="750" y2="1360" stroke="#999999" stroke-width="1" transform="rotate(-53,750,750)">
    </line>
    <line class="degree-line" x1="750" y1="140" x2="750" y2="1360" stroke="#999999" stroke-width="1" transform="rotate(-52,750,750)">
    </line>
    <line class="degree-line" x1="750" y1="140" x2="750" y2="1360" stroke="#999999" stroke-width="1" transform="rotate(-51,750,750)">
    </line>
    <line class="degree-line degree-line-ten" x1="750" y1="120" x2="750" y2="1380" stroke="black" stroke-width="2" transform="rotate(-50,750,750)">
    </line>
    <line class="degree-line" x1="750" y1="140" x2="750" y2="1360" stroke="#999999" stroke-width="1" transform="rotate(-49,750,750)">
    </line>
    <line class="degree-line" x1="750" y1="140" x2="750" y2="1360" stroke="#999999" stroke-width="1" transform="rotate(-48,750,750)">
    </line>
    <line class="degree-line" x1="750" y1="140" x2="750" y2="1360" stroke="#999999" stroke-width="1" transform="rotate(-47,750,750)">
    </line>
    <line class="degree-line" x1="750" y1="140" x2="750" y2="1360" stroke="#999999" stroke-width="1" transform="rotate(-46,750,750)">
    </line>
    <line class="degree-line degree-line-five" x1="750" y1="130" x2="750" y2="1370" stroke="#333333" stroke-width="1" transform="rotate(-45,750,750)">
    </line>
    <line class="degree-line" x1="750" y1="140" x2="750" y2="1360" stroke="#999999" stroke-width="1" transform="rotate(-44,750,750)">
    </line>
    <line class="degree-line" x1="750" y1="140" x2="750" y2="1360" stroke="#999999" stroke-width="1" transform="rotate(-43,750,750)">
    </line>
    <line class="degree-line" x1="750" y1="140" x2="750" y2="1360" stroke="#999999" stroke-width="1" transform="rotate(-42,750,750)">
    </line>
    <line class="degree-line" x1="750" y1="140" x2="750" y2="1360" stroke="#999999" stroke-width="1" transform="rotate(-41,750,750)">
    </line>
    <line class="degree-line degree-line-ten" x1="750" y1="120" x2="750" y2="1380" stroke="black" stroke-width="2" transform="rotate(-40,750,750)">
    </line>
    <line class="degree-line" x1="750" y1="140" x2="750" y2="1360" stroke="#999999" stroke-width="1" transform="rotate(-39,750,750)">
    </line>
    <line class="degree-line" x1="750" y1="140" x2="750" y2="1360" stroke="#999999" stroke-width="1" transform="rotate(-38,750,750)">
    </line>
    <line class="degree-line" x1="750" y1="140" x2="750" y2="1360" stroke="#999999" stroke-width="1" transform="rotate(-37,750,750)">
    </line>
    <line class="degree-line" x1="750" y1="140" x2="750" y2="1360" stroke="#999999" stroke-width="1" transform="rotate(-36,750,750)">
    </line>
    <line class="degree-line degree-line-five" x1="750" y1="130" x2="750" y2="1370" stroke="#333333" stroke-width="1" transform="rotate(-35,750,750)">
    </line>
    <line class="degree-line" x1="750" y1="140" x2="750" y2="1360" stroke="#999999" stroke-width="1" transform="rotate(-34,750,750)">
    </line>
    <line class="degree-line" x1="750" y1="140" x2="750" y2="1360" stroke="#999999" stroke-width="1" transform="rotate(-33,750,750)">
    </line>
    <line class="degree-line" x1="750" y1="140" x2="750" y2="1360" stroke="#999999" stroke-width="1" transform="rotate(-32,750,750)">
    </line>
    <line class="degree-line" x1="750" y1="140" x2="750" y2="1360" stroke="#999999" stroke-width="1" transform="rotate(-31,750,750)">
    </line>
    <line class="degree-line degree-line-ten" x1="750" y1="120" x2="750" y2="1380" stroke="black" stroke-width="2" transform="rotate(-30,750,750)">
    </line>
    <text class="degree-label" x="425.00000000000006" y="187.0834875401148">300º</text>
    <text class="degree-label" x="1075" y="1312.9165124598853">120º</text>
    <line class="degree-line" x1="750" y1="140" x2="750" y2="1360" stroke="#999999" stroke-width="1" transform="rotate(-29,750,750)">
    </line>
    <line class="degree-line" x1="750" y1="140" x2="750" y2="1360" stroke="#999999" stroke-width="1" transform="rotate(-28,750,750)">
    </line>
    <line class="degree-line" x1="750" y1="140" x2="750" y2="1360" stroke="#999999" stroke-width="1" transform="rotate(-27,750,750)">
    </line>
    <line class="degree-line" x1="750" y1="140" x2="750" y2="1360" stroke="#999999" stroke-width="1" transform="rotate(-26,750,750)">
    </line>
    <line class="degree-line degree-line-five" x1="750" y1="130" x2="750" y2="1370" stroke="#333333" stroke-width="1" transform="rotate(-25,750,750)">
    </line>
    <line class="degree-line" x1="750" y1="140" x2="750" y2="1360" stroke="#999999" stroke-width="1" transform="rotate(-24,750,750)">
    </line>
    <line class="degree-line" x1="750" y1="140" x2="750" y2="1360" stroke="#999999" stroke-width="1" transform="rotate(-23,750,750)">
    </line>
    <line class="degree-line" x1="750" y1="140" x2="750" y2="1360" stroke="#999999" stroke-width="1" transform="rotate(-22,750,750)">
    </line>
    <line class="degree-line" x1="750" y1="140" x2="750" y2="1360" stroke="#999999" stroke-width="1" transform="rotate(-21,750,750)">
    </line>
    <line class="degree-line degree-line-ten" x1="750" y1="120" x2="750" y2="1380" stroke="black" stroke-width="2" transform="rotate(-20,750,750)">
    </line>
    <line class="degree-line" x1="750" y1="140" x2="750" y2="1360" stroke="#999999" stroke-width="1" transform="rotate(-19,750,750)">
    </line>
    <line class="degree-line" x1="750" y1="140" x2="750" y2="1360" stroke="#999999" stroke-width="1" transform="rotate(-18,750,750)">
    </line>
    <line class="degree-line" x1="750" y1="140" x2="750" y2="1360" stroke="#999999" stroke-width="1" transform="rotate(-17,750,750)">
    </line>
    <line class="degree-line" x1="750" y1="140" x2="750" y2="1360" stroke="#999999" stroke-width="1" transform="rotate(-16,750,750)">
    </line>
    <line class="degree-line degree-line-five" x1="750" y1="130" x2="750" y2="1370" stroke="#333333" stroke-width="1" transform="rotate(-15,750,750)">
    </line>
    <line class="degree-line" x1="750" y1="140" x2="750" y2="1360" stroke="#999999" stroke-width="1" transform="rotate(-14,750,750)">
    </line>
    <line class="degree-line" x1="750" y1="140" x2="750" y2="1360" stroke="#999999" stroke-width="1" transform="rotate(-13,750,750)">
    </line>
    <line class="degree-line" x1="750" y1="140" x2="750" y2="1360" stroke="#999999" stroke-width="1" transform="rotate(-12,750,750)">
    </line>
    <line class="degree-line" x1="750" y1="140" x2="750" y2="1360" stroke="#999999" stroke-width="1" transform="rotate(-11,750,750)">
    </line>
    <line class="degree-line degree-line-ten" x1="750" y1="120" x2="750" y2="1380" stroke="black" stroke-width="2" transform="rotate(-10,750,750)">
    </line>
    <line class="degree-line" x1="750" y1="140" x2="750" y2="1360" stroke="#999999" stroke-width="1" transform="rotate(-9,750,750)">
    </line>
    <line class="degree-line" x1="750" y1="140" x2="750" y2="1360" stroke="#999999" stroke-width="1" transform="rotate(-8,750,750)">
    </line>
    <line class="degree-line" x1="750" y1="140" x2="750" y2="1360" stroke="#999999" stroke-width="1" transform="rotate(-7,750,750)">
    </line>
    <line class="degree-line" x1="750" y1="140" x2="750" y2="1360" stroke="#999999" stroke-width="1" transform="rotate(-6,750,750)">
    </line>
    <line class="degree-line degree-line-five" x1="750" y1="130" x2="750" y2="1370" stroke="#333333" stroke-width="1" transform="rotate(-5,750,750)">
    </line>
    <line class="degree-line" x1="750" y1="140" x2="750" y2="1360" stroke="#999999" stroke-width="1" transform="rotate(-4,750,750)">
    </line>
    <line class="degree-line" x1="750" y1="140" x2="750" y2="1360" stroke="#999999" stroke-width="1" transform="rotate(-3,750,750)">
    </line>
    <line class="degree-line" x1="750" y1="140" x2="750" y2="1360" stroke="#999999" stroke-width="1" transform="rotate(-2,750,750)">
    </line>
    <line class="degree-line" x1="750" y1="140" x2="750" y2="1360" stroke="#999999" stroke-width="1" transform="rotate(-1,750,750)">
    </line>
    <line class="degree-line degree-line-ten" x1="750" y1="120" x2="750" y2="1380" stroke="black" stroke-width="2" transform="rotate(0,750,750)">
    </line>
    <text class="degree-label" x="750" y="100">270º</text>
    <text class="degree-label" x="750.0000000000001" y="1400">90º</text>
    <line class="degree-line" x1="750" y1="140" x2="750" y2="1360" stroke="#999999" stroke-width="1" transform="rotate(1,750,750)">
    </line>
    <line class="degree-line" x1="750" y1="140" x2="750" y2="1360" stroke="#999999" stroke-width="1" transform="rotate(2,750,750)">
    </line>
    <line class="degree-line" x1="750" y1="140" x2="750" y2="1360" stroke="#999999" stroke-width="1" transform="rotate(3,750,750)">
    </line>
    <line class="degree-line" x1="750" y1="140" x2="750" y2="1360" stroke="#999999" stroke-width="1" transform="rotate(4,750,750)">
    </line>
    <line class="degree-line degree-line-five" x1="750" y1="130" x2="750" y2="1370" stroke="#333333" stroke-width="1" transform="rotate(5,750,750)">
    </line>
    <line class="degree-line" x1="750" y1="140" x2="750" y2="1360" stroke="#999999" stroke-width="1" transform="rotate(6,750,750)">
    </line>
    <line class="degree-line" x1="750" y1="140" x2="750" y2="1360" stroke="#999999" stroke-width="1" transform="rotate(7,750,750)">
    </line>
    <line class="degree-line" x1="750" y1="140" x2="750" y2="1360" stroke="#999999" stroke-width="1" transform="rotate(8,750,750)">
    </line>
    <line class="degree-line" x1="750" y1="140" x2="750" y2="1360" stroke="#999999" stroke-width="1" transform="rotate(9,750,750)">
    </line>
    <line class="degree-line degree-line-ten" x1="750" y1="120" x2="750" y2="1380" stroke="black" stroke-width="2" transform="rotate(10,750,750)">
    </line>
    <line class="degree-line" x1="750" y1="140" x2="750" y2="1360" stroke="#999999" stroke-width="1" transform="rotate(11,750,750)">
    </line>
    <line class="degree-line" x1="750" y1="140" x2="750" y2="1360" stroke="#999999" stroke-width="1" transform="rotate(12,750,750)">
    </line>
    <line class="degree-line" x1="750" y1="140" x2="750" y2="1360" stroke="#999999" stroke-width="1" transform="rotate(13,750,750)">
    </line>
    <line class="degree-line" x1="750" y1="140" x2="750" y2="1360" stroke="#999999" stroke-width="1" transform="rotate(14,750,750)">
    </line>
    <line class="degree-line degree-line-five" x1="750" y1="130" x2="750" y2="1370" stroke="#333333" stroke-width="1" transform="rotate(15,750,750)">
    </line>
    <line class="degree-line" x1="750" y1="140" x2="750" y2="1360" stroke="#999999" stroke-width="1" transform="rotate(16,750,750)">
    </line>
    <line class="degree-line" x1="750" y1="140" x2="750" y2="1360" stroke="#999999" stroke-width="1" transform="rotate(17,750,750)">
    </line>
    <line class="degree-line" x1="750" y1="140" x2="750" y2="1360" stroke="#999999" stroke-width="1" transform="rotate(18,750,750)">
    </line>
    <line class="degree-line" x1="750" y1="140" x2="750" y2="1360" stroke="#999999" stroke-width="1" transform="rotate(19,750,750)">
    </line>
    <line class="degree-line degree-line-ten" x1="750" y1="120" x2="750" y2="1380" stroke="black" stroke-width="2" transform="rotate(20,750,750)">
    </line>
    <line class="degree-line" x1="750" y1="140" x2="750" y2="1360" stroke="#999999" stroke-width="1" transform="rotate(21,750,750)">
    </line>
    <line class="degree-line" x1="750" y1="140" x2="750" y2="1360" stroke="#999999" stroke-width="1" transform="rotate(22,750,750)">
    </line>
    <line class="degree-line" x1="750" y1="140" x2="750" y2="1360" stroke="#999999" stroke-width="1" transform="rotate(23,750,750)">
    </line>
    <line class="degree-line" x1="750" y1="140" x2="750" y2="1360" stroke="#999999" stroke-width="1" transform="rotate(24,750,750)">
    </line>
    <line class="degree-line degree-line-five" x1="750" y1="130" x2="750" y2="1370" stroke="#333333" stroke-width="1" transform="rotate(25,750,750)">
    </line>
    <line class="degree-line" x1="750" y1="140" x2="750" y2="1360" stroke="#999999" stroke-width="1" transform="rotate(26,750,750)">
    </line>
    <line class="degree-line" x1="750" y1="140" x2="750" y2="1360" stroke="#999999" stroke-width="1" transform="rotate(27,750,750)">
    </line>
    <line class="degree-line" x1="750" y1="140" x2="750" y2="1360" stroke="#999999" stroke-width="1" transform="rotate(28,750,750)">
    </line>
    <line class="degree-line" x1="750" y1="140" x2="750" y2="1360" stroke="#999999" stroke-width="1" transform="rotate(29,750,750)">
    </line>
    <line class="degree-line degree-line-ten" x1="750" y1="120" x2="750" y2="1380" stroke="black" stroke-width="2" transform="rotate(30,750,750)">
    </line>
    <text class="degree-label" x="1075" y="187.0834875401148">240º</text>
    <text class="degree-label" x="424.99999999999994" y="1312.916512459885">60º</text>
    <line class="degree-line" x1="750" y1="140" x2="750" y2="1360" stroke="#999999" stroke-width="1" transform="rotate(31,750,750)">
    </line>
    <line class="degree-line" x1="750" y1="140" x2="750" y2="1360" stroke="#999999" stroke-width="1" transform="rotate(32,750,750)">
    </line>
    <line class="degree-line" x1="750" y1="140" x2="750" y2="1360" stroke="#999999" stroke-width="1" transform="rotate(33,750,750)">
    </line>
    <line class="degree-line" x1="750" y1="140" x2="750" y2="1360" stroke="#999999" stroke-width="1" transform="rotate(34,750,750)">
    </line>
    <line class="degree-line degree-line-five" x1="750" y1="130" x2="750" y2="1370" stroke="#333333" stroke-width="1" transform="rotate(35,750,750)">
    </line>
    <line class="degree-line" x1="750" y1="140" x2="750" y2="1360" stroke="#999999" stroke-width="1" transform="rotate(36,750,750)">
    </line>
    <line class="degree-line" x1="750" y1="140" x2="750" y2="1360" stroke="#999999" stroke-width="1" transform="rotate(37,750,750)">
    </line>
    <line class="degree-line" x1="750" y1="140" x2="750" y2="1360" stroke="#999999" stroke-width="1" transform="rotate(38,750,750)">
    </line>
    <line class="degree-line" x1="750" y1="140" x2="750" y2="1360" stroke="#999999" stroke-width="1" transform="rotate(39,750,750)">
    </line>
    <line class="degree-line degree-line-ten" x1="750" y1="120" x2="750" y2="1380" stroke="black" stroke-width="2" transform="rotate(40,750,750)">
    </line>
    <line class="degree-line" x1="750" y1="140" x2="750" y2="1360" stroke="#999999" stroke-width="1" transform="rotate(41,750,750)">
    </line>
    <line class="degree-line" x1="750" y1="140" x2="750" y2="1360" stroke="#999999" stroke-width="1" transform="rotate(42,750,750)">
    </line>
    <line class="degree-line" x1="750" y1="140" x2="750" y2="1360" stroke="#999999" stroke-width="1" transform="rotate(43,750,750)">
    </line>
    <line class="degree-line" x1="750" y1="140" x2="750" y2="1360" stroke="#999999" stroke-width="1" transform="rotate(44,750,750)">
    </line>
    <line class="degree-line degree-line-five" x1="750" y1="130" x2="750" y2="1370" stroke="#333333" stroke-width="1" transform="rotate(45,750,750)">
    </line>
    <line class="degree-line" x1="750" y1="140" x2="750" y2="1360" stroke="#999999" stroke-width="1" transform="rotate(46,750,750)">
    </line>
    <line class="degree-line" x1="750" y1="140" x2="750" y2="1360" stroke="#999999" stroke-width="1" transform="rotate(47,750,750)">
    </line>
    <line class="degree-line" x1="750" y1="140" x2="750" y2="1360" stroke="#999999" stroke-width="1" transform="rotate(48,750,750)">
    </line>
    <line class="degree-line" x1="750" y1="140" x2="750" y2="1360" stroke="#999999" stroke-width="1" transform="rotate(49,750,750)">
    </line>
    <line class="degree-line degree-line-ten" x1="750" y1="120" x2="750" y2="1380" stroke="black" stroke-width="2" transform="rotate(50,750,750)">
    </line>
    <line class="degree-line" x1="750" y1="140" x2="750" y2="1360" stroke="#999999" stroke-width="1" transform="rotate(51,750,750)">
    </line>
    <line class="degree-line" x1="750" y1="140" x2="750" y2="1360" stroke="#999999" stroke-width="1" transform="rotate(52,750,750)">
    </line>
    <line class="degree-line" x1="750" y1="140" x2="750" y2="1360" stroke="#999999" stroke-width="1" transform="rotate(53,750,750)">
    </line>
    <line class="degree-line" x1="750" y1="140" x2="750" y2="1360" stroke="#999999" stroke-width="1" transform="rotate(54,750,750)">
    </line>
    <line class="degree-line degree-line-five" x1="750" y1="130" x2="750" y2="1370" stroke="#333333" stroke-width="1" transform="rotate(55,750,750)">
    </line>
    <line class="degree-line" x1="750" y1="140" x2="750" y2="1360" stroke="#999999" stroke-width="1" transform="rotate(56,750,750)">
    </line>
    <line class="degree-line" x1="750" y1="140" x2="750" y2="1360" stroke="#999999" stroke-width="1" transform="rotate(57,750,750)">
    </line>
    <line class="degree-line" x1="750" y1="140" x2="750" y2="1360" stroke="#999999" stroke-width="1" transform="rotate(58,750,750)">
    </line>
    <line class="degree-line" x1="750" y1="140" x2="750" y2="1360" stroke="#999999" stroke-width="1" transform="rotate(59,750,750)">
    </line>
    <line class="degree-line degree-line-ten" x1="750" y1="120" x2="750" y2="1380" stroke="black" stroke-width="2" transform="rotate(60,750,750)">
    </line>
    <text class="degree-label" x="1312.916512459885" y="424.99999999999994">210º</text>
    <text class="degree-label" x="187.08348754011502" y="1075.0000000000002">30º</text>
    <line class="degree-line" x1="750" y1="140" x2="750" y2="1360" stroke="#999999" stroke-width="1" transform="rotate(61,750,750)">
    </line>
    <line class="degree-line" x1="750" y1="140" x2="750" y2="1360" stroke="#999999" stroke-width="1" transform="rotate(62,750,750)">
    </line>
    <line class="degree-line" x1="750" y1="140" x2="750" y2="1360" stroke="#999999" stroke-width="1" transform="rotate(63,750,750)">
    </line>
    <line class="degree-line" x1="750" y1="140" x2="750" y2="1360" stroke="#999999" stroke-width="1" transform="rotate(64,750,750)">
    </line>
    <line class="degree-line degree-line-five" x1="750" y1="130" x2="750" y2="1370" stroke="#333333" stroke-width="1" transform="rotate(65,750,750)">
    </line>
    <line class="degree-line" x1="750" y1="140" x2="750" y2="1360" stroke="#999999" stroke-width="1" transform="rotate(66,750,750)">
    </line>
    <line class="degree-line" x1="750" y1="140" x2="750" y2="1360" stroke="#999999" stroke-width="1" transform="rotate(67,750,750)">
    </line>
    <line class="degree-line" x1="750" y1="140" x2="750" y2="1360" stroke="#999999" stroke-width="1" transform="rotate(68,750,750)">
    </line>
    <line class="degree-line" x1="750" y1="140" x2="750" y2="1360" stroke="#999999" stroke-width="1" transform="rotate(69,750,750)">
    </line>
    <line class="degree-line degree-line-ten" x1="750" y1="120" x2="750" y2="1380" stroke="black" stroke-width="2" transform="rotate(70,750,750)">
    </line>
    <line class="degree-line" x1="750" y1="140" x2="750" y2="1360" stroke="#999999" stroke-width="1" transform="rotate(71,750,750)">
    </line>
    <line class="degree-line" x1="750" y1="140" x2="750" y2="1360" stroke="#999999" stroke-width="1" transform="rotate(72,750,750)">
    </line>
    <line class="degree-line" x1="750" y1="140" x2="750" y2="1360" stroke="#999999" stroke-width="1" transform="rotate(73,750,750)">
    </line>
    <line class="degree-line" x1="750" y1="140" x2="750" y2="1360" stroke="#999999" stroke-width="1" transform="rotate(74,750,750)">
    </line>
    <line class="degree-line degree-line-five" x1="750" y1="130" x2="750" y2="1370" stroke="#333333" stroke-width="1" transform="rotate(75,750,750)">
    </line>
    <line class="degree-line" x1="750" y1="140" x2="750" y2="1360" stroke="#999999" stroke-width="1" transform="rotate(76,750,750)">
    </line>
    <line class="degree-line" x1="750" y1="140" x2="750" y2="1360" stroke="#999999" stroke-width="1" transform="rotate(77,750,750)">
    </line>
    <line class="degree-line" x1="750" y1="140" x2="750" y2="1360" stroke="#999999" stroke-width="1" transform="rotate(78,750,750)">
    </line>
    <line class="degree-line" x1="750" y1="140" x2="750" y2="1360" stroke="#999999" stroke-width="1" transform="rotate(79,750,750)">
    </line>
    <line class="degree-line degree-line-ten" x1="750" y1="120" x2="750" y2="1380" stroke="black" stroke-width="2" transform="rotate(80,750,750)">
    </line>
    <line class="degree-line" x1="750" y1="140" x2="750" y2="1360" stroke="#999999" stroke-width="1" transform="rotate(81,750,750)">
    </line>
    <line class="degree-line" x1="750" y1="140" x2="750" y2="1360" stroke="#999999" stroke-width="1" transform="rotate(82,750,750)">
    </line>
    <line class="degree-line" x1="750" y1="140" x2="750" y2="1360" stroke="#999999" stroke-width="1" transform="rotate(83,750,750)">
    </line>
    <line class="degree-line" x1="750" y1="140" x2="750" y2="1360" stroke="#999999" stroke-width="1" transform="rotate(84,750,750)">
    </line>
    <line class="degree-line degree-line-five" x1="750" y1="130" x2="750" y2="1370" stroke="#333333" stroke-width="1" transform="rotate(85,750,750)">
    </line>
    <line class="degree-line" x1="750" y1="140" x2="750" y2="1360" stroke="#999999" stroke-width="1" transform="rotate(86,750,750)">
    </line>
    <line class="degree-line" x1="750" y1="140" x2="750" y2="1360" stroke="#999999" stroke-width="1" transform="rotate(87,750,750)">
    </line>
    <line class="degree-line" x1="750" y1="140" x2="750" y2="1360" stroke="#999999" stroke-width="1" transform="rotate(88,750,750)">
    </line>
    <line class="degree-line" x1="750" y1="140" x2="750" y2="1360" stroke="#999999" stroke-width="1" transform="rotate(89,750,750)">
    </line>
  </g>
    <g class="main-segments">
      <path class="segment segment-1" d="M750,150 A600,600 0 0,1 1050,230.3847577293368 L750,750 Z" transform="rotate(270,750,750)">
      </path>
      <path class="segment segment-2" d="M750,150 A600,600 0 0,1 1050,230.3847577293368 L750,750 Z" transform="rotate(240,750,750)">
      </path>
      <path class="segment segment-3" d="M750,150 A600,600 0 0,1 1050,230.3847577293368 L750,750 Z" transform="rotate(210,750,750)">
      </path>
      <path class="segment segment-4" d="M750,150 A600,600 0 0,1 1050,230.3847577293368 L750,750 Z" transform="rotate(180,750,750)">
      </path>
      <path class="segment segment-5" d="M750,150 A600,600 0 0,1 1050,230.3847577293368 L750,750 Z" transform="rotate(150,750,750)">
      </path>
      <path class="segment segment-6" d="M750,150 A600,600 0 0,1 1050,230.3847577293368 L750,750 Z" transform="rotate(120,750,750)">
      </path>
      <path class="segment segment-7" d="M750,150 A600,600 0 0,1 1050,230.3847577293368 L750,750 Z" transform="rotate(90,750,750)">
      </path>
      <path class="segment segment-8" d="M750,150 A600,600 0 0,1 1050,230.3847577293368 L750,750 Z" transform="rotate(60,750,750)">
      </path>
      <path class="segment segment-9" d="M750,150 A600,600 0 0,1 1050,230.3847577293368 L750,750 Z" transform="rotate(30,750,750)">
      </path>
      <path class="segment segment-10" d="M750,150 A600,600 0 0,1 1050,230.3847577293368 L750,750 Z" fill="#cc0099" transform="rotate(0,750,750)">
      </path>
      <path class="segment segment-11" d="M750,150 A600,600 0 0,1 1050,230.3847577293368 L750,750 Z" transform="rotate(-30,750,750)">
      </path>
      <path class="segment segment-12" d="M750,150 A600,600 0 0,1 1050,230.3847577293368 L750,750 Z" transform="rotate(-60,750,750)">
      </path>
    </g>
    <g class="segment-symbols">
      <g transform="translate(199.0815372781218,884.9386652574116) scale(0.05,0.05)"
        fill="#000000" stroke="none" class="segment-symbol segment-symbol-0">
        <g class="glyph">
        <path d="M560 679 c-35 -6 -53 -18 -82 -50 l-38 -41 -26 31 c-37 44 -75 61
        -137 61 -120 0 -198 -119 -156 -239 6 -17 13 -31 16 -31 3 0 23 10 44 22 29
        16 38 26 33 38 -4 8 -9 34 -12 57 -6 57 28 93 89 93 34 0 47 -6 73 -34 19 -19
        36 -51 42 -77 11 -48 0 -308 -15 -372 l-9 -37 58 0 58 0 -10 37 c-6 21 -11
        124 -12 230 l-1 192 34 34 c79 82 196 36 176 -69 -3 -18 -12 -38 -21 -45 -13
        -11 -8 -16 36 -42 28 -16 54 -27 57 -23 4 3 8 31 11 61 5 64 -16 130 -52 164
        -34 32 -102 49 -156 40z"/>
        </g>
      </g>
      <g transform="translate(344.02020253553343,1135.9797974644666) scale(0.05,0.05)" fill="#000000" stroke="none" class="segment-symbol segment-symbol-1">
        <g class="glyph">
        <path d="M165 653 c13 -54 38 -94 83 -133 25 -22 49 -40 53 -40 5 0 -13 -21
-40 -47 -108 -105 -84 -241 53 -308 157 -77 356 18 356 170 0 63 -38 126 -98
165 l-23 15 44 32 c46 32 90 95 102 146 7 26 6 27 -33 27 -39 0 -40 -1 -46
-42 -14 -84 -115 -148 -212 -133 -77 11 -154 85 -154 146 0 28 -2 29 -46 29
-45 0 -46 0 -39 -27z m355 -218 c116 -61 113 -198 -6 -255 -169 -82 -340 112
-206 233 50 45 148 55 212 22z"/>
        </g>
      </g>
      <g transform="translate(585.0613347425885,1260.9184627218783) scale(0.05,0.05)" fill="#000000" stroke="none" class="segment-symbol segment-symbol-2">
        <g class="glyph">
        <path d="M140 673 c0 -26 46 -79 85 -97 47 -23 55 -47 61 -182 7 -141 -4 -187
-48 -205 -37 -15 -98 -74 -98 -94 0 -11 12 -15 40 -15 33 0 40 3 40 19 0 11
13 30 29 43 92 78 341 56 374 -33 10 -26 16 -29 54 -29 24 0 43 3 43 6 0 26
-48 77 -95 99 -29 15 -55 34 -57 43 -2 9 -1 84 2 166 5 141 6 149 28 165 54
37 94 76 108 102 l15 29 -44 0 c-40 0 -44 -2 -52 -32 -7 -24 -22 -40 -55 -58
-39 -21 -58 -25 -135 -25 -77 0 -98 4 -140 25 -34 18 -55 36 -64 58 -13 28
-19 32 -53 32 -29 0 -38 -4 -38 -17z m364 -180 c8 -53 7 -236 -2 -250 -4 -6
-37 -13 -77 -14 l-70 -3 -3 130 c-4 180 -7 174 77 174 l68 0 7 -37z"/>
        </g>
      </g>
      <g transform="translate(874.9386652574118,1260.9184627218783) scale(0.05,0.05)" fill="#000000" stroke="none" class="segment-symbol segment-symbol-3">
        <g class="glyph">
        <path d="M355 686 c-143 -36 -245 -148 -245 -266 0 -149 197 -193 263 -58 43
88 -28 188 -134 188 -31 0 -31 1 -15 19 33 36 116 64 191 65 83 1 154 -21 226
-70 28 -19 54 -34 58 -34 11 1 42 50 36 59 -9 15 -112 68 -163 85 -68 22 -159
27 -217 12z m-38 -218 c32 -30 31 -81 -2 -113 -72 -73 -178 28 -114 109 27 34
82 36 116 4z"/>
<path d="M561 482 c-93 -50 -91 -182 4 -235 11 -6 40 -14 65 -17 l45 -5 -49
-32 c-66 -44 -143 -59 -225 -44 -64 12 -141 45 -194 85 l-29 21 -24 -30 -23
-29 46 -29 c150 -94 294 -108 430 -41 132 64 201 230 132 318 -44 56 -116 71
-178 38z m110 -61 c33 -33 35 -50 14 -90 -15 -31 -33 -41 -70 -41 -37 0 -55
10 -71 41 -18 36 -10 73 23 99 36 28 70 25 104 -9z"/>
        </g>
      </g>
      <g transform="translate(1125.9797974644666,1115.9797974644666) scale(0.05,0.05)" fill="#000000" stroke="none" class="segment-symbol segment-symbol-4">
        <g class="glyph">
        <path d="M330 665 c-76 -35 -121 -105 -100 -159 5 -15 22 -43 36 -62 l26 -34
-43 0 c-60 -1 -124 -31 -143 -69 -21 -40 -20 -63 5 -95 31 -40 75 -58 139 -58
99 0 160 47 160 124 0 24 -32 87 -76 148 -41 57 -44 96 -10 133 44 48 165 60
223 22 33 -22 55 -71 48 -106 -7 -33 -42 -97 -91 -170 -40 -60 -53 -133 -30
-177 28 -55 70 -75 163 -80 46 -3 83 -2 83 1 0 4 -7 21 -16 39 -15 32 -16 33
-73 30 -54 -3 -60 -1 -81 25 -34 43 -24 99 38 212 79 142 74 211 -18 266 -46
26 -190 32 -240 10z m-13 -329 c57 -67 -48 -137 -137 -91 -54 28 -46 89 15
116 36 16 98 2 122 -25z"/>
        </g>
      </g>
      <g transform="translate(1260.9184627218783,874.9386652574117) scale(0.05,0.05)" fill="#000000" stroke="none" class="segment-symbol segment-symbol-5">
        <g class="glyph">
        <path d="M10 645 c0 -54 1 -55 28 -55 61 0 85 -64 71 -188 -5 -48 -12 -99 -15
-115 -5 -26 -4 -27 40 -27 l47 0 -8 68 c-12 100 -8 203 8 237 30 62 97 67 135
10 19 -29 22 -165 6 -263 l-9 -52 49 0 49 0 -7 48 c-12 75 -9 204 5 245 14 42
35 57 80 57 45 0 61 -30 61 -120 0 -93 21 -192 56 -270 l26 -59 -28 -25 c-16
-14 -35 -26 -41 -26 -7 0 -13 -2 -13 -5 0 -8 40 -85 44 -85 1 0 18 21 36 46
l33 47 34 -42 c19 -22 39 -41 44 -41 4 0 16 14 25 31 l16 32 -41 37 -40 37 34
84 c42 104 61 229 46 301 -15 66 -26 85 -64 108 -43 27 -80 25 -115 -5 l-29
-24 -39 20 c-47 24 -104 20 -145 -10 -28 -21 -28 -21 -61 -2 -57 34 -124 32
-167 -5 l-31 -26 -21 26 c-12 15 -38 36 -60 46 l-39 20 0 -55z m706 -56 c16
-18 19 -37 18 -133 0 -95 -4 -120 -25 -170 -14 -33 -30 -61 -37 -64 -14 -4
-48 67 -68 143 -24 89 -14 186 22 226 23 25 66 24 90 -2z"/>
        </g>
      </g>
      <g transform="translate(1260.9184627218783,585.0613347425883) scale(0.05,0.05)" fill="#000000" stroke="none" class="segment-symbol segment-symbol-6">
        <g class="glyph">
        <path d="M332 659 c-104 -52 -154 -192 -103 -292 22 -43 22 -43 -79 -17 -102
27 -100 27 -100 -27 l0 -46 127 6 c69 4 128 9 130 11 3 2 -5 22 -16 45 -25 47
-27 120 -6 160 20 40 69 79 116 91 33 9 46 8 82 -8 70 -32 100 -72 105 -140 3
-46 0 -68 -18 -101 -12 -24 -20 -44 -18 -46 2 -1 58 -6 126 -10 l122 -7 0 46
c0 25 -2 46 -5 46 -2 0 -43 -9 -91 -20 -48 -11 -89 -18 -92 -15 -3 3 2 20 13
37 23 39 24 128 3 178 -18 42 -86 110 -110 110 -9 0 -20 5 -23 10 -11 19 -117
11 -163 -11z"/>
        <path d="M53 184 c-2 -6 -3 -29 -1 -50 l3 -39 85 5 c128 8 526 6 598 -2 l62
-8 0 52 0 51 -107 -7 c-136 -10 -454 -8 -557 2 -58 6 -79 5 -83 -4z"/>
        </g>
      </g>
      <g transform="translate(1125.9797974644666,339.0202025355334) scale(0.05,0.05)" fill="#000000" stroke="none" class="segment-symbol segment-symbol-7">
        <g class="glyph">
        <path d="M18 665 c-6 -89 -7 -87 19 -80 61 15 94 -89 74 -230 -15 -100 -17
-95 34 -95 l46 0 -8 53 c-13 88 -8 208 11 244 29 57 77 68 122 30 26 -22 27
-28 28 -118 1 -52 -2 -120 -7 -151 l-7 -58 50 0 c50 0 50 0 43 27 -4 16 -7 73
-8 128 0 81 4 108 20 140 18 36 24 40 61 43 35 3 45 -1 63 -24 27 -34 27 -87
0 -184 -39 -140 -42 -184 -18 -232 28 -57 56 -78 103 -78 33 0 46 7 86 48 26
26 52 56 57 66 10 19 11 19 38 -2 16 -12 29 -21 31 -19 2 2 -8 30 -21 63 -14
32 -28 76 -31 97 l-7 38 -36 -34 c-20 -19 -53 -44 -75 -55 l-38 -21 36 -6 c20
-4 36 -11 36 -15 0 -4 -10 -22 -23 -41 -45 -67 -107 -40 -107 47 0 23 11 86
25 140 22 88 24 105 14 154 -15 70 -56 114 -118 125 -35 6 -51 3 -93 -19 l-50
-26 -33 20 c-55 34 -129 25 -181 -22 -21 -19 -21 -19 -38 7 -16 24 -71 65 -88
65 -5 0 -9 -11 -10 -25z"/>
        </g>
      </g>
      <g transform="translate(884.9386652574117,199.0815372781218) scale(0.05,0.05)" fill="#000000" stroke="none" class="segment-symbol segment-symbol-8">
        <g class="glyph">
        <path d="M640 655 c-47 -13 -119 -32 -160 -43 l-75 -20 53 -23 c49 -20 53 -24
47 -48 -7 -28 -132 -161 -152 -161 -12 0 -57 60 -97 131 l-23 39 -38 -33 -39
-33 72 -71 c40 -39 72 -74 72 -79 0 -10 -111 -87 -153 -105 -15 -7 -27 -15
-27 -18 0 -3 16 -24 35 -46 33 -38 35 -39 47 -20 6 11 40 49 74 85 l63 65 30
-35 c17 -19 43 -60 58 -90 14 -30 28 -57 29 -59 4 -5 84 63 84 71 0 4 -9 9
-19 13 -20 6 -131 113 -131 125 0 9 138 123 167 138 35 19 42 15 54 -33 6 -25
15 -47 18 -50 4 -2 16 19 26 48 10 29 38 101 62 160 23 60 43 111 43 113 0 8
-36 1 -120 -21z"/>
        </g>
      </g>
      <g transform="translate(595.0613347425883,199.0815372781218) scale(0.05,0.05)" fill="#000000" stroke="none" class="segment-symbol segment-symbol-9">
        <g class="glyph">
        <path d="M305 679 c-14 -12 -23 -25 -19 -30 13 -21 106 -59 148 -61 26 0 46
-3 46 -6 0 -2 -22 -29 -50 -59 -27 -30 -57 -66 -65 -81 -10 -16 -41 -39 -76
-55 -104 -49 -173 -129 -194 -224 l-7 -33 50 0 49 0 1 42 c2 52 44 121 89 150
l33 20 -6 -45 c-25 -178 205 -280 344 -153 35 31 52 70 52 116 0 51 -21 92
-62 123 -42 32 -67 39 -153 47 l-70 6 90 89 c50 50 104 100 120 112 l30 21
-21 22 -21 21 -36 -21 c-21 -13 -61 -24 -94 -27 -49 -4 -65 -1 -105 21 l-47
25 -26 -20z m226 -299 c143 -40 96 -247 -52 -227 -93 12 -142 102 -105 192 11
25 22 35 43 38 52 8 78 7 114 -3z"/>
        </g>
      </g>
      <g transform="translate(344.02020253553343,344.0202025355334) scale(0.05,0.05)" fill="#000000" stroke="none" class="segment-symbol segment-symbol-10">
        <g class="glyph">
        <path d="M97 612 c-28 -30 -52 -111 -25 -84 21 21 46 13 98 -33 28 -25 56 -45
62 -45 6 0 33 20 59 45 26 25 55 45 63 45 9 0 38 -20 66 -45 28 -25 55 -45 61
-45 6 0 34 20 61 45 28 25 56 45 64 45 7 0 39 -21 70 -46 50 -41 59 -45 79
-34 22 12 92 117 83 125 -2 3 -15 -6 -28 -20 -33 -35 -51 -32 -111 20 -29 25
-59 45 -67 45 -8 0 -33 -20 -55 -45 -47 -52 -73 -56 -108 -19 -13 14 -38 34
-56 45 -38 24 -52 18 -100 -35 -17 -20 -39 -36 -49 -36 -9 0 -42 20 -72 45
-60 50 -72 53 -95 27z"/>
        <path d="M98 303 c-22 -26 -38 -59 -38 -79 0 -14 3 -15 12 -6 22 22 49 13 100
-33 28 -25 54 -45 60 -45 5 0 31 20 57 45 26 25 57 45 67 45 11 0 42 -20 71
-45 28 -25 55 -45 60 -45 5 0 29 20 53 45 27 27 53 45 67 45 12 0 45 -20 73
-45 28 -25 55 -45 59 -45 14 0 72 71 87 106 18 44 18 54 -2 26 -36 -52 -59
-50 -133 13 -24 19 -51 35 -60 35 -9 0 -36 -20 -60 -45 -24 -25 -48 -45 -55
-45 -7 0 -36 20 -65 45 -29 25 -60 45 -70 45 -9 0 -37 -20 -61 -45 -24 -25
-50 -45 -56 -45 -7 0 -36 20 -65 45 -57 49 -78 54 -101 28z"/>
        </g>
      </g>
      <g transform="translate(199.0815372781218,595.0613347425883) scale(0.05,0.05)" fill="#000000" stroke="none" class="segment-symbol segment-symbol-11">
        <g class="glyph">
        <path d="M172 655 c-18 -40 -15 -53 16 -60 60 -13 142 -108 142 -165 0 -18 -6
-20 -55 -20 l-55 0 0 -33 0 -34 55 5 c42 3 55 1 55 -9 0 -25 -47 -113 -71
-136 -28 -26 -89 -53 -119 -53 -16 0 -20 -6 -20 -35 0 -32 3 -35 28 -35 15 0
52 13 82 29 69 35 125 105 147 184 17 59 18 60 78 60 8 0 19 -1 24 -2 6 0 18
-28 27 -62 20 -70 84 -148 152 -187 l41 -23 16 31 c17 33 13 50 -11 50 -34 0
-102 60 -128 112 -39 77 -37 81 34 76 l60 -4 0 35 0 36 -60 -3 -59 -4 8 29
c24 83 84 146 156 164 42 11 45 13 45 45 0 29 -4 34 -22 34 -34 -1 -99 -33
-142 -70 -41 -36 -82 -109 -94 -167 -8 -37 -9 -38 -55 -41 -32 -2 -48 1 -51
10 -37 134 -76 191 -167 242 l-46 26 -11 -25z"/>
        </g>
      </g>
    </g>
  </g>
  <g class="inner-disc">
    <circle class="inner-disc" cx="750" cy="750" r="500" fill="white">
    </circle>
  </g>
  <g class="house-lines-group">
    <polyline points="20,730 0,750 20,770" class="ascendant" fill="none" stroke="red" stroke-width="3">
    </polyline>
  </g>
</g>
    <circle cy="750" cx="750" r="240" fill="white" class="inner-hub" stroke="#999999" stroke-width="2"></circle>
    <g class="bodies-layer">
        <g class="body sun" id="sun-symbol">
             <text class="label">Sun</text>
             <g class="symbol">
            <circle r="27" cx="30" cy="30" fill="none" stroke="yellow" stroke-width="3"/>
            <circle r="9" cx="30" cy="30" fill="none" stroke="yellow" stroke-width="3"/>
            </g>
            <text class="coords"></text>
<text class="house"></text>
        </g>
        <g class="body moon" id="moon-symbol">
             <text class="label">Moon</text>
            <g class="symbol">
            <path d="M46.8636797,9.83424132 C46.8636797,4.41166362 42.4002056,0 36.9138203,0 C31.4274351,0 26.9637576,4.41166362 26.9637576,9.83424132 C26.9637576,12.8167093 28.3771147,15.6953108 30.7459351,17.5433912 C33.1777273,19.4407404 35.639632,21.1420201 37.2350887,23.8503931 C38.6614675,26.2711974 39.4074654,29.0537751 39.4074654,31.8537477 C39.4074654,40.6208684 32.1912359,47.7537751 23.3204437,47.7537751 C14.4501602,47.7537751 7.233829,40.6212706 7.233829,31.8537477 C7.233829,30.1520658 7.50657143,28.4515905 8.04778355,26.8356764 C9.26805411,23.1928062 11.6991342,20.5258592 14.8303312,18.3721115 C17.7585736,16.3578245 19.8995152,13.4755027 19.8995152,9.83424132 C19.8994134,4.41166362 15.4358377,0 9.94955411,0 C4.46357576,0 0,4.41166362 0,9.83424132 C0,13.3040676 1.82923593,16.3578245 4.58321212,18.1086746 C1.64123593,22.0149817 7.22846506e-16,26.7958592 7.22846506e-16,31.8537477 C7.22846506e-16,44.5628702 10.461671,54.9028702 23.3204437,54.9028702 C36.1791147,54.9028702 46.6413961,44.5628702 46.6413961,31.8537477 C46.6413961,26.8365814 45.0284416,22.0917002 42.1312273,18.2034918 C44.9685216,16.4690311 46.8636797,13.3667093 46.8636797,9.83424132 Z M9.94955411,7.14959781 C11.447145,7.14959781 12.6657879,8.35406764 12.6657879,9.83424132 C12.6657879,10.9484186 11.9747251,11.9059415 10.9947446,12.3116545 L10.9819264,12.2915448 C10.952119,12.3100457 10.9230238,12.3296527 10.8931147,12.3481536 C10.5988052,12.4564442 10.2817078,12.5187843 9.94965584,12.5187843 C8.45206494,12.5187843 7.23393074,11.3143144 7.23393074,9.83424132 C7.23393074,8.35416819 8.4519632,7.14959781 9.94955411,7.14959781 Z M36.9138203,12.5187843 C35.4162294,12.5187843 34.1976883,11.3143144 34.1976883,9.83424132 C34.1976883,8.35416819 35.4163312,7.14959781 36.9138203,7.14959781 C38.4113095,7.14959781 39.6299524,8.35406764 39.6299524,9.83424132 C39.6299524,11.314415 38.4114113,12.5187843 36.9138203,12.5187843 Z" fill="#cc9999"></path>
            </g>
            <text class="coords"></text>
<text class="house"></text>
        </g>
        <g class="body mercury" id="mercury-symbol">
             <text class="label">Mercury</text>
             <g class="symbol">
            <path d="M36.689,3.70351995 C36.689,1.6582088 35.0365322,0 32.9976322,0 C30.9587322,0 29.3061568,1.6582088 29.3061568,3.70351995 C29.3061568,6.98553085 28.5171688,8.60404791 27.6580962,9.14657362 C25.048201,7.4827562 21.9571735,6.51419142 18.6424562,6.51419142 C15.3497745,6.51419142 12.2771282,7.46948967 9.6781971,9.11367693 C9.59704097,9.05996365 9.51459494,8.99837674 9.43526616,8.92449401 C8.56866916,8.11480405 8.07173566,6.21197332 8.07173566,3.7036278 C8.07173566,1.6582088 6.41926783,0 4.38036783,0 C2.34146783,0 0.689,1.6582088 0.689,3.70351995 C0.689,8.46145964 1.93891192,12.0422372 4.40412347,14.3459761 C4.40982052,14.3512611 4.41551757,14.3555754 4.42121462,14.3609683 C2.75251557,16.9850455 1.78100681,20.0962093 1.78100681,23.4332278 C1.78100681,31.4898964 7.42399149,38.2438561 14.9510883,39.9381974 L14.9510883,42.7686069 L8.85201693,42.7686069 C6.81354689,42.7686069 5.1606491,44.4267078 5.1606491,46.4722347 C5.1606491,48.5175458 6.81322442,50.1756467 8.85201693,50.1756467 L14.9520557,50.1756467 L14.9520557,56.2965879 C14.9520557,58.3418991 16.6046311,60 18.6435311,60 C20.6824311,60 22.3348989,58.3418991 22.3348989,56.2965879 L22.3348989,50.1756467 L28.4349377,50.1756467 C30.4734078,50.1756467 32.1263055,48.5175458 32.1263055,46.4722347 C32.1263055,44.4267078 30.4738377,42.7686069 28.4349377,42.7686069 L22.3344689,42.7686069 L22.3344689,39.9381974 C29.8615658,38.2442876 35.5045504,31.4898964 35.5045504,23.4332278 C35.5045504,20.1186438 34.5458332,17.0263551 32.897665,14.4132795 C32.9231405,14.3899821 32.948616,14.3697048 32.973984,14.3459761 C35.4390881,12.0422372 36.689,8.46199893 36.689,3.70351995 Z M18.6428861,32.94393 C13.4165387,32.94393 9.16417243,28.6770678 9.16417243,23.4327964 C9.16417243,18.1882014 13.4165387,13.9213392 18.6428861,13.9213392 C23.869341,13.9213392 28.1217073,18.1882014 28.1217073,23.4327964 C28.1220298,28.6769599 23.869771,32.94393 18.6428861,32.94393 Z" fill="#66ff00" ></path>
            </g>
            <text class="coords"></text>
<text class="house"></text>
        </g>
        <g class="body venus" id="venus-symbol">
             <text class="label">Venus</text>
             <g class="symbol">
            <path d="M36,17.025303 C36,7.63710563 27.9253261,0 17.9997778,0 C8.07422953,0 0,7.63752598 0,17.025303 C0,25.1748208 6.08647561,32.0020084 14.1847035,33.6620934 L14.1847035,36.8083417 L7.45404942,36.8083417 C5.34708137,36.8083417 3.63864182,38.4238691 3.63864182,40.4168749 C3.63864182,42.4096705 5.34663696,44.0254081 7.45404942,44.0254081 L14.1842591,44.0254081 L14.1842591,50.3914668 C14.1842591,52.3844726 15.8923653,54 17.9996667,54 C20.106968,54 21.8151854,52.3844726 21.8151854,50.3914668 L21.8151854,44.0254081 L28.545284,44.0254081 C30.652252,44.0254081 32.3608027,42.4096705 32.3608027,40.4168749 C32.3608027,38.4238691 30.6526964,36.8083417 28.545284,36.8083417 L21.8151854,36.8083417 L21.8151854,33.6619883 C29.9134133,32.0019033 36,25.1752411 36,17.025303 Z M7.63048188,17.025303 C7.63048188,11.6173373 12.2822771,7.2169613 17.9997778,7.2169613 C23.7172785,7.2169613 28.3695181,11.6173373 28.3695181,17.025303 C28.3695181,22.4332687 23.7177229,26.8336447 17.9997778,26.8336447 C12.2817216,26.8336447 7.63048188,22.4336891 7.63048188,17.025303 Z" fill="#004499"></path>
            </g>
            <text class="coords"></text>
<text class="house"></text>
        </g>
        <g class="body mars" id="mars-symbol">
             <text class="label">Mars</text>
             <g class="symbol">
            <path d="M45.1893265,2.85573563 L39.1979509,8.84727473 C35.1431257,5.97400421 30.1978282,4.27802416 24.8610025,4.27802416 C11.1524858,4.27802416 0,15.4305859 0,29.1393186 C0,42.8474382 11.1524858,54 24.8610025,54 C38.5695192,54 49.722005,42.8474382 49.722005,29.1393186 C49.722005,23.8020887 48.0261591,18.8567575 45.1524177,14.8017821 L51.1437933,8.810243 L54,11.6664691 L54,0 L42.333733,0 L45.1893265,2.85573563 Z M41.3006526,29.1393186 C41.3006526,38.2041242 33.9256237,45.5789581 24.8610025,45.5789581 C15.7962587,45.5789581 8.42135237,38.2040016 8.42135237,29.1393186 C8.42135237,20.0743905 15.7962587,12.699066 24.8610025,12.699066 C27.8681554,12.699066 30.6875758,13.5145 33.1148548,14.9304122 C35.577326,16.3668022 37.6336771,18.4229221 39.0694443,20.8854101 C40.4852242,23.3133188 41.3006526,26.1319 41.3006526,29.1393186 Z" fill="#ff0000"></path>
            </g>
            <text class="coords"></text>
<text class="house"></text>
        </g>
        <g class="body jupiter" id="jupiter-symbol">
            <text class="label">Jupiter</text>
            <g class="symbol">
            <path d="M44.0985607,30.5288337 L37.6409029,30.5288337 L37.6409029,5.39328725 C37.6409029,3.23386333 35.89421,1.4832978 33.7395633,1.4832978 C31.5849166,1.4832978 29.8382237,3.23386333 29.8382237,5.39328725 L29.8382237,30.5287338 L15.4196313,30.5287338 C18.8018294,25.6707046 20.1127465,20.8587481 19.3213698,16.1548279 C17.5642064,5.70850097 5.94355345,0.538556086 5.44964104,0.323683062 C3.47768107,-0.533410449 1.1907061,0.3701556 0.328129427,2.3432896 C-0.534846128,4.31682337 0.363529973,6.62026218 2.32950675,7.49164725 C2.41207479,7.52832557 10.6000714,11.2239417 11.6314738,17.4809442 C12.3076741,21.5862182 9.77090089,26.3236187 4.09035981,31.5613236 C2.90718383,32.652079 2.51299127,34.3580709 3.09724986,35.8594836 C3.68150844,37.3608964 5.12425518,38.3484128 6.732138,38.3484128 L29.8383234,38.3484128 L29.8383234,54.0900106 C29.8383234,56.2494345 31.5850163,58 33.739663,58 C35.8943097,58 37.6410026,56.2494345 37.6410026,54.0900106 L37.6410026,38.3484128 L44.0986604,38.3484128 C46.2533072,38.3484128 48,36.5978473 48,34.4384234 C48,32.2789995 46.2533072,30.5288337 44.0985607,30.5288337 Z" fill="#996600"></path>
            </g>
            <text class="coords"></text>
<text class="house"></text>
        </g>
        <g class="body saturn" id="saturn-symbol">
            <text class="label">Saturn</text>
            <g class="symbol">
            <path d="M34.2071379,25.0199605 C29.8088534,23.8837866 25.4841298,25.1576724 21.6760739,28.5173154 L21.6760739,20.6247401 L31.3279162,20.6247401 C33.5417092,20.6247401 35.3361642,18.8485811 35.3361642,16.6573597 C35.3361642,14.4662396 33.5417092,12.6899792 31.3279162,12.6899792 L21.6765862,12.6899792 L21.6765862,3.96738047 C21.6765862,1.77626042 19.8820287,0 17.6683382,0 C15.4545452,0 13.6599878,1.77626042 13.6599878,3.96738047 L13.6599878,12.6903848 L4.00824797,12.6903848 C1.79455746,12.6903848 0,14.4665439 0,16.6577653 C0,18.8488854 1.79455746,20.6251458 4.00824797,20.6251458 L13.6599878,20.6251458 L13.6599878,41.4450961 C13.6599878,43.3310798 15.0009882,44.9557355 16.8677746,45.3326685 C18.7341513,45.709196 20.6114903,44.7331452 21.3567296,42.9979549 C22.1705095,41.1038586 23.9095378,37.5476871 26.411632,35.0122873 C29.0947597,32.2944547 30.9904378,32.3899809 32.1825747,32.6973482 C34.0026428,33.1679822 35.7056078,34.7756013 36.5218466,36.7946321 C36.9056335,37.7429986 37.3984299,39.5750334 36.3897854,41.1886356 C35.2348387,43.0367942 33.0001454,44.8014941 30.0958228,46.1590414 C28.8777654,46.7282438 28.0300736,47.8649247 27.839512,49.1846468 C27.7546814,49.7731168 27.1878119,55.0520053 33.3554506,59.2911589 C34.0527421,59.7699055 34.8494125,60 35.638194,60 C36.9072728,60 38.1554512,59.40504 38.9346023,58.2949279 C40.1974314,56.4951409 39.7464356,54.023121 37.9281092,52.7731675 C37.352941,52.3780824 36.9331933,51.9973972 36.6272702,51.6527118 C38.998635,50.1747934 41.4865908,48.1177345 43.2078948,45.3633951 C45.2971055,42.0202816 45.57301,37.8219954 43.9653259,33.8458938 C42.208266,29.5033042 38.4695705,26.1209458 34.2071379,25.0199605 Z" fill="#0000ff"></path>
         </g>
         <text class="coords"></text>
        <text class="house"></text>
        </g>
        <g class="body uranus" id="uranus-symbol">
            <text class="label">Uranus</text>
            <g class="symbol">
            <path d="M50.1823541,9.62321818 C52.3144719,9.62321818 54.0429013,7.89980356 54.0429013,5.77387187 C54.0429013,3.64784179 52.3144719,1.92452557 50.1823541,1.92452557 C41.9805045,1.92452557 35.120171,8.59798523 33.5515986,17.4359458 L31.0502308,17.4359458 L31.0502308,3.8493463 C31.0502308,1.72331622 29.3218014,0 27.1896836,0 C25.0574672,0 23.3291364,1.72331622 23.3291364,3.8493463 L23.3291364,17.4363394 L20.5338093,17.4363394 C18.9653356,8.59877236 12.1049035,1.92482074 3.90354722,1.92482074 C1.77142944,1.92482074 0.043,3.64823535 0.043,5.77416704 C0.043,7.90019713 1.77142944,9.62351335 3.90354722,9.62351335 C9.00249302,9.62351335 13.1509802,14.8550547 13.1509802,21.2855873 C13.1509802,27.7161199 9.00249302,32.9471693 3.90354722,32.9471693 C1.77142944,32.9471693 0.043,34.6705839 0.043,36.796614 C0.043,38.9225457 1.77142944,40.6459603 3.90354722,40.6459603 C12.1053969,40.6459603 18.9653356,33.9725006 20.533908,25.13454 L23.3292351,25.13454 L23.3292351,33.3859926 C18.5129007,34.9990126 15.0323593,39.5391613 15.0323593,44.8778503 C15.0323593,51.5622314 20.4860496,57 27.1897823,57 C33.893515,57 39.3471066,51.562133 39.3471066,44.8778503 C39.3471066,39.5391613 35.8666639,34.9990126 31.0503295,33.3859926 L31.0503295,25.13454 L33.5516973,25.13454 C35.1202697,33.972107 41.9809978,40.6459603 50.1824528,40.6459603 C52.3145706,40.6459603 54.043,38.9225457 54.043,36.796614 C54.043,34.6705839 52.3145706,32.9471693 50.1824528,32.9471693 C45.0834083,32.9471693 40.934625,27.7157263 40.934625,21.2850953 C40.9345264,14.8546611 45.0833096,9.62321818 50.1823541,9.62321818 Z M27.1896836,49.3014058 C24.7434764,49.3014058 22.7529604,47.3170586 22.7529604,44.8775551 C22.7529604,42.9683786 23.9752746,41.3420757 25.67864,40.7242794 C26.150909,40.5528825 26.6586031,40.45459 27.1895849,40.45459 C27.7205668,40.45459 28.2282609,40.5528825 28.7005299,40.7242794 C30.4038953,41.3424693 31.6261109,42.9683786 31.6261109,44.8775551 C31.6259135,47.3170586 29.6358909,49.3014058 27.1896836,49.3014058 Z" fill="#229966"></path>
            </g>
            <text class="coords"></text>
            <text class="house"></text>
        </g>
        <g class="body neptune" id="neptune-symbol">
            <text class="label">Neptune</text>
            <g class="symbol">
            <path d="M36.7806309,6.71282615 L39.4777899,6.71282615 L39.4777899,14.262775 C39.4777899,18.4241137 34.9310534,22.0484629 28.9126756,23.1731244 L28.9126756,10.0690361 L31.6098345,10.0690361 L25.0001,3.35620994 L18.3902655,10.0690361 L21.0874244,10.0690361 L21.0874244,23.1731244 C15.0692466,22.0484629 10.5224102,18.4241137 10.5224102,14.262775 L10.5224102,6.71282615 L13.2195691,6.71282615 L6.61023458,0 L0,6.71282615 L2.69715893,6.71282615 L2.69715893,14.262775 C2.69715893,22.8851794 10.510709,29.8337446 21.0870244,31.2240061 L21.0870244,34.2308225 L13.2200691,34.2308225 C11.0590617,34.2308225 9.3072935,36.0098859 9.3072935,38.2044637 C9.3072935,40.3990415 11.0590617,42.178105 13.2200691,42.178105 L21.0875244,42.178105 L21.0875244,50.0263588 C21.0875244,52.2209365 22.8391926,54 25.0002,54 C27.1612075,54 28.9127756,52.2209365 28.9127756,50.0263588 L28.9127756,42.178105 L36.780731,42.178105 C38.9416384,42.178105 40.6934066,40.3990415 40.6934066,38.2044637 C40.6934066,36.0098859 38.9416384,34.2308225 36.780731,34.2308225 L28.9127756,34.2308225 L28.9127756,31.2240061 C39.489191,29.8337446 47.3028411,22.8850778 47.3028411,14.262775 L47.3028411,6.71282615 L50,6.71282615 L43.3900654,0 L36.7806309,6.71282615 Z" fill="#990066"></path>
            </g>
            <text class="coords"></text>
            <text class="house"></text>
        </g>
        <g class="body pluto" id="pluto-symbol">
            <text class="label">Pluto</text>
            <g class="symbol">
            <path d="M35.5,40.5 14.5,40.5 14.5,8.5 27.5,8.5 C 27.5,8.5 34.5,9.5 34.5,16.5 34.5,23.5 27.5,24.5 27.5,24.5 L 14.5,24.5" fill="none" stroke="#000" stroke-width="3"/>
            </g>
            <text class="coords"></text>
            <text class="house"></text>
        </g>
    </g>

  </g>

  <g id="north-indian-chart" class="chart north-indian-chart" stroke="none" fill="none" transform="translate(60,60)" class="european-element">
      <path d="M0,0 L1440,0 L1440,1440 L0,1440 Z" stroke="none" class="shape" />
      <polygon
       id="zone-01"
       class="triangle zone shape"
       points="0,0 720,0 360,360" stroke="none"/>
      <polygon
       id="zone-02"
       class="triangle zone shape"
       points="0,0 0,720 360,360" stroke="none"/>
      <polygon
       id="zone-03"
       class="rect zone shape"
       points="720,0 360,360 720,720 1080,360" stroke="none" fill="yellow" />
       <polygon
       id="zone-04"
       class="triangle zone shape"
       points="0,720 0,1440 360,1080" stroke="none"/>
       <polygon
       id="zone-05"
       class="triangle zone shape"
       points="0,1440 720,1440 360,1080" stroke="none"/>
       <polygon
       id="zone-06"
       class="rect zone shape"
       points="0,720 360,360 720,720 360,1080" stroke="none" fill="yellow" />
       <polygon
       id="zone-07"
       class="triangle zone shape"
       points="720,0 1440,0 1080,360" stroke="none"/>
       <polygon
       id="zone-08"
       class="rect zone shape"
       points="720,1440 360,1080 720,720 1080,1080" stroke="none" fill="yellow" />
      <polygon
       id="zone-09"
       class="triangle zone shape"
       points="1440,720 1440,0 1080,360" stroke="none"/>
       <polygon
       id="zone-10"
       class="rect zone shape"
       points="1440,720 1080,360 720,720 1080,1080" stroke="none" fill="yellow" />
       <polygon
       id="zone-11"
       class="triangle zone shape"
       points="1440,720 1440,1440 1080,1080" stroke="none"/>
       <polygon
       id="zone-12"
       class="triangle zone shape"
       points="720,1440 1440,1440 1080,1080" stroke="none"/>
    </g>
</svg>