<svg id="astro-disc" width="1500" height="1500" viewBox="0 0 1500 1500">
  <g id="western-chart" class="chart western-chart">
    <g class="main-disc" x="90" y="90">
  <g class="degrees">
    <line class="degree-line degree-line-ten" x1="750" y1="120" x2="750" y2="1380" stroke="black" stroke-width="2" transform="rotate(-90,750,750)">
    </line>
    <text class="degree-label" x="100" y="750">0º</text>
    <text class="degree-label" x="1400" y="750">180º</text>
    <line class="degree-line" x1="750" y1="140" x2="750" y2="1360" stroke="#999999" stroke-width="1" transform="rotate(-89,750,750)">
    </line>
    <line class="degree-line" x1="750" y1="140" x2="750" y2="1360" stroke="#999999" stroke-width="1" transform="rotate(-88,750,750)">
    </line>
    <line class="degree-line" x1="750" y1="140" x2="750" y2="1360" stroke="#999999" stroke-width="1" transform="rotate(-87,750,750)">
    </line>
    <line class="degree-line" x1="750" y1="140" x2="750" y2="1360" stroke="#999999" stroke-width="1" transform="rotate(-86,750,750)">
    </line>
    <line class="degree-line degree-line-five" x1="750" y1="130" x2="750" y2="1370" stroke="#333333" stroke-width="1" transform="rotate(-85,750,750)">
    </line>
    <line class="degree-line" x1="750" y1="140" x2="750" y2="1360" stroke="#999999" stroke-width="1" transform="rotate(-84,750,750)">
    </line>
    <line class="degree-line" x1="750" y1="140" x2="750" y2="1360" stroke="#999999" stroke-width="1" transform="rotate(-83,750,750)">
    </line>
    <line class="degree-line" x1="750" y1="140" x2="750" y2="1360" stroke="#999999" stroke-width="1" transform="rotate(-82,750,750)">
    </line>
    <line class="degree-line" x1="750" y1="140" x2="750" y2="1360" stroke="#999999" stroke-width="1" transform="rotate(-81,750,750)">
    </line>
    <line class="degree-line degree-line-ten" x1="750" y1="120" x2="750" y2="1380" stroke="black" stroke-width="2" transform="rotate(-80,750,750)">
    </line>
    <line class="degree-line" x1="750" y1="140" x2="750" y2="1360" stroke="#999999" stroke-width="1" transform="rotate(-79,750,750)">
    </line>
    <line class="degree-line" x1="750" y1="140" x2="750" y2="1360" stroke="#999999" stroke-width="1" transform="rotate(-78,750,750)">
    </line>
    <line class="degree-line" x1="750" y1="140" x2="750" y2="1360" stroke="#999999" stroke-width="1" transform="rotate(-77,750,750)">
    </line>
    <line class="degree-line" x1="750" y1="140" x2="750" y2="1360" stroke="#999999" stroke-width="1" transform="rotate(-76,750,750)">
    </line>
    <line class="degree-line degree-line-five" x1="750" y1="130" x2="750" y2="1370" stroke="#333333" stroke-width="1" transform="rotate(-75,750,750)">
    </line>
    <line class="degree-line" x1="750" y1="140" x2="750" y2="1360" stroke="#999999" stroke-width="1" transform="rotate(-74,750,750)">
    </line>
    <line class="degree-line" x1="750" y1="140" x2="750" y2="1360" stroke="#999999" stroke-width="1" transform="rotate(-73,750,750)">
    </line>
    <line class="degree-line" x1="750" y1="140" x2="750" y2="1360" stroke="#999999" stroke-width="1" transform="rotate(-72,750,750)">
    </line>
    <line class="degree-line" x1="750" y1="140" x2="750" y2="1360" stroke="#999999" stroke-width="1" transform="rotate(-71,750,750)">
    </line>
    <line class="degree-line degree-line-ten" x1="750" y1="120" x2="750" y2="1380" stroke="black" stroke-width="2" transform="rotate(-70,750,750)">
    </line>
    <line class="degree-line" x1="750" y1="140" x2="750" y2="1360" stroke="#999999" stroke-width="1" transform="rotate(-69,750,750)">
    </line>
    <line class="degree-line" x1="750" y1="140" x2="750" y2="1360" stroke="#999999" stroke-width="1" transform="rotate(-68,750,750)">
    </line>
    <line class="degree-line" x1="750" y1="140" x2="750" y2="1360" stroke="#999999" stroke-width="1" transform="rotate(-67,750,750)">
    </line>
    <line class="degree-line" x1="750" y1="140" x2="750" y2="1360" stroke="#999999" stroke-width="1" transform="rotate(-66,750,750)">
    </line>
    <line class="degree-line degree-line-five" x1="750" y1="130" x2="750" y2="1370" stroke="#333333" stroke-width="1" transform="rotate(-65,750,750)">
    </line>
    <line class="degree-line" x1="750" y1="140" x2="750" y2="1360" stroke="#999999" stroke-width="1" transform="rotate(-64,750,750)">
    </line>
    <line class="degree-line" x1="750" y1="140" x2="750" y2="1360" stroke="#999999" stroke-width="1" transform="rotate(-63,750,750)">
    </line>
    <line class="degree-line" x1="750" y1="140" x2="750" y2="1360" stroke="#999999" stroke-width="1" transform="rotate(-62,750,750)">
    </line>
    <line class="degree-line" x1="750" y1="140" x2="750" y2="1360" stroke="#999999" stroke-width="1" transform="rotate(-61,750,750)">
    </line>
    <line class="degree-line degree-line-ten" x1="750" y1="120" x2="750" y2="1380" stroke="black" stroke-width="2" transform="rotate(-60,750,750)">
    </line>
    <text class="degree-label" x="187.0834875401149" y="424.99999999999994">330º</text>
    <text class="degree-label" x="1312.9165124598853" y="1074.9999999999998">150º</text>
    <line class="degree-line" x1="750" y1="140" x2="750" y2="1360" stroke="#999999" stroke-width="1" transform="rotate(-59,750,750)">
    </line>
    <line class="degree-line" x1="750" y1="140" x2="750" y2="1360" stroke="#999999" stroke-width="1" transform="rotate(-58,750,750)">
    </line>
    <line class="degree-line" x1="750" y1="140" x2="750" y2="1360" stroke="#999999" stroke-width="1" transform="rotate(-57,750,750)">
    </line>
    <line class="degree-line" x1="750" y1="140" x2="750" y2="1360" stroke="#999999" stroke-width="1" transform="rotate(-56,750,750)">
    </line>
    <line class="degree-line degree-line-five" x1="750" y1="130" x2="750" y2="1370" stroke="#333333" stroke-width="1" transform="rotate(-55,750,750)">
    </line>
    <line class="degree-line" x1="750" y1="140" x2="750" y2="1360" stroke="#999999" stroke-width="1" transform="rotate(-54,750,750)">
    </line>
    <line class="degree-line" x1="750" y1="140" x2="750" y2="1360" stroke="#999999" stroke-width="1" transform="rotate(-53,750,750)">
    </line>
    <line class="degree-line" x1="750" y1="140" x2="750" y2="1360" stroke="#999999" stroke-width="1" transform="rotate(-52,750,750)">
    </line>
    <line class="degree-line" x1="750" y1="140" x2="750" y2="1360" stroke="#999999" stroke-width="1" transform="rotate(-51,750,750)">
    </line>
    <line class="degree-line degree-line-ten" x1="750" y1="120" x2="750" y2="1380" stroke="black" stroke-width="2" transform="rotate(-50,750,750)">
    </line>
    <line class="degree-line" x1="750" y1="140" x2="750" y2="1360" stroke="#999999" stroke-width="1" transform="rotate(-49,750,750)">
    </line>
    <line class="degree-line" x1="750" y1="140" x2="750" y2="1360" stroke="#999999" stroke-width="1" transform="rotate(-48,750,750)">
    </line>
    <line class="degree-line" x1="750" y1="140" x2="750" y2="1360" stroke="#999999" stroke-width="1" transform="rotate(-47,750,750)">
    </line>
    <line class="degree-line" x1="750" y1="140" x2="750" y2="1360" stroke="#999999" stroke-width="1" transform="rotate(-46,750,750)">
    </line>
    <line class="degree-line degree-line-five" x1="750" y1="130" x2="750" y2="1370" stroke="#333333" stroke-width="1" transform="rotate(-45,750,750)">
    </line>
    <line class="degree-line" x1="750" y1="140" x2="750" y2="1360" stroke="#999999" stroke-width="1" transform="rotate(-44,750,750)">
    </line>
    <line class="degree-line" x1="750" y1="140" x2="750" y2="1360" stroke="#999999" stroke-width="1" transform="rotate(-43,750,750)">
    </line>
    <line class="degree-line" x1="750" y1="140" x2="750" y2="1360" stroke="#999999" stroke-width="1" transform="rotate(-42,750,750)">
    </line>
    <line class="degree-line" x1="750" y1="140" x2="750" y2="1360" stroke="#999999" stroke-width="1" transform="rotate(-41,750,750)">
    </line>
    <line class="degree-line degree-line-ten" x1="750" y1="120" x2="750" y2="1380" stroke="black" stroke-width="2" transform="rotate(-40,750,750)">
    </line>
    <line class="degree-line" x1="750" y1="140" x2="750" y2="1360" stroke="#999999" stroke-width="1" transform="rotate(-39,750,750)">
    </line>
    <line class="degree-line" x1="750" y1="140" x2="750" y2="1360" stroke="#999999" stroke-width="1" transform="rotate(-38,750,750)">
    </line>
    <line class="degree-line" x1="750" y1="140" x2="750" y2="1360" stroke="#999999" stroke-width="1" transform="rotate(-37,750,750)">
    </line>
    <line class="degree-line" x1="750" y1="140" x2="750" y2="1360" stroke="#999999" stroke-width="1" transform="rotate(-36,750,750)">
    </line>
    <line class="degree-line degree-line-five" x1="750" y1="130" x2="750" y2="1370" stroke="#333333" stroke-width="1" transform="rotate(-35,750,750)">
    </line>
    <line class="degree-line" x1="750" y1="140" x2="750" y2="1360" stroke="#999999" stroke-width="1" transform="rotate(-34,750,750)">
    </line>
    <line class="degree-line" x1="750" y1="140" x2="750" y2="1360" stroke="#999999" stroke-width="1" transform="rotate(-33,750,750)">
    </line>
    <line class="degree-line" x1="750" y1="140" x2="750" y2="1360" stroke="#999999" stroke-width="1" transform="rotate(-32,750,750)">
    </line>
    <line class="degree-line" x1="750" y1="140" x2="750" y2="1360" stroke="#999999" stroke-width="1" transform="rotate(-31,750,750)">
    </line>
    <line class="degree-line degree-line-ten" x1="750" y1="120" x2="750" y2="1380" stroke="black" stroke-width="2" transform="rotate(-30,750,750)">
    </line>
    <text class="degree-label" x="425.00000000000006" y="187.0834875401148">300º</text>
    <text class="degree-label" x="1075" y="1312.9165124598853">120º</text>
    <line class="degree-line" x1="750" y1="140" x2="750" y2="1360" stroke="#999999" stroke-width="1" transform="rotate(-29,750,750)">
    </line>
    <line class="degree-line" x1="750" y1="140" x2="750" y2="1360" stroke="#999999" stroke-width="1" transform="rotate(-28,750,750)">
    </line>
    <line class="degree-line" x1="750" y1="140" x2="750" y2="1360" stroke="#999999" stroke-width="1" transform="rotate(-27,750,750)">
    </line>
    <line class="degree-line" x1="750" y1="140" x2="750" y2="1360" stroke="#999999" stroke-width="1" transform="rotate(-26,750,750)">
    </line>
    <line class="degree-line degree-line-five" x1="750" y1="130" x2="750" y2="1370" stroke="#333333" stroke-width="1" transform="rotate(-25,750,750)">
    </line>
    <line class="degree-line" x1="750" y1="140" x2="750" y2="1360" stroke="#999999" stroke-width="1" transform="rotate(-24,750,750)">
    </line>
    <line class="degree-line" x1="750" y1="140" x2="750" y2="1360" stroke="#999999" stroke-width="1" transform="rotate(-23,750,750)">
    </line>
    <line class="degree-line" x1="750" y1="140" x2="750" y2="1360" stroke="#999999" stroke-width="1" transform="rotate(-22,750,750)">
    </line>
    <line class="degree-line" x1="750" y1="140" x2="750" y2="1360" stroke="#999999" stroke-width="1" transform="rotate(-21,750,750)">
    </line>
    <line class="degree-line degree-line-ten" x1="750" y1="120" x2="750" y2="1380" stroke="black" stroke-width="2" transform="rotate(-20,750,750)">
    </line>
    <line class="degree-line" x1="750" y1="140" x2="750" y2="1360" stroke="#999999" stroke-width="1" transform="rotate(-19,750,750)">
    </line>
    <line class="degree-line" x1="750" y1="140" x2="750" y2="1360" stroke="#999999" stroke-width="1" transform="rotate(-18,750,750)">
    </line>
    <line class="degree-line" x1="750" y1="140" x2="750" y2="1360" stroke="#999999" stroke-width="1" transform="rotate(-17,750,750)">
    </line>
    <line class="degree-line" x1="750" y1="140" x2="750" y2="1360" stroke="#999999" stroke-width="1" transform="rotate(-16,750,750)">
    </line>
    <line class="degree-line degree-line-five" x1="750" y1="130" x2="750" y2="1370" stroke="#333333" stroke-width="1" transform="rotate(-15,750,750)">
    </line>
    <line class="degree-line" x1="750" y1="140" x2="750" y2="1360" stroke="#999999" stroke-width="1" transform="rotate(-14,750,750)">
    </line>
    <line class="degree-line" x1="750" y1="140" x2="750" y2="1360" stroke="#999999" stroke-width="1" transform="rotate(-13,750,750)">
    </line>
    <line class="degree-line" x1="750" y1="140" x2="750" y2="1360" stroke="#999999" stroke-width="1" transform="rotate(-12,750,750)">
    </line>
    <line class="degree-line" x1="750" y1="140" x2="750" y2="1360" stroke="#999999" stroke-width="1" transform="rotate(-11,750,750)">
    </line>
    <line class="degree-line degree-line-ten" x1="750" y1="120" x2="750" y2="1380" stroke="black" stroke-width="2" transform="rotate(-10,750,750)">
    </line>
    <line class="degree-line" x1="750" y1="140" x2="750" y2="1360" stroke="#999999" stroke-width="1" transform="rotate(-9,750,750)">
    </line>
    <line class="degree-line" x1="750" y1="140" x2="750" y2="1360" stroke="#999999" stroke-width="1" transform="rotate(-8,750,750)">
    </line>
    <line class="degree-line" x1="750" y1="140" x2="750" y2="1360" stroke="#999999" stroke-width="1" transform="rotate(-7,750,750)">
    </line>
    <line class="degree-line" x1="750" y1="140" x2="750" y2="1360" stroke="#999999" stroke-width="1" transform="rotate(-6,750,750)">
    </line>
    <line class="degree-line degree-line-five" x1="750" y1="130" x2="750" y2="1370" stroke="#333333" stroke-width="1" transform="rotate(-5,750,750)">
    </line>
    <line class="degree-line" x1="750" y1="140" x2="750" y2="1360" stroke="#999999" stroke-width="1" transform="rotate(-4,750,750)">
    </line>
    <line class="degree-line" x1="750" y1="140" x2="750" y2="1360" stroke="#999999" stroke-width="1" transform="rotate(-3,750,750)">
    </line>
    <line class="degree-line" x1="750" y1="140" x2="750" y2="1360" stroke="#999999" stroke-width="1" transform="rotate(-2,750,750)">
    </line>
    <line class="degree-line" x1="750" y1="140" x2="750" y2="1360" stroke="#999999" stroke-width="1" transform="rotate(-1,750,750)">
    </line>
    <line class="degree-line degree-line-ten" x1="750" y1="120" x2="750" y2="1380" stroke="black" stroke-width="2" transform="rotate(0,750,750)">
    </line>
    <text class="degree-label" x="750" y="100">270º</text>
    <text class="degree-label" x="750.0000000000001" y="1400">90º</text>
    <line class="degree-line" x1="750" y1="140" x2="750" y2="1360" stroke="#999999" stroke-width="1" transform="rotate(1,750,750)">
    </line>
    <line class="degree-line" x1="750" y1="140" x2="750" y2="1360" stroke="#999999" stroke-width="1" transform="rotate(2,750,750)">
    </line>
    <line class="degree-line" x1="750" y1="140" x2="750" y2="1360" stroke="#999999" stroke-width="1" transform="rotate(3,750,750)">
    </line>
    <line class="degree-line" x1="750" y1="140" x2="750" y2="1360" stroke="#999999" stroke-width="1" transform="rotate(4,750,750)">
    </line>
    <line class="degree-line degree-line-five" x1="750" y1="130" x2="750" y2="1370" stroke="#333333" stroke-width="1" transform="rotate(5,750,750)">
    </line>
    <line class="degree-line" x1="750" y1="140" x2="750" y2="1360" stroke="#999999" stroke-width="1" transform="rotate(6,750,750)">
    </line>
    <line class="degree-line" x1="750" y1="140" x2="750" y2="1360" stroke="#999999" stroke-width="1" transform="rotate(7,750,750)">
    </line>
    <line class="degree-line" x1="750" y1="140" x2="750" y2="1360" stroke="#999999" stroke-width="1" transform="rotate(8,750,750)">
    </line>
    <line class="degree-line" x1="750" y1="140" x2="750" y2="1360" stroke="#999999" stroke-width="1" transform="rotate(9,750,750)">
    </line>
    <line class="degree-line degree-line-ten" x1="750" y1="120" x2="750" y2="1380" stroke="black" stroke-width="2" transform="rotate(10,750,750)">
    </line>
    <line class="degree-line" x1="750" y1="140" x2="750" y2="1360" stroke="#999999" stroke-width="1" transform="rotate(11,750,750)">
    </line>
    <line class="degree-line" x1="750" y1="140" x2="750" y2="1360" stroke="#999999" stroke-width="1" transform="rotate(12,750,750)">
    </line>
    <line class="degree-line" x1="750" y1="140" x2="750" y2="1360" stroke="#999999" stroke-width="1" transform="rotate(13,750,750)">
    </line>
    <line class="degree-line" x1="750" y1="140" x2="750" y2="1360" stroke="#999999" stroke-width="1" transform="rotate(14,750,750)">
    </line>
    <line class="degree-line degree-line-five" x1="750" y1="130" x2="750" y2="1370" stroke="#333333" stroke-width="1" transform="rotate(15,750,750)">
    </line>
    <line class="degree-line" x1="750" y1="140" x2="750" y2="1360" stroke="#999999" stroke-width="1" transform="rotate(16,750,750)">
    </line>
    <line class="degree-line" x1="750" y1="140" x2="750" y2="1360" stroke="#999999" stroke-width="1" transform="rotate(17,750,750)">
    </line>
    <line class="degree-line" x1="750" y1="140" x2="750" y2="1360" stroke="#999999" stroke-width="1" transform="rotate(18,750,750)">
    </line>
    <line class="degree-line" x1="750" y1="140" x2="750" y2="1360" stroke="#999999" stroke-width="1" transform="rotate(19,750,750)">
    </line>
    <line class="degree-line degree-line-ten" x1="750" y1="120" x2="750" y2="1380" stroke="black" stroke-width="2" transform="rotate(20,750,750)">
    </line>
    <line class="degree-line" x1="750" y1="140" x2="750" y2="1360" stroke="#999999" stroke-width="1" transform="rotate(21,750,750)">
    </line>
    <line class="degree-line" x1="750" y1="140" x2="750" y2="1360" stroke="#999999" stroke-width="1" transform="rotate(22,750,750)">
    </line>
    <line class="degree-line" x1="750" y1="140" x2="750" y2="1360" stroke="#999999" stroke-width="1" transform="rotate(23,750,750)">
    </line>
    <line class="degree-line" x1="750" y1="140" x2="750" y2="1360" stroke="#999999" stroke-width="1" transform="rotate(24,750,750)">
    </line>
    <line class="degree-line degree-line-five" x1="750" y1="130" x2="750" y2="1370" stroke="#333333" stroke-width="1" transform="rotate(25,750,750)">
    </line>
    <line class="degree-line" x1="750" y1="140" x2="750" y2="1360" stroke="#999999" stroke-width="1" transform="rotate(26,750,750)">
    </line>
    <line class="degree-line" x1="750" y1="140" x2="750" y2="1360" stroke="#999999" stroke-width="1" transform="rotate(27,750,750)">
    </line>
    <line class="degree-line" x1="750" y1="140" x2="750" y2="1360" stroke="#999999" stroke-width="1" transform="rotate(28,750,750)">
    </line>
    <line class="degree-line" x1="750" y1="140" x2="750" y2="1360" stroke="#999999" stroke-width="1" transform="rotate(29,750,750)">
    </line>
    <line class="degree-line degree-line-ten" x1="750" y1="120" x2="750" y2="1380" stroke="black" stroke-width="2" transform="rotate(30,750,750)">
    </line>
    <text class="degree-label" x="1075" y="187.0834875401148">240º</text>
    <text class="degree-label" x="424.99999999999994" y="1312.916512459885">60º</text>
    <line class="degree-line" x1="750" y1="140" x2="750" y2="1360" stroke="#999999" stroke-width="1" transform="rotate(31,750,750)">
    </line>
    <line class="degree-line" x1="750" y1="140" x2="750" y2="1360" stroke="#999999" stroke-width="1" transform="rotate(32,750,750)">
    </line>
    <line class="degree-line" x1="750" y1="140" x2="750" y2="1360" stroke="#999999" stroke-width="1" transform="rotate(33,750,750)">
    </line>
    <line class="degree-line" x1="750" y1="140" x2="750" y2="1360" stroke="#999999" stroke-width="1" transform="rotate(34,750,750)">
    </line>
    <line class="degree-line degree-line-five" x1="750" y1="130" x2="750" y2="1370" stroke="#333333" stroke-width="1" transform="rotate(35,750,750)">
    </line>
    <line class="degree-line" x1="750" y1="140" x2="750" y2="1360" stroke="#999999" stroke-width="1" transform="rotate(36,750,750)">
    </line>
    <line class="degree-line" x1="750" y1="140" x2="750" y2="1360" stroke="#999999" stroke-width="1" transform="rotate(37,750,750)">
    </line>
    <line class="degree-line" x1="750" y1="140" x2="750" y2="1360" stroke="#999999" stroke-width="1" transform="rotate(38,750,750)">
    </line>
    <line class="degree-line" x1="750" y1="140" x2="750" y2="1360" stroke="#999999" stroke-width="1" transform="rotate(39,750,750)">
    </line>
    <line class="degree-line degree-line-ten" x1="750" y1="120" x2="750" y2="1380" stroke="black" stroke-width="2" transform="rotate(40,750,750)">
    </line>
    <line class="degree-line" x1="750" y1="140" x2="750" y2="1360" stroke="#999999" stroke-width="1" transform="rotate(41,750,750)">
    </line>
    <line class="degree-line" x1="750" y1="140" x2="750" y2="1360" stroke="#999999" stroke-width="1" transform="rotate(42,750,750)">
    </line>
    <line class="degree-line" x1="750" y1="140" x2="750" y2="1360" stroke="#999999" stroke-width="1" transform="rotate(43,750,750)">
    </line>
    <line class="degree-line" x1="750" y1="140" x2="750" y2="1360" stroke="#999999" stroke-width="1" transform="rotate(44,750,750)">
    </line>
    <line class="degree-line degree-line-five" x1="750" y1="130" x2="750" y2="1370" stroke="#333333" stroke-width="1" transform="rotate(45,750,750)">
    </line>
    <line class="degree-line" x1="750" y1="140" x2="750" y2="1360" stroke="#999999" stroke-width="1" transform="rotate(46,750,750)">
    </line>
    <line class="degree-line" x1="750" y1="140" x2="750" y2="1360" stroke="#999999" stroke-width="1" transform="rotate(47,750,750)">
    </line>
    <line class="degree-line" x1="750" y1="140" x2="750" y2="1360" stroke="#999999" stroke-width="1" transform="rotate(48,750,750)">
    </line>
    <line class="degree-line" x1="750" y1="140" x2="750" y2="1360" stroke="#999999" stroke-width="1" transform="rotate(49,750,750)">
    </line>
    <line class="degree-line degree-line-ten" x1="750" y1="120" x2="750" y2="1380" stroke="black" stroke-width="2" transform="rotate(50,750,750)">
    </line>
    <line class="degree-line" x1="750" y1="140" x2="750" y2="1360" stroke="#999999" stroke-width="1" transform="rotate(51,750,750)">
    </line>
    <line class="degree-line" x1="750" y1="140" x2="750" y2="1360" stroke="#999999" stroke-width="1" transform="rotate(52,750,750)">
    </line>
    <line class="degree-line" x1="750" y1="140" x2="750" y2="1360" stroke="#999999" stroke-width="1" transform="rotate(53,750,750)">
    </line>
    <line class="degree-line" x1="750" y1="140" x2="750" y2="1360" stroke="#999999" stroke-width="1" transform="rotate(54,750,750)">
    </line>
    <line class="degree-line degree-line-five" x1="750" y1="130" x2="750" y2="1370" stroke="#333333" stroke-width="1" transform="rotate(55,750,750)">
    </line>
    <line class="degree-line" x1="750" y1="140" x2="750" y2="1360" stroke="#999999" stroke-width="1" transform="rotate(56,750,750)">
    </line>
    <line class="degree-line" x1="750" y1="140" x2="750" y2="1360" stroke="#999999" stroke-width="1" transform="rotate(57,750,750)">
    </line>
    <line class="degree-line" x1="750" y1="140" x2="750" y2="1360" stroke="#999999" stroke-width="1" transform="rotate(58,750,750)">
    </line>
    <line class="degree-line" x1="750" y1="140" x2="750" y2="1360" stroke="#999999" stroke-width="1" transform="rotate(59,750,750)">
    </line>
    <line class="degree-line degree-line-ten" x1="750" y1="120" x2="750" y2="1380" stroke="black" stroke-width="2" transform="rotate(60,750,750)">
    </line>
    <text class="degree-label" x="1312.916512459885" y="424.99999999999994">210º</text>
    <text class="degree-label" x="187.08348754011502" y="1075.0000000000002">30º</text>
    <line class="degree-line" x1="750" y1="140" x2="750" y2="1360" stroke="#999999" stroke-width="1" transform="rotate(61,750,750)">
    </line>
    <line class="degree-line" x1="750" y1="140" x2="750" y2="1360" stroke="#999999" stroke-width="1" transform="rotate(62,750,750)">
    </line>
    <line class="degree-line" x1="750" y1="140" x2="750" y2="1360" stroke="#999999" stroke-width="1" transform="rotate(63,750,750)">
    </line>
    <line class="degree-line" x1="750" y1="140" x2="750" y2="1360" stroke="#999999" stroke-width="1" transform="rotate(64,750,750)">
    </line>
    <line class="degree-line degree-line-five" x1="750" y1="130" x2="750" y2="1370" stroke="#333333" stroke-width="1" transform="rotate(65,750,750)">
    </line>
    <line class="degree-line" x1="750" y1="140" x2="750" y2="1360" stroke="#999999" stroke-width="1" transform="rotate(66,750,750)">
    </line>
    <line class="degree-line" x1="750" y1="140" x2="750" y2="1360" stroke="#999999" stroke-width="1" transform="rotate(67,750,750)">
    </line>
    <line class="degree-line" x1="750" y1="140" x2="750" y2="1360" stroke="#999999" stroke-width="1" transform="rotate(68,750,750)">
    </line>
    <line class="degree-line" x1="750" y1="140" x2="750" y2="1360" stroke="#999999" stroke-width="1" transform="rotate(69,750,750)">
    </line>
    <line class="degree-line degree-line-ten" x1="750" y1="120" x2="750" y2="1380" stroke="black" stroke-width="2" transform="rotate(70,750,750)">
    </line>
    <line class="degree-line" x1="750" y1="140" x2="750" y2="1360" stroke="#999999" stroke-width="1" transform="rotate(71,750,750)">
    </line>
    <line class="degree-line" x1="750" y1="140" x2="750" y2="1360" stroke="#999999" stroke-width="1" transform="rotate(72,750,750)">
    </line>
    <line class="degree-line" x1="750" y1="140" x2="750" y2="1360" stroke="#999999" stroke-width="1" transform="rotate(73,750,750)">
    </line>
    <line class="degree-line" x1="750" y1="140" x2="750" y2="1360" stroke="#999999" stroke-width="1" transform="rotate(74,750,750)">
    </line>
    <line class="degree-line degree-line-five" x1="750" y1="130" x2="750" y2="1370" stroke="#333333" stroke-width="1" transform="rotate(75,750,750)">
    </line>
    <line class="degree-line" x1="750" y1="140" x2="750" y2="1360" stroke="#999999" stroke-width="1" transform="rotate(76,750,750)">
    </line>
    <line class="degree-line" x1="750" y1="140" x2="750" y2="1360" stroke="#999999" stroke-width="1" transform="rotate(77,750,750)">
    </line>
    <line class="degree-line" x1="750" y1="140" x2="750" y2="1360" stroke="#999999" stroke-width="1" transform="rotate(78,750,750)">
    </line>
    <line class="degree-line" x1="750" y1="140" x2="750" y2="1360" stroke="#999999" stroke-width="1" transform="rotate(79,750,750)">
    </line>
    <line class="degree-line degree-line-ten" x1="750" y1="120" x2="750" y2="1380" stroke="black" stroke-width="2" transform="rotate(80,750,750)">
    </line>
    <line class="degree-line" x1="750" y1="140" x2="750" y2="1360" stroke="#999999" stroke-width="1" transform="rotate(81,750,750)">
    </line>
    <line class="degree-line" x1="750" y1="140" x2="750" y2="1360" stroke="#999999" stroke-width="1" transform="rotate(82,750,750)">
    </line>
    <line class="degree-line" x1="750" y1="140" x2="750" y2="1360" stroke="#999999" stroke-width="1" transform="rotate(83,750,750)">
    </line>
    <line class="degree-line" x1="750" y1="140" x2="750" y2="1360" stroke="#999999" stroke-width="1" transform="rotate(84,750,750)">
    </line>
    <line class="degree-line degree-line-five" x1="750" y1="130" x2="750" y2="1370" stroke="#333333" stroke-width="1" transform="rotate(85,750,750)">
    </line>
    <line class="degree-line" x1="750" y1="140" x2="750" y2="1360" stroke="#999999" stroke-width="1" transform="rotate(86,750,750)">
    </line>
    <line class="degree-line" x1="750" y1="140" x2="750" y2="1360" stroke="#999999" stroke-width="1" transform="rotate(87,750,750)">
    </line>
    <line class="degree-line" x1="750" y1="140" x2="750" y2="1360" stroke="#999999" stroke-width="1" transform="rotate(88,750,750)">
    </line>
    <line class="degree-line" x1="750" y1="140" x2="750" y2="1360" stroke="#999999" stroke-width="1" transform="rotate(89,750,750)">
    </line>
  </g>
    <g class="main-segments">
      <path class="segment segment-1" d="M750,150 A600,600 0 0,1 1050,230.3847577293368 L750,750 Z" transform="rotate(270,750,750)">
      </path>
      <path class="segment segment-2" d="M750,150 A600,600 0 0,1 1050,230.3847577293368 L750,750 Z" transform="rotate(240,750,750)">
      </path>
      <path class="segment segment-3" d="M750,150 A600,600 0 0,1 1050,230.3847577293368 L750,750 Z" transform="rotate(210,750,750)">
      </path>
      <path class="segment segment-4" d="M750,150 A600,600 0 0,1 1050,230.3847577293368 L750,750 Z" transform="rotate(180,750,750)">
      </path>
      <path class="segment segment-5" d="M750,150 A600,600 0 0,1 1050,230.3847577293368 L750,750 Z" transform="rotate(150,750,750)">
      </path>
      <path class="segment segment-6" d="M750,150 A600,600 0 0,1 1050,230.3847577293368 L750,750 Z" transform="rotate(120,750,750)">
      </path>
      <path class="segment segment-7" d="M750,150 A600,600 0 0,1 1050,230.3847577293368 L750,750 Z" transform="rotate(90,750,750)">
      </path>
      <path class="segment segment-8" d="M750,150 A600,600 0 0,1 1050,230.3847577293368 L750,750 Z" transform="rotate(60,750,750)">
      </path>
      <path class="segment segment-9" d="M750,150 A600,600 0 0,1 1050,230.3847577293368 L750,750 Z" transform="rotate(30,750,750)">
      </path>
      <path class="segment segment-10" d="M750,150 A600,600 0 0,1 1050,230.3847577293368 L750,750 Z" fill="#cc0099" transform="rotate(0,750,750)">
      </path>
      <path class="segment segment-11" d="M750,150 A600,600 0 0,1 1050,230.3847577293368 L750,750 Z" transform="rotate(-30,750,750)">
      </path>
      <path class="segment segment-12" d="M750,150 A600,600 0 0,1 1050,230.3847577293368 L750,750 Z" transform="rotate(-60,750,750)">
      </path>
    </g>
    <g class="segment-symbols">
      <g transform="translate(199.0815372781218,884.9386652574116) scale(0.05,0.05)"
        fill="#000000" stroke="none" class="segment-symbol segment-symbol-0">
        <g class="glyph">
        <path d="M560 679 c-35 -6 -53 -18 -82 -50 l-38 -41 -26 31 c-37 44 -75 61
        -137 61 -120 0 -198 -119 -156 -239 6 -17 13 -31 16 -31 3 0 23 10 44 22 29
        16 38 26 33 38 -4 8 -9 34 -12 57 -6 57 28 93 89 93 34 0 47 -6 73 -34 19 -19
        36 -51 42 -77 11 -48 0 -308 -15 -372 l-9 -37 58 0 58 0 -10 37 c-6 21 -11
        124 -12 230 l-1 192 34 34 c79 82 196 36 176 -69 -3 -18 -12 -38 -21 -45 -13
        -11 -8 -16 36 -42 28 -16 54 -27 57 -23 4 3 8 31 11 61 5 64 -16 130 -52 164
        -34 32 -102 49 -156 40z"/>
        </g>
      </g>
      <g transform="translate(344.02020253553343,1135.9797974644666) scale(0.05,0.05)" fill="#000000" stroke="none" class="segment-symbol segment-symbol-1">
        <g class="glyph">
        <path d="M165 653 c13 -54 38 -94 83 -133 25 -22 49 -40 53 -40 5 0 -13 -21
-40 -47 -108 -105 -84 -241 53 -308 157 -77 356 18 356 170 0 63 -38 126 -98
165 l-23 15 44 32 c46 32 90 95 102 146 7 26 6 27 -33 27 -39 0 -40 -1 -46
-42 -14 -84 -115 -148 -212 -133 -77 11 -154 85 -154 146 0 28 -2 29 -46 29
-45 0 -46 0 -39 -27z m355 -218 c116 -61 113 -198 -6 -255 -169 -82 -340 112
-206 233 50 45 148 55 212 22z"/>
        </g>
      </g>
      <g transform="translate(585.0613347425885,1260.9184627218783) scale(0.05,0.05)" fill="#000000" stroke="none" class="segment-symbol segment-symbol-2">
        <g class="glyph">
        <path d="M140 673 c0 -26 46 -79 85 -97 47 -23 55 -47 61 -182 7 -141 -4 -187
-48 -205 -37 -15 -98 -74 -98 -94 0 -11 12 -15 40 -15 33 0 40 3 40 19 0 11
13 30 29 43 92 78 341 56 374 -33 10 -26 16 -29 54 -29 24 0 43 3 43 6 0 26
-48 77 -95 99 -29 15 -55 34 -57 43 -2 9 -1 84 2 166 5 141 6 149 28 165 54
37 94 76 108 102 l15 29 -44 0 c-40 0 -44 -2 -52 -32 -7 -24 -22 -40 -55 -58
-39 -21 -58 -25 -135 -25 -77 0 -98 4 -140 25 -34 18 -55 36 -64 58 -13 28
-19 32 -53 32 -29 0 -38 -4 -38 -17z m364 -180 c8 -53 7 -236 -2 -250 -4 -6
-37 -13 -77 -14 l-70 -3 -3 130 c-4 180 -7 174 77 174 l68 0 7 -37z"/>
        </g>
      </g>
      <g transform="translate(874.9386652574118,1260.9184627218783) scale(0.05,0.05)" fill="#000000" stroke="none" class="segment-symbol segment-symbol-3">
        <g class="glyph">
        <path d="M355 686 c-143 -36 -245 -148 -245 -266 0 -149 197 -193 263 -58 43
88 -28 188 -134 188 -31 0 -31 1 -15 19 33 36 116 64 191 65 83 1 154 -21 226
-70 28 -19 54 -34 58 -34 11 1 42 50 36 59 -9 15 -112 68 -163 85 -68 22 -159
27 -217 12z m-38 -218 c32 -30 31 -81 -2 -113 -72 -73 -178 28 -114 109 27 34
82 36 116 4z"/>
<path d="M561 482 c-93 -50 -91 -182 4 -235 11 -6 40 -14 65 -17 l45 -5 -49
-32 c-66 -44 -143 -59 -225 -44 -64 12 -141 45 -194 85 l-29 21 -24 -30 -23
-29 46 -29 c150 -94 294 -108 430 -41 132 64 201 230 132 318 -44 56 -116 71
-178 38z m110 -61 c33 -33 35 -50 14 -90 -15 -31 -33 -41 -70 -41 -37 0 -55
10 -71 41 -18 36 -10 73 23 99 36 28 70 25 104 -9z"/>
        </g>
      </g>
      <g transform="translate(1125.9797974644666,1115.9797974644666) scale(0.05,0.05)" fill="#000000" stroke="none" class="segment-symbol segment-symbol-4">
        <g class="glyph">
        <path d="M330 665 c-76 -35 -121 -105 -100 -159 5 -15 22 -43 36 -62 l26 -34
-43 0 c-60 -1 -124 -31 -143 -69 -21 -40 -20 -63 5 -95 31 -40 75 -58 139 -58
99 0 160 47 160 124 0 24 -32 87 -76 148 -41 57 -44 96 -10 133 44 48 165 60
223 22 33 -22 55 -71 48 -106 -7 -33 -42 -97 -91 -170 -40 -60 -53 -133 -30
-177 28 -55 70 -75 163 -80 46 -3 83 -2 83 1 0 4 -7 21 -16 39 -15 32 -16 33
-73 30 -54 -3 -60 -1 -81 25 -34 43 -24 99 38 212 79 142 74 211 -18 266 -46
26 -190 32 -240 10z m-13 -329 c57 -67 -48 -137 -137 -91 -54 28 -46 89 15
116 36 16 98 2 122 -25z"/>
        </g>
      </g>
      <g transform="translate(1260.9184627218783,874.9386652574117) scale(0.05,0.05)" fill="#000000" stroke="none" class="segment-symbol segment-symbol-5">
        <g class="glyph">
        <path d="M10 645 c0 -54 1 -55 28 -55 61 0 85 -64 71 -188 -5 -48 -12 -99 -15
-115 -5 -26 -4 -27 40 -27 l47 0 -8 68 c-12 100 -8 203 8 237 30 62 97 67 135
10 19 -29 22 -165 6 -263 l-9 -52 49 0 49 0 -7 48 c-12 75 -9 204 5 245 14 42
35 57 80 57 45 0 61 -30 61 -120 0 -93 21 -192 56 -270 l26 -59 -28 -25 c-16
-14 -35 -26 -41 -26 -7 0 -13 -2 -13 -5 0 -8 40 -85 44 -85 1 0 18 21 36 46
l33 47 34 -42 c19 -22 39 -41 44 -41 4 0 16 14 25 31 l16 32 -41 37 -40 37 34
84 c42 104 61 229 46 301 -15 66 -26 85 -64 108 -43 27 -80 25 -115 -5 l-29
-24 -39 20 c-47 24 -104 20 -145 -10 -28 -21 -28 -21 -61 -2 -57 34 -124 32
-167 -5 l-31 -26 -21 26 c-12 15 -38 36 -60 46 l-39 20 0 -55z m706 -56 c16
-18 19 -37 18 -133 0 -95 -4 -120 -25 -170 -14 -33 -30 -61 -37 -64 -14 -4
-48 67 -68 143 -24 89 -14 186 22 226 23 25 66 24 90 -2z"/>
        </g>
      </g>
      <g transform="translate(1260.9184627218783,585.0613347425883) scale(0.05,0.05)" fill="#000000" stroke="none" class="segment-symbol segment-symbol-6">
        <g class="glyph">
        <path d="M332 659 c-104 -52 -154 -192 -103 -292 22 -43 22 -43 -79 -17 -102
27 -100 27 -100 -27 l0 -46 127 6 c69 4 128 9 130 11 3 2 -5 22 -16 45 -25 47
-27 120 -6 160 20 40 69 79 116 91 33 9 46 8 82 -8 70 -32 100 -72 105 -140 3
-46 0 -68 -18 -101 -12 -24 -20 -44 -18 -46 2 -1 58 -6 126 -10 l122 -7 0 46
c0 25 -2 46 -5 46 -2 0 -43 -9 -91 -20 -48 -11 -89 -18 -92 -15 -3 3 2 20 13
37 23 39 24 128 3 178 -18 42 -86 110 -110 110 -9 0 -20 5 -23 10 -11 19 -117
11 -163 -11z"/>
        <path d="M53 184 c-2 -6 -3 -29 -1 -50 l3 -39 85 5 c128 8 526 6 598 -2 l62
-8 0 52 0 51 -107 -7 c-136 -10 -454 -8 -557 2 -58 6 -79 5 -83 -4z"/>
        </g>
      </g>
      <g transform="translate(1125.9797974644666,339.0202025355334) scale(0.05,0.05)" fill="#000000" stroke="none" class="segment-symbol segment-symbol-7">
        <g class="glyph">
        <path d="M18 665 c-6 -89 -7 -87 19 -80 61 15 94 -89 74 -230 -15 -100 -17
-95 34 -95 l46 0 -8 53 c-13 88 -8 208 11 244 29 57 77 68 122 30 26 -22 27
-28 28 -118 1 -52 -2 -120 -7 -151 l-7 -58 50 0 c50 0 50 0 43 27 -4 16 -7 73
-8 128 0 81 4 108 20 140 18 36 24 40 61 43 35 3 45 -1 63 -24 27 -34 27 -87
0 -184 -39 -140 -42 -184 -18 -232 28 -57 56 -78 103 -78 33 0 46 7 86 48 26
26 52 56 57 66 10 19 11 19 38 -2 16 -12 29 -21 31 -19 2 2 -8 30 -21 63 -14
32 -28 76 -31 97 l-7 38 -36 -34 c-20 -19 -53 -44 -75 -55 l-38 -21 36 -6 c20
-4 36 -11 36 -15 0 -4 -10 -22 -23 -41 -45 -67 -107 -40 -107 47 0 23 11 86
25 140 22 88 24 105 14 154 -15 70 -56 114 -118 125 -35 6 -51 3 -93 -19 l-50
-26 -33 20 c-55 34 -129 25 -181 -22 -21 -19 -21 -19 -38 7 -16 24 -71 65 -88
65 -5 0 -9 -11 -10 -25z"/>
        </g>
      </g>
      <g transform="translate(884.9386652574117,199.0815372781218) scale(0.05,0.05)" fill="#000000" stroke="none" class="segment-symbol segment-symbol-8">
        <g class="glyph">
        <path d="M640 655 c-47 -13 -119 -32 -160 -43 l-75 -20 53 -23 c49 -20 53 -24
47 -48 -7 -28 -132 -161 -152 -161 -12 0 -57 60 -97 131 l-23 39 -38 -33 -39
-33 72 -71 c40 -39 72 -74 72 -79 0 -10 -111 -87 -153 -105 -15 -7 -27 -15
-27 -18 0 -3 16 -24 35 -46 33 -38 35 -39 47 -20 6 11 40 49 74 85 l63 65 30
-35 c17 -19 43 -60 58 -90 14 -30 28 -57 29 -59 4 -5 84 63 84 71 0 4 -9 9
-19 13 -20 6 -131 113 -131 125 0 9 138 123 167 138 35 19 42 15 54 -33 6 -25
15 -47 18 -50 4 -2 16 19 26 48 10 29 38 101 62 160 23 60 43 111 43 113 0 8
-36 1 -120 -21z"/>
        </g>
      </g>
      <g transform="translate(595.0613347425883,199.0815372781218) scale(0.05,0.05)" fill="#000000" stroke="none" class="segment-symbol segment-symbol-9">
        <g class="glyph">
        <path d="M305 679 c-14 -12 -23 -25 -19 -30 13 -21 106 -59 148 -61 26 0 46
-3 46 -6 0 -2 -22 -29 -50 -59 -27 -30 -57 -66 -65 -81 -10 -16 -41 -39 -76
-55 -104 -49 -173 -129 -194 -224 l-7 -33 50 0 49 0 1 42 c2 52 44 121 89 150
l33 20 -6 -45 c-25 -178 205 -280 344 -153 35 31 52 70 52 116 0 51 -21 92
-62 123 -42 32 -67 39 -153 47 l-70 6 90 89 c50 50 104 100 120 112 l30 21
-21 22 -21 21 -36 -21 c-21 -13 -61 -24 -94 -27 -49 -4 -65 -1 -105 21 l-47
25 -26 -20z m226 -299 c143 -40 96 -247 -52 -227 -93 12 -142 102 -105 192 11
25 22 35 43 38 52 8 78 7 114 -3z"/>
        </g>
      </g>
      <g transform="translate(344.02020253553343,344.0202025355334) scale(0.05,0.05)" fill="#000000" stroke="none" class="segment-symbol segment-symbol-10">
        <g class="glyph">
        <path d="M97 612 c-28 -30 -52 -111 -25 -84 21 21 46 13 98 -33 28 -25 56 -45
62 -45 6 0 33 20 59 45 26 25 55 45 63 45 9 0 38 -20 66 -45 28 -25 55 -45 61
-45 6 0 34 20 61 45 28 25 56 45 64 45 7 0 39 -21 70 -46 50 -41 59 -45 79
-34 22 12 92 117 83 125 -2 3 -15 -6 -28 -20 -33 -35 -51 -32 -111 20 -29 25
-59 45 -67 45 -8 0 -33 -20 -55 -45 -47 -52 -73 -56 -108 -19 -13 14 -38 34
-56 45 -38 24 -52 18 -100 -35 -17 -20 -39 -36 -49 -36 -9 0 -42 20 -72 45
-60 50 -72 53 -95 27z"/>
        <path d="M98 303 c-22 -26 -38 -59 -38 -79 0 -14 3 -15 12 -6 22 22 49 13 100
-33 28 -25 54 -45 60 -45 5 0 31 20 57 45 26 25 57 45 67 45 11 0 42 -20 71
-45 28 -25 55 -45 60 -45 5 0 29 20 53 45 27 27 53 45 67 45 12 0 45 -20 73
-45 28 -25 55 -45 59 -45 14 0 72 71 87 106 18 44 18 54 -2 26 -36 -52 -59
-50 -133 13 -24 19 -51 35 -60 35 -9 0 -36 -20 -60 -45 -24 -25 -48 -45 -55
-45 -7 0 -36 20 -65 45 -29 25 -60 45 -70 45 -9 0 -37 -20 -61 -45 -24 -25
-50 -45 -56 -45 -7 0 -36 20 -65 45 -57 49 -78 54 -101 28z"/>
        </g>
      </g>
      <g transform="translate(199.0815372781218,595.0613347425883) scale(0.05,0.05)" fill="#000000" stroke="none" class="segment-symbol segment-symbol-11">
        <g class="glyph">
        <path d="M172 655 c-18 -40 -15 -53 16 -60 60 -13 142 -108 142 -165 0 -18 -6
-20 -55 -20 l-55 0 0 -33 0 -34 55 5 c42 3 55 1 55 -9 0 -25 -47 -113 -71
-136 -28 -26 -89 -53 -119 -53 -16 0 -20 -6 -20 -35 0 -32 3 -35 28 -35 15 0
52 13 82 29 69 35 125 105 147 184 17 59 18 60 78 60 8 0 19 -1 24 -2 6 0 18
-28 27 -62 20 -70 84 -148 152 -187 l41 -23 16 31 c17 33 13 50 -11 50 -34 0
-102 60 -128 112 -39 77 -37 81 34 76 l60 -4 0 35 0 36 -60 -3 -59 -4 8 29
c24 83 84 146 156 164 42 11 45 13 45 45 0 29 -4 34 -22 34 -34 -1 -99 -33
-142 -70 -41 -36 -82 -109 -94 -167 -8 -37 -9 -38 -55 -41 -32 -2 -48 1 -51
10 -37 134 -76 191 -167 242 l-46 26 -11 -25z"/>
        </g>
      </g>
    </g>
  </g>
  <g class="inner-disc">
    <circle class="inner-disc" cx="750" cy="750" r="500" fill="white">
    </circle>
  </g>
  <g class="house-lines-group">
    <polyline points="20,730 0,750 20,770" class="ascendant" fill="none" stroke="red" stroke-width="3">
    </polyline>
  </g>
</g>
  </g>

  <g id="north-indian-chart" class="chart north-indian-chart" stroke="none" fill="none" transform="translate(60,60)" class="european-element">
      <path d="M0,0 L1440,0 L1440,1440 L0,1440 Z" stroke="none" class="shape" />
      <polygon
       id="zone-01"
       class="triangle zone shape"
       points="0,0 720,0 360,360" stroke="none"/>
      <polygon
       id="zone-02"
       class="triangle zone shape"
       points="0,0 0,720 360,360" stroke="none"/>
      <polygon
       id="zone-03"
       class="rect zone shape"
       points="720,0 360,360 720,720 1080,360" stroke="none" fill="yellow" />
       <polygon
       id="zone-04"
       class="triangle zone shape"
       points="0,720 0,1440 360,1080" stroke="none"/>
       <polygon
       id="zone-05"
       class="triangle zone shape"
       points="0,1440 720,1440 360,1080" stroke="none"/>
       <polygon
       id="zone-06"
       class="rect zone shape"
       points="0,720 360,360 720,720 360,1080" stroke="none" fill="yellow" />
       <polygon
       id="zone-07"
       class="triangle zone shape"
       points="720,0 1440,0 1080,360" stroke="none"/>
       <polygon
       id="zone-08"
       class="rect zone shape"
       points="720,1440 360,1080 720,720 1080,1080" stroke="none" fill="yellow" />
      <polygon
       id="zone-09"
       class="triangle zone shape"
       points="1440,720 1440,0 1080,360" stroke="none"/>
       <polygon
       id="zone-10"
       class="rect zone shape"
       points="1440,720 1080,360 720,720 1080,1080" stroke="none" fill="yellow" />
       <polygon
       id="zone-11"
       class="triangle zone shape"
       points="1440,720 1440,1440 1080,1080" stroke="none"/>
       <polygon
       id="zone-12"
       class="triangle zone shape"
       points="720,1440 1440,1440 1080,1080" stroke="none"/>
    </g>
</svg>